<svg width="482" height="390" viewBox="0 0 482 390" fill="none" xmlns="http://www.w3.org/2000/svg">
<rect x="10" y="199.5" width="471" height="190" rx="19.5" fill="url(#paint0_linear_2578_948)" stroke="url(#paint1_linear_2578_948)"/>
<path d="M26.5 339.5C26.5 332.873 31.8726 327.5 38.5 327.5H86.5C93.1274 327.5 98.5 332.873 98.5 339.5C98.5 346.127 93.1274 351.5 86.5 351.5H38.5C31.8726 351.5 26.5 346.127 26.5 339.5Z" fill="#4C5CE5"/>
<path d="M43.1667 345.5V336.833C43.1667 336.657 43.0964 336.487 42.9714 336.362C42.8464 336.237 42.6768 336.167 42.5 336.167H39.1667C38.9899 336.167 38.8203 336.237 38.6953 336.362C38.5702 336.487 38.5 336.657 38.5 336.833V344.833C38.5 345.01 38.5702 345.18 38.6953 345.305C38.8203 345.43 38.9899 345.5 39.1667 345.5H47.1667C47.3435 345.5 47.513 345.43 47.6381 345.305C47.7631 345.18 47.8333 345.01 47.8333 344.833V341.5C47.8333 341.323 47.7631 341.154 47.6381 341.029C47.513 340.904 47.3435 340.833 47.1667 340.833H38.5M46.5 333.5H49.8333C50.2015 333.5 50.5 333.798 50.5 334.167V337.5C50.5 337.868 50.2015 338.167 49.8333 338.167H46.5C46.1318 338.167 45.8333 337.868 45.8333 337.5V334.167C45.8333 333.798 46.1318 333.5 46.5 333.5Z" stroke="white" stroke-width="1.33" stroke-linecap="round" stroke-linejoin="round"/>
<path d="M57.102 339.614C57.102 338.662 57.3167 337.808 57.746 337.052C58.1753 336.287 58.7587 335.689 59.496 335.26C60.2427 334.831 61.0687 334.616 61.974 334.616C63.038 334.616 63.9667 334.873 64.76 335.386C65.5533 335.899 66.132 336.627 66.496 337.57H64.97C64.6993 336.982 64.3073 336.529 63.794 336.212C63.29 335.895 62.6833 335.736 61.974 335.736C61.2927 335.736 60.6813 335.895 60.14 336.212C59.5987 336.529 59.174 336.982 58.866 337.57C58.558 338.149 58.404 338.83 58.404 339.614C58.404 340.389 58.558 341.07 58.866 341.658C59.174 342.237 59.5987 342.685 60.14 343.002C60.6813 343.319 61.2927 343.478 61.974 343.478C62.6833 343.478 63.29 343.324 63.794 343.016C64.3073 342.699 64.6993 342.246 64.97 341.658H66.496C66.132 342.591 65.5533 343.315 64.76 343.828C63.9667 344.332 63.038 344.584 61.974 344.584C61.0687 344.584 60.2427 344.374 59.496 343.954C58.7587 343.525 58.1753 342.932 57.746 342.176C57.3167 341.42 57.102 340.566 57.102 339.614ZM78.2905 334.812V344.5H77.0165V337.276L73.7965 344.5H72.9005L69.6665 337.262V344.5H68.3925V334.812H69.7645L73.3485 342.82L76.9325 334.812H78.2905ZM83.545 344.598C82.901 344.598 82.3224 344.486 81.809 344.262C81.305 344.029 80.9084 343.711 80.619 343.31C80.3297 342.899 80.1804 342.428 80.171 341.896H81.529C81.5757 342.353 81.7624 342.741 82.089 343.058C82.425 343.366 82.9104 343.52 83.545 343.52C84.1517 343.52 84.6277 343.371 84.973 343.072C85.3277 342.764 85.505 342.372 85.505 341.896C85.505 341.523 85.4024 341.219 85.197 340.986C84.9917 340.753 84.735 340.575 84.427 340.454C84.119 340.333 83.7037 340.202 83.181 340.062C82.537 339.894 82.019 339.726 81.627 339.558C81.2444 339.39 80.913 339.129 80.633 338.774C80.3624 338.41 80.227 337.925 80.227 337.318C80.227 336.786 80.3624 336.315 80.633 335.904C80.9037 335.493 81.2817 335.176 81.767 334.952C82.2617 334.728 82.8264 334.616 83.461 334.616C84.3757 334.616 85.1224 334.845 85.701 335.302C86.289 335.759 86.6204 336.366 86.695 337.122H85.295C85.2484 336.749 85.0524 336.422 84.707 336.142C84.3617 335.853 83.9044 335.708 83.335 335.708C82.803 335.708 82.369 335.848 82.033 336.128C81.697 336.399 81.529 336.781 81.529 337.276C81.529 337.631 81.627 337.92 81.823 338.144C82.0284 338.368 82.2757 338.541 82.565 338.662C82.8637 338.774 83.279 338.905 83.811 339.054C84.455 339.231 84.973 339.409 85.365 339.586C85.757 339.754 86.093 340.02 86.373 340.384C86.653 340.739 86.793 341.224 86.793 341.84C86.793 342.316 86.667 342.764 86.415 343.184C86.163 343.604 85.7897 343.945 85.295 344.206C84.8004 344.467 84.217 344.598 83.545 344.598Z" fill="white"/>
<path d="M103.5 339.5C103.5 332.873 108.873 327.5 115.5 327.5H211.5C218.127 327.5 223.5 332.873 223.5 339.5C223.5 346.127 218.127 351.5 211.5 351.5H115.5C108.873 351.5 103.5 346.127 103.5 339.5Z" fill="#4C5CE5"/>
<path d="M114.867 332.867H116.201L117.974 341.147C118.039 341.45 118.208 341.722 118.451 341.914C118.694 342.106 118.997 342.207 119.307 342.201H125.827C126.131 342.2 126.425 342.096 126.661 341.906C126.898 341.715 127.062 341.45 127.127 341.154L128.227 336.201H116.914M119.501 345.5C119.501 345.869 119.202 346.167 118.834 346.167C118.466 346.167 118.167 345.869 118.167 345.5C118.167 345.132 118.466 344.834 118.834 344.834C119.202 344.834 119.501 345.132 119.501 345.5ZM126.834 345.5C126.834 345.869 126.536 346.167 126.167 346.167C125.799 346.167 125.501 345.869 125.501 345.5C125.501 345.132 125.799 344.834 126.167 344.834C126.536 344.834 126.834 345.132 126.834 345.5Z" stroke="white" stroke-width="1.33" stroke-linecap="round" stroke-linejoin="round"/>
<path d="M134.102 339.614C134.102 338.662 134.317 337.808 134.746 337.052C135.175 336.287 135.759 335.689 136.496 335.26C137.243 334.831 138.069 334.616 138.974 334.616C140.038 334.616 140.967 334.873 141.76 335.386C142.553 335.899 143.132 336.627 143.496 337.57H141.97C141.699 336.982 141.307 336.529 140.794 336.212C140.29 335.895 139.683 335.736 138.974 335.736C138.293 335.736 137.681 335.895 137.14 336.212C136.599 336.529 136.174 336.982 135.866 337.57C135.558 338.149 135.404 338.83 135.404 339.614C135.404 340.389 135.558 341.07 135.866 341.658C136.174 342.237 136.599 342.685 137.14 343.002C137.681 343.319 138.293 343.478 138.974 343.478C139.683 343.478 140.29 343.324 140.794 343.016C141.307 342.699 141.699 342.246 141.97 341.658H143.496C143.132 342.591 142.553 343.315 141.76 343.828C140.967 344.332 140.038 344.584 138.974 344.584C138.069 344.584 137.243 344.374 136.496 343.954C135.759 343.525 135.175 342.932 134.746 342.176C134.317 341.42 134.102 340.566 134.102 339.614ZM148.738 344.626C148.02 344.626 147.366 344.463 146.778 344.136C146.2 343.809 145.742 343.347 145.406 342.75C145.08 342.143 144.916 341.443 144.916 340.65C144.916 339.866 145.084 339.175 145.42 338.578C145.766 337.971 146.232 337.509 146.82 337.192C147.408 336.865 148.066 336.702 148.794 336.702C149.522 336.702 150.18 336.865 150.768 337.192C151.356 337.509 151.818 337.967 152.154 338.564C152.5 339.161 152.672 339.857 152.672 340.65C152.672 341.443 152.495 342.143 152.14 342.75C151.795 343.347 151.324 343.809 150.726 344.136C150.129 344.463 149.466 344.626 148.738 344.626ZM148.738 343.506C149.196 343.506 149.625 343.399 150.026 343.184C150.428 342.969 150.75 342.647 150.992 342.218C151.244 341.789 151.37 341.266 151.37 340.65C151.37 340.034 151.249 339.511 151.006 339.082C150.764 338.653 150.446 338.335 150.054 338.13C149.662 337.915 149.238 337.808 148.78 337.808C148.314 337.808 147.884 337.915 147.492 338.13C147.11 338.335 146.802 338.653 146.568 339.082C146.335 339.511 146.218 340.034 146.218 340.65C146.218 341.275 146.33 341.803 146.554 342.232C146.788 342.661 147.096 342.983 147.478 343.198C147.861 343.403 148.281 343.506 148.738 343.506ZM163.574 336.688C164.171 336.688 164.703 336.814 165.17 337.066C165.636 337.309 166.005 337.677 166.276 338.172C166.546 338.667 166.682 339.269 166.682 339.978V344.5H165.422V340.16C165.422 339.395 165.23 338.811 164.848 338.41C164.474 337.999 163.966 337.794 163.322 337.794C162.659 337.794 162.132 338.009 161.74 338.438C161.348 338.858 161.152 339.469 161.152 340.272V344.5H159.892V340.16C159.892 339.395 159.7 338.811 159.318 338.41C158.944 337.999 158.436 337.794 157.792 337.794C157.129 337.794 156.602 338.009 156.21 338.438C155.818 338.858 155.622 339.469 155.622 340.272V344.5H154.348V336.828H155.622V337.934C155.874 337.533 156.21 337.225 156.63 337.01C157.059 336.795 157.53 336.688 158.044 336.688C158.688 336.688 159.257 336.833 159.752 337.122C160.246 337.411 160.615 337.836 160.858 338.396C161.072 337.855 161.427 337.435 161.922 337.136C162.416 336.837 162.967 336.688 163.574 336.688ZM177.997 336.688C178.595 336.688 179.127 336.814 179.593 337.066C180.06 337.309 180.429 337.677 180.699 338.172C180.97 338.667 181.105 339.269 181.105 339.978V344.5H179.845V340.16C179.845 339.395 179.654 338.811 179.271 338.41C178.898 337.999 178.389 337.794 177.745 337.794C177.083 337.794 176.555 338.009 176.163 338.438C175.771 338.858 175.575 339.469 175.575 340.272V344.5H174.315V340.16C174.315 339.395 174.124 338.811 173.741 338.41C173.368 337.999 172.859 337.794 172.215 337.794C171.553 337.794 171.025 338.009 170.633 338.438C170.241 338.858 170.045 339.469 170.045 340.272V344.5H168.771V336.828H170.045V337.934C170.297 337.533 170.633 337.225 171.053 337.01C171.483 336.795 171.954 336.688 172.467 336.688C173.111 336.688 173.681 336.833 174.175 337.122C174.67 337.411 175.039 337.836 175.281 338.396C175.496 337.855 175.851 337.435 176.345 337.136C176.84 336.837 177.391 336.688 177.997 336.688ZM190.195 340.37C190.195 340.613 190.181 340.869 190.153 341.14H184.021C184.068 341.896 184.325 342.489 184.791 342.918C185.267 343.338 185.841 343.548 186.513 343.548C187.064 343.548 187.521 343.422 187.885 343.17C188.259 342.909 188.52 342.563 188.669 342.134H190.041C189.836 342.871 189.425 343.473 188.809 343.94C188.193 344.397 187.428 344.626 186.513 344.626C185.785 344.626 185.132 344.463 184.553 344.136C183.984 343.809 183.536 343.347 183.209 342.75C182.883 342.143 182.719 341.443 182.719 340.65C182.719 339.857 182.878 339.161 183.195 338.564C183.513 337.967 183.956 337.509 184.525 337.192C185.104 336.865 185.767 336.702 186.513 336.702C187.241 336.702 187.885 336.861 188.445 337.178C189.005 337.495 189.435 337.934 189.733 338.494C190.041 339.045 190.195 339.67 190.195 340.37ZM188.879 340.104C188.879 339.619 188.772 339.203 188.557 338.858C188.343 338.503 188.049 338.237 187.675 338.06C187.311 337.873 186.905 337.78 186.457 337.78C185.813 337.78 185.263 337.985 184.805 338.396C184.357 338.807 184.101 339.376 184.035 340.104H188.879ZM193.151 338.074C193.375 337.635 193.692 337.295 194.103 337.052C194.523 336.809 195.031 336.688 195.629 336.688V338.004H195.293C193.865 338.004 193.151 338.779 193.151 340.328V344.5H191.877V336.828H193.151V338.074ZM196.623 340.65C196.623 339.857 196.782 339.166 197.099 338.578C197.417 337.981 197.855 337.519 198.415 337.192C198.985 336.865 199.633 336.702 200.361 336.702C201.304 336.702 202.079 336.931 202.685 337.388C203.301 337.845 203.707 338.48 203.903 339.292H202.531C202.401 338.825 202.144 338.457 201.761 338.186C201.388 337.915 200.921 337.78 200.361 337.78C199.633 337.78 199.045 338.032 198.597 338.536C198.149 339.031 197.925 339.735 197.925 340.65C197.925 341.574 198.149 342.288 198.597 342.792C199.045 343.296 199.633 343.548 200.361 343.548C200.921 343.548 201.388 343.417 201.761 343.156C202.135 342.895 202.391 342.521 202.531 342.036H203.903C203.698 342.82 203.287 343.45 202.671 343.926C202.055 344.393 201.285 344.626 200.361 344.626C199.633 344.626 198.985 344.463 198.415 344.136C197.855 343.809 197.417 343.347 197.099 342.75C196.782 342.153 196.623 341.453 196.623 340.65ZM212.603 340.37C212.603 340.613 212.589 340.869 212.561 341.14H206.429C206.476 341.896 206.733 342.489 207.199 342.918C207.675 343.338 208.249 343.548 208.921 343.548C209.472 343.548 209.929 343.422 210.293 343.17C210.667 342.909 210.928 342.563 211.077 342.134H212.449C212.244 342.871 211.833 343.473 211.217 343.94C210.601 344.397 209.836 344.626 208.921 344.626C208.193 344.626 207.54 344.463 206.961 344.136C206.392 343.809 205.944 343.347 205.617 342.75C205.291 342.143 205.127 341.443 205.127 340.65C205.127 339.857 205.286 339.161 205.603 338.564C205.921 337.967 206.364 337.509 206.933 337.192C207.512 336.865 208.175 336.702 208.921 336.702C209.649 336.702 210.293 336.861 210.853 337.178C211.413 337.495 211.843 337.934 212.141 338.494C212.449 339.045 212.603 339.67 212.603 340.37ZM211.287 340.104C211.287 339.619 211.18 339.203 210.965 338.858C210.751 338.503 210.457 338.237 210.083 338.06C209.719 337.873 209.313 337.78 208.865 337.78C208.221 337.78 207.671 337.985 207.213 338.396C206.765 338.807 206.509 339.376 206.443 340.104H211.287Z" fill="white"/>
<path d="M228.5 339.5C228.5 332.873 233.873 327.5 240.5 327.5H288.5C295.127 327.5 300.5 332.873 300.5 339.5C300.5 346.127 295.127 351.5 288.5 351.5H240.5C233.873 351.5 228.5 346.127 228.5 339.5Z" fill="#4C5CE5"/>
<path d="M245.167 345.5V336.833C245.167 336.657 245.096 336.487 244.971 336.362C244.846 336.237 244.677 336.167 244.5 336.167H241.167C240.99 336.167 240.82 336.237 240.695 336.362C240.57 336.487 240.5 336.657 240.5 336.833V344.833C240.5 345.01 240.57 345.18 240.695 345.305C240.82 345.43 240.99 345.5 241.167 345.5H249.167C249.343 345.5 249.513 345.43 249.638 345.305C249.763 345.18 249.833 345.01 249.833 344.833V341.5C249.833 341.323 249.763 341.154 249.638 341.029C249.513 340.904 249.343 340.833 249.167 340.833H240.5M248.5 333.5H251.833C252.202 333.5 252.5 333.798 252.5 334.167V337.5C252.5 337.868 252.202 338.167 251.833 338.167H248.5C248.132 338.167 247.833 337.868 247.833 337.5V334.167C247.833 333.798 248.132 333.5 248.5 333.5Z" stroke="white" stroke-width="1.33" stroke-linecap="round" stroke-linejoin="round"/>
<path d="M259.102 339.614C259.102 338.662 259.317 337.808 259.746 337.052C260.175 336.287 260.759 335.689 261.496 335.26C262.243 334.831 263.069 334.616 263.974 334.616C265.038 334.616 265.967 334.873 266.76 335.386C267.553 335.899 268.132 336.627 268.496 337.57H266.97C266.699 336.982 266.307 336.529 265.794 336.212C265.29 335.895 264.683 335.736 263.974 335.736C263.293 335.736 262.681 335.895 262.14 336.212C261.599 336.529 261.174 336.982 260.866 337.57C260.558 338.149 260.404 338.83 260.404 339.614C260.404 340.389 260.558 341.07 260.866 341.658C261.174 342.237 261.599 342.685 262.14 343.002C262.681 343.319 263.293 343.478 263.974 343.478C264.683 343.478 265.29 343.324 265.794 343.016C266.307 342.699 266.699 342.246 266.97 341.658H268.496C268.132 342.591 267.553 343.315 266.76 343.828C265.967 344.332 265.038 344.584 263.974 344.584C263.069 344.584 262.243 344.374 261.496 343.954C260.759 343.525 260.175 342.932 259.746 342.176C259.317 341.42 259.102 340.566 259.102 339.614ZM275.53 344.5L273.206 340.51H271.666V344.5H270.392V334.742H273.542C274.28 334.742 274.9 334.868 275.404 335.12C275.918 335.372 276.3 335.713 276.552 336.142C276.804 336.571 276.93 337.061 276.93 337.612C276.93 338.284 276.734 338.877 276.342 339.39C275.96 339.903 275.381 340.244 274.606 340.412L277.056 344.5H275.53ZM271.666 339.488H273.542C274.233 339.488 274.751 339.32 275.096 338.984C275.442 338.639 275.614 338.181 275.614 337.612C275.614 337.033 275.442 336.585 275.096 336.268C274.76 335.951 274.242 335.792 273.542 335.792H271.666V339.488ZM288.808 334.812V344.5H287.534V337.276L284.314 344.5H283.418L280.184 337.262V344.5H278.91V334.812H280.282L283.866 342.82L287.45 334.812H288.808Z" fill="white"/>
<path d="M305.5 339.5C305.5 332.873 310.873 327.5 317.5 327.5H357.5C364.127 327.5 369.5 332.873 369.5 339.5C369.5 346.127 364.127 351.5 357.5 351.5H317.5C310.873 351.5 305.5 346.127 305.5 339.5Z" fill="#4C5CE5"/>
<path d="M322.167 345.5V336.833C322.167 336.657 322.096 336.487 321.971 336.362C321.846 336.237 321.677 336.167 321.5 336.167H318.167C317.99 336.167 317.82 336.237 317.695 336.362C317.57 336.487 317.5 336.657 317.5 336.833V344.833C317.5 345.01 317.57 345.18 317.695 345.305C317.82 345.43 317.99 345.5 318.167 345.5H326.167C326.343 345.5 326.513 345.43 326.638 345.305C326.763 345.18 326.833 345.01 326.833 344.833V341.5C326.833 341.323 326.763 341.154 326.638 341.029C326.513 340.904 326.343 340.833 326.167 340.833H317.5M325.5 333.5H328.833C329.202 333.5 329.5 333.798 329.5 334.167V337.5C329.5 337.868 329.202 338.167 328.833 338.167H325.5C325.132 338.167 324.833 337.868 324.833 337.5V334.167C324.833 333.798 325.132 333.5 325.5 333.5Z" stroke="white" stroke-width="1.33" stroke-linecap="round" stroke-linejoin="round"/>
<path d="M337.852 335.778V339.04H341.408V340.09H337.852V343.45H341.828V344.5H336.578V334.728H341.828V335.778H337.852ZM348.894 344.5L346.57 340.51H345.03V344.5H343.756V334.742H346.906C347.643 334.742 348.264 334.868 348.768 335.12C349.281 335.372 349.664 335.713 349.916 336.142C350.168 336.571 350.294 337.061 350.294 337.612C350.294 338.284 350.098 338.877 349.706 339.39C349.323 339.903 348.744 340.244 347.97 340.412L350.42 344.5H348.894ZM345.03 339.488H346.906C347.596 339.488 348.114 339.32 348.46 338.984C348.805 338.639 348.978 338.181 348.978 337.612C348.978 337.033 348.805 336.585 348.46 336.268C348.124 335.951 347.606 335.792 346.906 335.792H345.03V339.488ZM358.797 337.598C358.797 338.41 358.517 339.087 357.957 339.628C357.407 340.16 356.562 340.426 355.423 340.426H353.547V344.5H352.273V334.742H355.423C356.525 334.742 357.36 335.008 357.929 335.54C358.508 336.072 358.797 336.758 358.797 337.598ZM355.423 339.376C356.133 339.376 356.655 339.222 356.991 338.914C357.327 338.606 357.495 338.167 357.495 337.598C357.495 336.394 356.805 335.792 355.423 335.792H353.547V339.376H355.423Z" fill="white"/>
<path d="M374.5 339.5C374.5 332.873 379.873 327.5 386.5 327.5H452.5C459.127 327.5 464.5 332.873 464.5 339.5C464.5 346.127 459.127 351.5 452.5 351.5H386.5C379.873 351.5 374.5 346.127 374.5 339.5Z" fill="#4C5CE5"/>
<path d="M391.167 345.5V336.833C391.167 336.657 391.096 336.487 390.971 336.362C390.846 336.237 390.677 336.167 390.5 336.167H387.167C386.99 336.167 386.82 336.237 386.695 336.362C386.57 336.487 386.5 336.657 386.5 336.833V344.833C386.5 345.01 386.57 345.18 386.695 345.305C386.82 345.43 386.99 345.5 387.167 345.5H395.167C395.343 345.5 395.513 345.43 395.638 345.305C395.763 345.18 395.833 345.01 395.833 344.833V341.5C395.833 341.323 395.763 341.154 395.638 341.029C395.513 340.904 395.343 340.833 395.167 340.833H386.5M394.5 333.5H397.833C398.202 333.5 398.5 333.798 398.5 334.167V337.5C398.5 337.868 398.202 338.167 397.833 338.167H394.5C394.132 338.167 393.833 337.868 393.833 337.5V334.167C393.833 333.798 394.132 333.5 394.5 333.5Z" stroke="white" stroke-width="1.33" stroke-linecap="round" stroke-linejoin="round"/>
<path d="M408.672 344.598C408.028 344.598 407.449 344.486 406.936 344.262C406.432 344.029 406.035 343.711 405.746 343.31C405.457 342.899 405.307 342.428 405.298 341.896H406.656C406.703 342.353 406.889 342.741 407.216 343.058C407.552 343.366 408.037 343.52 408.672 343.52C409.279 343.52 409.755 343.371 410.1 343.072C410.455 342.764 410.632 342.372 410.632 341.896C410.632 341.523 410.529 341.219 410.324 340.986C410.119 340.753 409.862 340.575 409.554 340.454C409.246 340.333 408.831 340.202 408.308 340.062C407.664 339.894 407.146 339.726 406.754 339.558C406.371 339.39 406.04 339.129 405.76 338.774C405.489 338.41 405.354 337.925 405.354 337.318C405.354 336.786 405.489 336.315 405.76 335.904C406.031 335.493 406.409 335.176 406.894 334.952C407.389 334.728 407.953 334.616 408.588 334.616C409.503 334.616 410.249 334.845 410.828 335.302C411.416 335.759 411.747 336.366 411.822 337.122H410.422C410.375 336.749 410.179 336.422 409.834 336.142C409.489 335.853 409.031 335.708 408.462 335.708C407.93 335.708 407.496 335.848 407.16 336.128C406.824 336.399 406.656 336.781 406.656 337.276C406.656 337.631 406.754 337.92 406.95 338.144C407.155 338.368 407.403 338.541 407.692 338.662C407.991 338.774 408.406 338.905 408.938 339.054C409.582 339.231 410.1 339.409 410.492 339.586C410.884 339.754 411.22 340.02 411.5 340.384C411.78 340.739 411.92 341.224 411.92 341.84C411.92 342.316 411.794 342.764 411.542 343.184C411.29 343.604 410.917 343.945 410.422 344.206C409.927 344.467 409.344 344.598 408.672 344.598ZM420.795 340.37C420.795 340.613 420.781 340.869 420.753 341.14H414.621C414.667 341.896 414.924 342.489 415.391 342.918C415.867 343.338 416.441 343.548 417.113 343.548C417.663 343.548 418.121 343.422 418.485 343.17C418.858 342.909 419.119 342.563 419.269 342.134H420.641C420.435 342.871 420.025 343.473 419.409 343.94C418.793 344.397 418.027 344.626 417.113 344.626C416.385 344.626 415.731 344.463 415.153 344.136C414.583 343.809 414.135 343.347 413.809 342.75C413.482 342.143 413.319 341.443 413.319 340.65C413.319 339.857 413.477 339.161 413.795 338.564C414.112 337.967 414.555 337.509 415.125 337.192C415.703 336.865 416.366 336.702 417.113 336.702C417.841 336.702 418.485 336.861 419.045 337.178C419.605 337.495 420.034 337.934 420.333 338.494C420.641 339.045 420.795 339.67 420.795 340.37ZM419.479 340.104C419.479 339.619 419.371 339.203 419.157 338.858C418.942 338.503 418.648 338.237 418.275 338.06C417.911 337.873 417.505 337.78 417.057 337.78C416.413 337.78 415.862 337.985 415.405 338.396C414.957 338.807 414.7 339.376 414.635 340.104H419.479ZM422 340.636C422 339.852 422.159 339.166 422.476 338.578C422.794 337.981 423.228 337.519 423.778 337.192C424.338 336.865 424.959 336.702 425.64 336.702C426.312 336.702 426.896 336.847 427.39 337.136C427.885 337.425 428.254 337.789 428.496 338.228V336.828H429.784V344.5H428.496V343.072C428.244 343.52 427.866 343.893 427.362 344.192C426.868 344.481 426.289 344.626 425.626 344.626C424.945 344.626 424.329 344.458 423.778 344.122C423.228 343.786 422.794 343.315 422.476 342.708C422.159 342.101 422 341.411 422 340.636ZM428.496 340.65C428.496 340.071 428.38 339.567 428.146 339.138C427.913 338.709 427.596 338.382 427.194 338.158C426.802 337.925 426.368 337.808 425.892 337.808C425.416 337.808 424.982 337.92 424.59 338.144C424.198 338.368 423.886 338.695 423.652 339.124C423.419 339.553 423.302 340.057 423.302 340.636C423.302 341.224 423.419 341.737 423.652 342.176C423.886 342.605 424.198 342.937 424.59 343.17C424.982 343.394 425.416 343.506 425.892 343.506C426.368 343.506 426.802 343.394 427.194 343.17C427.596 342.937 427.913 342.605 428.146 342.176C428.38 341.737 428.496 341.229 428.496 340.65ZM433.211 338.074C433.435 337.635 433.753 337.295 434.163 337.052C434.583 336.809 435.092 336.688 435.689 336.688V338.004H435.353C433.925 338.004 433.211 338.779 433.211 340.328V344.5H431.937V336.828H433.211V338.074ZM436.684 340.65C436.684 339.857 436.843 339.166 437.16 338.578C437.477 337.981 437.916 337.519 438.476 337.192C439.045 336.865 439.694 336.702 440.422 336.702C441.365 336.702 442.139 336.931 442.746 337.388C443.362 337.845 443.768 338.48 443.964 339.292H442.592C442.461 338.825 442.205 338.457 441.822 338.186C441.449 337.915 440.982 337.78 440.422 337.78C439.694 337.78 439.106 338.032 438.658 338.536C438.21 339.031 437.986 339.735 437.986 340.65C437.986 341.574 438.21 342.288 438.658 342.792C439.106 343.296 439.694 343.548 440.422 343.548C440.982 343.548 441.449 343.417 441.822 343.156C442.195 342.895 442.452 342.521 442.592 342.036H443.964C443.759 342.82 443.348 343.45 442.732 343.926C442.116 344.393 441.346 344.626 440.422 344.626C439.694 344.626 439.045 344.463 438.476 344.136C437.916 343.809 437.477 343.347 437.16 342.75C436.843 342.153 436.684 341.453 436.684 340.65ZM449.472 336.688C450.051 336.688 450.573 336.814 451.04 337.066C451.507 337.309 451.871 337.677 452.132 338.172C452.403 338.667 452.538 339.269 452.538 339.978V344.5H451.278V340.16C451.278 339.395 451.087 338.811 450.704 338.41C450.321 337.999 449.799 337.794 449.136 337.794C448.464 337.794 447.927 338.004 447.526 338.424C447.134 338.844 446.938 339.455 446.938 340.258V344.5H445.664V334.14H446.938V337.92C447.19 337.528 447.535 337.225 447.974 337.01C448.422 336.795 448.921 336.688 449.472 336.688Z" fill="white"/>
<path d="M26.5 294C26.5 287.373 31.8726 282 38.5 282H452.5C459.127 282 464.5 287.373 464.5 294C464.5 300.627 459.127 306 452.5 306H38.5C31.8726 306 26.5 300.627 26.5 294Z" fill="url(#paint2_linear_2578_948)"/>
<path d="M179.167 295.334C179.041 295.334 178.917 295.299 178.81 295.232C178.703 295.165 178.618 295.069 178.563 294.955C178.509 294.841 178.488 294.714 178.503 294.589C178.517 294.464 178.568 294.345 178.647 294.247L185.247 287.447C185.296 287.39 185.364 287.351 185.438 287.338C185.513 287.324 185.589 287.336 185.656 287.371C185.723 287.407 185.775 287.464 185.805 287.534C185.835 287.603 185.84 287.681 185.82 287.754L184.54 291.767C184.503 291.868 184.49 291.977 184.503 292.084C184.517 292.191 184.556 292.293 184.618 292.381C184.679 292.47 184.762 292.542 184.857 292.592C184.953 292.642 185.059 292.667 185.167 292.667H189.834C189.96 292.667 190.083 292.702 190.19 292.769C190.297 292.836 190.383 292.932 190.437 293.046C190.492 293.16 190.513 293.287 190.498 293.412C190.483 293.537 190.433 293.656 190.354 293.754L183.754 300.554C183.704 300.611 183.637 300.65 183.562 300.663C183.488 300.677 183.411 300.665 183.345 300.629C183.278 300.594 183.225 300.537 183.195 300.467C183.166 300.398 183.16 300.32 183.18 300.247L184.46 296.234C184.498 296.133 184.511 296.024 184.497 295.917C184.484 295.81 184.445 295.708 184.383 295.619C184.321 295.531 184.239 295.459 184.143 295.409C184.048 295.359 183.941 295.333 183.834 295.334H179.167Z" stroke="white" stroke-width="1.33" stroke-linecap="round" stroke-linejoin="round"/>
<path d="M198.852 289.242V299H197.578V289.242H198.852ZM204.761 291.188C205.695 291.188 206.451 291.473 207.029 292.042C207.608 292.602 207.897 293.414 207.897 294.478V299H206.637V294.66C206.637 293.895 206.446 293.311 206.063 292.91C205.681 292.499 205.158 292.294 204.495 292.294C203.823 292.294 203.287 292.504 202.885 292.924C202.493 293.344 202.297 293.955 202.297 294.758V299H201.023V291.328H202.297V292.42C202.549 292.028 202.89 291.725 203.319 291.51C203.758 291.295 204.239 291.188 204.761 291.188ZM211.532 292.378V296.9C211.532 297.273 211.612 297.539 211.77 297.698C211.929 297.847 212.204 297.922 212.596 297.922H213.534V299H212.386C211.677 299 211.145 298.837 210.79 298.51C210.436 298.183 210.258 297.647 210.258 296.9V292.378H209.264V291.328H210.258V289.396H211.532V291.328H213.534V292.378H211.532ZM222.078 294.87C222.078 295.113 222.064 295.369 222.036 295.64H215.904C215.951 296.396 216.207 296.989 216.674 297.418C217.15 297.838 217.724 298.048 218.396 298.048C218.947 298.048 219.404 297.922 219.768 297.67C220.141 297.409 220.403 297.063 220.552 296.634H221.924C221.719 297.371 221.308 297.973 220.692 298.44C220.076 298.897 219.311 299.126 218.396 299.126C217.668 299.126 217.015 298.963 216.436 298.636C215.867 298.309 215.419 297.847 215.092 297.25C214.765 296.643 214.602 295.943 214.602 295.15C214.602 294.357 214.761 293.661 215.078 293.064C215.395 292.467 215.839 292.009 216.408 291.692C216.987 291.365 217.649 291.202 218.396 291.202C219.124 291.202 219.768 291.361 220.328 291.678C220.888 291.995 221.317 292.434 221.616 292.994C221.924 293.545 222.078 294.17 222.078 294.87ZM220.762 294.604C220.762 294.119 220.655 293.703 220.44 293.358C220.225 293.003 219.931 292.737 219.558 292.56C219.194 292.373 218.788 292.28 218.34 292.28C217.696 292.28 217.145 292.485 216.688 292.896C216.24 293.307 215.983 293.876 215.918 294.604H220.762ZM226.924 291.202C227.586 291.202 228.165 291.347 228.66 291.636C229.164 291.925 229.537 292.289 229.78 292.728V291.328H231.068V299.168C231.068 299.868 230.918 300.489 230.62 301.03C230.321 301.581 229.892 302.01 229.332 302.318C228.781 302.626 228.137 302.78 227.4 302.78C226.392 302.78 225.552 302.542 224.88 302.066C224.208 301.59 223.811 300.941 223.69 300.12H224.95C225.09 300.587 225.379 300.96 225.818 301.24C226.256 301.529 226.784 301.674 227.4 301.674C228.1 301.674 228.669 301.455 229.108 301.016C229.556 300.577 229.78 299.961 229.78 299.168V297.558C229.528 298.006 229.154 298.379 228.66 298.678C228.165 298.977 227.586 299.126 226.924 299.126C226.242 299.126 225.622 298.958 225.062 298.622C224.511 298.286 224.077 297.815 223.76 297.208C223.442 296.601 223.284 295.911 223.284 295.136C223.284 294.352 223.442 293.666 223.76 293.078C224.077 292.481 224.511 292.019 225.062 291.692C225.622 291.365 226.242 291.202 226.924 291.202ZM229.78 295.15C229.78 294.571 229.663 294.067 229.43 293.638C229.196 293.209 228.879 292.882 228.478 292.658C228.086 292.425 227.652 292.308 227.176 292.308C226.7 292.308 226.266 292.42 225.874 292.644C225.482 292.868 225.169 293.195 224.936 293.624C224.702 294.053 224.586 294.557 224.586 295.136C224.586 295.724 224.702 296.237 224.936 296.676C225.169 297.105 225.482 297.437 225.874 297.67C226.266 297.894 226.7 298.006 227.176 298.006C227.652 298.006 228.086 297.894 228.478 297.67C228.879 297.437 229.196 297.105 229.43 296.676C229.663 296.237 229.78 295.729 229.78 295.15ZM234.495 292.574C234.719 292.135 235.036 291.795 235.447 291.552C235.867 291.309 236.375 291.188 236.973 291.188V292.504H236.637C235.209 292.504 234.495 293.279 234.495 294.828V299H233.221V291.328H234.495V292.574ZM237.967 295.136C237.967 294.352 238.126 293.666 238.443 293.078C238.761 292.481 239.195 292.019 239.745 291.692C240.305 291.365 240.926 291.202 241.607 291.202C242.279 291.202 242.863 291.347 243.357 291.636C243.852 291.925 244.221 292.289 244.463 292.728V291.328H245.751V299H244.463V297.572C244.211 298.02 243.833 298.393 243.329 298.692C242.835 298.981 242.256 299.126 241.593 299.126C240.912 299.126 240.296 298.958 239.745 298.622C239.195 298.286 238.761 297.815 238.443 297.208C238.126 296.601 237.967 295.911 237.967 295.136ZM244.463 295.15C244.463 294.571 244.347 294.067 244.113 293.638C243.88 293.209 243.563 292.882 243.161 292.658C242.769 292.425 242.335 292.308 241.859 292.308C241.383 292.308 240.949 292.42 240.557 292.644C240.165 292.868 239.853 293.195 239.619 293.624C239.386 294.053 239.269 294.557 239.269 295.136C239.269 295.724 239.386 296.237 239.619 296.676C239.853 297.105 240.165 297.437 240.557 297.67C240.949 297.894 241.383 298.006 241.859 298.006C242.335 298.006 242.769 297.894 243.161 297.67C243.563 297.437 243.88 297.105 244.113 296.676C244.347 296.237 244.463 295.729 244.463 295.15ZM249.458 292.378V296.9C249.458 297.273 249.538 297.539 249.696 297.698C249.855 297.847 250.13 297.922 250.522 297.922H251.46V299H250.312C249.603 299 249.071 298.837 248.716 298.51C248.362 298.183 248.184 297.647 248.184 296.9V292.378H247.19V291.328H248.184V289.396H249.458V291.328H251.46V292.378H249.458ZM253.662 290.082C253.419 290.082 253.214 289.998 253.046 289.83C252.878 289.662 252.794 289.457 252.794 289.214C252.794 288.971 252.878 288.766 253.046 288.598C253.214 288.43 253.419 288.346 253.662 288.346C253.895 288.346 254.091 288.43 254.25 288.598C254.418 288.766 254.502 288.971 254.502 289.214C254.502 289.457 254.418 289.662 254.25 289.83C254.091 289.998 253.895 290.082 253.662 290.082ZM254.278 291.328V299H253.004V291.328H254.278ZM259.795 299.126C259.076 299.126 258.423 298.963 257.835 298.636C257.256 298.309 256.799 297.847 256.463 297.25C256.136 296.643 255.973 295.943 255.973 295.15C255.973 294.366 256.141 293.675 256.477 293.078C256.822 292.471 257.289 292.009 257.877 291.692C258.465 291.365 259.123 291.202 259.851 291.202C260.579 291.202 261.237 291.365 261.825 291.692C262.413 292.009 262.875 292.467 263.211 293.064C263.556 293.661 263.729 294.357 263.729 295.15C263.729 295.943 263.552 296.643 263.197 297.25C262.852 297.847 262.38 298.309 261.783 298.636C261.186 298.963 260.523 299.126 259.795 299.126ZM259.795 298.006C260.252 298.006 260.682 297.899 261.083 297.684C261.484 297.469 261.806 297.147 262.049 296.718C262.301 296.289 262.427 295.766 262.427 295.15C262.427 294.534 262.306 294.011 262.063 293.582C261.82 293.153 261.503 292.835 261.111 292.63C260.719 292.415 260.294 292.308 259.837 292.308C259.37 292.308 258.941 292.415 258.549 292.63C258.166 292.835 257.858 293.153 257.625 293.582C257.392 294.011 257.275 294.534 257.275 295.15C257.275 295.775 257.387 296.303 257.611 296.732C257.844 297.161 258.152 297.483 258.535 297.698C258.918 297.903 259.338 298.006 259.795 298.006ZM269.142 291.188C270.076 291.188 270.832 291.473 271.41 292.042C271.989 292.602 272.278 293.414 272.278 294.478V299H271.018V294.66C271.018 293.895 270.827 293.311 270.444 292.91C270.062 292.499 269.539 292.294 268.876 292.294C268.204 292.294 267.668 292.504 267.266 292.924C266.874 293.344 266.678 293.955 266.678 294.758V299H265.404V291.328H266.678V292.42C266.93 292.028 267.271 291.725 267.7 291.51C268.139 291.295 268.62 291.188 269.142 291.188ZM279.366 297.964H282.782V299H278.092V289.242H279.366V297.964ZM283.659 295.136C283.659 294.352 283.817 293.666 284.135 293.078C284.452 292.481 284.886 292.019 285.437 291.692C285.997 291.365 286.617 291.202 287.299 291.202C287.971 291.202 288.554 291.347 289.049 291.636C289.543 291.925 289.912 292.289 290.155 292.728V291.328H291.443V299H290.155V297.572C289.903 298.02 289.525 298.393 289.021 298.692C288.526 298.981 287.947 299.126 287.285 299.126C286.603 299.126 285.987 298.958 285.437 298.622C284.886 298.286 284.452 297.815 284.135 297.208C283.817 296.601 283.659 295.911 283.659 295.136ZM290.155 295.15C290.155 294.571 290.038 294.067 289.805 293.638C289.571 293.209 289.254 292.882 288.853 292.658C288.461 292.425 288.027 292.308 287.551 292.308C287.075 292.308 286.641 292.42 286.249 292.644C285.857 292.868 285.544 293.195 285.311 293.624C285.077 294.053 284.961 294.557 284.961 295.136C284.961 295.724 285.077 296.237 285.311 296.676C285.544 297.105 285.857 297.437 286.249 297.67C286.641 297.894 287.075 298.006 287.551 298.006C288.027 298.006 288.461 297.894 288.853 297.67C289.254 297.437 289.571 297.105 289.805 296.676C290.038 296.237 290.155 295.729 290.155 295.15ZM300.204 291.328L295.584 302.612H294.268L295.78 298.916L292.686 291.328H294.1L296.508 297.544L298.888 291.328H300.204ZM308.484 294.87C308.484 295.113 308.47 295.369 308.442 295.64H302.31C302.357 296.396 302.614 296.989 303.08 297.418C303.556 297.838 304.13 298.048 304.802 298.048C305.353 298.048 305.81 297.922 306.174 297.67C306.548 297.409 306.809 297.063 306.958 296.634H308.33C308.125 297.371 307.714 297.973 307.098 298.44C306.482 298.897 305.717 299.126 304.802 299.126C304.074 299.126 303.421 298.963 302.842 298.636C302.273 298.309 301.825 297.847 301.498 297.25C301.172 296.643 301.008 295.943 301.008 295.15C301.008 294.357 301.167 293.661 301.484 293.064C301.802 292.467 302.245 292.009 302.814 291.692C303.393 291.365 304.056 291.202 304.802 291.202C305.53 291.202 306.174 291.361 306.734 291.678C307.294 291.995 307.724 292.434 308.022 292.994C308.33 293.545 308.484 294.17 308.484 294.87ZM307.168 294.604C307.168 294.119 307.061 293.703 306.846 293.358C306.632 293.003 306.338 292.737 305.964 292.56C305.6 292.373 305.194 292.28 304.746 292.28C304.102 292.28 303.552 292.485 303.094 292.896C302.646 293.307 302.39 293.876 302.324 294.604H307.168ZM311.44 292.574C311.664 292.135 311.981 291.795 312.392 291.552C312.812 291.309 313.321 291.188 313.918 291.188V292.504H313.582C312.154 292.504 311.44 293.279 311.44 294.828V299H310.166V291.328H311.44V292.574Z" fill="white"/>
<path d="M123 248.5C123 241.873 128.373 236.5 135 236.5H183C189.627 236.5 195 241.873 195 248.5C195 255.127 189.627 260.5 183 260.5H135C128.373 260.5 123 255.127 123 248.5Z" fill="#4C5CE5"/>
<path d="M139.667 254.5V245.833C139.667 245.657 139.596 245.487 139.471 245.362C139.346 245.237 139.177 245.167 139 245.167H135.667C135.49 245.167 135.32 245.237 135.195 245.362C135.07 245.487 135 245.657 135 245.833V253.833C135 254.01 135.07 254.18 135.195 254.305C135.32 254.43 135.49 254.5 135.667 254.5H143.667C143.843 254.5 144.013 254.43 144.138 254.305C144.263 254.18 144.333 254.01 144.333 253.833V250.5C144.333 250.323 144.263 250.154 144.138 250.029C144.013 249.904 143.843 249.833 143.667 249.833H135M143 242.5H146.333C146.702 242.5 147 242.798 147 243.167V246.5C147 246.868 146.702 247.167 146.333 247.167H143C142.632 247.167 142.333 246.868 142.333 246.5V243.167C142.333 242.798 142.632 242.5 143 242.5Z" stroke="white" stroke-width="1.33" stroke-linecap="round" stroke-linejoin="round"/>
<path d="M166.342 243.742L163.514 253.5H162.086L159.818 245.646L157.466 253.5L156.052 253.514L153.322 243.742H154.68L156.808 252.016L159.16 243.742H160.588L162.828 251.988L164.97 243.742H166.342ZM174.736 249.37C174.736 249.613 174.722 249.869 174.694 250.14H168.562C168.609 250.896 168.866 251.489 169.332 251.918C169.808 252.338 170.382 252.548 171.054 252.548C171.605 252.548 172.062 252.422 172.426 252.17C172.8 251.909 173.061 251.563 173.21 251.134H174.582C174.377 251.871 173.966 252.473 173.35 252.94C172.734 253.397 171.969 253.626 171.054 253.626C170.326 253.626 169.673 253.463 169.094 253.136C168.525 252.809 168.077 252.347 167.75 251.75C167.424 251.143 167.26 250.443 167.26 249.65C167.26 248.857 167.419 248.161 167.736 247.564C168.054 246.967 168.497 246.509 169.066 246.192C169.645 245.865 170.308 245.702 171.054 245.702C171.782 245.702 172.426 245.861 172.986 246.178C173.546 246.495 173.976 246.934 174.274 247.494C174.582 248.045 174.736 248.67 174.736 249.37ZM173.42 249.104C173.42 248.619 173.313 248.203 173.098 247.858C172.884 247.503 172.59 247.237 172.216 247.06C171.852 246.873 171.446 246.78 170.998 246.78C170.354 246.78 169.804 246.985 169.346 247.396C168.898 247.807 168.642 248.376 168.576 249.104H173.42ZM177.692 247.256C177.953 246.799 178.336 246.425 178.84 246.136C179.344 245.847 179.918 245.702 180.562 245.702C181.253 245.702 181.873 245.865 182.424 246.192C182.975 246.519 183.409 246.981 183.726 247.578C184.043 248.166 184.202 248.852 184.202 249.636C184.202 250.411 184.043 251.101 183.726 251.708C183.409 252.315 182.97 252.786 182.41 253.122C181.859 253.458 181.243 253.626 180.562 253.626C179.899 253.626 179.316 253.481 178.812 253.192C178.317 252.903 177.944 252.534 177.692 252.086V253.5H176.418V243.14H177.692V247.256ZM182.9 249.636C182.9 249.057 182.783 248.553 182.55 248.124C182.317 247.695 181.999 247.368 181.598 247.144C181.206 246.92 180.772 246.808 180.296 246.808C179.829 246.808 179.395 246.925 178.994 247.158C178.602 247.382 178.285 247.713 178.042 248.152C177.809 248.581 177.692 249.081 177.692 249.65C177.692 250.229 177.809 250.737 178.042 251.176C178.285 251.605 178.602 251.937 178.994 252.17C179.395 252.394 179.829 252.506 180.296 252.506C180.772 252.506 181.206 252.394 181.598 252.17C181.999 251.937 182.317 251.605 182.55 251.176C182.783 250.737 182.9 250.224 182.9 249.636Z" fill="white"/>
<path d="M200 248.5C200 241.873 205.373 236.5 212 236.5H275C281.627 236.5 287 241.873 287 248.5C287 255.127 281.627 260.5 275 260.5H212C205.373 260.5 200 255.127 200 248.5Z" fill="#4C5CE5"/>
<path d="M211.367 241.867H212.701L214.474 250.147C214.539 250.45 214.708 250.722 214.951 250.914C215.194 251.106 215.497 251.207 215.807 251.201H222.327C222.631 251.2 222.925 251.096 223.161 250.906C223.398 250.715 223.562 250.45 223.627 250.154L224.727 245.201H213.414M216.001 254.5C216.001 254.869 215.702 255.167 215.334 255.167C214.966 255.167 214.667 254.869 214.667 254.5C214.667 254.132 214.966 253.834 215.334 253.834C215.702 253.834 216.001 254.132 216.001 254.5ZM223.334 254.5C223.334 254.869 223.036 255.167 222.667 255.167C222.299 255.167 222.001 254.869 222.001 254.5C222.001 254.132 222.299 253.834 222.667 253.834C223.036 253.834 223.334 254.132 223.334 254.5Z" stroke="white" stroke-width="1.33" stroke-linecap="round" stroke-linejoin="round"/>
<path d="M240.976 243.812V253.5H239.702V246.276L236.482 253.5H235.586L232.352 246.262V253.5H231.078V243.812H232.45L236.034 251.82L239.618 243.812H240.976ZM246.483 253.626C245.764 253.626 245.111 253.463 244.523 253.136C243.944 252.809 243.487 252.347 243.151 251.75C242.824 251.143 242.661 250.443 242.661 249.65C242.661 248.866 242.829 248.175 243.165 247.578C243.51 246.971 243.977 246.509 244.565 246.192C245.153 245.865 245.811 245.702 246.539 245.702C247.267 245.702 247.925 245.865 248.513 246.192C249.101 246.509 249.563 246.967 249.899 247.564C250.244 248.161 250.417 248.857 250.417 249.65C250.417 250.443 250.239 251.143 249.885 251.75C249.539 252.347 249.068 252.809 248.471 253.136C247.873 253.463 247.211 253.626 246.483 253.626ZM246.483 252.506C246.94 252.506 247.369 252.399 247.771 252.184C248.172 251.969 248.494 251.647 248.737 251.218C248.989 250.789 249.115 250.266 249.115 249.65C249.115 249.034 248.993 248.511 248.751 248.082C248.508 247.653 248.191 247.335 247.799 247.13C247.407 246.915 246.982 246.808 246.525 246.808C246.058 246.808 245.629 246.915 245.237 247.13C244.854 247.335 244.546 247.653 244.313 248.082C244.079 248.511 243.963 249.034 243.963 249.65C243.963 250.275 244.075 250.803 244.299 251.232C244.532 251.661 244.84 251.983 245.223 252.198C245.605 252.403 246.025 252.506 246.483 252.506ZM253.366 247.256C253.627 246.799 254.01 246.425 254.514 246.136C255.018 245.847 255.592 245.702 256.236 245.702C256.926 245.702 257.547 245.865 258.098 246.192C258.648 246.519 259.082 246.981 259.4 247.578C259.717 248.166 259.876 248.852 259.876 249.636C259.876 250.411 259.717 251.101 259.4 251.708C259.082 252.315 258.644 252.786 258.084 253.122C257.533 253.458 256.917 253.626 256.236 253.626C255.573 253.626 254.99 253.481 254.486 253.192C253.991 252.903 253.618 252.534 253.366 252.086V253.5H252.092V243.14H253.366V247.256ZM258.574 249.636C258.574 249.057 258.457 248.553 258.224 248.124C257.99 247.695 257.673 247.368 257.272 247.144C256.88 246.92 256.446 246.808 255.97 246.808C255.503 246.808 255.069 246.925 254.668 247.158C254.276 247.382 253.958 247.713 253.716 248.152C253.482 248.581 253.366 249.081 253.366 249.65C253.366 250.229 253.482 250.737 253.716 251.176C253.958 251.605 254.276 251.937 254.668 252.17C255.069 252.394 255.503 252.506 255.97 252.506C256.446 252.506 256.88 252.394 257.272 252.17C257.673 251.937 257.99 251.605 258.224 251.176C258.457 250.737 258.574 250.224 258.574 249.636ZM262.211 244.582C261.968 244.582 261.763 244.498 261.595 244.33C261.427 244.162 261.343 243.957 261.343 243.714C261.343 243.471 261.427 243.266 261.595 243.098C261.763 242.93 261.968 242.846 262.211 242.846C262.444 242.846 262.64 242.93 262.799 243.098C262.967 243.266 263.051 243.471 263.051 243.714C263.051 243.957 262.967 244.162 262.799 244.33C262.64 244.498 262.444 244.582 262.211 244.582ZM262.827 245.828V253.5H261.553V245.828H262.827ZM266.272 243.14V253.5H264.998V243.14H266.272ZM275.443 249.37C275.443 249.613 275.429 249.869 275.401 250.14H269.269C269.316 250.896 269.573 251.489 270.039 251.918C270.515 252.338 271.089 252.548 271.761 252.548C272.312 252.548 272.769 252.422 273.133 252.17C273.507 251.909 273.768 251.563 273.917 251.134H275.289C275.084 251.871 274.673 252.473 274.057 252.94C273.441 253.397 272.676 253.626 271.761 253.626C271.033 253.626 270.38 253.463 269.801 253.136C269.232 252.809 268.784 252.347 268.457 251.75C268.131 251.143 267.967 250.443 267.967 249.65C267.967 248.857 268.126 248.161 268.443 247.564C268.761 246.967 269.204 246.509 269.773 246.192C270.352 245.865 271.015 245.702 271.761 245.702C272.489 245.702 273.133 245.861 273.693 246.178C274.253 246.495 274.683 246.934 274.981 247.494C275.289 248.045 275.443 248.67 275.443 249.37ZM274.127 249.104C274.127 248.619 274.02 248.203 273.805 247.858C273.591 247.503 273.297 247.237 272.923 247.06C272.559 246.873 272.153 246.78 271.705 246.78C271.061 246.78 270.511 246.985 270.053 247.396C269.605 247.807 269.349 248.376 269.283 249.104H274.127Z" fill="white"/>
<path d="M292 248.5C292 241.873 297.373 236.5 304 236.5H356C362.627 236.5 368 241.873 368 248.5C368 255.127 362.627 260.5 356 260.5H304C297.373 260.5 292 255.127 292 248.5Z" fill="#4C5CE5"/>
<path d="M308.667 254.5V245.833C308.667 245.657 308.596 245.487 308.471 245.362C308.346 245.237 308.177 245.167 308 245.167H304.667C304.49 245.167 304.32 245.237 304.195 245.362C304.07 245.487 304 245.657 304 245.833V253.833C304 254.01 304.07 254.18 304.195 254.305C304.32 254.43 304.49 254.5 304.667 254.5H312.667C312.843 254.5 313.013 254.43 313.138 254.305C313.263 254.18 313.333 254.01 313.333 253.833V250.5C313.333 250.323 313.263 250.154 313.138 250.029C313.013 249.904 312.843 249.833 312.667 249.833H304M312 242.5H315.333C315.702 242.5 316 242.798 316 243.167V246.5C316 246.868 315.702 247.167 315.333 247.167H312C311.632 247.167 311.333 246.868 311.333 246.5V243.167C311.333 242.798 311.632 242.5 312 242.5Z" stroke="white" stroke-width="1.33" stroke-linecap="round" stroke-linejoin="round"/>
<path d="M328.846 251.33H324.59L323.806 253.5H322.462L325.99 243.798H327.46L330.974 253.5H329.63L328.846 251.33ZM328.482 250.294L326.718 245.366L324.954 250.294H328.482ZM333.786 247.242C334.038 246.803 334.411 246.439 334.906 246.15C335.41 245.851 335.993 245.702 336.656 245.702C337.337 245.702 337.953 245.865 338.504 246.192C339.064 246.519 339.502 246.981 339.82 247.578C340.137 248.166 340.296 248.852 340.296 249.636C340.296 250.411 340.137 251.101 339.82 251.708C339.502 252.315 339.064 252.786 338.504 253.122C337.953 253.458 337.337 253.626 336.656 253.626C336.002 253.626 335.424 253.481 334.92 253.192C334.425 252.893 334.047 252.525 333.786 252.086V257.14H332.512V245.828H333.786V247.242ZM338.994 249.636C338.994 249.057 338.877 248.553 338.644 248.124C338.41 247.695 338.093 247.368 337.692 247.144C337.3 246.92 336.866 246.808 336.39 246.808C335.923 246.808 335.489 246.925 335.088 247.158C334.696 247.382 334.378 247.713 334.136 248.152C333.902 248.581 333.786 249.081 333.786 249.65C333.786 250.229 333.902 250.737 334.136 251.176C334.378 251.605 334.696 251.937 335.088 252.17C335.489 252.394 335.923 252.506 336.39 252.506C336.866 252.506 337.3 252.394 337.692 252.17C338.093 251.937 338.41 251.605 338.644 251.176C338.877 250.737 338.994 250.224 338.994 249.636ZM343.247 247.242C343.499 246.803 343.872 246.439 344.367 246.15C344.871 245.851 345.454 245.702 346.117 245.702C346.798 245.702 347.414 245.865 347.965 246.192C348.525 246.519 348.963 246.981 349.281 247.578C349.598 248.166 349.757 248.852 349.757 249.636C349.757 250.411 349.598 251.101 349.281 251.708C348.963 252.315 348.525 252.786 347.965 253.122C347.414 253.458 346.798 253.626 346.117 253.626C345.463 253.626 344.885 253.481 344.381 253.192C343.886 252.893 343.508 252.525 343.247 252.086V257.14H341.973V245.828H343.247V247.242ZM348.455 249.636C348.455 249.057 348.338 248.553 348.105 248.124C347.871 247.695 347.554 247.368 347.153 247.144C346.761 246.92 346.327 246.808 345.851 246.808C345.384 246.808 344.95 246.925 344.549 247.158C344.157 247.382 343.839 247.713 343.597 248.152C343.363 248.581 343.247 249.081 343.247 249.65C343.247 250.229 343.363 250.737 343.597 251.176C343.839 251.605 344.157 251.937 344.549 252.17C344.95 252.394 345.384 252.506 345.851 252.506C346.327 252.506 346.761 252.394 347.153 252.17C347.554 251.937 347.871 251.605 348.105 251.176C348.338 250.737 348.455 250.224 348.455 249.636ZM354.149 253.626C353.561 253.626 353.034 253.528 352.567 253.332C352.101 253.127 351.732 252.847 351.461 252.492C351.191 252.128 351.041 251.713 351.013 251.246H352.329C352.367 251.629 352.544 251.941 352.861 252.184C353.188 252.427 353.613 252.548 354.135 252.548C354.621 252.548 355.003 252.441 355.283 252.226C355.563 252.011 355.703 251.741 355.703 251.414C355.703 251.078 355.554 250.831 355.255 250.672C354.957 250.504 354.495 250.341 353.869 250.182C353.3 250.033 352.833 249.883 352.469 249.734C352.115 249.575 351.807 249.347 351.545 249.048C351.293 248.74 351.167 248.339 351.167 247.844C351.167 247.452 351.284 247.093 351.517 246.766C351.751 246.439 352.082 246.183 352.511 245.996C352.941 245.8 353.431 245.702 353.981 245.702C354.831 245.702 355.517 245.917 356.039 246.346C356.562 246.775 356.842 247.363 356.879 248.11H355.605C355.577 247.709 355.414 247.387 355.115 247.144C354.826 246.901 354.434 246.78 353.939 246.78C353.482 246.78 353.118 246.878 352.847 247.074C352.577 247.27 352.441 247.527 352.441 247.844C352.441 248.096 352.521 248.306 352.679 248.474C352.847 248.633 353.053 248.763 353.295 248.866C353.547 248.959 353.893 249.067 354.331 249.188C354.882 249.337 355.33 249.487 355.675 249.636C356.021 249.776 356.315 249.991 356.557 250.28C356.809 250.569 356.94 250.947 356.949 251.414C356.949 251.834 356.833 252.212 356.599 252.548C356.366 252.884 356.035 253.15 355.605 253.346C355.185 253.533 354.7 253.626 354.149 253.626Z" fill="white"/>
<rect x="0.5" y="191" width="32" height="32" rx="16" fill="white"/>
<path d="M13.5 207L15.5 209L19.5 205M26.5 207C26.5 212.523 22.0228 217 16.5 217C10.9772 217 6.5 212.523 6.5 207C6.5 201.477 10.9772 197 16.5 197C22.0228 197 26.5 201.477 26.5 207Z" stroke="#21D99A" stroke-width="1.33" stroke-linecap="round" stroke-linejoin="round"/>
<rect x="10" y="13.5" width="471" height="140" rx="19.5" fill="url(#paint3_linear_2578_948)" stroke="url(#paint4_linear_2578_948)"/>
<path d="M209.5 119C209.5 112.373 214.873 107 221.5 107H269.5C276.127 107 281.5 112.373 281.5 119C281.5 125.627 276.127 131 269.5 131H221.5C214.873 131 209.5 125.627 209.5 119Z" fill="#4C5CE5"/>
<path d="M226.167 125V116.333C226.167 116.157 226.096 115.987 225.971 115.862C225.846 115.737 225.677 115.667 225.5 115.667H222.167C221.99 115.667 221.82 115.737 221.695 115.862C221.57 115.987 221.5 116.157 221.5 116.333V124.333C221.5 124.51 221.57 124.68 221.695 124.805C221.82 124.93 221.99 125 222.167 125H230.167C230.343 125 230.513 124.93 230.638 124.805C230.763 124.68 230.833 124.51 230.833 124.333V121C230.833 120.823 230.763 120.654 230.638 120.529C230.513 120.404 230.343 120.333 230.167 120.333H221.5M229.5 113H232.833C233.202 113 233.5 113.298 233.5 113.667V117C233.5 117.368 233.202 117.667 232.833 117.667H229.5C229.132 117.667 228.833 117.368 228.833 117V113.667C228.833 113.298 229.132 113 229.5 113Z" stroke="white" stroke-width="1.33" stroke-linecap="round" stroke-linejoin="round"/>
<path d="M240.102 119.114C240.102 118.162 240.317 117.308 240.746 116.552C241.175 115.787 241.759 115.189 242.496 114.76C243.243 114.331 244.069 114.116 244.974 114.116C246.038 114.116 246.967 114.373 247.76 114.886C248.553 115.399 249.132 116.127 249.496 117.07H247.97C247.699 116.482 247.307 116.029 246.794 115.712C246.29 115.395 245.683 115.236 244.974 115.236C244.293 115.236 243.681 115.395 243.14 115.712C242.599 116.029 242.174 116.482 241.866 117.07C241.558 117.649 241.404 118.33 241.404 119.114C241.404 119.889 241.558 120.57 241.866 121.158C242.174 121.737 242.599 122.185 243.14 122.502C243.681 122.819 244.293 122.978 244.974 122.978C245.683 122.978 246.29 122.824 246.794 122.516C247.307 122.199 247.699 121.746 247.97 121.158H249.496C249.132 122.091 248.553 122.815 247.76 123.328C246.967 123.832 246.038 124.084 244.974 124.084C244.069 124.084 243.243 123.874 242.496 123.454C241.759 123.025 241.175 122.432 240.746 121.676C240.317 120.92 240.102 120.066 240.102 119.114ZM261.29 114.312V124H260.016V116.776L256.796 124H255.9L252.666 116.762V124H251.392V114.312H252.764L256.348 122.32L259.932 114.312H261.29ZM266.545 124.098C265.901 124.098 265.322 123.986 264.809 123.762C264.305 123.529 263.908 123.211 263.619 122.81C263.33 122.399 263.18 121.928 263.171 121.396H264.529C264.576 121.853 264.762 122.241 265.089 122.558C265.425 122.866 265.91 123.02 266.545 123.02C267.152 123.02 267.628 122.871 267.973 122.572C268.328 122.264 268.505 121.872 268.505 121.396C268.505 121.023 268.402 120.719 268.197 120.486C267.992 120.253 267.735 120.075 267.427 119.954C267.119 119.833 266.704 119.702 266.181 119.562C265.537 119.394 265.019 119.226 264.627 119.058C264.244 118.89 263.913 118.629 263.633 118.274C263.362 117.91 263.227 117.425 263.227 116.818C263.227 116.286 263.362 115.815 263.633 115.404C263.904 114.993 264.282 114.676 264.767 114.452C265.262 114.228 265.826 114.116 266.461 114.116C267.376 114.116 268.122 114.345 268.701 114.802C269.289 115.259 269.62 115.866 269.695 116.622H268.295C268.248 116.249 268.052 115.922 267.707 115.642C267.362 115.353 266.904 115.208 266.335 115.208C265.803 115.208 265.369 115.348 265.033 115.628C264.697 115.899 264.529 116.281 264.529 116.776C264.529 117.131 264.627 117.42 264.823 117.644C265.028 117.868 265.276 118.041 265.565 118.162C265.864 118.274 266.279 118.405 266.811 118.554C267.455 118.731 267.973 118.909 268.365 119.086C268.757 119.254 269.093 119.52 269.373 119.884C269.653 120.239 269.793 120.724 269.793 121.34C269.793 121.816 269.667 122.264 269.415 122.684C269.163 123.104 268.79 123.445 268.295 123.706C267.8 123.967 267.217 124.098 266.545 124.098Z" fill="white"/>
<path d="M246 66C246 65.7239 245.776 65.5 245.5 65.5C245.224 65.5 245 65.7239 245 66L245.5 66L246 66ZM245.146 103.354C245.342 103.549 245.658 103.549 245.854 103.354L249.036 100.172C249.231 99.9763 249.231 99.6597 249.036 99.4645C248.84 99.2692 248.524 99.2692 248.328 99.4645L245.5 102.293L242.672 99.4645C242.476 99.2692 242.16 99.2692 241.964 99.4645C241.769 99.6597 241.769 99.9763 241.964 100.172L245.146 103.354ZM245.5 66L245 66L245 67.0278L245.5 67.0278L246 67.0278L246 66L245.5 66ZM245.5 69.0833L245 69.0833L245 71.1389L245.5 71.1389L246 71.1389L246 69.0833L245.5 69.0833ZM245.5 73.1944L245 73.1944L245 75.25L245.5 75.25L246 75.25L246 73.1944L245.5 73.1944ZM245.5 77.3056L245 77.3056L245 79.3611L245.5 79.3611L246 79.3611L246 77.3056L245.5 77.3056ZM245.5 81.4167L245 81.4167L245 83.4722L245.5 83.4722L246 83.4722L246 81.4167L245.5 81.4167ZM245.5 85.5278L245 85.5278L245 87.5833L245.5 87.5833L246 87.5833L246 85.5278L245.5 85.5278ZM245.5 89.6389L245 89.6389L245 91.6944L245.5 91.6944L246 91.6944L246 89.6389L245.5 89.6389ZM245.5 93.75L245 93.75L245 95.8056L245.5 95.8056L246 95.8056L246 93.75L245.5 93.75ZM245.5 97.8611L245 97.8611L245 99.9167L245.5 99.9167L246 99.9167L246 97.8611L245.5 97.8611ZM245.5 101.972L245 101.972L245 103L245.5 103L246 103L246 101.972L245.5 101.972ZM246 66C246 65.7239 245.776 65.5 245.5 65.5C245.224 65.5 245 65.7239 245 66L245.5 66L246 66ZM245.146 103.354C245.342 103.549 245.658 103.549 245.854 103.354L249.036 100.172C249.231 99.9763 249.231 99.6597 249.036 99.4645C248.84 99.2692 248.524 99.2692 248.328 99.4645L245.5 102.293L242.672 99.4645C242.476 99.2692 242.16 99.2692 241.964 99.4645C241.769 99.6597 241.769 99.9763 241.964 100.172L245.146 103.354ZM245.5 66L245 66L245 67.0278L245.5 67.0278L246 67.0278L246 66L245.5 66ZM245.5 69.0833L245 69.0833L245 71.1389L245.5 71.1389L246 71.1389L246 69.0833L245.5 69.0833ZM245.5 73.1944L245 73.1944L245 75.25L245.5 75.25L246 75.25L246 73.1944L245.5 73.1944ZM245.5 77.3056L245 77.3056L245 79.3611L245.5 79.3611L246 79.3611L246 77.3056L245.5 77.3056ZM245.5 81.4167L245 81.4167L245 83.4722L245.5 83.4722L246 83.4722L246 81.4167L245.5 81.4167ZM245.5 85.5278L245 85.5278L245 87.5833L245.5 87.5833L246 87.5833L246 85.5278L245.5 85.5278ZM245.5 89.6389L245 89.6389L245 91.6944L245.5 91.6944L246 91.6944L246 89.6389L245.5 89.6389ZM245.5 93.75L245 93.75L245 95.8056L245.5 95.8056L246 95.8056L246 93.75L245.5 93.75ZM245.5 97.8611L245 97.8611L245 99.9167L245.5 99.9167L246 99.9167L246 97.8611L245.5 97.8611ZM245.5 101.972L245 101.972L245 103L245.5 103L246 103L246 101.972L245.5 101.972Z" fill="#4C5CE5"/>
<path d="M168.5 48C168.5 41.3726 173.873 36 180.5 36H310.5C317.127 36 322.5 41.3726 322.5 48C322.5 54.6274 317.127 60 310.5 60H180.5C173.873 60 168.5 54.6274 168.5 48Z" fill="#4C5CE5"/>
<path d="M185.167 54V45.3333C185.167 45.1565 185.096 44.987 184.971 44.8619C184.846 44.7369 184.677 44.6667 184.5 44.6667H181.167C180.99 44.6667 180.82 44.7369 180.695 44.8619C180.57 44.987 180.5 45.1565 180.5 45.3333V53.3333C180.5 53.5101 180.57 53.6797 180.695 53.8047C180.82 53.9298 180.99 54 181.167 54H189.167C189.343 54 189.513 53.9298 189.638 53.8047C189.763 53.6797 189.833 53.5101 189.833 53.3333V50C189.833 49.8232 189.763 49.6536 189.638 49.5286C189.513 49.4036 189.343 49.3333 189.167 49.3333H180.5M188.5 42H191.833C192.202 42 192.5 42.2985 192.5 42.6667V46C192.5 46.3682 192.202 46.6667 191.833 46.6667H188.5C188.132 46.6667 187.833 46.3682 187.833 46V42.6667C187.833 42.2985 188.132 42 188.5 42Z" stroke="white" stroke-width="1.33" stroke-linecap="round" stroke-linejoin="round"/>
<path d="M209.476 43.312V53H208.202V45.776L204.982 53H204.086L200.852 45.762V53H199.578V43.312H200.95L204.534 51.32L208.118 43.312H209.476ZM211.161 49.136C211.161 48.352 211.319 47.666 211.637 47.078C211.954 46.4807 212.388 46.0187 212.939 45.692C213.499 45.3653 214.119 45.202 214.801 45.202C215.473 45.202 216.056 45.3467 216.551 45.636C217.045 45.9253 217.414 46.2893 217.657 46.728V45.328H218.945V53H217.657V51.572C217.405 52.02 217.027 52.3933 216.523 52.692C216.028 52.9813 215.449 53.126 214.787 53.126C214.105 53.126 213.489 52.958 212.939 52.622C212.388 52.286 211.954 51.8147 211.637 51.208C211.319 50.6013 211.161 49.9107 211.161 49.136ZM217.657 49.15C217.657 48.5713 217.54 48.0673 217.307 47.638C217.073 47.2087 216.756 46.882 216.355 46.658C215.963 46.4247 215.529 46.308 215.053 46.308C214.577 46.308 214.143 46.42 213.751 46.644C213.359 46.868 213.046 47.1947 212.813 47.624C212.579 48.0533 212.463 48.5573 212.463 49.136C212.463 49.724 212.579 50.2373 212.813 50.676C213.046 51.1053 213.359 51.4367 213.751 51.67C214.143 51.894 214.577 52.006 215.053 52.006C215.529 52.006 215.963 51.894 216.355 51.67C216.756 51.4367 217.073 51.1053 217.307 50.676C217.54 50.2373 217.657 49.7287 217.657 49.15ZM222.372 46.574C222.596 46.1353 222.913 45.7947 223.324 45.552C223.744 45.3093 224.252 45.188 224.85 45.188V46.504H224.514C223.086 46.504 222.372 47.2787 222.372 48.828V53H221.098V45.328H222.372V46.574ZM230.604 53L227.594 49.612V53H226.32V42.64H227.594V48.73L230.548 45.328H232.326L228.714 49.15L232.34 53H230.604ZM240.525 48.87C240.525 49.1127 240.511 49.3693 240.483 49.64H234.351C234.398 50.396 234.655 50.9887 235.121 51.418C235.597 51.838 236.171 52.048 236.843 52.048C237.394 52.048 237.851 51.922 238.215 51.67C238.589 51.4087 238.85 51.0633 238.999 50.634H240.371C240.166 51.3713 239.755 51.9733 239.139 52.44C238.523 52.8973 237.758 53.126 236.843 53.126C236.115 53.126 235.462 52.9627 234.883 52.636C234.314 52.3093 233.866 51.8473 233.539 51.25C233.213 50.6433 233.049 49.9433 233.049 49.15C233.049 48.3567 233.208 47.6613 233.525 47.064C233.843 46.4667 234.286 46.0093 234.855 45.692C235.434 45.3653 236.097 45.202 236.843 45.202C237.571 45.202 238.215 45.3607 238.775 45.678C239.335 45.9953 239.765 46.434 240.063 46.994C240.371 47.5447 240.525 48.17 240.525 48.87ZM239.209 48.604C239.209 48.1187 239.102 47.7033 238.887 47.358C238.673 47.0033 238.379 46.7373 238.005 46.56C237.641 46.3733 237.235 46.28 236.787 46.28C236.143 46.28 235.593 46.4853 235.135 46.896C234.687 47.3067 234.431 47.876 234.365 48.604H239.209ZM243.761 46.378V50.9C243.761 51.2733 243.84 51.5393 243.999 51.698C244.158 51.8473 244.433 51.922 244.825 51.922H245.763V53H244.615C243.906 53 243.374 52.8367 243.019 52.51C242.664 52.1833 242.487 51.6467 242.487 50.9V46.378H241.493V45.328H242.487V43.396H243.761V45.328H245.763V46.378H243.761ZM247.965 44.082C247.722 44.082 247.517 43.998 247.349 43.83C247.181 43.662 247.097 43.4567 247.097 43.214C247.097 42.9713 247.181 42.766 247.349 42.598C247.517 42.43 247.722 42.346 247.965 42.346C248.198 42.346 248.394 42.43 248.553 42.598C248.721 42.766 248.805 42.9713 248.805 43.214C248.805 43.4567 248.721 43.662 248.553 43.83C248.394 43.998 248.198 44.082 247.965 44.082ZM248.581 45.328V53H247.307V45.328H248.581ZM254.49 45.188C255.423 45.188 256.179 45.4727 256.758 46.042C257.336 46.602 257.626 47.414 257.626 48.478V53H256.366V48.66C256.366 47.8947 256.174 47.3113 255.792 46.91C255.409 46.4993 254.886 46.294 254.224 46.294C253.552 46.294 253.015 46.504 252.614 46.924C252.222 47.344 252.026 47.9553 252.026 48.758V53H250.752V45.328H252.026V46.42C252.278 46.028 252.618 45.7247 253.048 45.51C253.486 45.2953 253.967 45.188 254.49 45.188ZM262.871 45.202C263.534 45.202 264.112 45.3467 264.607 45.636C265.111 45.9253 265.484 46.2893 265.727 46.728V45.328H267.015V53.168C267.015 53.868 266.866 54.4887 266.567 55.03C266.268 55.5807 265.839 56.01 265.279 56.318C264.728 56.626 264.084 56.78 263.347 56.78C262.339 56.78 261.499 56.542 260.827 56.066C260.155 55.59 259.758 54.9413 259.637 54.12H260.897C261.037 54.5867 261.326 54.96 261.765 55.24C262.204 55.5293 262.731 55.674 263.347 55.674C264.047 55.674 264.616 55.4547 265.055 55.016C265.503 54.5773 265.727 53.9613 265.727 53.168V51.558C265.475 52.006 265.102 52.3793 264.607 52.678C264.112 52.9767 263.534 53.126 262.871 53.126C262.19 53.126 261.569 52.958 261.009 52.622C260.458 52.286 260.024 51.8147 259.707 51.208C259.39 50.6013 259.231 49.9107 259.231 49.136C259.231 48.352 259.39 47.666 259.707 47.078C260.024 46.4807 260.458 46.0187 261.009 45.692C261.569 45.3653 262.19 45.202 262.871 45.202ZM265.727 49.15C265.727 48.5713 265.61 48.0673 265.377 47.638C265.144 47.2087 264.826 46.882 264.425 46.658C264.033 46.4247 263.599 46.308 263.123 46.308C262.647 46.308 262.213 46.42 261.821 46.644C261.429 46.868 261.116 47.1947 260.883 47.624C260.65 48.0533 260.533 48.5573 260.533 49.136C260.533 49.724 260.65 50.2373 260.883 50.676C261.116 51.1053 261.429 51.4367 261.821 51.67C262.213 51.894 262.647 52.006 263.123 52.006C263.599 52.006 264.033 51.894 264.425 51.67C264.826 51.4367 265.144 51.1053 265.377 50.676C265.61 50.2373 265.727 49.7287 265.727 49.15ZM279.424 46.098C279.424 46.91 279.144 47.5867 278.584 48.128C278.034 48.66 277.189 48.926 276.05 48.926H274.174V53H272.9V43.242H276.05C277.152 43.242 277.987 43.508 278.556 44.04C279.135 44.572 279.424 45.258 279.424 46.098ZM276.05 47.876C276.76 47.876 277.282 47.722 277.618 47.414C277.954 47.106 278.122 46.6673 278.122 46.098C278.122 44.894 277.432 44.292 276.05 44.292H274.174V47.876H276.05ZM284.354 53.126C283.635 53.126 282.982 52.9627 282.394 52.636C281.815 52.3093 281.358 51.8473 281.022 51.25C280.695 50.6433 280.532 49.9433 280.532 49.15C280.532 48.366 280.7 47.6753 281.036 47.078C281.381 46.4713 281.848 46.0093 282.436 45.692C283.024 45.3653 283.682 45.202 284.41 45.202C285.138 45.202 285.796 45.3653 286.384 45.692C286.972 46.0093 287.434 46.4667 287.77 47.064C288.115 47.6613 288.288 48.3567 288.288 49.15C288.288 49.9433 288.11 50.6433 287.756 51.25C287.41 51.8473 286.939 52.3093 286.342 52.636C285.744 52.9627 285.082 53.126 284.354 53.126ZM284.354 52.006C284.811 52.006 285.24 51.8987 285.642 51.684C286.043 51.4693 286.365 51.1473 286.608 50.718C286.86 50.2887 286.986 49.766 286.986 49.15C286.986 48.534 286.864 48.0113 286.622 47.582C286.379 47.1527 286.062 46.8353 285.67 46.63C285.278 46.4153 284.853 46.308 284.396 46.308C283.929 46.308 283.5 46.4153 283.108 46.63C282.725 46.8353 282.417 47.1527 282.184 47.582C281.95 48.0113 281.834 48.534 281.834 49.15C281.834 49.7753 281.946 50.3027 282.17 50.732C282.403 51.1613 282.711 51.4833 283.094 51.698C283.476 51.9033 283.896 52.006 284.354 52.006ZM291.237 46.574C291.461 46.1353 291.778 45.7947 292.189 45.552C292.609 45.3093 293.117 45.188 293.715 45.188V46.504H293.379C291.951 46.504 291.237 47.2787 291.237 48.828V53H289.963V45.328H291.237V46.574ZM296.739 46.378V50.9C296.739 51.2733 296.819 51.5393 296.977 51.698C297.136 51.8473 297.411 51.922 297.803 51.922H298.741V53H297.593C296.884 53 296.352 52.8367 295.997 52.51C295.643 52.1833 295.465 51.6467 295.465 50.9V46.378H294.471V45.328H295.465V43.396H296.739V45.328H298.741V46.378H296.739ZM299.809 49.136C299.809 48.352 299.968 47.666 300.285 47.078C300.602 46.4807 301.036 46.0187 301.587 45.692C302.147 45.3653 302.768 45.202 303.449 45.202C304.121 45.202 304.704 45.3467 305.199 45.636C305.694 45.9253 306.062 46.2893 306.305 46.728V45.328H307.593V53H306.305V51.572C306.053 52.02 305.675 52.3933 305.171 52.692C304.676 52.9813 304.098 53.126 303.435 53.126C302.754 53.126 302.138 52.958 301.587 52.622C301.036 52.286 300.602 51.8147 300.285 51.208C299.968 50.6013 299.809 49.9107 299.809 49.136ZM306.305 49.15C306.305 48.5713 306.188 48.0673 305.955 47.638C305.722 47.2087 305.404 46.882 305.003 46.658C304.611 46.4247 304.177 46.308 303.701 46.308C303.225 46.308 302.791 46.42 302.399 46.644C302.007 46.868 301.694 47.1947 301.461 47.624C301.228 48.0533 301.111 48.5573 301.111 49.136C301.111 49.724 301.228 50.2373 301.461 50.676C301.694 51.1053 302.007 51.4367 302.399 51.67C302.791 51.894 303.225 52.006 303.701 52.006C304.177 52.006 304.611 51.894 305.003 51.67C305.404 51.4367 305.722 51.1053 305.955 50.676C306.188 50.2373 306.305 49.7287 306.305 49.15ZM311.02 42.64V53H309.746V42.64H311.02Z" fill="white"/>
<rect x="0.5" width="32" height="32" rx="16" fill="white"/>
<path d="M19.6257 13L13.3757 19M13.3757 13L19.6257 19M26.9173 16C26.9173 21.5228 22.2536 26 16.5007 26C10.7477 26 6.08398 21.5228 6.08398 16C6.08398 10.4772 10.7477 6 16.5007 6C22.2536 6 26.9173 10.4772 26.9173 16Z" stroke="#D61830" stroke-width="1.33" stroke-linecap="round" stroke-linejoin="round"/>
<defs>
<linearGradient id="paint0_linear_2578_948" x1="9.5" y1="199" x2="65.4307" y2="474.476" gradientUnits="userSpaceOnUse">
<stop stop-color="#001A85"/>
<stop offset="0.651042" stop-color="#16182B"/>
</linearGradient>
<linearGradient id="paint1_linear_2578_948" x1="37.7311" y1="186.295" x2="502.984" y2="307.6" gradientUnits="userSpaceOnUse">
<stop stop-color="#4C5CE5"/>
<stop offset="0.346406" stop-color="#2563EB"/>
<stop offset="1" stop-color="#34D399"/>
</linearGradient>
<linearGradient id="paint2_linear_2578_948" x1="52.6975" y1="280.404" x2="150.645" y2="469" gradientUnits="userSpaceOnUse">
<stop stop-color="#4C5CE5"/>
<stop offset="0.346406" stop-color="#2563EB"/>
<stop offset="1" stop-color="#34D399"/>
</linearGradient>
<linearGradient id="paint3_linear_2578_948" x1="9.5" y1="13" x2="40.5396" y2="220.092" gradientUnits="userSpaceOnUse">
<stop stop-color="#001A85"/>
<stop offset="0.651042" stop-color="#16182B"/>
</linearGradient>
<linearGradient id="paint4_linear_2578_948" x1="37.7311" y1="3.62095" x2="479.505" y2="159.649" gradientUnits="userSpaceOnUse">
<stop stop-color="#4C5CE5"/>
<stop offset="0.346406" stop-color="#2563EB"/>
<stop offset="1" stop-color="#34D399"/>
</linearGradient>
</defs>
</svg>
