<svg width="50" height="50" viewBox="0 0 50 50" fill="none" xmlns="http://www.w3.org/2000/svg">
<rect width="50" height="50" rx="25" fill="white"/>
<path d="M39.7366 19.2472H35.4034C35.3228 19.2472 35.2422 19.2043 35.2045 19.1345L31.7262 13.1127C31.6832 13.0429 31.6079 13 31.5219 13H17.329C17.2483 13 17.1677 13.0429 17.1301 13.1127L13.5119 19.3599L10.0282 25.3817C9.99059 25.4515 9.99059 25.5374 10.0282 25.6125L13.5119 31.6343L17.1247 37.8869C17.1623 37.9567 17.243 38.005 17.3236 37.9996H31.5219C31.6025 37.9996 31.6832 37.9567 31.7262 37.8869L35.2099 31.8651C35.2475 31.7953 35.3282 31.747 35.4088 31.7524H39.7419C39.8871 31.7524 40 31.6343 40 31.4948V19.5102C39.9946 19.3653 39.8764 19.2472 39.7366 19.2472ZM23.1405 31.8651L22.0492 33.7435C22.0331 33.7704 22.0062 33.7972 21.9793 33.8133C21.947 33.8294 21.9148 33.8402 21.8772 33.8402H19.7106C19.6353 33.8402 19.5654 33.8026 19.5332 33.7328L16.3021 28.135L15.9849 27.5822L14.8237 25.6018C14.8076 25.5749 14.7968 25.5427 14.8022 25.5052C14.8022 25.473 14.813 25.4354 14.8291 25.4086L15.9957 23.3906L19.5386 17.2722C19.5762 17.2077 19.6461 17.1648 19.716 17.1648H21.8772C21.9148 17.1648 21.9524 17.1755 21.9901 17.1916C22.0169 17.2077 22.0438 17.2292 22.0599 17.2614L23.1513 19.1506C23.1835 19.215 23.1782 19.2955 23.1405 19.3546L19.6407 25.4086C19.6246 25.4354 19.6192 25.4676 19.6192 25.4944C19.6192 25.5266 19.6299 25.5535 19.6407 25.5803L23.1405 31.6289C23.1889 31.7094 23.1835 31.7953 23.1405 31.8651ZM34.0056 25.6018L32.8444 27.5822L32.5272 28.135L29.2962 33.7328C29.2585 33.7972 29.194 33.8402 29.1188 33.8402H26.9522C26.9146 33.8402 26.8823 33.8294 26.8501 33.8133C26.8232 33.7972 26.7963 33.7757 26.7802 33.7435L25.6888 31.8651C25.6404 31.7953 25.6404 31.7094 25.6834 31.6397L29.1833 25.591C29.1994 25.5642 29.2048 25.532 29.2048 25.5052C29.2048 25.473 29.194 25.4461 29.1833 25.4193L25.6834 19.3653C25.6458 19.3009 25.6404 19.2257 25.6727 19.1613L26.764 17.2722C26.7802 17.2453 26.807 17.2185 26.8339 17.2024C26.8662 17.1809 26.9038 17.1755 26.9468 17.1755H29.1188C29.194 17.1755 29.2639 17.2131 29.2962 17.2829L32.839 23.4013L34.0056 25.4193C34.0218 25.4515 34.0325 25.4837 34.0325 25.5159C34.0325 25.5374 34.0218 25.5696 34.0056 25.6018Z" fill="#4C5CE5"/>
</svg>
