<svg width="50" height="50" viewBox="0 0 50 50" fill="none" xmlns="http://www.w3.org/2000/svg">
<rect width="50" height="50" rx="25" fill="white"/>
<path d="M17.4704 21.3635L24.3016 23.5264L26.5523 27.265L16.0207 26.9118L14.8919 24.773C13.9166 22.9252 15.556 20.7575 17.4704 21.3635Z" fill="#4C5CE5"/>
<path d="M12.2759 25.7381L29.2216 26.188L35.873 37.2102C36.5869 38.3933 35.7971 39.9542 34.4825 39.9586L22.2019 39.9998C20.6903 40.0049 19.2424 39.3479 18.1939 38.1813L10.6248 29.7597C9.2507 28.2308 10.2957 25.6855 12.2759 25.7381Z" fill="#4C5CE5"/>
<path d="M27.0999 10.7666L23.1055 16.4631L29.3258 19.4773L30.7445 14.0799L27.0999 10.7666Z" fill="#4C5CE5"/>
<path d="M32.9307 39.0631L22.8832 21.1736C22.0331 19.66 22.1396 17.7925 23.1562 16.3847C23.7427 15.5725 24.9083 15.4512 25.6504 16.1252L38.4788 27.7761C40.1329 29.2784 40.4839 31.7397 39.3154 33.6419L35.949 39.1219C35.2509 40.2583 33.5837 40.2259 32.9307 39.0631Z" fill="#4C5CE5"/>
<path d="M36.7282 19.2334L27.5801 13.2018C25.9964 12.1576 26.9817 9.69934 28.8512 10.0304L33.2345 10.8066C34.2949 10.9944 35.1651 11.7496 35.4977 12.7708L37.4293 18.7019C37.5656 19.1205 37.0964 19.4762 36.7282 19.2334Z" fill="#4C5CE5"/>
</svg>
