<svg width="50" height="50" viewBox="0 0 50 50" fill="none" xmlns="http://www.w3.org/2000/svg">
<rect width="50" height="50" rx="25" fill="white"/>
<path d="M44.6064 18L27.4902 35.1191H10V18H44.6064ZM14.7148 21.1885C13.2643 21.1885 12.0563 21.6585 11.3076 22.4326C10.7859 22.9727 10.5047 23.6595 10.4932 24.4189C10.4741 25.4643 10.8572 26.2055 11.6621 26.7979C12.3422 27.2961 13.212 27.62 13.9785 27.8574C14.9237 28.1503 15.6967 28.405 15.6875 28.9473C15.6799 29.145 15.6051 29.3304 15.4629 29.4795C15.2271 29.7229 14.8654 29.8143 14.3652 29.8242C13.4001 29.8448 12.6846 29.6932 11.5449 29.0195L10.4922 31.1074C11.6308 31.7549 12.8395 32.0801 14.2129 32.0801L14.5215 32.0781C15.7168 32.0564 16.6872 31.7695 17.458 31.1494C17.5021 31.1141 17.5419 31.0781 17.583 31.042L17.4531 31.709L20.3369 31.6992L20.8545 30.375C21.3985 30.5606 22.0172 30.6631 22.6738 30.6631C23.3137 30.6631 23.9155 30.5656 24.4492 30.3906L24.8096 31.6992L29.9834 31.7041L29.9961 28.6846H31.0977C33.7585 28.6844 35.3309 27.3304 35.3311 25.0596C35.3303 22.5302 33.8016 21.4278 30.5469 21.4277H27.1289L27.1396 29.4668L24.1641 21.4258H21.2129L18.6719 28.1416C18.4018 26.4327 16.6352 25.843 15.2451 25.4014C14.3273 25.1066 13.3538 24.6726 13.3633 24.1934C13.3709 23.8 13.8846 23.4349 14.9053 23.4893C15.5899 23.5262 16.1945 23.582 17.3975 24.1631L18.5811 22.1006C17.4839 21.5421 15.9667 21.1896 14.7227 21.1885H14.7148ZM23.7441 28.1182C23.4246 28.2323 23.0607 28.2998 22.6738 28.2998C22.2764 28.2998 21.9036 28.2301 21.583 28.1084L22.6611 24.7021H22.6826L23.7441 28.1182ZM30.7471 23.5967C31.7474 23.5967 32.5457 23.9298 32.5459 24.9512C32.5451 26.0087 31.7475 26.3418 30.7471 26.3418H29.9951V23.5967H30.7471Z" fill="#4C5CE5"/>
</svg>
