<svg width="50" height="50" viewBox="0 0 50 50" fill="none" xmlns="http://www.w3.org/2000/svg">
<rect width="50" height="50" rx="25" fill="white"/>
<path d="M25.2928 27.8997L20.711 28.1327C19.6448 28.1815 19.2521 28.6265 19.2539 29.2061C19.2548 29.7853 19.7444 30.2389 20.6407 30.2389L25.4195 30.2125C26.4718 30.2089 27.0484 29.6829 27.047 29.021C27.0457 28.3639 26.3536 27.8509 25.2928 27.8997Z" fill="#4C5CE5"/>
<path d="M26.169 19.6357C26.0468 19.6357 25.9215 19.6451 25.7957 19.6639L20.5768 20.4569C19.5458 20.6103 19.1445 21.0782 19.1445 21.7253C19.1445 22.2133 19.7964 22.7111 20.6102 22.6606C20.7112 22.6606 20.814 22.6556 20.9172 22.6445L25.8101 22.3515C26.8511 22.2455 27.6978 21.5411 27.6978 20.783C27.6978 20.1188 27.0553 19.6357 26.169 19.6357Z" fill="#4C5CE5"/>
<path d="M37.4462 11.3896C37.2068 11.1387 36.8668 11 36.4886 11C36.4047 11 36.3173 11.0072 36.2298 11.0206L12.6264 14.7221C11.6905 14.8692 10.9615 15.7526 11.0016 16.6918L11.7932 35.284C11.8325 36.2205 12.6453 36.9902 13.5898 37.0014L17.6288 37.0466V42L21.4456 37.0882L35.2145 37.2412C36.1464 37.2412 36.916 36.4893 36.9345 35.5657L37.796 12.4281C37.8199 12.0198 37.695 11.6521 37.4462 11.3896ZM30.3365 24.6016C33.4865 24.8279 33.1808 28.0594 33.1808 28.0594L33.1326 31.001C32.9536 32.9399 31.3486 33.7123 29.9849 33.7024L28.7315 33.7096L16.9535 33.537C15.904 33.5267 15.014 32.6635 14.9698 31.6446L14.4545 19.8047C14.4103 18.7895 15.2151 17.8346 16.2484 17.6758L30.286 15.5218C30.286 15.5218 33.7151 14.956 33.6456 18.3592L33.3661 21.2387C33.3003 22.2459 32.9694 24.1485 30.3365 24.6016Z" fill="#4C5CE5"/>
</svg>
