<svg width="50" height="50" viewBox="0 0 50 50" fill="none" xmlns="http://www.w3.org/2000/svg">
<rect width="50" height="50" rx="25" fill="white"/>
<g clip-path="url(#clip0_3681_3195)">
<path d="M33.75 10C37.2018 10 40 12.7982 40 16.25V33.75C40 37.2018 37.2018 40 33.75 40H16.25C12.7982 40 10 37.2018 10 33.75V16.25C10 12.7982 12.7982 10 16.25 10H33.75ZM20.3818 17.6064C19.6694 17.6065 19.0382 17.7158 18.4883 17.9346C17.9383 18.1533 17.4756 18.4441 17.1006 18.8066C16.7257 19.1691 16.4383 19.585 16.2383 20.0537C16.0446 20.5224 15.9473 21.0034 15.9473 21.4971C15.9473 22.1157 16.035 22.6375 16.21 23.0625C16.3912 23.4812 16.6291 23.8311 16.9229 24.1123C17.2166 24.3935 17.5508 24.6219 17.9258 24.7969C18.3007 24.9718 18.6819 25.1221 19.0693 25.2471C19.4567 25.372 19.838 25.4875 20.2129 25.5938C20.5879 25.7 20.923 25.8311 21.2168 25.9873C21.5105 26.1373 21.745 26.3249 21.9199 26.5498C22.1011 26.7748 22.1914 27.0657 22.1914 27.4219C22.1914 28.0593 21.9943 28.5498 21.6006 28.8936C21.2068 29.2311 20.6504 29.4004 19.9316 29.4004C19.4631 29.4004 19.06 29.3378 18.7227 29.2129C18.3914 29.0816 18.1006 28.9375 17.8506 28.7812C17.6007 28.6251 17.3853 28.4843 17.2041 28.3594C17.0229 28.2281 16.8535 28.1631 16.6973 28.1631C16.5849 28.1632 16.4788 28.1944 16.3789 28.2568C16.279 28.3131 16.1972 28.3843 16.1348 28.4717L15.3945 29.6816C15.657 29.9504 15.9575 30.1944 16.2949 30.4131C16.6323 30.6317 16.992 30.8194 17.373 30.9756C17.7604 31.1317 18.1635 31.2498 18.582 31.3311C19.0008 31.4186 19.4262 31.4629 19.8574 31.4629C20.6071 31.4629 21.2724 31.3499 21.8535 31.125C22.4348 30.8937 22.9262 30.5812 23.3262 30.1875C23.7322 29.7876 24.0379 29.322 24.2441 28.791C24.4566 28.2535 24.5635 27.6779 24.5635 27.0654C24.5634 26.5032 24.4722 26.0255 24.291 25.6318C24.116 25.2381 23.8816 24.9064 23.5879 24.6377C23.2942 24.3628 22.9599 24.1378 22.585 23.9629C22.21 23.7817 21.8254 23.6254 21.4316 23.4941C21.0381 23.3567 20.6541 23.2281 20.2793 23.1094C19.9043 22.9906 19.5691 22.8561 19.2754 22.7061C18.982 22.5562 18.7446 22.3753 18.5635 22.1631C18.3885 21.9507 18.3009 21.6848 18.3008 21.3662C18.3008 21.1163 18.3442 20.8878 18.4316 20.6816C18.5191 20.4691 18.6512 20.2877 18.8262 20.1377C19.0073 19.9878 19.2289 19.8722 19.4912 19.791C19.7537 19.7035 20.0602 19.6592 20.4102 19.6592C20.7976 19.6592 21.1319 19.7096 21.4131 19.8096C21.7004 19.9033 21.9507 20.0093 22.1631 20.1279C22.3755 20.2466 22.5571 20.3561 22.707 20.4561C22.8633 20.5498 23.0074 20.5967 23.1387 20.5967C23.2634 20.5966 23.3661 20.5688 23.4473 20.5127C23.5348 20.4502 23.6164 20.3529 23.6914 20.2217L24.3193 19.0312C23.8444 18.5814 23.2696 18.2314 22.5947 17.9814C21.9197 17.7314 21.1818 17.6064 20.3818 17.6064ZM32.4414 24.0029C32.0616 24.0029 31.7249 24.0612 31.4316 24.1777C31.1385 24.2944 30.8914 24.4494 30.6914 24.6426C30.4915 24.8358 30.3381 25.0578 30.2314 25.3076C30.1281 25.5576 30.0762 25.8148 30.0762 26.0781C30.0762 26.408 30.1225 26.6864 30.2158 26.9131C30.3125 27.1364 30.4401 27.3227 30.5967 27.4727C30.7533 27.6225 30.931 27.7446 31.1309 27.8379C31.3309 27.9312 31.5345 28.0114 31.7412 28.0781C31.9479 28.1448 32.1516 28.206 32.3516 28.2627C32.5515 28.3194 32.7302 28.3894 32.8867 28.4727C33.0433 28.5526 33.1685 28.6526 33.2617 28.7725C33.3584 28.8925 33.4062 29.0483 33.4062 29.2383C33.4062 29.5781 33.3007 29.8392 33.0908 30.0225C32.8808 30.2025 32.5845 30.293 32.2012 30.293C31.9514 30.293 31.7365 30.2599 31.5566 30.1934C31.38 30.1234 31.2242 30.0462 31.0908 29.9629C30.9577 29.8797 30.8427 29.8049 30.7461 29.7383C30.6496 29.6684 30.5598 29.6329 30.4766 29.6328C30.4167 29.6328 30.3599 29.6495 30.3066 29.6826C30.2533 29.7126 30.2092 29.7512 30.1758 29.7979L29.7812 30.4434C29.9212 30.5866 30.0818 30.7164 30.2617 30.833C30.4415 30.9495 30.6329 31.0496 30.8359 31.1328C31.0426 31.2161 31.2581 31.2799 31.4814 31.3232C31.7046 31.3699 31.9313 31.3926 32.1611 31.3926C32.5611 31.3926 32.9166 31.3329 33.2266 31.2129C33.5364 31.0896 33.7985 30.9228 34.0117 30.7129C34.2283 30.4996 34.391 30.251 34.501 29.9678C34.6143 29.6811 34.6709 29.3745 34.6709 29.0479C34.6709 28.748 34.623 28.4931 34.5264 28.2832C34.4331 28.0732 34.308 27.8962 34.1514 27.7529C33.9947 27.6062 33.8162 27.4859 33.6162 27.3926C33.4163 27.2959 33.2109 27.2126 33.001 27.1426C32.7912 27.0693 32.5865 27.0007 32.3867 26.9375C32.1868 26.8742 32.0082 26.8026 31.8516 26.7227C31.695 26.6427 31.5684 26.5459 31.4717 26.4326C31.3784 26.3193 31.3311 26.1778 31.3311 26.0078C31.3311 25.8745 31.3547 25.7525 31.4014 25.6426C31.4481 25.5294 31.5181 25.4325 31.6113 25.3525C31.7079 25.2727 31.8261 25.2112 31.9658 25.168C32.1058 25.1213 32.2695 25.0977 32.4561 25.0977C32.6627 25.0977 32.8412 25.1244 32.9912 25.1777C33.1445 25.2277 33.2783 25.2843 33.3916 25.3477C33.5049 25.4109 33.6017 25.4692 33.6816 25.5225C33.7649 25.5724 33.8412 25.5976 33.9111 25.5977C33.9778 25.5977 34.0329 25.5827 34.0762 25.5527C34.1228 25.5194 34.1661 25.4674 34.2061 25.3975L34.541 24.7627C34.2878 24.5228 33.981 24.3364 33.6211 24.2031C33.2612 24.0698 32.868 24.0029 32.4414 24.0029ZM27.4688 28.7725C27.4687 29.0454 27.4435 29.2785 27.3936 29.4717C27.3436 29.6617 27.268 29.8175 27.168 29.9375C27.0714 30.0572 26.9501 30.1455 26.8037 30.2021C26.657 30.2555 26.4879 30.2822 26.2979 30.2822C26.158 30.2822 26.0415 30.2704 25.9482 30.2471C25.8584 30.2238 25.7852 30.2119 25.7285 30.2119C25.6385 30.2119 25.5686 30.2356 25.5186 30.2822C25.4719 30.3255 25.4436 30.3837 25.4336 30.457C25.4236 30.5903 25.4117 30.7241 25.3984 30.8574C25.3851 30.9905 25.3733 31.1237 25.3633 31.2568C25.5533 31.3035 25.7349 31.3374 25.9082 31.3574C26.0815 31.3807 26.2585 31.3916 26.4385 31.3916C26.8317 31.3916 27.177 31.3303 27.4736 31.207C27.7702 31.0837 28.0163 30.9067 28.2129 30.6768C28.4129 30.4468 28.5631 30.1685 28.6631 29.8418C28.763 29.5152 28.8135 29.1487 28.8135 28.7422V24.082H27.4688V28.7725Z" fill="#4C5CE5"/>
</g>
<defs>
<clipPath id="clip0_3681_3195">
<rect width="30" height="30" fill="white" transform="translate(10 10)"/>
</clipPath>
</defs>
</svg>
