<svg width="21" height="20" viewBox="0 0 21 20" fill="none" xmlns="http://www.w3.org/2000/svg">
<g clip-path="url(#clip0_2471_2962)">
<path d="M1.46875 8.23441C2.51562 8.73441 8.29688 11.0625 9.20312 11.5C10.1094 11.9375 10.7656 11.9375 11.9219 11.3438C13.0781 10.7344 18.5156 8.51566 19.5625 7.96879C20.0938 7.68754 20.3281 7.46879 20.3281 7.28129V5.32816C20.3281 5.12504 20.0625 4.95316 19.5469 4.76566C18.5312 4.39066 13.125 2.25004 12.0937 1.85941C11.0625 1.48441 10.6406 1.50004 9.42188 1.93754C8.20312 2.37504 2.46875 4.62504 1.4375 5.03129C0.9375 5.23441 0.65625 5.40629 0.65625 5.60941H0.625V7.59379C0.65625 7.78129 0.953125 7.98441 1.46875 8.23441ZM10.9062 8.51566L7.73438 7.20316L12.2812 6.50004L10.9062 8.51566ZM17.7969 5.39066L15.1094 6.45316L14.8125 6.56254L12.125 5.50004L15.1094 4.32816L17.7969 5.39066ZM9.89062 3.43754L9.45312 2.62504L10.8281 3.15629L12.125 2.73441L11.7812 3.57816L13.0937 4.07816L11.3906 4.25004L11.0156 5.17191L10.4062 4.15629L8.4375 3.98441L9.89062 3.43754ZM6.5 4.57816C7.84375 4.57816 8.9375 5.00004 8.9375 5.51566C8.9375 6.03129 7.84375 6.45316 6.5 6.45316C5.15625 6.45316 4.0625 6.03129 4.0625 5.51566C4.0625 5.00004 5.15625 4.57816 6.5 4.57816ZM19.5625 9.34379C18.5156 9.89066 13.0937 12.125 11.9375 12.7188C10.7812 13.3282 10.1406 13.3125 9.23438 12.875C8.32813 12.4375 2.51562 10.1094 1.48438 9.60941C0.953125 9.35941 0.65625 9.15629 0.65625 8.95316V10.9375C0.65625 11.1407 0.953125 11.3438 1.46875 11.5938C2.51562 12.0938 8.29688 14.4219 9.20312 14.8594C10.1094 15.2969 10.7656 15.2969 11.9219 14.7032C13.0781 14.0938 18.5156 11.875 19.5625 11.3282C20.0938 11.0469 20.3281 10.8282 20.3281 10.6407V8.68754C20.3281 8.85941 20.0781 9.07816 19.5625 9.34379ZM19.5625 12.5782C18.5156 13.125 13.0937 15.3594 11.9375 15.9532C10.7812 16.5625 10.1406 16.5469 9.23438 16.1094C8.32813 15.6719 2.51562 13.3438 1.48438 12.8438C0.953125 12.6094 0.65625 12.3907 0.65625 12.1875V14.1719C0.65625 14.375 0.953125 14.5782 1.46875 14.8282C2.51562 15.3282 8.29688 17.6563 9.20312 18.0938C10.1094 18.5313 10.7656 18.5313 11.9219 17.9375C13.0781 17.3282 18.5156 15.1094 19.5625 14.5625C20.0938 14.2813 20.3281 14.0625 20.3281 13.875V11.9219C20.3281 12.1094 20.0781 12.3125 19.5625 12.5782Z" fill="white"/>
</g>
<defs>
<clipPath id="clip0_2471_2962">
<rect width="20" height="20" fill="white" transform="translate(0.5)"/>
</clipPath>
</defs>
</svg>
