<svg width="37" height="37" viewBox="0 0 37 37" fill="none" xmlns="http://www.w3.org/2000/svg">
<path d="M37 37H0V0H37V37ZM24.5371 28.1055C23.4409 28.1056 22.4619 29.0713 22.4619 30.7939C22.4619 32.5297 23.4019 33.3652 24.6025 33.3652C25.3856 33.3652 25.7248 32.9996 25.9336 32.6211L25.9473 32.6338V33.2344C25.9473 34.0305 25.6071 34.3701 24.9023 34.3701C24.146 34.37 23.9888 34.1092 23.9365 33.8613L22.6055 34.0693C22.8012 34.9437 23.7281 35.3486 24.7461 35.3486C27.1997 35.3225 27.2646 33.9131 27.2646 33.0518V28.21H26.1426L26.0283 28.8037C25.9242 28.5513 25.5406 28.1055 24.5371 28.1055ZM4.55566 28.0537C3.22466 28.0539 2.01087 28.9016 2.01074 30.7676C2.01074 32.6337 3.21154 33.4823 4.55566 33.4824C5.89993 33.4824 7.10059 32.6339 7.10059 30.7676C7.10046 28.9015 5.89986 28.0537 4.55566 28.0537ZM30.4756 28.0664C28.9879 28.0665 28.0742 29.0453 28.0742 30.7549C28.0742 32.4515 28.988 33.4307 30.502 33.4307C31.559 33.4306 32.3418 33.0387 32.7725 32.2949L31.7812 31.7471C31.468 32.2038 31.1281 32.4121 30.6191 32.4121C29.8232 32.412 29.4183 31.9289 29.4053 30.9502H32.8379C32.8379 30.872 32.8516 30.7806 32.8516 30.6895C32.8515 29.006 31.9634 28.0664 30.4756 28.0664ZM13.7432 28.0664C12.7645 28.0665 12.0336 28.4058 11.5508 29.0713L12.4648 29.5938C12.765 29.2153 13.1957 29.0059 13.7178 29.0059C14.2396 29.0059 14.5264 29.2153 14.5264 29.5938V29.8809C12.347 30.1289 11.29 30.7422 11.29 31.8906C11.2902 32.7519 11.8517 33.3916 12.8174 33.3916C13.4176 33.3915 13.9918 33.2211 14.5137 32.8818L14.6445 33.3262H15.8447V29.5938C15.8447 28.6541 15.0874 28.0664 13.7432 28.0664ZM19.917 28.0791C19.2775 28.0791 18.7811 28.3274 18.1416 28.7842L18.0244 28.1709L16.9023 28.3271V33.3389H18.2461V29.6455C18.7029 29.254 19.1081 29.0713 19.5127 29.0713C19.9952 29.0714 20.165 29.3584 20.165 29.9844V33.3389H21.5225V29.75C21.5225 28.6407 20.9741 28.0791 19.917 28.0791ZM10.7422 28.0664C10.1681 28.0666 9.56832 28.458 9.32031 28.7842V28.1836H8.02832V33.3125H9.41113V29.8936C9.60687 29.4368 10.2594 29.3457 10.8467 29.3457H10.9121V28.0791C10.8599 28.0661 10.7943 28.0664 10.7422 28.0664ZM14.4746 31.916C14.057 32.2814 13.6523 32.4648 13.2217 32.4648C12.8301 32.4648 12.6084 32.1382 12.6084 31.7988C12.6085 31.1855 13.2088 30.8728 14.4746 30.7031V31.916ZM4.55566 29.1885C5.5606 29.1885 5.75684 30.1023 5.75684 30.7549C5.75683 31.4074 5.57362 32.3213 4.55566 32.3213C3.53802 32.3211 3.35548 31.4204 3.35547 30.7549C3.35547 30.1024 3.55104 29.1887 4.55566 29.1885ZM24.8242 29.0322C25.5551 29.0322 25.9473 29.685 25.9473 30.4941C25.9472 31.1727 25.8684 32.2162 24.8379 32.2295C23.846 32.2295 23.806 31.1854 23.793 30.5459C23.793 29.3846 24.3414 29.0323 24.8242 29.0322ZM30.4893 28.9795C31.1285 28.9797 31.5195 29.3847 31.5195 30.0762H29.4443C29.4966 29.3714 29.8759 28.9795 30.4893 28.9795ZM32.0156 26.2393V26.4609H32.5508V27.9355H32.8379V26.4609H33.3604V26.2393H32.0156ZM33.6865 26.2393V27.9355H33.9736V26.5137H33.9863L34.5479 27.9355H34.7305L35.291 26.5137H35.3047V27.9355H35.5527V26.2393H35.1221L34.626 27.5312L34.1172 26.2393H33.6865Z" fill="white"/>
</svg>
