<svg width="774" height="483" viewBox="0 0 774 483" fill="none" xmlns="http://www.w3.org/2000/svg">
<rect x="1" y="1" width="772" height="348" rx="19" fill="url(#paint0_linear_3061_1056)"/>
<rect x="1" y="1" width="772" height="348" rx="19" stroke="url(#paint1_linear_3061_1056)" stroke-width="2" stroke-linecap="round" stroke-linejoin="round" stroke-dasharray="14 14"/>
<rect x="74" y="46" width="626" height="151" rx="8" fill="#4C5CE5"/>
<path d="M324.553 68.06V69.54H318.493V74.24H323.413V75.72H318.493V82H316.673V68.06H324.553ZM328.571 72.82C328.891 72.1933 329.344 71.7067 329.931 71.36C330.531 71.0133 331.258 70.84 332.111 70.84V72.72H331.631C329.591 72.72 328.571 73.8267 328.571 76.04V82H326.751V71.04H328.571V72.82ZM338.992 82.18C337.965 82.18 337.032 81.9467 336.192 81.48C335.365 81.0133 334.712 80.3533 334.232 79.5C333.765 78.6333 333.532 77.6333 333.532 76.5C333.532 75.38 333.772 74.3933 334.252 73.54C334.745 72.6733 335.412 72.0133 336.252 71.56C337.092 71.0933 338.032 70.86 339.072 70.86C340.112 70.86 341.052 71.0933 341.892 71.56C342.732 72.0133 343.392 72.6667 343.872 73.52C344.365 74.3733 344.612 75.3667 344.612 76.5C344.612 77.6333 344.359 78.6333 343.852 79.5C343.359 80.3533 342.685 81.0133 341.832 81.48C340.979 81.9467 340.032 82.18 338.992 82.18ZM338.992 80.58C339.645 80.58 340.259 80.4267 340.832 80.12C341.405 79.8133 341.865 79.3533 342.212 78.74C342.572 78.1267 342.752 77.38 342.752 76.5C342.752 75.62 342.579 74.8733 342.232 74.26C341.885 73.6467 341.432 73.1933 340.872 72.9C340.312 72.5933 339.705 72.44 339.052 72.44C338.385 72.44 337.772 72.5933 337.212 72.9C336.665 73.1933 336.225 73.6467 335.892 74.26C335.559 74.8733 335.392 75.62 335.392 76.5C335.392 77.3933 335.552 78.1467 335.872 78.76C336.205 79.3733 336.645 79.8333 337.192 80.14C337.739 80.4333 338.339 80.58 338.992 80.58ZM352.345 70.84C353.678 70.84 354.758 71.2467 355.585 72.06C356.412 72.86 356.825 74.02 356.825 75.54V82H355.025V75.8C355.025 74.7067 354.752 73.8733 354.205 73.3C353.658 72.7133 352.912 72.42 351.965 72.42C351.005 72.42 350.238 72.72 349.665 73.32C349.105 73.92 348.825 74.7933 348.825 75.94V82H347.005V71.04H348.825V72.6C349.185 72.04 349.672 71.6067 350.285 71.3C350.912 70.9933 351.598 70.84 352.345 70.84ZM362.018 72.54V79C362.018 79.5333 362.131 79.9133 362.358 80.14C362.584 80.3533 362.978 80.46 363.538 80.46H364.878V82H363.238C362.224 82 361.464 81.7667 360.958 81.3C360.451 80.8333 360.198 80.0667 360.198 79V72.54H358.778V71.04H360.198V68.28H362.018V71.04H364.878V72.54H362.018ZM377.083 76.1C377.083 76.4467 377.063 76.8133 377.023 77.2H368.263C368.33 78.28 368.696 79.1267 369.363 79.74C370.043 80.34 370.863 80.64 371.823 80.64C372.61 80.64 373.263 80.46 373.783 80.1C374.316 79.7267 374.69 79.2333 374.903 78.62H376.863C376.57 79.6733 375.983 80.5333 375.103 81.2C374.223 81.8533 373.13 82.18 371.823 82.18C370.783 82.18 369.85 81.9467 369.023 81.48C368.21 81.0133 367.57 80.3533 367.103 79.5C366.636 78.6333 366.403 77.6333 366.403 76.5C366.403 75.3667 366.63 74.3733 367.083 73.52C367.536 72.6667 368.17 72.0133 368.983 71.56C369.81 71.0933 370.756 70.86 371.823 70.86C372.863 70.86 373.783 71.0867 374.583 71.54C375.383 71.9933 375.996 72.62 376.423 73.42C376.863 74.2067 377.083 75.1 377.083 76.1ZM375.203 75.72C375.203 75.0267 375.05 74.4333 374.743 73.94C374.436 73.4333 374.016 73.0533 373.483 72.8C372.963 72.5333 372.383 72.4 371.743 72.4C370.823 72.4 370.036 72.6933 369.383 73.28C368.743 73.8667 368.376 74.68 368.283 75.72H375.203ZM384.825 70.84C386.159 70.84 387.239 71.2467 388.065 72.06C388.892 72.86 389.305 74.02 389.305 75.54V82H387.505V75.8C387.505 74.7067 387.232 73.8733 386.685 73.3C386.139 72.7133 385.392 72.42 384.445 72.42C383.485 72.42 382.719 72.72 382.145 73.32C381.585 73.92 381.305 74.7933 381.305 75.94V82H379.485V71.04H381.305V72.6C381.665 72.04 382.152 71.6067 382.765 71.3C383.392 70.9933 384.079 70.84 384.825 70.84ZM391.598 76.48C391.598 75.36 391.825 74.38 392.278 73.54C392.732 72.6867 393.352 72.0267 394.138 71.56C394.938 71.0933 395.832 70.86 396.818 70.86C397.672 70.86 398.465 71.06 399.198 71.46C399.932 71.8467 400.492 72.36 400.878 73V67.2H402.718V82H400.878V79.94C400.518 80.5933 399.985 81.1333 399.278 81.56C398.572 81.9733 397.745 82.18 396.798 82.18C395.825 82.18 394.938 81.94 394.138 81.46C393.352 80.98 392.732 80.3067 392.278 79.44C391.825 78.5733 391.598 77.5867 391.598 76.48ZM400.878 76.5C400.878 75.6733 400.712 74.9533 400.378 74.34C400.045 73.7267 399.592 73.26 399.018 72.94C398.458 72.6067 397.838 72.44 397.158 72.44C396.478 72.44 395.858 72.6 395.298 72.92C394.738 73.24 394.292 73.7067 393.958 74.32C393.625 74.9333 393.458 75.6533 393.458 76.48C393.458 77.32 393.625 78.0533 393.958 78.68C394.292 79.2933 394.738 79.7667 395.298 80.1C395.858 80.42 396.478 80.58 397.158 80.58C397.838 80.58 398.458 80.42 399.018 80.1C399.592 79.7667 400.045 79.2933 400.378 78.68C400.712 78.0533 400.878 77.3267 400.878 76.5ZM412.946 80.52H417.826V82H411.126V68.06H412.946V80.52ZM419.079 76.48C419.079 75.36 419.305 74.38 419.759 73.54C420.212 72.6867 420.832 72.0267 421.619 71.56C422.419 71.0933 423.305 70.86 424.279 70.86C425.239 70.86 426.072 71.0667 426.779 71.48C427.485 71.8933 428.012 72.4133 428.359 73.04V71.04H430.199V82H428.359V79.96C427.999 80.6 427.459 81.1333 426.739 81.56C426.032 81.9733 425.205 82.18 424.259 82.18C423.285 82.18 422.405 81.94 421.619 81.46C420.832 80.98 420.212 80.3067 419.759 79.44C419.305 78.5733 419.079 77.5867 419.079 76.48ZM428.359 76.5C428.359 75.6733 428.192 74.9533 427.859 74.34C427.525 73.7267 427.072 73.26 426.499 72.94C425.939 72.6067 425.319 72.44 424.639 72.44C423.959 72.44 423.339 72.6 422.779 72.92C422.219 73.24 421.772 73.7067 421.439 74.32C421.105 74.9333 420.939 75.6533 420.939 76.48C420.939 77.32 421.105 78.0533 421.439 78.68C421.772 79.2933 422.219 79.7667 422.779 80.1C423.339 80.42 423.959 80.58 424.639 80.58C425.319 80.58 425.939 80.42 426.499 80.1C427.072 79.7667 427.525 79.2933 427.859 78.68C428.192 78.0533 428.359 77.3267 428.359 76.5ZM442.714 71.04L436.114 87.16H434.234L436.394 81.88L431.974 71.04H433.994L437.434 79.92L440.834 71.04H442.714ZM454.544 76.1C454.544 76.4467 454.524 76.8133 454.484 77.2H445.724C445.791 78.28 446.157 79.1267 446.824 79.74C447.504 80.34 448.324 80.64 449.284 80.64C450.071 80.64 450.724 80.46 451.244 80.1C451.777 79.7267 452.151 79.2333 452.364 78.62H454.324C454.031 79.6733 453.444 80.5333 452.564 81.2C451.684 81.8533 450.591 82.18 449.284 82.18C448.244 82.18 447.311 81.9467 446.484 81.48C445.671 81.0133 445.031 80.3533 444.564 79.5C444.097 78.6333 443.864 77.6333 443.864 76.5C443.864 75.3667 444.091 74.3733 444.544 73.52C444.997 72.6667 445.631 72.0133 446.444 71.56C447.271 71.0933 448.217 70.86 449.284 70.86C450.324 70.86 451.244 71.0867 452.044 71.54C452.844 71.9933 453.457 72.62 453.884 73.42C454.324 74.2067 454.544 75.1 454.544 76.1ZM452.664 75.72C452.664 75.0267 452.511 74.4333 452.204 73.94C451.897 73.4333 451.477 73.0533 450.944 72.8C450.424 72.5333 449.844 72.4 449.204 72.4C448.284 72.4 447.497 72.6933 446.844 73.28C446.204 73.8667 445.837 74.68 445.744 75.72H452.664ZM458.766 72.82C459.086 72.1933 459.54 71.7067 460.126 71.36C460.726 71.0133 461.453 70.84 462.306 70.84V72.72H461.826C459.786 72.72 458.766 73.8267 458.766 76.04V82H456.946V71.04H458.766V72.82Z" fill="white"/>
<rect x="145" y="101" width="217" height="78" rx="8" fill="#C6CFFF"/>
<path d="M195.44 133.06V134.54H189.38V139.24H194.3V140.72H189.38V147H187.56V133.06H195.44ZM199.458 137.82C199.778 137.193 200.231 136.707 200.818 136.36C201.418 136.013 202.144 135.84 202.998 135.84V137.72H202.518C200.478 137.72 199.458 138.827 199.458 141.04V147H197.638V136.04H199.458V137.82ZM209.879 147.18C208.852 147.18 207.919 146.947 207.079 146.48C206.252 146.013 205.599 145.353 205.119 144.5C204.652 143.633 204.419 142.633 204.419 141.5C204.419 140.38 204.659 139.393 205.139 138.54C205.632 137.673 206.299 137.013 207.139 136.56C207.979 136.093 208.919 135.86 209.959 135.86C210.999 135.86 211.939 136.093 212.779 136.56C213.619 137.013 214.279 137.667 214.759 138.52C215.252 139.373 215.499 140.367 215.499 141.5C215.499 142.633 215.245 143.633 214.739 144.5C214.245 145.353 213.572 146.013 212.719 146.48C211.865 146.947 210.919 147.18 209.879 147.18ZM209.879 145.58C210.532 145.58 211.145 145.427 211.719 145.12C212.292 144.813 212.752 144.353 213.099 143.74C213.459 143.127 213.639 142.38 213.639 141.5C213.639 140.62 213.465 139.873 213.119 139.26C212.772 138.647 212.319 138.193 211.759 137.9C211.199 137.593 210.592 137.44 209.939 137.44C209.272 137.44 208.659 137.593 208.099 137.9C207.552 138.193 207.112 138.647 206.779 139.26C206.445 139.873 206.279 140.62 206.279 141.5C206.279 142.393 206.439 143.147 206.759 143.76C207.092 144.373 207.532 144.833 208.079 145.14C208.625 145.433 209.225 145.58 209.879 145.58ZM223.232 135.84C224.565 135.84 225.645 136.247 226.472 137.06C227.298 137.86 227.712 139.02 227.712 140.54V147H225.912V140.8C225.912 139.707 225.638 138.873 225.092 138.3C224.545 137.713 223.798 137.42 222.852 137.42C221.892 137.42 221.125 137.72 220.552 138.32C219.992 138.92 219.712 139.793 219.712 140.94V147H217.892V136.04H219.712V137.6C220.072 137.04 220.558 136.607 221.172 136.3C221.798 135.993 222.485 135.84 223.232 135.84ZM232.905 137.54V144C232.905 144.533 233.018 144.913 233.245 145.14C233.471 145.353 233.865 145.46 234.425 145.46H235.765V147H234.125C233.111 147 232.351 146.767 231.845 146.3C231.338 145.833 231.085 145.067 231.085 144V137.54H229.665V136.04H231.085V133.28H232.905V136.04H235.765V137.54H232.905ZM247.97 141.1C247.97 141.447 247.95 141.813 247.91 142.2H239.15C239.216 143.28 239.583 144.127 240.25 144.74C240.93 145.34 241.75 145.64 242.71 145.64C243.496 145.64 244.15 145.46 244.67 145.1C245.203 144.727 245.576 144.233 245.79 143.62H247.75C247.456 144.673 246.87 145.533 245.99 146.2C245.11 146.853 244.016 147.18 242.71 147.18C241.67 147.18 240.736 146.947 239.91 146.48C239.096 146.013 238.456 145.353 237.99 144.5C237.523 143.633 237.29 142.633 237.29 141.5C237.29 140.367 237.516 139.373 237.97 138.52C238.423 137.667 239.056 137.013 239.87 136.56C240.696 136.093 241.643 135.86 242.71 135.86C243.75 135.86 244.67 136.087 245.47 136.54C246.27 136.993 246.883 137.62 247.31 138.42C247.75 139.207 247.97 140.1 247.97 141.1ZM246.09 140.72C246.09 140.027 245.936 139.433 245.63 138.94C245.323 138.433 244.903 138.053 244.37 137.8C243.85 137.533 243.27 137.4 242.63 137.4C241.71 137.4 240.923 137.693 240.27 138.28C239.63 138.867 239.263 139.68 239.17 140.72H246.09ZM255.712 135.84C257.045 135.84 258.125 136.247 258.952 137.06C259.779 137.86 260.192 139.02 260.192 140.54V147H258.392V140.8C258.392 139.707 258.119 138.873 257.572 138.3C257.025 137.713 256.279 137.42 255.332 137.42C254.372 137.42 253.605 137.72 253.032 138.32C252.472 138.92 252.192 139.793 252.192 140.94V147H250.372V136.04H252.192V137.6C252.552 137.04 253.039 136.607 253.652 136.3C254.279 135.993 254.965 135.84 255.712 135.84ZM262.485 141.48C262.485 140.36 262.712 139.38 263.165 138.54C263.618 137.687 264.238 137.027 265.025 136.56C265.825 136.093 266.718 135.86 267.705 135.86C268.558 135.86 269.352 136.06 270.085 136.46C270.818 136.847 271.378 137.36 271.765 138V132.2H273.605V147H271.765V144.94C271.405 145.593 270.872 146.133 270.165 146.56C269.458 146.973 268.632 147.18 267.685 147.18C266.712 147.18 265.825 146.94 265.025 146.46C264.238 145.98 263.618 145.307 263.165 144.44C262.712 143.573 262.485 142.587 262.485 141.48ZM271.765 141.5C271.765 140.673 271.598 139.953 271.265 139.34C270.932 138.727 270.478 138.26 269.905 137.94C269.345 137.607 268.725 137.44 268.045 137.44C267.365 137.44 266.745 137.6 266.185 137.92C265.625 138.24 265.178 138.707 264.845 139.32C264.512 139.933 264.345 140.653 264.345 141.48C264.345 142.32 264.512 143.053 264.845 143.68C265.178 144.293 265.625 144.767 266.185 145.1C266.745 145.42 267.365 145.58 268.045 145.58C268.725 145.58 269.345 145.42 269.905 145.1C270.478 144.767 270.932 144.293 271.265 143.68C271.598 143.053 271.765 142.327 271.765 141.5ZM290.253 143.9H284.173L283.053 147H281.133L286.173 133.14H288.273L293.293 147H291.373L290.253 143.9ZM289.733 142.42L287.213 135.38L284.693 142.42H289.733ZM297.309 138.06C297.669 137.433 298.203 136.913 298.909 136.5C299.629 136.073 300.463 135.86 301.409 135.86C302.383 135.86 303.263 136.093 304.049 136.56C304.849 137.027 305.476 137.687 305.929 138.54C306.383 139.38 306.609 140.36 306.609 141.48C306.609 142.587 306.383 143.573 305.929 144.44C305.476 145.307 304.849 145.98 304.049 146.46C303.263 146.94 302.383 147.18 301.409 147.18C300.476 147.18 299.649 146.973 298.929 146.56C298.223 146.133 297.683 145.607 297.309 144.98V152.2H295.489V136.04H297.309V138.06ZM304.749 141.48C304.749 140.653 304.583 139.933 304.249 139.32C303.916 138.707 303.463 138.24 302.889 137.92C302.329 137.6 301.709 137.44 301.029 137.44C300.363 137.44 299.743 137.607 299.169 137.94C298.609 138.26 298.156 138.733 297.809 139.36C297.476 139.973 297.309 140.687 297.309 141.5C297.309 142.327 297.476 143.053 297.809 143.68C298.156 144.293 298.609 144.767 299.169 145.1C299.743 145.42 300.363 145.58 301.029 145.58C301.709 145.58 302.329 145.42 302.889 145.1C303.463 144.767 303.916 144.293 304.249 143.68C304.583 143.053 304.749 142.32 304.749 141.48ZM310.825 138.06C311.185 137.433 311.718 136.913 312.425 136.5C313.145 136.073 313.978 135.86 314.925 135.86C315.898 135.86 316.778 136.093 317.565 136.56C318.365 137.027 318.992 137.687 319.445 138.54C319.898 139.38 320.125 140.36 320.125 141.48C320.125 142.587 319.898 143.573 319.445 144.44C318.992 145.307 318.365 145.98 317.565 146.46C316.778 146.94 315.898 147.18 314.925 147.18C313.992 147.18 313.165 146.973 312.445 146.56C311.738 146.133 311.198 145.607 310.825 144.98V152.2H309.005V136.04H310.825V138.06ZM318.265 141.48C318.265 140.653 318.098 139.933 317.765 139.32C317.432 138.707 316.978 138.24 316.405 137.92C315.845 137.6 315.225 137.44 314.545 137.44C313.878 137.44 313.258 137.607 312.685 137.94C312.125 138.26 311.672 138.733 311.325 139.36C310.992 139.973 310.825 140.687 310.825 141.5C310.825 142.327 310.992 143.053 311.325 143.68C311.672 144.293 312.125 144.767 312.685 145.1C313.258 145.42 313.878 145.58 314.545 145.58C315.225 145.58 315.845 145.42 316.405 145.1C316.978 144.767 317.432 144.293 317.765 143.68C318.098 143.053 318.265 142.32 318.265 141.48Z" fill="#001A85"/>
<rect x="412" y="101" width="217" height="78" rx="8" fill="#C6CFFF"/>
<path d="M478.556 133.06V141.88C478.556 143.12 478.856 144.04 479.456 144.64C480.07 145.24 480.916 145.54 481.996 145.54C483.063 145.54 483.896 145.24 484.496 144.64C485.11 144.04 485.416 143.12 485.416 141.88V133.06H487.236V141.86C487.236 143.02 487.003 144 486.536 144.8C486.07 145.587 485.436 146.173 484.636 146.56C483.85 146.947 482.963 147.14 481.976 147.14C480.99 147.14 480.096 146.947 479.296 146.56C478.51 146.173 477.883 145.587 477.416 144.8C476.963 144 476.736 143.02 476.736 141.86V133.06H478.556ZM492.092 133.06V147H490.272V133.06H492.092ZM502.346 145.52H507.226V147H500.526V133.06H502.346V145.52ZM510.099 134.26C509.752 134.26 509.459 134.14 509.219 133.9C508.979 133.66 508.859 133.367 508.859 133.02C508.859 132.673 508.979 132.38 509.219 132.14C509.459 131.9 509.752 131.78 510.099 131.78C510.432 131.78 510.712 131.9 510.939 132.14C511.179 132.38 511.299 132.673 511.299 133.02C511.299 133.367 511.179 133.66 510.939 133.9C510.712 134.14 510.432 134.26 510.099 134.26ZM510.979 136.04V147H509.159V136.04H510.979ZM515.901 138.08C516.274 137.427 516.821 136.893 517.541 136.48C518.261 136.067 519.081 135.86 520.001 135.86C520.988 135.86 521.874 136.093 522.661 136.56C523.448 137.027 524.068 137.687 524.521 138.54C524.974 139.38 525.201 140.36 525.201 141.48C525.201 142.587 524.974 143.573 524.521 144.44C524.068 145.307 523.441 145.98 522.641 146.46C521.854 146.94 520.974 147.18 520.001 147.18C519.054 147.18 518.221 146.973 517.501 146.56C516.794 146.147 516.261 145.62 515.901 144.98V147H514.081V132.2H515.901V138.08ZM523.341 141.48C523.341 140.653 523.174 139.933 522.841 139.32C522.508 138.707 522.054 138.24 521.481 137.92C520.921 137.6 520.301 137.44 519.621 137.44C518.954 137.44 518.334 137.607 517.761 137.94C517.201 138.26 516.748 138.733 516.401 139.36C516.068 139.973 515.901 140.687 515.901 141.5C515.901 142.327 516.068 143.053 516.401 143.68C516.748 144.293 517.201 144.767 517.761 145.1C518.334 145.42 518.954 145.58 519.621 145.58C520.301 145.58 520.921 145.42 521.481 145.1C522.054 144.767 522.508 144.293 522.841 143.68C523.174 143.053 523.341 142.32 523.341 141.48ZM529.417 137.82C529.737 137.193 530.19 136.707 530.777 136.36C531.377 136.013 532.103 135.84 532.957 135.84V137.72H532.477C530.437 137.72 529.417 138.827 529.417 141.04V147H527.597V136.04H529.417V137.82ZM534.378 141.48C534.378 140.36 534.604 139.38 535.058 138.54C535.511 137.687 536.131 137.027 536.918 136.56C537.718 136.093 538.604 135.86 539.578 135.86C540.538 135.86 541.371 136.067 542.078 136.48C542.784 136.893 543.311 137.413 543.658 138.04V136.04H545.498V147H543.658V144.96C543.298 145.6 542.758 146.133 542.038 146.56C541.331 146.973 540.504 147.18 539.558 147.18C538.584 147.18 537.704 146.94 536.918 146.46C536.131 145.98 535.511 145.307 535.058 144.44C534.604 143.573 534.378 142.587 534.378 141.48ZM543.658 141.5C543.658 140.673 543.491 139.953 543.158 139.34C542.824 138.727 542.371 138.26 541.798 137.94C541.238 137.607 540.618 137.44 539.938 137.44C539.258 137.44 538.638 137.6 538.078 137.92C537.518 138.24 537.071 138.707 536.738 139.32C536.404 139.933 536.238 140.653 536.238 141.48C536.238 142.32 536.404 143.053 536.738 143.68C537.071 144.293 537.518 144.767 538.078 145.1C538.638 145.42 539.258 145.58 539.938 145.58C540.618 145.58 541.238 145.42 541.798 145.1C542.371 144.767 542.824 144.293 543.158 143.68C543.491 143.053 543.658 142.327 543.658 141.5ZM550.393 137.82C550.713 137.193 551.167 136.707 551.753 136.36C552.353 136.013 553.08 135.84 553.933 135.84V137.72H553.453C551.413 137.72 550.393 138.827 550.393 141.04V147H548.573V136.04H550.393V137.82ZM565.474 136.04L558.874 152.16H556.994L559.154 146.88L554.734 136.04H556.754L560.194 144.92L563.594 136.04H565.474Z" fill="#001A85"/>
<rect x="74" y="227" width="626" height="77" rx="8" fill="#21D99A"/>
<path d="M271.946 269.9H265.866L264.746 273H262.826L267.866 259.14H269.966L274.986 273H273.066L271.946 269.9ZM271.426 268.42L268.906 261.38L266.386 268.42H271.426ZM286.503 263.14C286.503 264.3 286.103 265.267 285.303 266.04C284.516 266.8 283.309 267.18 281.683 267.18H279.003V273H277.183V259.06H281.683C283.256 259.06 284.449 259.44 285.263 260.2C286.089 260.96 286.503 261.94 286.503 263.14ZM281.683 265.68C282.696 265.68 283.443 265.46 283.923 265.02C284.403 264.58 284.643 263.953 284.643 263.14C284.643 261.42 283.656 260.56 281.683 260.56H279.003V265.68H281.683ZM290.585 259.06V273H288.765V259.06H290.585ZM309.759 259.06V273H307.939V266.68H300.839V273H299.019V259.06H300.839V265.18H307.939V259.06H309.759ZM312.186 267.48C312.186 266.36 312.413 265.38 312.866 264.54C313.32 263.687 313.94 263.027 314.726 262.56C315.526 262.093 316.413 261.86 317.386 261.86C318.346 261.86 319.18 262.067 319.886 262.48C320.593 262.893 321.12 263.413 321.466 264.04V262.04H323.306V273H321.466V270.96C321.106 271.6 320.566 272.133 319.846 272.56C319.14 272.973 318.313 273.18 317.366 273.18C316.393 273.18 315.513 272.94 314.726 272.46C313.94 271.98 313.32 271.307 312.866 270.44C312.413 269.573 312.186 268.587 312.186 267.48ZM321.466 267.5C321.466 266.673 321.3 265.953 320.966 265.34C320.633 264.727 320.18 264.26 319.606 263.94C319.046 263.607 318.426 263.44 317.746 263.44C317.066 263.44 316.446 263.6 315.886 263.92C315.326 264.24 314.88 264.707 314.546 265.32C314.213 265.933 314.046 266.653 314.046 267.48C314.046 268.32 314.213 269.053 314.546 269.68C314.88 270.293 315.326 270.767 315.886 271.1C316.446 271.42 317.066 271.58 317.746 271.58C318.426 271.58 319.046 271.42 319.606 271.1C320.18 270.767 320.633 270.293 320.966 269.68C321.3 269.053 321.466 268.327 321.466 267.5ZM328.202 263.82C328.522 263.193 328.975 262.707 329.562 262.36C330.162 262.013 330.888 261.84 331.742 261.84V263.72H331.262C329.222 263.72 328.202 264.827 328.202 267.04V273H326.382V262.04H328.202V263.82ZM347.023 261.84C347.876 261.84 348.636 262.02 349.303 262.38C349.969 262.727 350.496 263.253 350.883 263.96C351.269 264.667 351.463 265.527 351.463 266.54V273H349.663V266.8C349.663 265.707 349.389 264.873 348.843 264.3C348.309 263.713 347.583 263.42 346.663 263.42C345.716 263.42 344.963 263.727 344.403 264.34C343.843 264.94 343.563 265.813 343.563 266.96V273H341.763V266.8C341.763 265.707 341.489 264.873 340.943 264.3C340.409 263.713 339.683 263.42 338.763 263.42C337.816 263.42 337.063 263.727 336.503 264.34C335.943 264.94 335.663 265.813 335.663 266.96V273H333.843V262.04H335.663V263.62C336.023 263.047 336.503 262.607 337.103 262.3C337.716 261.993 338.389 261.84 339.123 261.84C340.043 261.84 340.856 262.047 341.563 262.46C342.269 262.873 342.796 263.48 343.143 264.28C343.449 263.507 343.956 262.907 344.663 262.48C345.369 262.053 346.156 261.84 347.023 261.84ZM359.228 273.18C358.202 273.18 357.268 272.947 356.428 272.48C355.602 272.013 354.948 271.353 354.468 270.5C354.002 269.633 353.768 268.633 353.768 267.5C353.768 266.38 354.008 265.393 354.488 264.54C354.982 263.673 355.648 263.013 356.488 262.56C357.328 262.093 358.268 261.86 359.308 261.86C360.348 261.86 361.288 262.093 362.128 262.56C362.968 263.013 363.628 263.667 364.108 264.52C364.602 265.373 364.848 266.367 364.848 267.5C364.848 268.633 364.595 269.633 364.088 270.5C363.595 271.353 362.922 272.013 362.068 272.48C361.215 272.947 360.268 273.18 359.228 273.18ZM359.228 271.58C359.882 271.58 360.495 271.427 361.068 271.12C361.642 270.813 362.102 270.353 362.448 269.74C362.808 269.127 362.988 268.38 362.988 267.5C362.988 266.62 362.815 265.873 362.468 265.26C362.122 264.647 361.668 264.193 361.108 263.9C360.548 263.593 359.942 263.44 359.288 263.44C358.622 263.44 358.008 263.593 357.448 263.9C356.902 264.193 356.462 264.647 356.128 265.26C355.795 265.873 355.628 266.62 355.628 267.5C355.628 268.393 355.788 269.147 356.108 269.76C356.442 270.373 356.882 270.833 357.428 271.14C357.975 271.433 358.575 271.58 359.228 271.58ZM372.581 261.84C373.915 261.84 374.995 262.247 375.821 263.06C376.648 263.86 377.061 265.02 377.061 266.54V273H375.261V266.8C375.261 265.707 374.988 264.873 374.441 264.3C373.895 263.713 373.148 263.42 372.201 263.42C371.241 263.42 370.475 263.72 369.901 264.32C369.341 264.92 369.061 265.793 369.061 266.94V273H367.241V262.04H369.061V263.6C369.421 263.04 369.908 262.607 370.521 262.3C371.148 261.993 371.835 261.84 372.581 261.84ZM380.974 260.26C380.627 260.26 380.334 260.14 380.094 259.9C379.854 259.66 379.734 259.367 379.734 259.02C379.734 258.673 379.854 258.38 380.094 258.14C380.334 257.9 380.627 257.78 380.974 257.78C381.307 257.78 381.587 257.9 381.814 258.14C382.054 258.38 382.174 258.673 382.174 259.02C382.174 259.367 382.054 259.66 381.814 259.9C381.587 260.14 381.307 260.26 380.974 260.26ZM381.854 262.04V273H380.034V262.04H381.854ZM386.316 271.5H391.696V273H384.236V271.5L389.556 263.52H384.276V262.04H391.656V263.52L386.316 271.5ZM393.378 267.48C393.378 266.36 393.604 265.38 394.058 264.54C394.511 263.687 395.131 263.027 395.918 262.56C396.718 262.093 397.604 261.86 398.578 261.86C399.538 261.86 400.371 262.067 401.078 262.48C401.784 262.893 402.311 263.413 402.658 264.04V262.04H404.498V273H402.658V270.96C402.298 271.6 401.758 272.133 401.038 272.56C400.331 272.973 399.504 273.18 398.558 273.18C397.584 273.18 396.704 272.94 395.918 272.46C395.131 271.98 394.511 271.307 394.058 270.44C393.604 269.573 393.378 268.587 393.378 267.48ZM402.658 267.5C402.658 266.673 402.491 265.953 402.158 265.34C401.824 264.727 401.371 264.26 400.798 263.94C400.238 263.607 399.618 263.44 398.938 263.44C398.258 263.44 397.638 263.6 397.078 263.92C396.518 264.24 396.071 264.707 395.738 265.32C395.404 265.933 395.238 266.653 395.238 267.48C395.238 268.32 395.404 269.053 395.738 269.68C396.071 270.293 396.518 270.767 397.078 271.1C397.638 271.42 398.258 271.58 398.938 271.58C399.618 271.58 400.238 271.42 400.798 271.1C401.371 270.767 401.824 270.293 402.158 269.68C402.491 269.053 402.658 268.327 402.658 267.5ZM409.793 263.54V270C409.793 270.533 409.907 270.913 410.133 271.14C410.36 271.353 410.753 271.46 411.313 271.46H412.653V273H411.013C410 273 409.24 272.767 408.733 272.3C408.227 271.833 407.973 271.067 407.973 270V263.54H406.553V262.04H407.973V259.28H409.793V262.04H412.653V263.54H409.793ZM415.798 260.26C415.452 260.26 415.158 260.14 414.918 259.9C414.678 259.66 414.558 259.367 414.558 259.02C414.558 258.673 414.678 258.38 414.918 258.14C415.158 257.9 415.452 257.78 415.798 257.78C416.132 257.78 416.412 257.9 416.638 258.14C416.878 258.38 416.998 258.673 416.998 259.02C416.998 259.367 416.878 259.66 416.638 259.9C416.412 260.14 416.132 260.26 415.798 260.26ZM416.678 262.04V273H414.858V262.04H416.678ZM424.56 273.18C423.534 273.18 422.6 272.947 421.76 272.48C420.934 272.013 420.28 271.353 419.8 270.5C419.334 269.633 419.1 268.633 419.1 267.5C419.1 266.38 419.34 265.393 419.82 264.54C420.314 263.673 420.98 263.013 421.82 262.56C422.66 262.093 423.6 261.86 424.64 261.86C425.68 261.86 426.62 262.093 427.46 262.56C428.3 263.013 428.96 263.667 429.44 264.52C429.934 265.373 430.18 266.367 430.18 267.5C430.18 268.633 429.927 269.633 429.42 270.5C428.927 271.353 428.254 272.013 427.4 272.48C426.547 272.947 425.6 273.18 424.56 273.18ZM424.56 271.58C425.214 271.58 425.827 271.427 426.4 271.12C426.974 270.813 427.434 270.353 427.78 269.74C428.14 269.127 428.32 268.38 428.32 267.5C428.32 266.62 428.147 265.873 427.8 265.26C427.454 264.647 427 264.193 426.44 263.9C425.88 263.593 425.274 263.44 424.62 263.44C423.954 263.44 423.34 263.593 422.78 263.9C422.234 264.193 421.794 264.647 421.46 265.26C421.127 265.873 420.96 266.62 420.96 267.5C420.96 268.393 421.12 269.147 421.44 269.76C421.774 270.373 422.214 270.833 422.76 271.14C423.307 271.433 423.907 271.58 424.56 271.58ZM437.913 261.84C439.247 261.84 440.327 262.247 441.153 263.06C441.98 263.86 442.393 265.02 442.393 266.54V273H440.593V266.8C440.593 265.707 440.32 264.873 439.773 264.3C439.227 263.713 438.48 263.42 437.533 263.42C436.573 263.42 435.807 263.72 435.233 264.32C434.673 264.92 434.393 265.793 434.393 266.94V273H432.573V262.04H434.393V263.6C434.753 263.04 435.24 262.607 435.853 262.3C436.48 261.993 437.167 261.84 437.913 261.84ZM455.118 273.14C454.198 273.14 453.372 272.98 452.638 272.66C451.918 272.327 451.352 271.873 450.938 271.3C450.525 270.713 450.312 270.04 450.298 269.28H452.238C452.305 269.933 452.572 270.487 453.038 270.94C453.518 271.38 454.212 271.6 455.118 271.6C455.985 271.6 456.665 271.387 457.158 270.96C457.665 270.52 457.918 269.96 457.918 269.28C457.918 268.747 457.772 268.313 457.478 267.98C457.185 267.647 456.818 267.393 456.378 267.22C455.938 267.047 455.345 266.86 454.598 266.66C453.678 266.42 452.938 266.18 452.378 265.94C451.832 265.7 451.358 265.327 450.958 264.82C450.572 264.3 450.378 263.607 450.378 262.74C450.378 261.98 450.572 261.307 450.958 260.72C451.345 260.133 451.885 259.68 452.578 259.36C453.285 259.04 454.092 258.88 454.998 258.88C456.305 258.88 457.372 259.207 458.198 259.86C459.038 260.513 459.512 261.38 459.618 262.46H457.618C457.552 261.927 457.272 261.46 456.778 261.06C456.285 260.647 455.632 260.44 454.818 260.44C454.058 260.44 453.438 260.64 452.958 261.04C452.478 261.427 452.238 261.973 452.238 262.68C452.238 263.187 452.378 263.6 452.658 263.92C452.952 264.24 453.305 264.487 453.718 264.66C454.145 264.82 454.738 265.007 455.498 265.22C456.418 265.473 457.158 265.727 457.718 265.98C458.278 266.22 458.758 266.6 459.158 267.12C459.558 267.627 459.758 268.32 459.758 269.2C459.758 269.88 459.578 270.52 459.218 271.12C458.858 271.72 458.325 272.207 457.618 272.58C456.912 272.953 456.078 273.14 455.118 273.14ZM472.436 267.1C472.436 267.447 472.416 267.813 472.376 268.2H463.616C463.683 269.28 464.05 270.127 464.716 270.74C465.396 271.34 466.216 271.64 467.176 271.64C467.963 271.64 468.616 271.46 469.136 271.1C469.67 270.727 470.043 270.233 470.256 269.62H472.216C471.923 270.673 471.336 271.533 470.456 272.2C469.576 272.853 468.483 273.18 467.176 273.18C466.136 273.18 465.203 272.947 464.376 272.48C463.563 272.013 462.923 271.353 462.456 270.5C461.99 269.633 461.756 268.633 461.756 267.5C461.756 266.367 461.983 265.373 462.436 264.52C462.89 263.667 463.523 263.013 464.336 262.56C465.163 262.093 466.11 261.86 467.176 261.86C468.216 261.86 469.136 262.087 469.936 262.54C470.736 262.993 471.35 263.62 471.776 264.42C472.216 265.207 472.436 266.1 472.436 267.1ZM470.556 266.72C470.556 266.027 470.403 265.433 470.096 264.94C469.79 264.433 469.37 264.053 468.836 263.8C468.316 263.533 467.736 263.4 467.096 263.4C466.176 263.4 465.39 263.693 464.736 264.28C464.096 264.867 463.73 265.68 463.636 266.72H470.556ZM476.659 263.82C476.979 263.193 477.432 262.707 478.019 262.36C478.619 262.013 479.345 261.84 480.199 261.84V263.72H479.719C477.679 263.72 476.659 264.827 476.659 267.04V273H474.839V262.04H476.659V263.82ZM486.38 271.32L489.78 262.04H491.72L487.42 273H485.3L481 262.04H482.96L486.38 271.32ZM503.511 267.1C503.511 267.447 503.491 267.813 503.451 268.2H494.691C494.757 269.28 495.124 270.127 495.791 270.74C496.471 271.34 497.291 271.64 498.251 271.64C499.037 271.64 499.691 271.46 500.211 271.1C500.744 270.727 501.117 270.233 501.331 269.62H503.291C502.997 270.673 502.411 271.533 501.531 272.2C500.651 272.853 499.557 273.18 498.251 273.18C497.211 273.18 496.277 272.947 495.451 272.48C494.637 272.013 493.997 271.353 493.531 270.5C493.064 269.633 492.831 268.633 492.831 267.5C492.831 266.367 493.057 265.373 493.511 264.52C493.964 263.667 494.597 263.013 495.411 262.56C496.237 262.093 497.184 261.86 498.251 261.86C499.291 261.86 500.211 262.087 501.011 262.54C501.811 262.993 502.424 263.62 502.851 264.42C503.291 265.207 503.511 266.1 503.511 267.1ZM501.631 266.72C501.631 266.027 501.477 265.433 501.171 264.94C500.864 264.433 500.444 264.053 499.911 263.8C499.391 263.533 498.811 263.4 498.171 263.4C497.251 263.4 496.464 263.693 495.811 264.28C495.171 264.867 494.804 265.68 494.711 266.72H501.631ZM507.733 263.82C508.053 263.193 508.506 262.707 509.093 262.36C509.693 262.013 510.42 261.84 511.273 261.84V263.72H510.793C508.753 263.72 507.733 264.827 507.733 267.04V273H505.913V262.04H507.733V263.82Z" fill="#001A85"/>
<rect x="126" y="403" width="100" height="80" rx="8" fill="#4C5CE5"/>
<path d="M154.653 443.02C154.653 441.66 154.96 440.44 155.573 439.36C156.186 438.267 157.02 437.413 158.073 436.8C159.14 436.187 160.32 435.88 161.613 435.88C163.133 435.88 164.46 436.247 165.593 436.98C166.726 437.713 167.553 438.753 168.073 440.1H165.893C165.506 439.26 164.946 438.613 164.213 438.16C163.493 437.707 162.626 437.48 161.613 437.48C160.64 437.48 159.766 437.707 158.993 438.16C158.22 438.613 157.613 439.26 157.173 440.1C156.733 440.927 156.513 441.9 156.513 443.02C156.513 444.127 156.733 445.1 157.173 445.94C157.613 446.767 158.22 447.407 158.993 447.86C159.766 448.313 160.64 448.54 161.613 448.54C162.626 448.54 163.493 448.32 164.213 447.88C164.946 447.427 165.506 446.78 165.893 445.94H168.073C167.553 447.273 166.726 448.307 165.593 449.04C164.46 449.76 163.133 450.12 161.613 450.12C160.32 450.12 159.14 449.82 158.073 449.22C157.02 448.607 156.186 447.76 155.573 446.68C154.96 445.6 154.653 444.38 154.653 443.02ZM184.922 436.16V450H183.102V439.68L178.502 450H177.222L172.602 439.66V450H170.782V436.16H172.742L177.862 447.6L182.982 436.16H184.922ZM192.429 450.14C191.509 450.14 190.682 449.98 189.949 449.66C189.229 449.327 188.662 448.873 188.249 448.3C187.835 447.713 187.622 447.04 187.609 446.28H189.549C189.615 446.933 189.882 447.487 190.349 447.94C190.829 448.38 191.522 448.6 192.429 448.6C193.295 448.6 193.975 448.387 194.469 447.96C194.975 447.52 195.229 446.96 195.229 446.28C195.229 445.747 195.082 445.313 194.789 444.98C194.495 444.647 194.129 444.393 193.689 444.22C193.249 444.047 192.655 443.86 191.909 443.66C190.989 443.42 190.249 443.18 189.689 442.94C189.142 442.7 188.669 442.327 188.269 441.82C187.882 441.3 187.689 440.607 187.689 439.74C187.689 438.98 187.882 438.307 188.269 437.72C188.655 437.133 189.195 436.68 189.889 436.36C190.595 436.04 191.402 435.88 192.309 435.88C193.615 435.88 194.682 436.207 195.509 436.86C196.349 437.513 196.822 438.38 196.929 439.46H194.929C194.862 438.927 194.582 438.46 194.089 438.06C193.595 437.647 192.942 437.44 192.129 437.44C191.369 437.44 190.749 437.64 190.269 438.04C189.789 438.427 189.549 438.973 189.549 439.68C189.549 440.187 189.689 440.6 189.969 440.92C190.262 441.24 190.615 441.487 191.029 441.66C191.455 441.82 192.049 442.007 192.809 442.22C193.729 442.473 194.469 442.727 195.029 442.98C195.589 443.22 196.069 443.6 196.469 444.12C196.869 444.627 197.069 445.32 197.069 446.2C197.069 446.88 196.889 447.52 196.529 448.12C196.169 448.72 195.635 449.207 194.929 449.58C194.222 449.953 193.389 450.14 192.429 450.14Z" fill="white"/>
<rect x="267" y="403" width="100" height="80" rx="8" fill="#4C5CE5"/>
<path d="M302.548 436.06V450H300.728V436.06H302.548ZM313.889 446.9H307.809L306.689 450H304.769L309.809 436.14H311.909L316.929 450H315.009L313.889 446.9ZM313.369 445.42L310.849 438.38L308.329 445.42H313.369ZM333.266 436.16V450H331.446V439.68L326.846 450H325.566L320.946 439.66V450H319.126V436.16H321.086L326.206 447.6L331.326 436.16H333.266Z" fill="white"/>
<rect x="408" y="403" width="100" height="80" rx="8" fill="#4C5CE5"/>
<path d="M428.931 450.14C428.011 450.14 427.184 449.98 426.451 449.66C425.731 449.327 425.164 448.873 424.751 448.3C424.337 447.713 424.124 447.04 424.111 446.28H426.051C426.117 446.933 426.384 447.487 426.851 447.94C427.331 448.38 428.024 448.6 428.931 448.6C429.797 448.6 430.477 448.387 430.971 447.96C431.477 447.52 431.731 446.96 431.731 446.28C431.731 445.747 431.584 445.313 431.291 444.98C430.997 444.647 430.631 444.393 430.191 444.22C429.751 444.047 429.157 443.86 428.411 443.66C427.491 443.42 426.751 443.18 426.191 442.94C425.644 442.7 425.171 442.327 424.771 441.82C424.384 441.3 424.191 440.607 424.191 439.74C424.191 438.98 424.384 438.307 424.771 437.72C425.157 437.133 425.697 436.68 426.391 436.36C427.097 436.04 427.904 435.88 428.811 435.88C430.117 435.88 431.184 436.207 432.011 436.86C432.851 437.513 433.324 438.38 433.431 439.46H431.431C431.364 438.927 431.084 438.46 430.591 438.06C430.097 437.647 429.444 437.44 428.631 437.44C427.871 437.44 427.251 437.64 426.771 438.04C426.291 438.427 426.051 438.973 426.051 439.68C426.051 440.187 426.191 440.6 426.471 440.92C426.764 441.24 427.117 441.487 427.531 441.66C427.957 441.82 428.551 442.007 429.311 442.22C430.231 442.473 430.971 442.727 431.531 442.98C432.091 443.22 432.571 443.6 432.971 444.12C433.371 444.627 433.571 445.32 433.571 446.2C433.571 446.88 433.391 447.52 433.031 448.12C432.671 448.72 432.137 449.207 431.431 449.58C430.724 449.953 429.891 450.14 428.931 450.14ZM446.249 444.1C446.249 444.447 446.229 444.813 446.189 445.2H437.429C437.496 446.28 437.862 447.127 438.529 447.74C439.209 448.34 440.029 448.64 440.989 448.64C441.776 448.64 442.429 448.46 442.949 448.1C443.482 447.727 443.856 447.233 444.069 446.62H446.029C445.736 447.673 445.149 448.533 444.269 449.2C443.389 449.853 442.296 450.18 440.989 450.18C439.949 450.18 439.016 449.947 438.189 449.48C437.376 449.013 436.736 448.353 436.269 447.5C435.802 446.633 435.569 445.633 435.569 444.5C435.569 443.367 435.796 442.373 436.249 441.52C436.702 440.667 437.336 440.013 438.149 439.56C438.976 439.093 439.922 438.86 440.989 438.86C442.029 438.86 442.949 439.087 443.749 439.54C444.549 439.993 445.162 440.62 445.589 441.42C446.029 442.207 446.249 443.1 446.249 444.1ZM444.369 443.72C444.369 443.027 444.216 442.433 443.909 441.94C443.602 441.433 443.182 441.053 442.649 440.8C442.129 440.533 441.549 440.4 440.909 440.4C439.989 440.4 439.202 440.693 438.549 441.28C437.909 441.867 437.542 442.68 437.449 443.72H444.369ZM447.971 444.48C447.971 443.36 448.198 442.38 448.651 441.54C449.105 440.687 449.725 440.027 450.511 439.56C451.311 439.093 452.198 438.86 453.171 438.86C454.131 438.86 454.965 439.067 455.671 439.48C456.378 439.893 456.905 440.413 457.251 441.04V439.04H459.091V450H457.251V447.96C456.891 448.6 456.351 449.133 455.631 449.56C454.925 449.973 454.098 450.18 453.151 450.18C452.178 450.18 451.298 449.94 450.511 449.46C449.725 448.98 449.105 448.307 448.651 447.44C448.198 446.573 447.971 445.587 447.971 444.48ZM457.251 444.5C457.251 443.673 457.085 442.953 456.751 442.34C456.418 441.727 455.965 441.26 455.391 440.94C454.831 440.607 454.211 440.44 453.531 440.44C452.851 440.44 452.231 440.6 451.671 440.92C451.111 441.24 450.665 441.707 450.331 442.32C449.998 442.933 449.831 443.653 449.831 444.48C449.831 445.32 449.998 446.053 450.331 446.68C450.665 447.293 451.111 447.767 451.671 448.1C452.231 448.42 452.851 448.58 453.531 448.58C454.211 448.58 454.831 448.42 455.391 448.1C455.965 447.767 456.418 447.293 456.751 446.68C457.085 446.053 457.251 445.327 457.251 444.5ZM463.987 440.82C464.307 440.193 464.76 439.707 465.347 439.36C465.947 439.013 466.674 438.84 467.527 438.84V440.72H467.047C465.007 440.72 463.987 441.827 463.987 444.04V450H462.167V439.04H463.987V440.82ZM468.948 444.5C468.948 443.367 469.175 442.38 469.628 441.54C470.081 440.687 470.708 440.027 471.508 439.56C472.321 439.093 473.248 438.86 474.288 438.86C475.635 438.86 476.741 439.187 477.608 439.84C478.488 440.493 479.068 441.4 479.348 442.56H477.388C477.201 441.893 476.835 441.367 476.288 440.98C475.755 440.593 475.088 440.4 474.288 440.4C473.248 440.4 472.408 440.76 471.768 441.48C471.128 442.187 470.808 443.193 470.808 444.5C470.808 445.82 471.128 446.84 471.768 447.56C472.408 448.28 473.248 448.64 474.288 448.64C475.088 448.64 475.755 448.453 476.288 448.08C476.821 447.707 477.188 447.173 477.388 446.48H479.348C479.055 447.6 478.468 448.5 477.588 449.18C476.708 449.847 475.608 450.18 474.288 450.18C473.248 450.18 472.321 449.947 471.508 449.48C470.708 449.013 470.081 448.353 469.628 447.5C469.175 446.647 468.948 445.647 468.948 444.5ZM487.216 438.84C488.043 438.84 488.79 439.02 489.456 439.38C490.123 439.727 490.643 440.253 491.016 440.96C491.403 441.667 491.596 442.527 491.596 443.54V450H489.796V443.8C489.796 442.707 489.523 441.873 488.976 441.3C488.43 440.713 487.683 440.42 486.736 440.42C485.776 440.42 485.01 440.72 484.436 441.32C483.876 441.92 483.596 442.793 483.596 443.94V450H481.776V435.2H483.596V440.6C483.956 440.04 484.45 439.607 485.076 439.3C485.716 438.993 486.43 438.84 487.216 438.84Z" fill="white"/>
<rect x="549" y="403" width="100" height="80" rx="8" fill="#4C5CE5"/>
<path d="M577.438 443.02C577.438 441.66 577.745 440.44 578.358 439.36C578.971 438.267 579.805 437.413 580.858 436.8C581.925 436.187 583.105 435.88 584.398 435.88C585.918 435.88 587.245 436.247 588.378 436.98C589.511 437.713 590.338 438.753 590.858 440.1H588.678C588.291 439.26 587.731 438.613 586.998 438.16C586.278 437.707 585.411 437.48 584.398 437.48C583.425 437.48 582.551 437.707 581.778 438.16C581.005 438.613 580.398 439.26 579.958 440.1C579.518 440.927 579.298 441.9 579.298 443.02C579.298 444.127 579.518 445.1 579.958 445.94C580.398 446.767 581.005 447.407 581.778 447.86C582.551 448.313 583.425 448.54 584.398 448.54C585.411 448.54 586.278 448.32 586.998 447.88C587.731 447.427 588.291 446.78 588.678 445.94H590.858C590.338 447.273 589.511 448.307 588.378 449.04C587.245 449.76 585.918 450.12 584.398 450.12C583.105 450.12 581.925 449.82 580.858 449.22C579.805 448.607 578.971 447.76 578.358 446.68C577.745 445.6 577.438 444.38 577.438 443.02ZM600.907 450L597.587 444.3H595.387V450H593.567V436.06H598.067C599.121 436.06 600.007 436.24 600.727 436.6C601.461 436.96 602.007 437.447 602.367 438.06C602.727 438.673 602.907 439.373 602.907 440.16C602.907 441.12 602.627 441.967 602.067 442.7C601.521 443.433 600.694 443.92 599.587 444.16L603.087 450H600.907ZM595.387 442.84H598.067C599.054 442.84 599.794 442.6 600.287 442.12C600.781 441.627 601.027 440.973 601.027 440.16C601.027 439.333 600.781 438.693 600.287 438.24C599.807 437.787 599.067 437.56 598.067 437.56H595.387V442.84ZM619.875 436.16V450H618.055V439.68L613.455 450H612.175L607.555 439.66V450H605.735V436.16H607.695L612.815 447.6L617.935 436.16H619.875Z" fill="white"/>
<path d="M175.293 398.707C175.683 399.098 176.317 399.098 176.707 398.707L183.071 392.343C183.462 391.953 183.462 391.319 183.071 390.929C182.681 390.538 182.047 390.538 181.657 390.929L176 396.586L170.343 390.929C169.953 390.538 169.319 390.538 168.929 390.929C168.538 391.319 168.538 391.953 168.929 392.343L175.293 398.707ZM176 302L175 302L175 398L176 398L177 398L177 302L176 302Z" fill="url(#paint2_linear_3061_1056)"/>
<path d="M316.293 398.707C316.683 399.098 317.317 399.098 317.707 398.707L324.071 392.343C324.462 391.953 324.462 391.319 324.071 390.929C323.681 390.538 323.047 390.538 322.657 390.929L317 396.586L311.343 390.929C310.953 390.538 310.319 390.538 309.929 390.929C309.538 391.319 309.538 391.953 309.929 392.343L316.293 398.707ZM317 302L316 302L316 398L317 398L318 398L318 302L317 302Z" fill="url(#paint3_linear_3061_1056)"/>
<path d="M457.293 398.707C457.683 399.098 458.317 399.098 458.707 398.707L465.071 392.343C465.462 391.953 465.462 391.319 465.071 390.929C464.681 390.538 464.047 390.538 463.657 390.929L458 396.586L452.343 390.929C451.953 390.538 451.319 390.538 450.929 390.929C450.538 391.319 450.538 391.953 450.929 392.343L457.293 398.707ZM458 302L457 302L457 398L458 398L459 398L459 302L458 302Z" fill="url(#paint4_linear_3061_1056)"/>
<path d="M598.293 398.707C598.683 399.098 599.317 399.098 599.707 398.707L606.071 392.343C606.462 391.953 606.462 391.319 606.071 390.929C605.681 390.538 605.047 390.538 604.657 390.929L599 396.586L593.343 390.929C592.953 390.538 592.319 390.538 591.929 390.929C591.538 391.319 591.538 391.953 591.929 392.343L598.293 398.707ZM599 302L598 302L598 398L599 398L600 398L600 302L599 302Z" fill="url(#paint5_linear_3061_1056)"/>
<path d="M386.293 220.707C386.683 221.098 387.317 221.098 387.707 220.707L394.071 214.343C394.462 213.953 394.462 213.319 394.071 212.929C393.681 212.538 393.047 212.538 392.657 212.929L387 218.586L381.343 212.929C380.953 212.538 380.319 212.538 379.929 212.929C379.538 213.319 379.538 213.953 379.929 214.343L386.293 220.707ZM387 195L386 195L386 220L387 220L388 220L388 195L387 195Z" fill="#4C5CE5"/>
<path d="M367.293 138.293C366.902 138.683 366.902 139.317 367.293 139.707L373.657 146.071C374.047 146.462 374.681 146.462 375.071 146.071C375.462 145.681 375.462 145.047 375.071 144.657L369.414 139L375.071 133.343C375.462 132.953 375.462 132.319 375.071 131.929C374.681 131.538 374.047 131.538 373.657 131.929L367.293 138.293ZM412 139V138H368V139V140H412V139Z" fill="#C6CFFF"/>
<defs>
<linearGradient id="paint0_linear_3061_1056" x1="0" y1="0" x2="113.413" y2="499.876" gradientUnits="userSpaceOnUse">
<stop stop-color="#001A85"/>
<stop offset="0.651042" stop-color="#16182B"/>
</linearGradient>
<linearGradient id="paint1_linear_3061_1056" x1="326.768" y1="-44.3927" x2="570.875" y2="294.625" gradientUnits="userSpaceOnUse">
<stop stop-color="#4C5CE5"/>
<stop offset="0.346406" stop-color="#2563EB"/>
<stop offset="1" stop-color="#34D399"/>
</linearGradient>
<linearGradient id="paint2_linear_3061_1056" x1="176.502" y1="317.092" x2="170.453" y2="317.977" gradientUnits="userSpaceOnUse">
<stop stop-color="#34D399"/>
<stop offset="0.49" stop-color="#2563EB"/>
<stop offset="1" stop-color="#4C5CE5"/>
</linearGradient>
<linearGradient id="paint3_linear_3061_1056" x1="317.502" y1="317.092" x2="311.453" y2="317.977" gradientUnits="userSpaceOnUse">
<stop stop-color="#34D399"/>
<stop offset="0.49" stop-color="#2563EB"/>
<stop offset="1" stop-color="#4C5CE5"/>
</linearGradient>
<linearGradient id="paint4_linear_3061_1056" x1="458.502" y1="317.092" x2="452.453" y2="317.977" gradientUnits="userSpaceOnUse">
<stop stop-color="#34D399"/>
<stop offset="0.49" stop-color="#2563EB"/>
<stop offset="1" stop-color="#4C5CE5"/>
</linearGradient>
<linearGradient id="paint5_linear_3061_1056" x1="599.502" y1="317.092" x2="593.453" y2="317.977" gradientUnits="userSpaceOnUse">
<stop stop-color="#34D399"/>
<stop offset="0.49" stop-color="#2563EB"/>
<stop offset="1" stop-color="#4C5CE5"/>
</linearGradient>
</defs>
</svg>
