<svg width="50" height="50" viewBox="0 0 50 50" fill="none" xmlns="http://www.w3.org/2000/svg">
<path d="M0 13C0 10.2386 2.23858 8 5 8H37C39.7614 8 42 10.2386 42 13V45C42 47.7614 39.7614 50 37 50H5C2.23858 50 0 47.7614 0 45V13Z" fill="#4C5CE5"/>
<path d="M26.5007 32.6665L30.1673 28.9998L26.5007 25.3332M15.5007 25.3332L11.834 28.9998L15.5007 32.6665M23.2923 21.6665L18.709 36.3332" stroke="white" stroke-linecap="round" stroke-linejoin="round"/>
<rect x="25" width="25" height="25" rx="12.5" fill="#21D99A"/>
<path d="M39.4193 18.1216V16.0052C39.493 15.3423 39.3029 14.6772 38.8902 14.1533C40.4775 14.1533 42.0648 13.0951 42.0648 11.2433C42.1072 10.5819 41.922 9.93109 41.5357 9.3914C41.6839 8.78294 41.6839 8.14802 41.5357 7.53955C41.5357 7.53955 41.0066 7.53955 39.9484 8.3332C38.5516 8.06865 37.1125 8.06865 35.7156 8.3332C34.6574 7.53955 34.1283 7.53955 34.1283 7.53955C33.9696 8.14802 33.9696 8.78294 34.1283 9.3914C33.7431 9.92891 33.5561 10.5834 33.5992 11.2433C33.5992 13.0951 35.1865 14.1533 36.7738 14.1533C36.5675 14.4126 36.4141 14.7089 36.3241 15.0263C36.2342 15.3438 36.2077 15.6771 36.2447 16.0052M36.2447 16.0052V18.1216M36.2447 16.0052C33.8585 17.0634 33.5992 14.947 32.541 14.947" stroke="white" stroke-linecap="round" stroke-linejoin="round"/>
</svg>
