<svg width="50" height="50" viewBox="0 0 50 50" fill="none" xmlns="http://www.w3.org/2000/svg">
<rect y="10" width="40" height="40" rx="5" fill="#4C5CE5"/>
<rect x="0.5" y="10.5" width="39" height="39" rx="4.5" stroke="#4C5CE5" stroke-opacity="0.4"/>
<path d="M12.4355 28.5588H15.1382C15.6161 28.5588 16.0744 28.7486 16.4123 29.0865C16.7502 29.4244 16.9401 29.8827 16.9401 30.3606V33.0633C16.9401 33.5412 16.7502 33.9995 16.4123 34.3374C16.0744 34.6753 15.6161 34.8651 15.1382 34.8651H14.2373C13.7595 34.8651 13.3012 34.6753 12.9633 34.3374C12.6254 33.9995 12.4355 33.5412 12.4355 33.0633V28.5588ZM12.4355 28.5588C12.4355 27.494 12.6453 26.4397 13.0527 25.456C13.4602 24.4722 14.0574 23.5784 14.8104 22.8255C15.5633 22.0726 16.4571 21.4753 17.4408 21.0679C18.4245 20.6604 19.4789 20.4507 20.5437 20.4507C21.6084 20.4507 22.6628 20.6604 23.6465 21.0679C24.6302 21.4753 25.524 22.0726 26.277 22.8255C27.0299 23.5784 27.6271 24.4722 28.0346 25.456C28.442 26.4397 28.6518 27.494 28.6518 28.5588M28.6518 28.5588V33.0633M28.6518 28.5588H25.9491C25.4712 28.5588 25.0129 28.7486 24.675 29.0865C24.3371 29.4244 24.1473 29.8827 24.1473 30.3606V33.0633C24.1473 33.5412 24.3371 33.9995 24.675 34.3374C25.0129 34.6753 25.4712 34.8651 25.9491 34.8651H26.85C27.3278 34.8651 27.7861 34.6753 28.124 34.3374C28.4619 33.9995 28.6518 33.5412 28.6518 33.0633M28.6518 33.0633V34.8651C28.6518 35.8208 28.2721 36.7374 27.5963 37.4132C26.9205 38.089 26.0039 38.4687 25.0482 38.4687H20.5437" stroke="white" stroke-linecap="round" stroke-linejoin="round"/>
<rect x="25" width="25" height="25" rx="12.5" fill="#21D99A"/>
<g clip-path="url(#clip0_3677_2450)">
<rect width="17.1429" height="17.1429" transform="translate(28.75 3.75)" fill="#21D99A"/>
<path d="M33.0349 19.4644V6.60728C33.0349 6.2284 33.1854 5.86504 33.4533 5.59713C33.7212 5.32922 34.0846 5.17871 34.4634 5.17871H40.1777C40.5566 5.17871 40.92 5.32922 41.1879 5.59713C41.4558 5.86504 41.6063 6.2284 41.6063 6.60728V19.4644M33.0349 19.4644H41.6063M33.0349 19.4644H31.6063C31.2274 19.4644 30.8641 19.3139 30.5962 19.046C30.3282 18.7781 30.1777 18.4147 30.1777 18.0359V13.7501C30.1777 13.3713 30.3282 13.0079 30.5962 12.74C30.8641 12.4721 31.2274 12.3216 31.6063 12.3216H33.0349M41.6063 19.4644H43.0349C43.4138 19.4644 43.7771 19.3139 44.045 19.046C44.3129 18.7781 44.4634 18.4147 44.4634 18.0359V11.6073C44.4634 11.2284 44.3129 10.865 44.045 10.5971C43.7771 10.3292 43.4138 10.1787 43.0349 10.1787H41.6063M35.892 8.03585H38.7492M35.892 10.893H38.7492M35.892 13.7501H38.7492M35.892 16.6073H38.7492" stroke="white" stroke-width="1.2" stroke-linecap="round" stroke-linejoin="round"/>
</g>
<defs>
<clipPath id="clip0_3677_2450">
<rect width="17.1429" height="17.1429" fill="white" transform="translate(28.75 3.75)"/>
</clipPath>
</defs>
</svg>
