<svg width="50" height="50" viewBox="0 0 50 50" fill="none" xmlns="http://www.w3.org/2000/svg">
<path d="M5 8.5H37C39.4853 8.5 41.5 10.5147 41.5 13V45C41.5 47.4853 39.4853 49.5 37 49.5H5C2.51472 49.5 0.5 47.4853 0.5 45V13C0.500001 10.5147 2.51472 8.5 5 8.5Z" stroke="#4C5CE5"/>
<rect x="4.5" y="14.5" width="18" height="11" rx="1.5" stroke="#4C5CE5" stroke-miterlimit="10" stroke-dasharray="2 2"/>
<rect x="26" y="28" width="12" height="16" rx="1" fill="#4C5CE5"/>
<rect x="4" y="28" width="19" height="4" rx="1" fill="#4C5CE5"/>
<rect x="4" y="34" width="19" height="4" rx="1" fill="#4C5CE5"/>
<rect x="4" y="40" width="19" height="4" rx="1" fill="#4C5CE5"/>
<rect x="25" width="25" height="25" rx="4" fill="#21D99A"/>
<g clip-path="url(#clip0_3003_1050)">
<path d="M37.3218 5.17871V12.3216M41.8931 8.46449C42.7907 9.36243 43.4023 10.506 43.6508 11.7511C43.8993 12.9962 43.7735 14.287 43.2894 15.4607C42.8052 16.6344 41.9844 17.6385 40.9304 18.3463C39.8763 19.0541 38.6363 19.4339 37.3667 19.4379C36.0971 19.4419 34.8547 19.0698 33.7962 18.3686C32.7378 17.6674 31.9107 16.6685 31.4192 15.4979C30.9277 14.3272 30.7939 13.0373 31.0345 11.7906C31.2752 10.544 31.8797 9.3966 32.7716 8.49307" stroke="white" stroke-width="1.2" stroke-linecap="round" stroke-linejoin="round"/>
</g>
<defs>
<clipPath id="clip0_3003_1050">
<rect width="17.1429" height="17.1429" fill="white" transform="translate(28.75 3.75)"/>
</clipPath>
</defs>
</svg>
