<svg width="50" height="50" viewBox="0 0 50 50" fill="none" xmlns="http://www.w3.org/2000/svg">
<path d="M0 13C0 10.2386 2.23858 8 5 8H37C39.7614 8 42 10.2386 42 13V45C42 47.7614 39.7614 50 37 50H5C2.23858 50 0 47.7614 0 45V13Z" fill="#4C5CE5"/>
<path d="M25.1667 24.0835H13.5M28.5 29.0835H13.5M23.5833 34.0001H13.5" stroke="white" stroke-linecap="round" stroke-linejoin="round"/>
<path d="M25 4C25 1.79086 26.7909 0 29 0H46C48.2091 0 50 1.79086 50 4V21C50 23.2091 48.2091 25 46 25H29C26.7909 25 25 23.2091 25 21V4Z" fill="#21D99A"/>
<path d="M37.4999 17.0698H42.6411M39.2137 8.50122L40.9274 10.2149M39.9997 7.71404C40.2271 7.48664 40.5355 7.35889 40.8571 7.35889C41.1787 7.35889 41.4871 7.48664 41.7145 7.71404C41.9419 7.94145 42.0697 8.24987 42.0697 8.57147C42.0697 8.89307 41.9419 9.20149 41.7145 9.4289L34.854 16.29C34.7181 16.4259 34.5501 16.5253 34.3656 16.5791L32.725 17.0578C32.6758 17.0721 32.6237 17.073 32.5741 17.0602C32.5245 17.0475 32.4792 17.0217 32.443 16.9855C32.4068 16.9493 32.381 16.9041 32.3683 16.8545C32.3556 16.8049 32.3565 16.7527 32.3708 16.7036L32.8495 15.063C32.9033 14.8787 33.0027 14.7109 33.1385 14.5752L39.9997 7.71404Z" stroke="white" stroke-linecap="round" stroke-linejoin="round"/>
</svg>
