<svg width="127" height="36" viewBox="0 0 127 36" fill="none" xmlns="http://www.w3.org/2000/svg">
<g>
<path d="M54.0395 17.6907C54.0395 17.6907 56.5334 16.8416 56.5334 14.0111C56.5334 10.6986 54.1848 9.06152 50.9565 9.06152H42.4956V27.0543H51.6909C54.5214 27.0543 57.2907 25.073 57.2907 22.0436C57.2907 18.4481 54.0395 17.7137 54.0395 17.6831V17.6907ZM46.9097 12.7947H50.1915C51.209 12.7947 51.8898 13.4756 51.8898 14.493C51.8898 15.2886 51.2702 16.1378 50.1074 16.1378H46.8791V12.7947H46.9097ZM50.2221 23.2982H46.9403V19.7639H50.138C51.7521 19.7639 52.5171 20.4677 52.5171 21.5157C52.5171 22.8162 51.5532 23.2982 50.2221 23.2982Z" fill="#fff"/>
<path d="M67.0291 8.60254C61.8194 8.60254 58.7671 12.7641 58.7671 18.0273C58.7671 23.2905 61.8271 27.4521 67.0291 27.4521C72.2311 27.4521 75.2911 23.3211 75.2911 18.0273C75.2911 12.7335 72.2617 8.60254 67.0291 8.60254ZM67.0291 23.1528C64.4816 23.1528 63.2117 20.8578 63.2117 18.0273C63.2117 15.1968 64.4816 12.9324 67.0291 12.9324C69.5765 12.9324 70.877 15.2274 70.877 18.0273C70.877 20.8272 69.5765 23.1528 67.0291 23.1528Z" fill="#fff"/>
<path d="M84.8844 16.107L84.2648 15.9693C82.7348 15.6557 81.5184 15.2655 81.5184 14.1563C81.5184 12.9705 82.6812 12.4886 83.6987 12.4886C85.1981 12.4886 86.5292 13.223 87.3783 14.1563L90.1782 11.3793C88.9083 9.93348 86.8352 8.54883 83.6145 8.54883C79.8201 8.54883 76.9667 10.6679 76.9667 14.2098C76.9667 17.4381 79.2846 19.0217 82.1151 19.6184L82.7348 19.7561C85.0833 20.238 85.9631 20.6052 85.9631 21.7374C85.9631 22.8696 84.9992 23.5199 83.5304 23.5199C81.7785 23.5199 80.1873 22.7549 78.971 21.2019L76.1099 24.0324C77.6934 25.9296 79.7054 27.3984 83.5839 27.3984C86.9499 27.3984 90.5454 25.4706 90.5454 21.5385C90.576 17.4381 87.4625 16.6425 84.8844 16.107Z" fill="#fff"/>
<path d="M100.59 23.1527C98.6086 23.1527 96.5431 21.5079 96.5431 17.9201C96.5431 14.7224 98.4709 12.9399 100.475 12.9399C102.059 12.9399 102.992 13.6743 103.726 14.9519L107.353 12.5498C105.54 9.80343 103.39 8.64062 100.422 8.64062C94.9902 8.64062 92.0449 12.8558 92.0449 17.9507C92.0449 23.298 95.2962 27.4902 100.368 27.4902C103.933 27.4902 105.631 26.2433 107.475 23.5811L103.826 21.1178C103.092 22.3035 102.296 23.1527 100.598 23.1527H100.59Z" fill="#fff"/>
<path d="M113.977 15.6475V9.03027H109.25V27.0307H113.977V19.9239H119.439V27.0307H124.167V9.03027H119.439V15.6475H113.977Z" fill="#fff"/>
<path d="M15.2615 4.41797C7.73393 4.41797 1.62158 10.5303 1.62158 18.0579C1.62158 25.5855 7.73393 31.6979 15.2615 31.6979C22.7891 31.6979 28.9015 25.5855 28.9015 18.0579C28.9015 10.5303 22.7891 4.41797 15.2615 4.41797ZM15.2615 30.428C8.43773 30.428 2.89148 24.8817 2.89148 18.0579C2.89148 11.2341 8.44538 5.68787 15.2615 5.68787C22.0777 5.68787 27.6316 11.2341 27.6316 18.0579C27.6316 24.8817 22.0853 30.428 15.2615 30.428Z" fill="#fff"/>
<path d="M20.892 9.53516H19.9587V14.2017H10.5951V9.53516H9.63118C6.88483 11.3712 5.04883 14.4847 5.04883 18.0573C5.04883 21.6298 6.88483 24.7357 9.63118 26.5794H10.5951V21.9129H19.9663V26.5794H20.8996C23.6766 24.7434 25.482 21.6298 25.482 18.0573C25.482 14.4847 23.6689 11.3788 20.8996 9.53516H20.892ZM9.29458 24.7357C7.39738 23.068 6.29578 20.6583 6.29578 18.0573C6.29578 15.4563 7.39738 13.0465 9.29458 11.3788V24.7357ZM19.9663 20.6047H10.5951V15.4792H19.9663V20.6047ZM21.2362 24.7051V21.8746V14.2093V11.3788C23.1028 13.0465 24.2044 15.4563 24.2044 18.0267C24.2044 20.5971 23.1028 23.0374 21.2362 24.7051Z" fill="#fff"/>
</g>
<defs>
<clipPath id="clip0_7204_34809">
<rect width="126.72" height="36" fill="white"/>
</clipPath>
</defs>
</svg>
