<svg width="112" height="33" viewBox="0 0 112 33" fill="none" xmlns="http://www.w3.org/2000/svg">
<path d="M91.1521 17.6332L92.9644 14.0037L94.759 17.6332H91.1521ZM83.3518 15.1651C83.3033 15.2971 83.2151 15.4071 83.0872 15.4907C82.9637 15.5743 82.7962 15.6359 82.5889 15.6755C82.3817 15.7151 82.1215 15.7327 81.8085 15.7327H78.1575V13.6253H81.8085C82.1215 13.6253 82.3773 13.6429 82.5889 13.6825C82.7962 13.7221 82.9637 13.7837 83.0872 13.8673C83.2107 13.9509 83.2989 14.0609 83.3518 14.1929C83.4003 14.3248 83.4267 14.4876 83.4267 14.6812C83.4267 14.8704 83.4003 15.0331 83.3518 15.1651ZM91.4608 11.5664L86.6368 20.7656L83.9471 17.5276C84.2381 17.4264 84.5159 17.2988 84.7804 17.1493C85.045 16.9953 85.2743 16.8061 85.4727 16.5861C85.6712 16.3618 85.8299 16.0978 85.9489 15.7854C86.068 15.4731 86.1253 15.1123 86.1253 14.6944C86.1253 14.2193 86.0548 13.7925 85.9137 13.4054C85.7726 13.0182 85.5433 12.6927 85.2302 12.4199C84.9171 12.1471 84.5071 11.936 84.0088 11.7864C83.5105 11.6368 82.8976 11.5664 82.1789 11.5664H75.4941V21.4211H78.1619V17.7916H81.0721L84.0617 21.4211H86.2929H87.1792H89.2693L90.1952 19.5557H95.7026L96.6286 21.4211H99.605L94.4371 11.5664H91.4608Z" fill="white"/>
<path d="M54.6055 17.3956H61.493V15.2927H54.6055V13.6649H61.8678V11.5664H51.8672V21.4167H61.9648V19.3182H54.6055V17.3956Z" fill="white"/>
<path d="M48.5782 11.5662C48.2034 11.4826 47.811 11.421 47.3965 11.377C46.982 11.333 46.5367 11.311 46.0649 11.311C45.0595 11.311 44.1335 11.4166 43.2869 11.6322C42.4403 11.8478 41.7127 12.1733 41.1042 12.6045C40.4913 13.0356 40.0195 13.5767 39.6756 14.2234C39.336 14.8702 39.1641 15.6269 39.1641 16.4935C39.1641 17.3602 39.3316 18.1169 39.6756 18.7636C40.0151 19.4104 40.4913 19.9515 41.1042 20.3826C41.7171 20.8138 42.4447 21.1393 43.2869 21.3549C44.1335 21.5705 45.0595 21.6761 46.0649 21.6761C46.5411 21.6761 46.9864 21.6541 47.3965 21.6101C47.811 21.5661 48.2034 21.5045 48.5782 21.4209C48.953 21.3373 49.3146 21.2361 49.663 21.1217C50.0113 21.0073 50.3596 20.8798 50.7036 20.7346V18.3369C50.4302 18.4909 50.1436 18.6405 49.8393 18.7856C49.5395 18.9308 49.2044 19.0628 48.8384 19.1772C48.4724 19.2916 48.0756 19.384 47.639 19.4544C47.2025 19.5247 46.713 19.5599 46.1663 19.5599C45.6063 19.5599 45.1124 19.5203 44.6803 19.4412C44.2526 19.362 43.8778 19.2564 43.5559 19.1156C43.234 18.9792 42.965 18.812 42.7489 18.6229C42.5329 18.4337 42.3609 18.2225 42.2242 17.9937C42.0919 17.765 41.9949 17.5274 41.9376 17.2678C41.8803 17.0127 41.8494 16.7531 41.8494 16.4891C41.8494 16.0932 41.9156 15.7104 42.0522 15.3365C42.1845 14.9669 42.4182 14.637 42.7489 14.351C43.0797 14.0651 43.5206 13.8363 44.0762 13.6647C44.6274 13.4931 45.3241 13.4052 46.1619 13.4052C46.7086 13.4052 47.1981 13.4404 47.6346 13.5151C48.0711 13.5899 48.4724 13.6867 48.834 13.8011C49.2 13.9199 49.5307 14.0475 49.8349 14.1971C50.1392 14.3422 50.4258 14.4918 50.6992 14.637V12.2437C50.3552 12.0985 50.0069 11.9709 49.6585 11.8566C49.3146 11.751 48.953 11.6542 48.5782 11.5662Z" fill="white"/>
<path d="M109.125 17.7168C109.002 18.0687 108.807 18.3591 108.534 18.5879C108.261 18.821 107.908 18.9926 107.476 19.1026C107.039 19.217 106.506 19.2698 105.88 19.2698H102.568V13.7089H105.88C106.506 13.7089 107.039 13.7661 107.476 13.8761C107.912 13.9905 108.265 14.1577 108.534 14.3864C108.803 14.6152 109.002 14.9012 109.125 15.2487C109.248 15.5963 109.31 16.0098 109.31 16.485C109.306 16.9557 109.244 17.3692 109.125 17.7168ZM111.202 13.5329C110.95 13.1678 110.646 12.8598 110.293 12.6091C109.941 12.3583 109.544 12.1559 109.112 12.002C108.675 11.848 108.212 11.738 107.714 11.6676C107.216 11.5972 106.695 11.562 106.153 11.562H99.9004V21.4167H106.171C106.713 21.4167 107.233 21.3815 107.732 21.3111C108.23 21.2407 108.693 21.1307 109.125 20.9768C109.557 20.8228 109.945 20.6204 110.302 20.3696C110.655 20.1189 110.955 19.8065 111.206 19.4458C111.458 19.0806 111.652 18.6539 111.793 18.1655C111.934 17.6728 112 17.1141 112 16.485C112 15.8602 111.929 15.3015 111.793 14.8132C111.647 14.3248 111.453 13.8981 111.202 13.5329Z" fill="white"/>
<path d="M71.0744 15.1651C71.0215 15.2971 70.9377 15.4071 70.8099 15.4907C70.6864 15.5743 70.5188 15.6359 70.3116 15.6755C70.1044 15.7151 69.8442 15.7327 69.5311 15.7327H65.8801V13.6253H69.5311C69.8442 13.6253 70.0999 13.6429 70.3116 13.6825C70.5188 13.7221 70.6864 13.7837 70.8099 13.8673C70.9333 13.9509 71.0215 14.0609 71.0744 14.1929C71.1229 14.3248 71.1494 14.4876 71.1494 14.6812C71.1494 14.8704 71.1229 15.0331 71.0744 15.1651ZM72.5031 17.1449C72.7677 16.9909 72.997 16.8017 73.1954 16.5817C73.3938 16.3574 73.5525 16.0934 73.6716 15.781C73.7907 15.4687 73.848 15.1079 73.848 14.69C73.848 14.2149 73.7774 13.7881 73.6363 13.401C73.4952 13.0138 73.2659 12.6883 72.9529 12.4155C72.6398 12.1427 72.2297 11.9316 71.7314 11.782C71.2288 11.6324 70.6203 11.562 69.9015 11.562H63.2168V21.4167H65.8845V17.7872H68.7948L71.7844 21.4167H74.9018L71.6653 17.5232C71.9607 17.422 72.2385 17.2988 72.5031 17.1449Z" fill="white"/>
<path d="M16.5496 0.0131977L16.5408 0L12.8633 3.66471L16.5496 7.34262V0.0131977Z" fill="white"/>
<path d="M16.5485 8.56579L12.2492 4.27637L8.57617 7.94548L16.5485 15.8996V8.56579Z" fill="white"/>
<path d="M16.5493 17.1223L7.96409 8.55664L4.29102 12.2214L16.5493 24.4561V17.1223Z" fill="white"/>
<path d="M0 16.4977L16.5398 32.9999L16.5487 32.9867V25.6793L3.67748 12.833L0 16.4977Z" fill="white"/>
<path d="M17.4268 0L17.418 0.0131977V7.34262L21.1043 3.66471L17.4268 0Z" fill="white"/>
<path d="M21.7172 4.27637L17.418 8.56579V15.8996L25.3903 7.94548L21.7172 4.27637Z" fill="white"/>
<path d="M26.0032 8.55664L17.418 17.1223V24.4561L29.6806 12.2214L26.0032 8.55664Z" fill="white"/>
<path d="M17.418 25.6793V32.9867L17.4268 32.9999L33.9666 16.4977L30.2891 12.833L17.418 25.6793Z" fill="white"/>
</svg>
