<svg width="95" height="30" viewBox="0 0 95 30" fill="none" xmlns="http://www.w3.org/2000/svg">
<path d="M6.72953 16.163C8.31025 18.917 12.0557 20.1027 15.0458 18.356C18.0612 16.6092 18.8928 12.7715 17.3121 10.0175C15.7314 7.26346 12.0113 6.06496 8.99586 7.82446C5.99313 9.55846 5.14881 13.409 6.72953 16.163Z" fill="white"/>
<path d="M5.99876 16.5766C4.1895 13.4465 5.16714 9.06049 8.58251 7.08424L9.31256 4.34299L6.5828 3.60986C1.37087 6.62524 -0.406645 13.319 2.59609 18.5529C5.59882 23.7867 12.2772 25.5781 17.4764 22.55L15.4831 19.0756C12.0677 21.0646 7.80167 19.7259 6.00511 16.583L5.99876 16.5766Z" fill="white"/>
<path d="M27.1134 7.28857C26.0342 7.28857 25.3613 8.04082 25.3613 9.23294V11.1518H27.8181V13.8357H25.3613V22.9073H22.0158V13.8357H20.4668V11.1518H22.0158V9.53894C22.0158 7.05907 22.5173 4.33057 26.4278 4.33057C27.361 4.33057 27.8054 4.43257 28.7132 4.61744V7.50532C28.2815 7.40332 27.907 7.28857 27.1198 7.28857M87.5299 22.9073V16.0988C87.5299 14.1353 87.3839 13.1982 86.9713 12.4778C86.3809 11.4387 85.1303 10.7884 83.6956 10.7884C81.9434 10.7884 80.7373 11.6554 79.9183 13.5424C79.4994 11.7128 78.4646 10.7884 76.7442 10.7884C75.0238 10.7884 73.9002 11.6236 73.0114 13.4596V11.0371H69.7675V22.8946H73.1257V17.3866C73.1257 16.6216 73.1701 16.0478 73.2971 15.6271C73.6018 14.5624 74.3446 13.8676 75.2524 13.8676C75.9443 13.8676 76.4458 14.2118 76.6871 14.8366C76.8585 15.2828 76.9283 15.8757 76.9283 16.9722V22.9009H80.3183V17.1889C80.3183 15.0406 81.0356 13.8739 82.445 13.8739C83.2639 13.8739 83.8098 14.2373 84.013 15.0278C84.0828 15.3721 84.1399 16.0223 84.1399 16.7873V22.8882H87.5299V22.9201V22.9073ZM68.4851 17.1379V11.0562H65.1269V17.1443C65.1269 19.5222 64.6825 20.3191 63.1716 20.3191C61.6607 20.3191 61.0894 19.5286 61.0894 17.3483V11.0562H57.7311V17.3037C57.7311 19.8983 58.1501 21.0394 59.3246 22.0339C60.2578 22.7989 61.5909 23.2006 63.1462 23.2006C64.9682 23.2006 66.4473 22.6077 67.3805 21.5112C68.1423 20.5996 68.4851 19.3883 68.4851 17.1379ZM56.6075 22.9073V20.2553C56.0615 20.3828 55.7187 20.4019 55.2299 20.4019C53.719 20.4019 53.2493 19.8409 53.2493 18.1516V13.8421H56.4678V11.1454H53.2493V7.26307L49.891 9.16919V18.7444C49.891 21.7853 51.2813 23.1304 54.3983 23.1304C55.1855 23.1304 55.7759 23.0858 56.6075 22.9137M48.7928 14.3011C48.2024 14.0269 47.8278 13.9568 47.2438 13.9568C45.3774 13.9568 44.2982 15.3721 44.2982 17.6479V22.9137H40.94V11.0562H44.1839V13.7528C44.6029 11.9487 45.8789 10.8841 47.7453 10.8841C48.0627 10.8841 48.3928 10.9287 48.8055 11.0116V14.3011H48.7928Z" fill="white"/>
<path fill-rule="evenodd" clip-rule="evenodd" d="M39.7389 16.9531C39.7389 13.3193 37.6123 10.7056 33.9366 10.7056C30.261 10.7056 28.0898 13.3767 28.0898 16.8957C28.0898 20.7589 30.3879 23.2133 34.0064 23.2133C37.3647 23.2261 39.7389 20.6314 39.7389 16.9531ZM36.3489 16.9403C36.3489 19.0441 35.4729 20.3446 33.9937 20.3446C32.5146 20.3446 31.4798 18.9612 31.4798 16.9148C31.4798 14.8684 32.4257 13.5552 33.9366 13.5552C35.4475 13.5552 36.3489 14.8366 36.3489 16.9467V16.9403Z" fill="white"/>
</svg>
