<svg width="50" height="50" viewBox="0 0 50 50" fill="none" xmlns="http://www.w3.org/2000/svg">
<rect width="50" height="50" rx="25" fill="white"/>
<g clip-path="url(#clip0_3681_3262)">
<path d="M24.9998 10C16.8026 10 10.1198 16.6051 10.0016 24.7692C9.88158 33.0609 16.613 39.931 24.911 39.979C27.4736 39.994 29.942 39.3674 32.1338 38.1772C32.3474 38.0615 32.3804 37.7677 32.1986 37.6064L30.7952 36.3629C30.5102 36.1098 30.104 36.0385 29.753 36.1878C28.223 36.8384 26.5604 37.1705 24.8474 37.1495C18.1424 37.0674 12.725 31.4924 12.8318 24.7919C12.9374 18.1766 18.3554 12.8271 24.9998 12.8271H37.1696V34.4442L30.2648 28.3133C30.0416 28.1149 29.699 28.1539 29.519 28.3919C28.4108 29.8585 26.6054 30.7705 24.6002 30.632C21.8186 30.4401 19.565 28.2024 19.3562 25.4239C19.1072 22.1094 21.7352 19.3333 25.0004 19.3333C27.953 19.3333 30.3848 21.6045 30.6386 24.4903C30.6614 24.747 30.7772 24.9868 30.9704 25.1577L32.7686 26.7508C32.9726 26.9313 33.2966 26.821 33.3464 26.5529C33.476 25.8604 33.5216 25.1379 33.4706 24.3974C33.1808 20.1769 29.7602 16.782 25.535 16.5218C20.6912 16.2232 16.6412 20.0102 16.5128 24.7572C16.3874 29.383 20.18 33.3709 24.8096 33.4728C26.7422 33.5154 28.5338 32.908 29.9816 31.8557L39.0032 39.8477C39.3902 40.1901 40.0004 39.9161 40.0004 39.3992V10.569C39.9998 10.2548 39.7448 10 39.4304 10H24.9998Z" fill="#4C5CE5"/>
</g>
<defs>
<clipPath id="clip0_3681_3262">
<rect width="30" height="30" fill="white" transform="translate(10 10)"/>
</clipPath>
</defs>
</svg>
