<svg width="50" height="50" viewBox="0 0 50 50" fill="none" xmlns="http://www.w3.org/2000/svg">
<rect width="50" height="50" rx="25" fill="white"/>
<path d="M35.4471 14.8697L28.6283 10.9614C26.3973 9.67952 23.6635 9.67952 21.4324 10.9614L14.5822 14.8697C12.3826 16.1516 11 18.5279 11 21.0605V28.9083C11 31.4721 12.3826 33.8171 14.5822 35.099L21.401 39.0386C23.6321 40.3205 26.3659 40.3205 28.5969 39.0386L35.4157 35.099C37.6467 33.8171 38.9979 31.4721 38.9979 28.9083V21.0605C39.0608 18.5279 37.6781 16.1516 35.4471 14.8697ZM25.0147 31.9724C21.1497 31.9724 18.0073 28.8457 18.0073 25C18.0073 21.1542 21.1497 18.0276 25.0147 18.0276C28.8797 18.0276 32.0535 21.1542 32.0535 25C32.0535 28.8457 28.9111 31.9724 25.0147 31.9724Z" fill="#4C5CE5"/>
</svg>
