<svg width="50" height="50" viewBox="0 0 50 50" fill="none" xmlns="http://www.w3.org/2000/svg">
<rect width="50" height="50" rx="25" fill="white"/>
<path d="M10 20.4C10 15.4974 10 13.0461 11.523 11.523C13.0461 10 15.4974 10 20.4 10H29.6C34.5026 10 36.9539 10 38.477 11.523C40 13.0461 40 15.4974 40 20.4V29.6C40 34.5026 40 36.9539 38.477 38.477C36.9539 40 34.5026 40 29.6 40H20.4C15.4974 40 13.0461 40 11.523 38.477C10 36.9539 10 34.5026 10 29.6V20.4Z" fill="#4C5CE5"/>
<path fill-rule="evenodd" clip-rule="evenodd" d="M30.6938 19.0996H20.5938V24.2496H25.7438V29.3996H30.8938V19.2996C30.8938 19.1892 30.8042 19.0996 30.6938 19.0996Z" fill="white"/>
<path d="M25.7508 24.25H25.5508V24.45H25.7508V24.25Z" fill="white"/>
<path d="M20.5938 24.25H25.5438C25.6542 24.25 25.7438 24.3396 25.7438 24.45V29.4H20.7938C20.6833 29.4 20.5938 29.3105 20.5938 29.2V24.25Z" fill="white" fill-opacity="0.6"/>
<path d="M25.75 29.4004H30.9L25.9207 34.3797C25.8577 34.4427 25.75 34.398 25.75 34.309V29.4004Z" fill="white" fill-opacity="0.6"/>
<path d="M20.6104 24.2496H15.7018C15.6127 24.2496 15.5681 24.1419 15.6311 24.0789L20.6104 19.0996V24.2496Z" fill="white" fill-opacity="0.6"/>
</svg>
