<svg viewBox="0 0 230 57" fill="none" xmlns="http://www.w3.org/2000/svg">
<path fill-rule="evenodd" clip-rule="evenodd" d="M44.8166 7.54982C43.7153 8.37668 35.5657 18.7565 26.706 30.6153L10.5981 52.1772H29.0426H47.4863L54.2215 45.4967L55.4618 52.1772L74.7259 52.201H93.9112L99.3645 47.3921L104.819 42.5832L106.911 47.3798L109.002 52.1772C115.607 52.1772 128.822 52.1375 128.822 52.1375C128.822 52.1375 126.925 46.1872 124.561 40.3905C122.196 34.5931 120.262 29.7156 120.262 29.5504C120.262 29.3852 126.117 24.1 133.274 17.8055L146 6.18816L135.687 6.1609L125 6.1609L120.227 10.3096C117.555 12.7015 115.045 14.6582 114.649 14.6582C114.254 14.6582 113.18 12.7101 112.263 10.3291L110.596 6H100.382C94.7645 6 90 6 90 6C90 6.13348 92.1027 11.1654 94.4672 16.8827C96.8317 22.6 98.7662 27.6766 98.7662 28.1629C98.7662 28.6499 93.0442 34.101 86.051 40.2758C75.5004 49.5927 73.2499 51.2847 72.8286 50.2169C72.5491 49.509 71.1634 41.3003 69.7497 31.9747C66.797 12.4987 66.3441 10.49 64.3193 7.89832C62.8741 6.04762 62.6355 6.00072 54.8276 6.02309C46.5 6.02309 46.5613 6.23954 44.8166 7.54982ZM140.044 28.1903C135.752 40.3912 132.231 51.6419 132.047 52.1375L140.605 52.1772C145.574 52.1772 149.601 52.1772 149.601 52.1772C149.601 52.0243 153.185 41.555 157.52 29.2509C161.855 16.9462 165.5 6.18816 165.5 6.18816C165.5 6.18816 161.328 6.186 156.5 6.18816H148L140.044 28.1903ZM174.358 6.83696C171.506 8.41565 167.389 12.9302 165.615 16.4231C163.379 20.8243 163.682 25.6874 166.455 29.9068C169.606 34.7013 170.929 35.1782 182.195 35.5823C191.039 35.8997 192.284 36.0953 192.494 37.2057C192.717 38.3753 191.65 38.4684 178.068 38.4684H163.401L158.669 44.6915C156.066 48.1143 153.9 51.7905 153.9 52.1375C153.9 52.1375 164.381 52.1772 177.168 52.1772H199.757L203.47 49.8193C206.564 47.4477 207.414 45.7903 208.61 43.506C210.38 40.1242 210.332 40.2325 210.332 35.5303C209.916 30.7128 207.783 26.2076 205.031 24.3287C203.369 23.1952 201.272 22.8929 192.995 22.5949C184.186 22.2782 182.943 22.0812 182.733 20.9715C182.511 19.8034 183.559 19.7089 196.762 19.7089H211.031L222.82 6L199.306 6.02165C183.597 6.0368 176.5 5.65125 174.358 6.83696ZM40.7289 38.0629L53.5358 38.4684L53.1309 35.7627C52.5431 31.8376 51.1183 24.0272 51.1183 24.0272L40.7289 38.0629Z" fill="black"/>
</svg>
