<svg width="42" height="20" viewBox="0 0 42 20" fill="none" xmlns="http://www.w3.org/2000/svg">
<path d="M40.752 0L20.7549 20H0.322266V0H40.752ZM5.82031 3.71973C4.12582 3.71981 2.71444 4.26945 1.83984 5.17383C1.23034 5.80487 0.902002 6.60777 0.888672 7.49512C0.866554 8.71613 1.31375 9.58154 2.25391 10.2734C3.04857 10.8557 4.06538 11.2334 4.96094 11.5107C6.06534 11.853 6.96717 12.1514 6.95605 12.7852C6.94712 13.0161 6.8604 13.2321 6.69434 13.4062C6.41883 13.6906 5.9964 13.797 5.41211 13.8086C4.28455 13.8326 3.44874 13.6553 2.11719 12.8682L0.887695 15.3086C2.21783 16.0649 3.63005 16.4443 5.23438 16.4443L5.59473 16.4414C6.99117 16.4161 8.12495 16.0819 9.02539 15.3574C9.07682 15.3162 9.12301 15.2745 9.1709 15.2324L9.01953 16.0107L12.3887 16L12.9932 14.4521C13.6286 14.669 14.3512 14.789 15.1182 14.7891C15.8657 14.7891 16.5689 14.6751 17.1924 14.4707L17.6143 16L23.6582 16.0059L23.6729 12.4775H24.959C28.0679 12.4775 29.9062 10.8955 29.9062 8.24219C29.9053 5.28714 28.1181 4 24.3154 4H20.3232L20.3359 13.3916L16.8594 3.99707H13.4121L10.4434 11.8428C10.1278 9.84643 8.06439 9.15759 6.44043 8.6416C5.36811 8.2972 4.22992 7.79039 4.24121 7.23047C4.2501 6.77091 4.85052 6.34465 6.04297 6.4082C6.84276 6.45131 7.54961 6.51538 8.95508 7.19434L10.3369 4.78613C9.05528 4.13378 7.2833 3.72115 5.83008 3.71973H5.82031ZM16.3691 11.8154C15.9958 11.9488 15.5702 12.0273 15.1182 12.0273C14.6538 12.0273 14.2183 11.9469 13.8438 11.8047L15.1045 7.82422H15.1289L16.3691 11.8154ZM24.5498 6.5332C25.7186 6.5332 26.6522 6.92266 26.6523 8.11621C26.6515 9.35177 25.7187 9.74121 24.5498 9.74121H23.6719V6.5332H24.5498Z" fill="white"/>
</svg>
