<svg width="21" height="20" viewBox="0 0 21 20" fill="none" xmlns="http://www.w3.org/2000/svg">
<g clip-path="url(#clip0_2471_2935)">
<path d="M15.9111 0C18.2123 0 20.0781 1.86581 20.0781 4.16699V15.833C20.0781 18.1342 18.2123 20 15.9111 20H4.24512C1.94393 20 0.078125 18.1342 0.078125 15.833V4.16699C0.078125 1.86581 1.94393 0 4.24512 0H15.9111ZM6.99902 5.07129C6.52409 5.07129 6.10296 5.14327 5.73633 5.28906C5.36966 5.4349 5.06152 5.62943 4.81152 5.87109C4.56155 6.11275 4.36966 6.38967 4.23633 6.70215C4.10718 7.01462 4.04297 7.3359 4.04297 7.66504C4.04301 8.07724 4.1012 8.42482 4.21777 8.70801C4.33858 8.9871 4.49662 9.22073 4.69238 9.4082C4.88819 9.59567 5.11138 9.7476 5.36133 9.86426C5.61133 9.98092 5.86569 10.0817 6.12402 10.165C6.38225 10.2483 6.63682 10.3247 6.88672 10.3955C7.13646 10.4663 7.35901 10.5542 7.55469 10.6582C7.75041 10.7581 7.90679 10.8833 8.02344 11.0332C8.14422 11.1831 8.20503 11.3769 8.20508 11.6143C8.20508 12.0392 8.07392 12.3665 7.81152 12.5957C7.54909 12.8206 7.1782 12.9335 6.69922 12.9336C6.38676 12.9336 6.11756 12.8919 5.89258 12.8086C5.67175 12.7211 5.47819 12.6247 5.31152 12.5205C5.14486 12.4163 5.00072 12.3226 4.87988 12.2393C4.7593 12.152 4.64695 12.1085 4.54297 12.1084C4.46797 12.1084 4.39674 12.1292 4.33008 12.1709C4.26353 12.2083 4.2096 12.2562 4.16797 12.3145L3.67383 13.1211C3.84873 13.3001 4.04859 13.4626 4.27344 13.6084C4.49835 13.7542 4.73813 13.8793 4.99219 13.9834C5.25051 14.0876 5.51967 14.1665 5.79883 14.2207C6.07787 14.279 6.36107 14.3086 6.64844 14.3086C7.14844 14.3086 7.59297 14.233 7.98047 14.083C8.36775 13.9289 8.69438 13.7204 8.96094 13.458C9.23174 13.1914 9.43672 12.8815 9.57422 12.5273C9.71589 12.169 9.78613 11.7853 9.78613 11.377C9.78612 11.0021 9.72622 10.6833 9.60547 10.4209C9.48889 10.1586 9.33234 9.93788 9.13672 9.75879C8.94096 9.57552 8.71766 9.42524 8.46777 9.30859C8.21791 9.18783 7.96157 9.08356 7.69922 8.99609C7.43672 8.90443 7.17969 8.81842 6.92969 8.73926C6.67998 8.66016 6.45737 8.57059 6.26172 8.4707C6.06589 8.3707 5.90697 8.25006 5.78613 8.1084C5.66951 7.96676 5.61135 7.78959 5.61133 7.57715C5.61133 7.41053 5.64092 7.25856 5.69922 7.12109C5.75755 6.97943 5.84427 6.85781 5.96094 6.75781C6.08177 6.65781 6.23028 6.58151 6.40527 6.52734C6.58025 6.46903 6.78428 6.43945 7.01758 6.43945C7.27591 6.43945 7.49902 6.4724 7.68652 6.53906C7.87818 6.60156 8.04486 6.67279 8.18652 6.75195C8.32812 6.83108 8.44886 6.90406 8.54883 6.9707C8.65284 7.03311 8.74854 7.06436 8.83594 7.06445C8.91927 7.06445 8.9888 7.04531 9.04297 7.00781C9.10112 6.96613 9.15522 6.90171 9.20508 6.81445L9.62402 6.02051C9.30737 5.72053 8.92361 5.48795 8.47363 5.32129C8.02369 5.15465 7.53228 5.07131 6.99902 5.07129ZM11.7236 12.5146C11.7236 12.6969 11.7072 12.8526 11.6738 12.9814C11.6405 13.108 11.5901 13.211 11.5234 13.291C11.459 13.371 11.378 13.43 11.2803 13.4678C11.1825 13.5033 11.07 13.5215 10.9434 13.5215C10.8502 13.5215 10.7721 13.5136 10.71 13.498C10.6501 13.4826 10.6012 13.4746 10.5635 13.4746C10.5036 13.4746 10.4571 13.4904 10.4238 13.5215C10.3928 13.5503 10.3739 13.589 10.3672 13.6377L10.3203 14.1709C10.447 14.202 10.5681 14.2249 10.6836 14.2383C10.7991 14.2538 10.9171 14.2617 11.0371 14.2617C11.2992 14.2617 11.5289 14.2198 11.7266 14.1377C11.9243 14.0555 12.0896 13.9385 12.2207 13.7852C12.354 13.6318 12.4538 13.4453 12.5205 13.2275C12.587 13.01 12.6201 12.7659 12.6201 12.4951V9.3877H11.7236V12.5146ZM15.0391 9.33496C14.7857 9.33496 14.5608 9.37436 14.3652 9.45215C14.1699 9.52992 14.0053 9.63293 13.8721 9.76172C13.7388 9.89057 13.6366 10.0385 13.5654 10.2051C13.4966 10.3717 13.4619 10.5432 13.4619 10.7188C13.4619 10.9387 13.4935 11.1243 13.5557 11.2754C13.6201 11.4241 13.7043 11.5485 13.8086 11.6484C13.9131 11.7484 14.0327 11.8294 14.166 11.8916C14.2993 11.9538 14.4346 12.0073 14.5723 12.0518C14.7099 12.0962 14.8454 12.1371 14.9785 12.1748C15.1118 12.2126 15.2315 12.2599 15.3359 12.3154C15.4403 12.3687 15.5238 12.4357 15.5859 12.5156C15.6502 12.5956 15.6826 12.6988 15.6826 12.8252C15.6826 13.0518 15.6125 13.2264 15.4727 13.3486C15.3327 13.4686 15.1344 13.5283 14.8789 13.5283C14.7124 13.5283 14.5692 13.5063 14.4492 13.4619C14.3315 13.4152 14.2276 13.3641 14.1387 13.3086C14.0499 13.2531 13.9736 13.2026 13.9092 13.1582C13.8448 13.1116 13.784 13.0889 13.7285 13.0889C13.6887 13.0889 13.6507 13.0999 13.6152 13.1221C13.58 13.142 13.5514 13.1674 13.5293 13.1982L13.2656 13.6289C13.3589 13.7244 13.466 13.8109 13.5859 13.8887C13.7058 13.9664 13.8333 14.0334 13.9688 14.0889C14.1065 14.1444 14.2505 14.186 14.3994 14.2148C14.5482 14.2459 14.6993 14.2617 14.8525 14.2617C15.1191 14.2617 15.3559 14.2216 15.5625 14.1416C15.769 14.0594 15.9438 13.9485 16.0859 13.8086C16.2303 13.6664 16.3388 13.5003 16.4121 13.3115C16.4876 13.1205 16.5254 12.9159 16.5254 12.6982C16.5254 12.4984 16.4931 12.3284 16.4287 12.1885C16.3665 12.0486 16.2831 11.9305 16.1787 11.835C16.0744 11.7373 15.9554 11.6578 15.8223 11.5957C15.6889 11.5312 15.5521 11.4754 15.4121 11.4287C15.2722 11.3799 15.1352 11.3342 15.002 11.292C14.8687 11.2498 14.7499 11.2017 14.6455 11.1484C14.5412 11.0951 14.457 11.0306 14.3926 10.9551C14.3304 10.8795 14.2988 10.7852 14.2988 10.6719C14.2988 10.5831 14.3146 10.502 14.3457 10.4287C14.3768 10.3532 14.4232 10.2887 14.4854 10.2354C14.5498 10.182 14.6293 10.1412 14.7227 10.1123C14.8159 10.0812 14.9246 10.0654 15.0488 10.0654C15.1864 10.0654 15.3054 10.0827 15.4053 10.1182C15.5074 10.1515 15.5964 10.1902 15.6719 10.2324C15.7473 10.2746 15.812 10.3131 15.8652 10.3486C15.9206 10.3819 15.972 10.3983 16.0186 10.3984C16.063 10.3984 16.1 10.3882 16.1289 10.3682C16.1599 10.346 16.1892 10.3121 16.2158 10.2656L16.4385 9.8418C16.2697 9.68195 16.065 9.55757 15.8252 9.46875C15.5853 9.37997 15.3233 9.33497 15.0391 9.33496Z" fill="white"/>
</g>
<defs>
<clipPath id="clip0_2471_2935">
<rect width="20" height="20" fill="white" transform="translate(0.078125)"/>
</clipPath>
</defs>
</svg>
