<?xml version="1.0" encoding="UTF-8"?>
<svg width="209px" height="136px" viewBox="0 0 209 136" version="1.1" xmlns="http://www.w3.org/2000/svg" xmlns:xlink="http://www.w3.org/1999/xlink">
    <title>Rich Text Widget Preview</title>
    <defs>
        <rect id="path-1" x="0" y="0" width="208.771084" height="135.477876" rx="3"></rect>
    </defs>
    <g stroke="none" stroke-width="1" fill="none" fill-rule="evenodd">
        <g id="preview">
            <use id="background" fill="#F9F9F9" fill-rule="nonzero" xlink:href="#path-1"></use>
            <g id="richtext-icon" transform="translate(77, 40)" stroke="#000000" stroke-width="2.5" stroke-linecap="round" stroke-linejoin="round">
                <rect x="0" y="0" width="55" height="55" rx="2.5"></rect>
                <!-- Letters -->
                <path d="M15 20h-5l-2 20h3l1-8h3l1 8h3l-2-20h-2zm1 9h-3l0.5-6h2l0.5 6z"></path>
                <path d="M25 20l-2 20h3l2-20z"></path>
                <!-- I-beam cursor -->
                <line x1="35" y1="20" x2="35" y2="40"></line>
                <path d="M38 20L35 23L32 20"></path>
                <path d="M38 40L35 37L32 40"></path>
            </g>
        </g>
    </g>
</svg>