<svg width="50" height="50" viewBox="0 0 50 50" fill="none" xmlns="http://www.w3.org/2000/svg">
<rect width="50" height="50" rx="25" fill="white"/>
<path fill-rule="evenodd" clip-rule="evenodd" d="M38.0665 14.1321L14.9032 31.7544C12.0588 26.597 11.0736 20.3756 11 16.6441V14.3602C11 14.028 11.3604 13.8343 11.5407 13.7789C15.3529 12.63 23.094 10.299 23.5598 10.1661C24.0255 10.0332 24.4192 10 24.5579 10H24.5705C24.7092 10 25.1028 10.0332 25.5687 10.1661C26.0344 10.299 33.7755 12.63 37.5878 13.7789C37.7219 13.8201 37.9556 13.9378 38.0665 14.1321Z" fill="#4C5CE5"/>
<path d="M25.4934 10.1664C25.0274 10.0333 24.6335 10 24.4948 10L24.4531 40H24.5364C24.7361 40 25.0635 39.8891 25.2021 39.8336C35.1883 36.5049 37.9345 22.9958 38.0593 16.6574V14.3689C38.0593 14.0361 37.6988 13.8419 37.5183 13.7864C33.7043 12.6352 25.9594 10.2996 25.4934 10.1664Z" fill="white" fill-opacity="0.36"/>
<path fill-rule="evenodd" clip-rule="evenodd" d="M14.9062 31.7824L38.0695 14.1602C38.1077 14.2272 38.1315 14.3032 38.1315 14.3883V16.6722C38.0067 22.998 35.2617 36.4801 25.2805 39.8022C25.142 39.8576 24.8148 39.9684 24.6151 39.9684H24.5193C24.3197 39.9684 23.9925 39.8576 23.8539 39.8022C19.7603 38.4397 16.8839 35.3683 14.9062 31.7824Z" fill="#4C5CE5" fill-opacity="0.75"/>
</svg>
