<svg width="50" height="50" viewBox="0 0 50 50" fill="none" xmlns="http://www.w3.org/2000/svg">
<rect width="50" height="50" rx="25" fill="white"/>
<path d="M20.6388 13.7513C21.6949 14.8053 22.0984 16.3494 21.6949 17.7857C22.994 17.0042 24.4831 16.5923 25.9997 16.5944H26.0313C28.2597 16.6007 30.3931 17.4963 31.9604 19.0805C33.2171 20.4006 35.304 20.4513 36.6242 19.1967C37.9443 17.9399 37.995 15.853 36.7403 14.5329C36.7086 14.4991 36.677 14.4674 36.6432 14.4357C33.8445 11.6053 30.0319 10.0106 26.0504 10H25.9933C23.013 9.9937 20.1002 10.8808 17.6289 12.5453H17.7218C18.816 12.5432 19.8658 12.9783 20.6388 13.7535V13.7513Z" fill="#4C5CE5"/>
<path d="M34.2454 29.9985C33.3751 29.9985 32.5387 30.3428 31.9219 30.9554C30.3504 32.5184 28.2234 33.3971 26.0077 33.395H25.976C24.4552 33.3929 22.9661 32.9747 21.6671 32.1847C21.7664 32.5438 21.8149 32.9155 21.8149 33.2873C21.8149 35.5664 19.9688 37.4124 17.6898 37.4124H17.582C20.0512 39.0938 22.9661 39.9957 25.9528 39.9999H26.0098C29.9681 40.0063 33.768 38.439 36.5709 35.6445C37.8636 34.3603 37.8742 32.2734 36.59 30.9786C35.9711 30.3534 35.1262 30.0028 34.2475 30.0028V29.9985H34.2454Z" fill="#4C5CE5"/>
<path d="M14.7664 30.368C15.5374 29.5907 16.5893 29.1556 17.6834 29.1598C18.0615 29.1598 18.4375 29.2105 18.8008 29.3119C17.1976 26.6463 17.2039 23.3111 18.8177 20.6518C16.6188 21.2559 14.3482 19.9611 13.7462 17.7643C13.649 17.4074 13.5983 17.0399 13.5983 16.6681V16.5562C10.1491 21.6255 10.1322 28.2853 13.5582 33.3716V33.285C13.554 32.1909 13.9891 31.139 14.7664 30.368Z" fill="#4C5CE5"/>
<path d="M17.7222 13.2759C16.7843 13.2759 16.1274 13.6645 15.3311 14.4608C14.5728 15.217 14.3341 15.8803 14.332 16.6681C14.332 18.5395 15.8528 20.0582 17.7243 20.0561C19.5957 20.0561 21.1144 18.5353 21.1123 16.6639C21.1123 14.7925 19.5936 13.2759 17.7222 13.2759Z" fill="#4C5CE5"/>
<path d="M14.2852 33.2894C14.2852 34.2251 14.6738 34.8842 15.468 35.6784C16.2263 36.4366 16.8874 36.6774 17.6753 36.6796C19.5425 36.6732 21.0506 35.1566 21.0443 33.2894C21.0379 31.4222 19.5214 29.9141 17.6542 29.9204C15.7912 29.9268 14.2852 31.437 14.2852 33.3V33.2894Z" fill="#4C5CE5"/>
</svg>
