<svg width="50" height="50" viewBox="0 0 50 50" fill="none" xmlns="http://www.w3.org/2000/svg">
<rect width="50" height="50" rx="25" fill="white"/>
<path d="M11.2847 22.2715C12.8787 23.0448 21.6812 26.6453 23.0611 27.3219C24.4409 27.9985 25.4401 27.9985 27.2006 27.0802C28.9611 26.1378 37.2403 22.7065 38.8343 21.8607C39.6431 21.4257 40 21.0874 40 20.7975V17.7769C40 17.4628 39.5956 17.1969 38.8105 16.907C37.2641 16.327 29.0325 13.0165 27.4623 12.4124C25.8921 11.8324 25.2498 11.8566 23.3941 12.5332C21.5385 13.2098 12.8073 16.6895 11.2371 17.3178C10.4758 17.6319 10.0476 17.8977 10.0476 18.2119H10V21.2807C10.0476 21.5707 10.4996 21.8849 11.2847 22.2715ZM25.6542 22.7065L20.8247 20.6766L27.7478 19.5892L25.6542 22.7065ZM36.1459 17.8735L32.0539 19.5167L31.6019 19.6859L27.5099 18.0427L32.0539 16.2304L36.1459 17.8735ZM24.1079 14.853L23.4417 13.5964L25.5353 14.418L27.5099 13.7656L26.9865 15.0705L28.9849 15.8437L26.3918 16.1095L25.8208 17.5352L24.8929 15.9646L21.8953 15.6987L24.1079 14.853ZM18.9453 16.617C20.9913 16.617 22.6566 17.2694 22.6566 18.0669C22.6566 18.8643 20.9913 19.5167 18.9453 19.5167C16.8993 19.5167 15.2339 18.8643 15.2339 18.0669C15.2339 17.2694 16.8993 16.617 18.9453 16.617ZM38.8343 23.9872C37.2403 24.8329 28.9849 28.2885 27.2244 29.2067C25.4639 30.1491 24.4885 30.125 23.1086 29.4484C21.7288 28.7717 12.8787 25.1712 11.3085 24.398C10.4996 24.0113 10.0476 23.6972 10.0476 23.3831V26.452C10.0476 26.7661 10.4996 27.0802 11.2847 27.4669C12.8787 28.2401 21.6812 31.8406 23.0611 32.5172C24.4409 33.1939 25.4401 33.1939 27.2006 32.2756C28.9611 31.3332 37.2403 27.9018 38.8343 27.0561C39.6431 26.6211 40 26.2828 40 25.9928V22.9723C40 23.2381 39.6193 23.5764 38.8343 23.9872ZM38.8343 28.9892C37.2403 29.835 28.9849 33.2905 27.2244 34.2088C25.4639 35.1512 24.4885 35.127 23.1086 34.4504C21.7288 33.7738 12.8787 30.1733 11.3085 29.4C10.4996 29.0376 10.0476 28.6993 10.0476 28.3851V31.454C10.0476 31.7681 10.4996 32.0823 11.2847 32.4689C12.8787 33.2422 21.6812 36.8427 23.0611 37.5193C24.4409 38.1959 25.4401 38.1959 27.2006 37.2777C28.9611 36.3352 37.2403 32.9039 38.8343 32.0581C39.6431 31.6232 40 31.2849 40 30.9949V27.9743C40 28.2643 39.6193 28.5784 38.8343 28.9892Z" fill="#4C5CE5"/>
</svg>
