<svg width="50" height="50" viewBox="0 0 50 50" fill="none" xmlns="http://www.w3.org/2000/svg">
<rect width="50" height="50" rx="25" fill="white"/>
<g clip-path="url(#clip0_3681_3213)">
<path d="M22.4975 17.2903C23.4594 16.283 24.7964 15.6562 26.2768 15.6562C28.2464 15.6562 29.9616 16.762 30.8779 18.3994C31.6735 18.0417 32.554 17.8416 33.4768 17.8416C37.0279 17.8416 39.904 20.7619 39.904 24.368C39.904 27.9741 37.0246 30.8944 33.4768 30.8944C33.0431 30.8944 32.6192 30.8517 32.2116 30.7664C31.4061 32.2102 29.8703 33.188 28.1094 33.188C27.3725 33.188 26.6746 33.0173 26.0551 32.7122C25.2398 34.6448 23.3355 36 21.1214 36C18.9072 36 16.8464 34.53 16.0898 32.4694C15.7605 32.5383 15.4181 32.5777 15.0659 32.5777C12.317 32.5777 10.0898 30.3136 10.0898 27.518C10.0898 25.6444 11.0909 24.0103 12.5779 23.1342C12.2714 22.4255 12.1018 21.6413 12.1018 20.8209C12.1018 17.6053 14.6942 15 17.8931 15C19.7714 15 21.4409 15.8991 22.4975 17.2903Z" fill="#4C5CE5"/>
<path d="M14.4134 25.8903C14.3938 25.9396 14.4199 25.9494 14.4264 25.9592C14.4819 25.9986 14.5406 26.0281 14.596 26.0642C14.8993 26.225 15.1862 26.2742 15.4862 26.2742C16.0993 26.2742 16.4775 25.9461 16.4775 25.4211V25.4113C16.4775 24.9256 16.0471 24.7485 15.646 24.6205L15.5938 24.6041C15.2906 24.5056 15.0297 24.4203 15.0297 24.2169V24.2071C15.0297 24.0364 15.183 23.9085 15.421 23.9085C15.6851 23.9085 15.9982 23.9971 16.1971 24.1086C16.1971 24.1086 16.2558 24.148 16.2786 24.0889C16.2917 24.0561 16.3927 23.7805 16.4025 23.751C16.4156 23.7181 16.3927 23.6952 16.3732 23.6821C16.1417 23.541 15.8254 23.4458 15.496 23.4458H15.4341C14.8732 23.4458 14.4819 23.7871 14.4819 24.2727V24.2825C14.4819 24.7977 14.9123 24.9617 15.3167 25.0799L15.3819 25.0996C15.6754 25.1914 15.9297 25.2702 15.9297 25.4769V25.4867C15.9297 25.6771 15.7634 25.8181 15.4993 25.8181C15.3949 25.8181 15.0656 25.8181 14.7101 25.5885C14.6677 25.5622 14.6417 25.5458 14.6091 25.5261C14.5927 25.5163 14.5471 25.4966 14.5275 25.5524L14.4069 25.8903H14.4134Z" fill="white"/>
<path d="M23.3626 25.8903C23.3431 25.9396 23.3691 25.9494 23.3757 25.9592C23.4311 25.9986 23.4898 26.0281 23.5452 26.0642C23.8485 26.225 24.1354 26.2742 24.4354 26.2742C25.0485 26.2742 25.4267 25.9461 25.4267 25.4211V25.4113C25.4267 24.9256 24.9996 24.7485 24.5952 24.6205L24.5431 24.6041C24.2398 24.5056 23.9789 24.4203 23.9789 24.2169V24.2071C23.9789 24.0364 24.1322 23.9085 24.3702 23.9085C24.6344 23.9085 24.9474 23.9971 25.1463 24.1086C25.1463 24.1086 25.205 24.148 25.2278 24.0889C25.2409 24.0561 25.342 23.7805 25.3518 23.751C25.3648 23.7181 25.342 23.6952 25.3224 23.6821C25.0909 23.541 24.7746 23.4458 24.4452 23.4458H24.3833C23.8224 23.4458 23.4311 23.7871 23.4311 24.2727V24.2825C23.4311 24.7977 23.8615 24.9617 24.2659 25.0799L24.3311 25.0996C24.6246 25.1914 24.8789 25.2702 24.8789 25.4769V25.4867C24.8789 25.6771 24.7126 25.8181 24.4485 25.8181C24.3441 25.8181 24.0148 25.8181 23.6594 25.5885C23.617 25.5622 23.5909 25.5458 23.5583 25.5261C23.5485 25.5196 23.4963 25.4999 23.4768 25.5524L23.3561 25.8903H23.3626Z" fill="white"/>
<path d="M29.9866 24.3056C29.9377 24.135 29.8594 23.9841 29.7551 23.8594C29.6507 23.7347 29.5203 23.633 29.3638 23.5608C29.2073 23.4886 29.0247 23.4492 28.816 23.4492C28.6073 23.4492 28.4247 23.4853 28.2681 23.5608C28.1116 23.633 27.9812 23.7347 27.8768 23.8594C27.7725 23.9841 27.6942 24.135 27.6453 24.3056C27.5964 24.4763 27.5703 24.66 27.5703 24.8569C27.5703 25.0538 27.5964 25.2408 27.6453 25.4081C27.6942 25.5787 27.7725 25.7297 27.8768 25.8544C27.9812 25.9791 28.1149 26.0808 28.2681 26.153C28.4247 26.2252 28.6073 26.2613 28.816 26.2613C29.0247 26.2613 29.2073 26.2252 29.3638 26.153C29.5203 26.0808 29.6507 25.9823 29.7551 25.8544C29.8594 25.7297 29.9377 25.5787 29.9866 25.4081C30.0355 25.2375 30.0616 25.0538 30.0616 24.8569C30.0616 24.66 30.0355 24.473 29.9866 24.3056ZM29.4747 24.8569C29.4747 25.1555 29.4192 25.3884 29.3116 25.5558C29.204 25.7198 29.041 25.7986 28.816 25.7986C28.591 25.7986 28.4279 25.7198 28.3203 25.5558C28.2127 25.3884 28.1573 25.1555 28.1573 24.8569C28.1573 24.5583 28.2127 24.3253 28.3171 24.1612C28.4247 23.9972 28.5844 23.9184 28.8127 23.9184C29.041 23.9184 29.2007 23.9972 29.3084 24.1612C29.416 24.3253 29.4714 24.5583 29.4714 24.8569" fill="white"/>
<path fill-rule="evenodd" clip-rule="evenodd" d="M34.1818 25.72C34.1655 25.6708 34.1166 25.6904 34.1166 25.6904C34.0416 25.72 33.9633 25.7462 33.8785 25.7594C33.7938 25.7725 33.6992 25.779 33.5981 25.779C33.3503 25.779 33.1546 25.7036 33.0144 25.5592C32.8742 25.4115 32.7927 25.1753 32.7959 24.857C32.7959 24.565 32.8677 24.3484 32.9916 24.1811C33.1155 24.0137 33.3046 23.9317 33.559 23.9317C33.7709 23.9317 33.9307 23.9547 34.1003 24.0104C34.1003 24.0104 34.1394 24.0269 34.159 23.9744C34.2046 23.8497 34.2372 23.7611 34.2861 23.6233C34.2992 23.5839 34.2666 23.5675 34.2535 23.5642C34.1883 23.5379 34.0318 23.4953 33.9144 23.4789C33.8035 23.4625 33.6764 23.4526 33.5329 23.4526C33.3177 23.4526 33.1285 23.4887 32.9622 23.5642C32.7992 23.6364 32.6622 23.7381 32.5514 23.8628C32.4405 23.9875 32.359 24.1384 32.3035 24.309C32.2481 24.4797 32.2188 24.6634 32.2188 24.8636C32.2188 25.2901 32.3329 25.6347 32.5579 25.8873C32.7829 26.14 33.122 26.2679 33.5655 26.2679C33.8264 26.2679 34.0938 26.2154 34.2894 26.1367C34.2894 26.1367 34.3253 26.1203 34.309 26.0744L34.1851 25.7265L34.1818 25.72Z" fill="white"/>
<path fill-rule="evenodd" clip-rule="evenodd" d="M36.7938 24.2105C36.7514 24.0464 36.6438 23.8791 36.572 23.8036C36.4611 23.6822 36.3535 23.6002 36.2427 23.5509C36.1024 23.4886 35.9329 23.4492 35.747 23.4492C35.5318 23.4492 35.3361 23.4853 35.1764 23.5608C35.0166 23.6363 34.8829 23.738 34.7785 23.8659C34.6742 23.9939 34.5959 24.1448 34.5438 24.3187C34.4948 24.4894 34.4688 24.6764 34.4688 24.8733C34.4688 25.0702 34.4948 25.2605 34.547 25.4278C34.5992 25.5984 34.684 25.7461 34.7981 25.8708C34.9122 25.9955 35.059 26.0939 35.2318 26.1595C35.4046 26.2284 35.6166 26.2613 35.8579 26.2613C36.3568 26.2613 36.6209 26.1464 36.7285 26.0873C36.7481 26.0775 36.7644 26.0578 36.7448 26.0053L36.6307 25.687C36.6144 25.6411 36.5655 25.6575 36.5655 25.6575C36.4416 25.7034 36.2655 25.7855 35.8546 25.7855C35.5872 25.7855 35.3883 25.7067 35.2644 25.582C35.1372 25.4541 35.0753 25.267 35.0622 25.0045H36.7905C36.7905 25.0045 36.8361 25.0045 36.8394 24.9619C36.8394 24.9422 36.8981 24.6042 36.7872 24.2138L36.7938 24.2105ZM35.0753 24.5747C35.0981 24.4106 35.1438 24.2728 35.2155 24.1645C35.3198 24.0005 35.4829 23.9119 35.7111 23.9119C35.9394 23.9119 36.0861 24.0005 36.1938 24.1645C36.2655 24.2728 36.2948 24.4139 36.3079 24.5747H35.0753Z" fill="white"/>
<path fill-rule="evenodd" clip-rule="evenodd" d="M22.9539 24.2105C22.9115 24.0464 22.8039 23.8791 22.7322 23.8036C22.6213 23.6822 22.5137 23.6002 22.4028 23.5509C22.2626 23.4886 22.093 23.4492 21.9072 23.4492C21.6919 23.4492 21.4963 23.4853 21.3365 23.5608C21.1767 23.6363 21.043 23.738 20.9387 23.8659C20.8343 23.9939 20.7561 24.1448 20.7039 24.3187C20.655 24.4894 20.6289 24.6764 20.6289 24.8733C20.6289 25.0702 20.655 25.2605 20.7072 25.4278C20.7593 25.5984 20.8441 25.7461 20.9583 25.8708C21.0724 25.9955 21.2191 26.0939 21.3919 26.1595C21.5648 26.2284 21.7767 26.2613 22.018 26.2613C22.5169 26.2613 22.7811 26.1464 22.8887 26.0873C22.9083 26.0775 22.9246 26.0578 22.9017 26.0053L22.7876 25.687C22.7713 25.6411 22.7224 25.6575 22.7224 25.6575C22.5985 25.7034 22.4224 25.7855 22.0115 25.7855C21.7441 25.7855 21.5452 25.7067 21.4213 25.582C21.2941 25.4541 21.2322 25.267 21.2191 25.0045H22.9474C22.9474 25.0045 22.993 25.0045 22.9963 24.9619C22.9963 24.9422 23.055 24.6042 22.9441 24.2138L22.9539 24.2105ZM21.2354 24.5747C21.2583 24.4106 21.3039 24.2728 21.3756 24.1645C21.4833 24.0005 21.643 23.9119 21.8713 23.9119C22.0996 23.9119 22.2463 24.0005 22.3572 24.1645C22.4289 24.2728 22.4583 24.4139 22.4713 24.5747H21.2387H21.2354Z" fill="white"/>
<path d="M18.1873 24.4894C18.1156 24.4828 18.0275 24.4828 17.9167 24.4828C17.7699 24.4828 17.6265 24.5025 17.4895 24.5386C17.3558 24.5747 17.2319 24.6305 17.1275 24.7059C17.0232 24.7814 16.9384 24.8766 16.8765 24.9914C16.8145 25.1063 16.7852 25.2408 16.7852 25.3917C16.7852 25.5427 16.8112 25.6805 16.8634 25.7888C16.9156 25.897 16.9906 25.9889 17.0884 26.0611C17.183 26.13 17.3036 26.1825 17.4406 26.2153C17.5775 26.2448 17.7308 26.2613 17.8971 26.2613C18.0732 26.2613 18.2525 26.2448 18.4221 26.2186C18.5917 26.1891 18.8004 26.1464 18.8558 26.1333C18.9145 26.1202 18.9765 26.1037 18.9765 26.1037C19.0189 26.0939 19.0156 26.048 19.0156 26.048V24.4566C19.0156 24.1087 18.921 23.8495 18.7384 23.6887C18.5558 23.528 18.2917 23.4492 17.946 23.4492C17.8156 23.4492 17.6069 23.4656 17.483 23.4919C17.483 23.4919 17.1047 23.5641 16.9515 23.6887C16.9515 23.6887 16.9189 23.7084 16.9352 23.7577L17.0591 24.0891C17.0754 24.1317 17.1145 24.1186 17.1145 24.1186C17.1145 24.1186 17.1275 24.112 17.1439 24.1055C17.4765 23.925 17.8971 23.9283 17.8971 23.9283C18.083 23.9283 18.2265 23.9677 18.3243 24.0398C18.4189 24.112 18.4678 24.2236 18.4678 24.4533V24.5255C18.321 24.5025 18.1841 24.4927 18.1841 24.4927L18.1873 24.4894ZM17.4993 25.71C17.4308 25.6542 17.421 25.6411 17.3982 25.6083C17.3656 25.5558 17.346 25.4803 17.346 25.3819C17.346 25.2277 17.3949 25.1194 17.4993 25.0439C17.4993 25.0439 17.6493 24.9127 18.0015 24.9192C18.2493 24.9192 18.471 24.9586 18.471 24.9586V25.7494C18.471 25.7494 18.2525 25.7953 18.0047 25.8117C17.6525 25.8314 17.496 25.71 17.4993 25.71Z" fill="white"/>
<path fill-rule="evenodd" clip-rule="evenodd" d="M32.1213 23.5933C32.1343 23.5539 32.1082 23.5342 32.0952 23.5309C32.0658 23.5211 31.9191 23.4883 31.805 23.4817C31.5865 23.4686 31.4658 23.5047 31.3582 23.5539C31.2506 23.6031 31.1332 23.6819 31.0647 23.7705V23.5572C31.0647 23.5277 31.0452 23.5047 31.0158 23.5047H30.5724C30.543 23.5047 30.5234 23.5277 30.5234 23.5572V26.1527C30.5234 26.1822 30.5463 26.2052 30.5756 26.2052H31.0289C31.0582 26.2052 31.081 26.1822 31.081 26.1527V24.8566C31.081 24.6827 31.1006 24.5088 31.1397 24.4005C31.1756 24.2922 31.2278 24.2069 31.2897 24.1445C31.3517 24.0822 31.4234 24.0395 31.5017 24.0166C31.5832 23.9903 31.6713 23.9838 31.7332 23.9838C31.8245 23.9838 31.9224 24.0067 31.9224 24.0067C31.955 24.01 31.9745 23.9903 31.9843 23.9608C32.0137 23.882 32.0984 23.6425 32.1147 23.5966L32.1213 23.5933Z" fill="white"/>
<path fill-rule="evenodd" clip-rule="evenodd" d="M27.8609 22.3926C27.8055 22.3762 27.7566 22.363 27.6914 22.3532C27.6262 22.3401 27.5446 22.3335 27.4566 22.3335C27.1436 22.3335 26.899 22.4221 26.7262 22.5993C26.5533 22.7732 26.4359 23.039 26.3805 23.3868L26.3609 23.5049H25.9696C25.9696 23.5049 25.9207 23.5049 25.9109 23.5541L25.8457 23.9151C25.8425 23.9512 25.8555 23.9708 25.9012 23.9708H26.2827L25.8946 26.1463C25.8653 26.3202 25.8294 26.4646 25.7903 26.5762C25.7512 26.6844 25.7153 26.7632 25.6696 26.8222C25.624 26.878 25.5849 26.9207 25.5131 26.9437C25.4544 26.9633 25.3859 26.9732 25.3109 26.9732C25.2686 26.9732 25.2131 26.9666 25.1707 26.9568C25.1283 26.9502 25.1088 26.9404 25.0762 26.9272C25.0762 26.9272 25.0305 26.9108 25.0142 26.9568C25.0012 26.9929 24.8968 27.2751 24.887 27.3112C24.874 27.344 24.8936 27.3735 24.9131 27.3801C24.9653 27.3997 25.0012 27.4096 25.0696 27.426C25.1642 27.449 25.2457 27.449 25.324 27.449C25.4838 27.449 25.6273 27.426 25.7479 27.3833C25.8686 27.3407 25.9729 27.2619 26.0675 27.1602C26.1686 27.0487 26.2305 26.9305 26.2925 26.7697C26.3512 26.6122 26.4033 26.4154 26.4457 26.1857L26.8338 23.9676H27.4044C27.4044 23.9676 27.4533 23.9676 27.4631 23.9183L27.5283 23.5574C27.5316 23.5213 27.5186 23.5016 27.4729 23.5016H26.9218C26.9218 23.5016 26.9512 23.2949 27.0131 23.1079C27.0392 23.0291 27.0914 22.9668 27.1338 22.9208C27.1762 22.8782 27.2251 22.8487 27.2773 22.829C27.3327 22.8126 27.3946 22.8027 27.4631 22.8027C27.5153 22.8027 27.5675 22.8093 27.6066 22.8158C27.6588 22.8257 27.6816 22.8322 27.6946 22.8388C27.7501 22.8552 27.7599 22.8388 27.7696 22.8126L27.9033 22.4483C27.9164 22.409 27.8838 22.3926 27.8707 22.3893L27.8609 22.3926Z" fill="white"/>
<path fill-rule="evenodd" clip-rule="evenodd" d="M20.1435 26.1528C20.1435 26.1823 20.124 26.2053 20.0946 26.2053H19.6349C19.6055 26.2053 19.5859 26.1823 19.5859 26.1528V22.4417C19.5859 22.4121 19.6055 22.3892 19.6349 22.3892H20.0946C20.124 22.3892 20.1435 22.4121 20.1435 22.4417V26.1528Z" fill="white"/>
</g>
<defs>
<clipPath id="clip0_3681_3213">
<rect width="30" height="21" fill="white" transform="translate(10 15)"/>
</clipPath>
</defs>
</svg>
