<svg width="256" height="32" viewBox="0 0 256 32" fill="none" xmlns="http://www.w3.org/2000/svg">
<g clip-path="url(#clip0_1_2)">
<rect width="32" height="32" fill="black"/>
<circle cx="16" cy="16" r="14" fill="white"/>
<path d="M53.9531 6.9375V24H50.7422V6.9375H53.9531ZM59.25 6.9375V9.48047H45.5039V6.9375H59.25ZM65.7539 24.2344C64.793 24.2344 63.9297 24.0781 63.1641 23.7656C62.3984 23.4531 61.7461 23.0195 61.207 22.4648C60.6758 21.9023 60.2656 21.25 59.9766 20.5078C59.6953 19.7578 59.5547 18.9531 59.5547 18.0938V17.625C59.5547 16.6484 59.6953 15.7617 59.9766 14.9648C60.2578 14.1602 60.6562 13.4688 61.1719 12.8906C61.6875 12.3125 62.3047 11.8672 63.0234 11.5547C63.7422 11.2422 64.5352 11.0859 65.4023 11.0859C66.3008 11.0859 67.0938 11.2383 67.7812 11.543C68.4688 11.8398 69.043 12.2617 69.5039 12.8086C69.9648 13.3555 70.3125 14.0117 70.5469 14.7773C70.7812 15.5352 70.8984 16.375 70.8984 17.2969V18.5977H60.9609V16.4648H67.8516V16.2305C67.8359 15.7383 67.7422 15.2891 67.5703 14.8828C67.3984 14.4688 67.1328 14.1406 66.7734 13.8984C66.4141 13.6484 65.9492 13.5234 65.3789 13.5234C64.918 13.5234 64.5156 13.625 64.1719 13.8281C63.8359 14.0234 63.5547 14.3047 63.3281 14.6719C63.1094 15.0312 62.9453 15.4609 62.8359 15.9609C62.7266 16.4609 62.6719 17.0156 62.6719 17.625V18.0938C62.6719 18.625 62.7422 19.1172 62.8828 19.5703C63.0312 20.0234 63.2461 20.418 63.5273 20.7539C63.8164 21.082 64.1602 21.3398 64.5586 21.5273C64.9648 21.707 65.4258 21.7969 65.9414 21.7969C66.5898 21.7969 67.1758 21.6719 67.6992 21.4219C68.2305 21.1641 68.6914 20.7852 69.082 20.2852L70.6406 21.9023C70.375 22.293 70.0156 22.668 69.5625 23.0273C69.1172 23.3867 68.5781 23.6797 67.9453 23.9062C67.3125 24.125 66.582 24.2344 65.7539 24.2344ZM78.1758 21.7969C78.6133 21.7969 79.0039 21.7109 79.3477 21.5391C79.6914 21.3672 79.9648 21.125 80.168 20.8125C80.3789 20.5 80.4922 20.1367 80.5078 19.7227H83.4258C83.4102 20.582 83.168 21.3516 82.6992 22.0312C82.2305 22.7109 81.6055 23.25 80.8242 23.6484C80.0508 24.0391 79.1836 24.2344 78.2227 24.2344C77.2461 24.2344 76.3945 24.0703 75.668 23.7422C74.9414 23.4141 74.3359 22.957 73.8516 22.3711C73.375 21.7852 73.0156 21.1055 72.7734 20.332C72.5391 19.5586 72.4219 18.7305 72.4219 17.8477V17.4727C72.4219 16.5898 72.5391 15.7617 72.7734 14.9883C73.0156 14.2148 73.375 13.5352 73.8516 12.9492C74.3359 12.3633 74.9414 11.9062 75.668 11.5781C76.3945 11.25 77.2422 11.0859 78.2109 11.0859C79.2344 11.0859 80.1328 11.2852 80.9062 11.6836C81.6875 12.082 82.2969 12.6445 82.7344 13.3711C83.1797 14.0977 83.4102 14.9531 83.4258 15.9375H80.5078C80.4922 15.4844 80.3906 15.0781 80.2031 14.7188C80.0156 14.3594 79.75 14.0703 79.4062 13.8516C79.0625 13.6328 78.6445 13.5234 78.1523 13.5234C77.6289 13.5234 77.1914 13.6328 76.8398 13.8516C76.4961 14.0703 76.2266 14.3711 76.0312 14.7539C75.8438 15.1289 75.7109 15.5508 75.6328 16.0195C75.5625 16.4805 75.5273 16.9648 75.5273 17.4727V17.8477C75.5273 18.3633 75.5625 18.8555 75.6328 19.3242C75.7109 19.793 75.8438 20.2148 76.0312 20.5898C76.2266 20.957 76.4961 21.25 76.8398 21.4688C77.1914 21.6875 77.6367 21.7969 78.1758 21.7969ZM88.5234 6V24H85.418V6H88.5234ZM88.0312 17.2031H87.1172C87.1172 16.3203 87.2344 15.5078 87.4688 14.7656C87.7031 14.0234 88.0352 13.3789 88.4648 12.832C88.8945 12.2773 89.4062 11.8477 90 11.543C90.6016 11.2383 91.2656 11.0859 91.9922 11.0859C92.6172 11.0859 93.1836 11.1758 93.6914 11.3555C94.207 11.5273 94.6484 11.8047 95.0156 12.1875C95.3828 12.5703 95.6641 13.0703 95.8594 13.6875C96.0625 14.2969 96.1641 15.0391 96.1641 15.9141V24H93.0469V15.8906C93.0469 15.3047 92.9609 14.8438 92.7891 14.5078C92.6172 14.1641 92.3711 13.918 92.0508 13.7695C91.7383 13.6211 91.3516 13.5469 90.8906 13.5469C90.3906 13.5469 89.9609 13.6445 89.6016 13.8398C89.2422 14.0273 88.9453 14.2891 88.7109 14.625C88.4844 14.9609 88.3125 15.3477 88.1953 15.7852C88.0859 16.2227 88.0312 16.6953 88.0312 17.2031ZM102.352 6.9375V24H99.1289V6.9375H102.352ZM109.23 14.3086V16.8516H101.508V14.3086H109.23ZM110.133 6.9375V9.48047H101.508V6.9375H110.133ZM115.371 6V24H112.266V6H115.371ZM117.773 17.7891V17.543C117.773 16.6133 117.906 15.7578 118.172 14.9766C118.438 14.1875 118.824 13.5039 119.332 12.9258C119.84 12.3477 120.461 11.8984 121.195 11.5781C121.93 11.25 122.766 11.0859 123.703 11.0859C124.656 11.0859 125.5 11.25 126.234 11.5781C126.977 11.8984 127.602 12.3477 128.109 12.9258C128.617 13.5039 129.004 14.1875 129.27 14.9766C129.535 15.7578 129.668 16.6133 129.668 17.543V17.7891C129.668 18.7109 129.535 19.5664 129.27 20.3555C129.004 21.1367 128.617 21.8203 128.109 22.4062C127.602 22.9844 126.98 23.4336 126.246 23.7539C125.512 24.0742 124.672 24.2344 123.727 24.2344C122.789 24.2344 121.949 24.0742 121.207 23.7539C120.465 23.4336 119.84 22.9844 119.332 22.4062C118.824 21.8203 118.438 21.1367 118.172 20.3555C117.906 19.5664 117.773 18.7109 117.773 17.7891ZM120.867 17.543V17.7891C120.867 18.3438 120.922 18.8633 121.031 19.3477C121.141 19.832 121.309 20.2578 121.535 20.625C121.762 20.9922 122.055 21.2812 122.414 21.4922C122.781 21.6953 123.219 21.7969 123.727 21.7969C124.227 21.7969 124.656 21.6953 125.016 21.4922C125.375 21.2812 125.668 20.9922 125.895 20.625C126.129 20.2578 126.301 19.832 126.41 19.3477C126.52 18.8633 126.574 18.3438 126.574 17.7891V17.543C126.574 16.9961 126.52 16.4844 126.41 16.0078C126.301 15.5234 126.129 15.0977 125.895 14.7305C125.668 14.3555 125.371 14.0625 125.004 13.8516C124.645 13.6328 124.211 13.5234 123.703 13.5234C123.203 13.5234 122.773 13.6328 122.414 13.8516C122.055 14.0625 121.762 14.3555 121.535 14.7305C121.309 15.0977 121.141 15.5234 121.031 16.0078C120.922 16.4844 120.867 16.9961 120.867 17.543ZM135.445 20.9531L138.223 11.3203H140.191L139.605 14.6484L136.805 24H135.105L135.445 20.9531ZM133.91 11.3203L135.996 20.9766L136.184 24H134.227L130.898 11.3203H133.91ZM142.77 20.8359L144.809 11.3203H147.809L144.504 24H142.547L142.77 20.8359ZM140.496 11.3203L143.25 20.8594L143.613 24H141.914L139.09 14.6484L138.516 11.3203H140.496ZM164.777 19.5703C164.777 19.2422 164.727 18.9492 164.625 18.6914C164.531 18.4258 164.355 18.1875 164.098 17.9766C163.848 17.7578 163.492 17.5469 163.031 17.3438C162.578 17.1328 161.992 16.9141 161.273 16.6875C160.477 16.4375 159.734 16.1562 159.047 15.8438C158.359 15.5312 157.754 15.168 157.23 14.7539C156.715 14.3398 156.312 13.8633 156.023 13.3242C155.734 12.7773 155.59 12.1445 155.59 11.4258C155.59 10.7227 155.738 10.082 156.035 9.50391C156.34 8.92578 156.77 8.42969 157.324 8.01562C157.879 7.59375 158.531 7.26953 159.281 7.04297C160.039 6.81641 160.875 6.70312 161.789 6.70312C163.055 6.70312 164.148 6.93359 165.07 7.39453C166 7.85547 166.719 8.48047 167.227 9.26953C167.734 10.0586 167.988 10.9453 167.988 11.9297H164.777C164.777 11.3984 164.664 10.9297 164.438 10.5234C164.219 10.1172 163.883 9.79688 163.43 9.5625C162.984 9.32812 162.422 9.21094 161.742 9.21094C161.086 9.21094 160.539 9.30859 160.102 9.50391C159.672 9.69922 159.348 9.96484 159.129 10.3008C158.918 10.6367 158.812 11.0117 158.812 11.4258C158.812 11.7383 158.887 12.0195 159.035 12.2695C159.184 12.5117 159.406 12.7422 159.703 12.9609C160 13.1719 160.367 13.3711 160.805 13.5586C161.25 13.7383 161.766 13.918 162.352 14.0977C163.289 14.3789 164.109 14.6914 164.812 15.0352C165.523 15.3789 166.113 15.7695 166.582 16.207C167.059 16.6445 167.414 17.1367 167.648 17.6836C167.891 18.2305 168.012 18.8516 168.012 19.5469C168.012 20.2812 167.867 20.9375 167.578 21.5156C167.289 22.0938 166.875 22.5859 166.336 22.9922C165.797 23.3984 165.148 23.707 164.391 23.918C163.641 24.1289 162.801 24.2344 161.871 24.2344C161.043 24.2344 160.223 24.125 159.41 23.9062C158.605 23.6797 157.875 23.3438 157.219 22.8984C156.562 22.4453 156.039 21.875 155.648 21.1875C155.258 20.4922 155.062 19.6797 155.062 18.75H158.297C158.297 19.2891 158.383 19.75 158.555 20.1328C158.734 20.5078 158.984 20.8164 159.305 21.0586C159.633 21.293 160.016 21.4648 160.453 21.5742C160.891 21.6836 161.363 21.7383 161.871 21.7383C162.527 21.7383 163.066 21.6484 163.488 21.4688C163.918 21.2812 164.238 21.0234 164.449 20.6953C164.668 20.3672 164.777 19.9922 164.777 19.5703ZM169.711 17.7891V17.543C169.711 16.6133 169.844 15.7578 170.109 14.9766C170.375 14.1875 170.762 13.5039 171.27 12.9258C171.777 12.3477 172.398 11.8984 173.133 11.5781C173.867 11.25 174.703 11.0859 175.641 11.0859C176.594 11.0859 177.438 11.25 178.172 11.5781C178.914 11.8984 179.539 12.3477 180.047 12.9258C180.555 13.5039 180.941 14.1875 181.207 14.9766C181.473 15.7578 181.605 16.6133 181.605 17.543V17.7891C181.605 18.7109 181.473 19.5664 181.207 20.3555C180.941 21.1367 180.555 21.8203 180.047 22.4062C179.539 22.9844 178.918 23.4336 178.184 23.7539C177.449 24.0742 176.609 24.2344 175.664 24.2344C174.727 24.2344 173.887 24.0742 173.145 23.7539C172.402 23.4336 171.777 22.9844 171.27 22.4062C170.762 21.8203 170.375 21.1367 170.109 20.3555C169.844 19.5664 169.711 18.7109 169.711 17.7891ZM172.805 17.543V17.7891C172.805 18.3438 172.859 18.8633 172.969 19.3477C173.078 19.832 173.246 20.2578 173.473 20.625C173.699 20.9922 173.992 21.2812 174.352 21.4922C174.719 21.6953 175.156 21.7969 175.664 21.7969C176.164 21.7969 176.594 21.6953 176.953 21.4922C177.312 21.2812 177.605 20.9922 177.832 20.625C178.066 20.2578 178.238 19.832 178.348 19.3477C178.457 18.8633 178.512 18.3438 178.512 17.7891V17.543C178.512 16.9961 178.457 16.4844 178.348 16.0078C178.238 15.5234 178.066 15.0977 177.832 14.7305C177.605 14.3555 177.309 14.0625 176.941 13.8516C176.582 13.6328 176.148 13.5234 175.641 13.5234C175.141 13.5234 174.711 13.6328 174.352 13.8516C173.992 14.0625 173.699 14.3555 173.473 14.7305C173.246 15.0977 173.078 15.5234 172.969 16.0078C172.859 16.4844 172.805 16.9961 172.805 17.543ZM187.137 6V24H184.031V6H187.137ZM197.637 20.9883V11.3203H200.754V24H197.824L197.637 20.9883ZM198.035 18.3633L198.996 18.3398C198.996 19.1914 198.902 19.9766 198.715 20.6953C198.527 21.4141 198.234 22.0391 197.836 22.5703C197.445 23.0938 196.949 23.5039 196.348 23.8008C195.746 24.0898 195.035 24.2344 194.215 24.2344C193.59 24.2344 193.02 24.1484 192.504 23.9766C191.988 23.7969 191.543 23.5195 191.168 23.1445C190.801 22.7617 190.516 22.2734 190.312 21.6797C190.109 21.0781 190.008 20.3555 190.008 19.5117V11.3203H193.102V19.5352C193.102 19.957 193.148 20.3086 193.242 20.5898C193.344 20.8711 193.48 21.1016 193.652 21.2812C193.832 21.4531 194.039 21.5781 194.273 21.6562C194.516 21.7266 194.773 21.7617 195.047 21.7617C195.797 21.7617 196.387 21.6133 196.816 21.3164C197.254 21.0117 197.566 20.6055 197.754 20.0977C197.941 19.582 198.035 19.0039 198.035 18.3633ZM209.496 11.3203V13.5469H202.23V11.3203H209.496ZM204.176 8.20312H207.281V20.3438C207.281 20.7188 207.332 21.0078 207.434 21.2109C207.535 21.4141 207.688 21.5508 207.891 21.6211C208.094 21.6914 208.336 21.7266 208.617 21.7266C208.82 21.7266 209.008 21.7148 209.18 21.6914C209.352 21.668 209.496 21.6445 209.613 21.6211L209.625 23.9414C209.367 24.0273 209.074 24.0977 208.746 24.1523C208.426 24.207 208.062 24.2344 207.656 24.2344C206.961 24.2344 206.352 24.1172 205.828 23.8828C205.305 23.6406 204.898 23.2539 204.609 22.7227C204.32 22.1836 204.176 21.4727 204.176 20.5898V8.20312ZM214.84 11.3203V24H211.734V11.3203H214.84ZM211.523 8.00391C211.523 7.54297 211.68 7.16016 211.992 6.85547C212.312 6.55078 212.742 6.39844 213.281 6.39844C213.82 6.39844 214.246 6.55078 214.559 6.85547C214.879 7.16016 215.039 7.54297 215.039 8.00391C215.039 8.45703 214.879 8.83594 214.559 9.14062C214.246 9.44531 213.82 9.59766 213.281 9.59766C212.742 9.59766 212.312 9.44531 211.992 9.14062C211.68 8.83594 211.523 8.45703 211.523 8.00391ZM217.242 17.7891V17.543C217.242 16.6133 217.375 15.7578 217.641 14.9766C217.906 14.1875 218.293 13.5039 218.801 12.9258C219.309 12.3477 219.93 11.8984 220.664 11.5781C221.398 11.25 222.234 11.0859 223.172 11.0859C224.125 11.0859 224.969 11.25 225.703 11.5781C226.445 11.8984 227.07 12.3477 227.578 12.9258C228.086 13.5039 228.473 14.1875 228.738 14.9766C229.004 15.7578 229.137 16.6133 229.137 17.543V17.7891C229.137 18.7109 229.004 19.5664 228.738 20.3555C228.473 21.1367 228.086 21.8203 227.578 22.4062C227.07 22.9844 226.449 23.4336 225.715 23.7539C224.98 24.0742 224.141 24.2344 223.195 24.2344C222.258 24.2344 221.418 24.0742 220.676 23.7539C219.934 23.4336 219.309 22.9844 218.801 22.4062C218.293 21.8203 217.906 21.1367 217.641 20.3555C217.375 19.5664 217.242 18.7109 217.242 17.7891ZM220.336 17.543V17.7891C220.336 18.3438 220.391 18.8633 220.5 19.3477C220.609 19.832 220.777 20.2578 221.004 20.625C221.23 20.9922 221.523 21.2812 221.883 21.4922C222.25 21.6953 222.688 21.7969 223.195 21.7969C223.695 21.7969 224.125 21.6953 224.484 21.4922C224.844 21.2812 225.137 20.9922 225.363 20.625C225.598 20.2578 225.77 19.832 225.879 19.3477C225.988 18.8633 226.043 18.3438 226.043 17.7891V17.543C226.043 16.9961 225.988 16.4844 225.879 16.0078C225.77 15.5234 225.598 15.0977 225.363 14.7305C225.137 14.3555 224.84 14.0625 224.473 13.8516C224.113 13.6328 223.68 13.5234 223.172 13.5234C222.672 13.5234 222.242 13.6328 221.883 13.8516C221.523 14.0625 221.23 14.3555 221.004 14.7305C220.777 15.0977 220.609 15.5234 220.5 16.0078C220.391 16.4844 220.336 16.9961 220.336 17.543ZM234.422 14.0273V24H231.328V11.3203H234.234L234.422 14.0273ZM233.93 17.2031H233.016C233.023 16.2812 233.148 15.4453 233.391 14.6953C233.633 13.9453 233.973 13.3008 234.41 12.7617C234.855 12.2227 235.383 11.8086 235.992 11.5195C236.602 11.2305 237.281 11.0859 238.031 11.0859C238.641 11.0859 239.191 11.1719 239.684 11.3438C240.176 11.5156 240.598 11.7891 240.949 12.1641C241.309 12.5391 241.582 13.0312 241.77 13.6406C241.965 14.2422 242.062 14.9844 242.062 15.8672V24H238.945V15.8438C238.945 15.2656 238.859 14.8086 238.688 14.4727C238.523 14.1367 238.281 13.8984 237.961 13.7578C237.648 13.6172 237.262 13.5469 236.801 13.5469C236.324 13.5469 235.906 13.6445 235.547 13.8398C235.195 14.0273 234.898 14.2891 234.656 14.625C234.422 14.9609 234.242 15.3477 234.117 15.7852C233.992 16.2227 233.93 16.6953 233.93 17.2031ZM251.766 20.5312C251.766 20.2656 251.695 20.0273 251.555 19.8164C251.414 19.6055 251.148 19.4141 250.758 19.2422C250.375 19.0625 249.812 18.8945 249.07 18.7383C248.414 18.5977 247.809 18.4219 247.254 18.2109C246.699 18 246.223 17.7461 245.824 17.4492C245.426 17.1445 245.113 16.7891 244.887 16.3828C244.668 15.9688 244.559 15.4922 244.559 14.9531C244.559 14.4297 244.672 13.9375 244.898 13.4766C245.125 13.0078 245.453 12.5977 245.883 12.2461C246.312 11.8867 246.836 11.6055 247.453 11.4023C248.07 11.1914 248.766 11.0859 249.539 11.0859C250.617 11.0859 251.543 11.2617 252.316 11.6133C253.098 11.9648 253.695 12.4492 254.109 13.0664C254.523 13.6758 254.73 14.3633 254.73 15.1289H251.637C251.637 14.793 251.559 14.4883 251.402 14.2148C251.254 13.9414 251.023 13.7227 250.711 13.5586C250.398 13.3867 250.004 13.3008 249.527 13.3008C249.098 13.3008 248.734 13.3711 248.438 13.5117C248.148 13.6523 247.93 13.8359 247.781 14.0625C247.633 14.2891 247.559 14.5391 247.559 14.8125C247.559 15.0156 247.598 15.1992 247.676 15.3633C247.762 15.5195 247.898 15.6641 248.086 15.7969C248.273 15.9297 248.527 16.0508 248.848 16.1602C249.176 16.2695 249.578 16.375 250.055 16.4766C251 16.6641 251.824 16.9141 252.527 17.2266C253.238 17.5312 253.793 17.9375 254.191 18.4453C254.59 18.9531 254.789 19.6016 254.789 20.3906C254.789 20.9531 254.668 21.4688 254.426 21.9375C254.184 22.3984 253.832 22.8008 253.371 23.1445C252.91 23.4883 252.359 23.7578 251.719 23.9531C251.078 24.1406 250.355 24.2344 249.551 24.2344C248.387 24.2344 247.402 24.0273 246.598 23.6133C245.793 23.1914 245.184 22.6602 244.77 22.0195C244.355 21.3711 244.148 20.6992 244.148 20.0039H247.113C247.137 20.4961 247.27 20.8906 247.512 21.1875C247.754 21.4844 248.059 21.6992 248.426 21.832C248.801 21.957 249.195 22.0195 249.609 22.0195C250.078 22.0195 250.473 21.957 250.793 21.832C251.113 21.6992 251.355 21.5234 251.52 21.3047C251.684 21.0781 251.766 20.8203 251.766 20.5312Z" fill="black"/>
</g>
<defs>
<clipPath id="clip0_1_2">
<rect width="256" height="32" fill="white"/>
</clipPath>
</defs>
</svg>
