<svg width="50" height="50" viewBox="0 0 50 50" fill="none" xmlns="http://www.w3.org/2000/svg">
<rect width="50" height="50" rx="25" fill="white"/>
<path fill-rule="evenodd" clip-rule="evenodd" d="M33.1 22.0244C33.1 22.8306 32.1212 23.23 31.5569 22.6534L20.0087 10.8503C21.6123 10.2861 23.3001 9.99857 25 10C27.9841 10 30.7637 10.8719 33.1 12.3728V22.0244ZM37.3 16.4125V22.0244C37.3 26.5947 31.7509 28.8578 28.555 25.5906L16.1359 12.8978C12.415 15.6278 10 20.0322 10 25C10 28.1941 10.9984 31.1547 12.7 33.5875V28.0056C12.7 23.4353 18.2491 21.1722 21.445 24.4394L33.8472 37.1144C37.5775 34.3863 40 29.9763 40 25C40 21.8059 39.0016 18.8453 37.3 16.4125ZM18.4431 27.3766L29.9697 39.1563C28.4144 39.7028 26.7419 40 25 40C22.0169 40 19.2362 39.1281 16.9 37.6272V28.0056C16.9 27.1994 17.8797 26.8 18.4431 27.3766Z" fill="#4C5CE5"/>
</svg>
