<svg width="50" height="50" viewBox="0 0 50 50" fill="none" xmlns="http://www.w3.org/2000/svg">
<rect width="50" height="50" rx="25" fill="white"/>
<path d="M40 25C40 19.7042 37.2417 15.0458 33.0875 12.375L33.1042 12.35C32.9917 12.2833 32.8833 12.2333 32.7708 12.175C30.5 10.7958 27.8417 10 25 10C16.7292 10 10 16.7292 10 25C10 33.2708 16.7292 40 25 40C25.5375 40 26.0667 39.9708 26.5875 39.9167C26.725 39.9042 26.8542 39.8875 26.975 39.8667C26.9792 39.8667 26.9833 39.8667 26.9875 39.8667C34.3208 38.8917 39.9958 32.6 39.9958 25.0042L40 25ZM25 12.5C25.325 12.5 25.6458 12.5167 25.9625 12.5417C25.4708 12.9167 25.0375 13.35 24.6792 13.8333C22.7417 16.4667 22.4958 20.975 26.5292 24.65C30.0792 27.8833 31.6333 31.0958 30.9083 33.6958C30.3917 35.5417 28.7208 36.9583 26.5667 37.4C26.4708 37.4125 26.375 37.425 26.2792 37.4375C25.3958 37.4958 23.6833 37.1917 22.575 36.1C21.6042 35.1417 21.2583 33.7292 21.55 31.9C22.1125 28.3708 20.7292 24.4708 16.9875 23.8333C15.4417 23.575 13.7625 24.0417 12.4958 25.2792C12.4958 25.1875 12.4875 25.0958 12.4875 25C12.4875 18.1083 18.0958 12.5 24.9875 12.5H25ZM13.1958 29.1042C13.7125 26.8625 15.2458 26.0708 16.5792 26.3C18.1458 26.5667 19.6042 28.3083 19.0917 31.5042C18.7542 33.6083 19.1042 35.175 19.6833 36.3083C16.6625 34.8833 14.3042 32.2833 13.1958 29.1V29.1042ZM33.3375 34.3C33.8958 32.2167 33.9375 28.0083 28.2167 22.8C25.325 20.1667 25.4 17.075 26.6958 15.3167C27.5958 14.0917 29.3125 13.2292 31.4875 14.3208C35.0917 16.5167 37.5 20.4833 37.5 25C37.5 28.6917 35.8917 32.0125 33.3375 34.3Z" fill="#4C5CE5"/>
</svg>
