<svg width="50" height="50" viewBox="0 0 50 50" fill="none" xmlns="http://www.w3.org/2000/svg">
<rect width="50" height="50" rx="25" fill="white"/>
<path d="M38.8992 22.3239L27.6761 11.1008C26.2084 9.63307 23.8043 9.63307 22.3366 11.1008L11.1008 22.3239C9.63307 23.7916 9.63307 26.1957 11.1008 27.6634L16.7187 33.2813L22.3366 38.8992C23.8043 40.3669 26.2084 40.3669 27.6761 38.8992L38.8992 27.6761C40.3669 26.1957 40.3669 23.7916 38.8992 22.3239ZM32.4842 22.8553L22.8806 32.4589C21.4129 33.9266 19.0089 33.9266 17.5411 32.4589C16.0734 30.9911 16.0734 28.5871 17.5411 27.1194L27.1447 17.5158C28.6124 16.0481 31.0164 16.0481 32.4842 17.5158C33.9519 18.9836 33.9519 21.3876 32.4842 22.8553Z" fill="#4C5CE5"/>
</svg>
