<svg width="50" height="50" viewBox="0 0 50 50" fill="none" xmlns="http://www.w3.org/2000/svg">
<rect width="50" height="50" rx="25" fill="white"/>
<path d="M33.7507 28.1407C35.8166 28.1407 37.4987 26.5068 37.4987 24.5C37.4987 22.4932 35.8166 20.8593 33.7507 20.8593C32.4486 20.8593 31.3008 21.509 30.628 22.4894L29.2507 24.5L30.6161 26.4991C31.2889 27.4871 32.4406 28.1407 33.7507 28.1407ZM33.7507 18.4297C37.2018 18.4297 40 21.1477 40 24.5C40 27.8523 37.2018 30.5703 33.7507 30.5703C31.5739 30.5703 29.6583 29.49 28.5422 27.8523L27.7507 26.699L26.0488 29.1902C24.4815 31.4853 21.7982 33 18.7507 33C13.9182 33 10 29.194 10 24.5C10 19.806 13.9182 16 18.7507 16C21.7863 16 24.4578 17.4993 26.029 19.7791L26.2507 20.102L24.7507 22.3048L23.9314 21.1015C22.8074 19.4907 20.9077 18.4297 18.7546 18.4297C15.3074 18.4297 12.5053 21.1515 12.5053 24.5C12.5053 27.8485 15.3074 30.5703 18.7546 30.5703C20.9274 30.5703 22.843 29.49 23.9631 27.8523L28.5383 21.1554C29.6544 19.5138 31.5699 18.4297 33.7507 18.4297Z" fill="#4C5CE5"/>
</svg>
