<svg width="25" height="20" viewBox="0 0 25 20" fill="none" xmlns="http://www.w3.org/2000/svg">
<path d="M24.1584 4.99777H20.6919C20.6274 4.99777 20.5629 4.96342 20.5328 4.90761L17.7501 0.0901662C17.7157 0.0343492 17.6555 0 17.5867 0H6.23232C6.16781 0 6.10329 0.0343492 6.07319 0.0901662L3.17869 5.08794L0.39172 9.90538C0.361614 9.96119 0.361614 10.0299 0.39172 10.09L3.17869 14.9074L6.06889 19.9095C6.09899 19.9653 6.1635 20.004 6.22802 19.9997H17.5867C17.6512 19.9997 17.7157 19.9653 17.7501 19.9095L20.5371 15.0921C20.5672 15.0363 20.6317 14.9976 20.6962 15.0019H24.1627C24.2788 15.0019 24.3691 14.9074 24.3691 14.7958V5.20816C24.3648 5.09223 24.2702 4.99777 24.1584 4.99777ZM10.8816 15.0921L10.0085 16.5948C9.99559 16.6163 9.97409 16.6378 9.95258 16.6507C9.92678 16.6635 9.90097 16.6721 9.87087 16.6721H8.13761C8.0774 16.6721 8.02149 16.6421 7.99568 16.5862L5.41085 12.108L5.1571 11.6658L4.22811 10.0814C4.2152 10.0599 4.2066 10.0342 4.2109 10.0041C4.2109 9.97837 4.21951 9.94831 4.23241 9.92684L5.1657 8.31245L7.99998 3.41772C8.03009 3.3662 8.086 3.33185 8.14191 3.33185H9.87087C9.90097 3.33185 9.93108 3.34044 9.96118 3.35332C9.98269 3.3662 10.0042 3.38337 10.0171 3.40913L10.8902 4.92049C10.916 4.97201 10.9117 5.03641 10.8816 5.08364L8.0817 9.92684C8.0688 9.94831 8.0645 9.97408 8.0645 9.99554C8.0645 10.0213 8.0731 10.0428 8.0817 10.0642L10.8816 14.9031C10.9203 14.9676 10.916 15.0363 10.8816 15.0921ZM19.5737 10.0814L18.6447 11.6658L18.3909 12.108L15.8061 16.5862C15.776 16.6378 15.7244 16.6721 15.6642 16.6721H13.9309C13.9008 16.6721 13.875 16.6635 13.8492 16.6507C13.8277 16.6378 13.8062 16.6206 13.7933 16.5948L12.9202 15.0921C12.8815 15.0363 12.8815 14.9676 12.9159 14.9117L15.7158 10.0728C15.7287 10.0514 15.733 10.0256 15.733 10.0041C15.733 9.97837 15.7244 9.9569 15.7158 9.93543L12.9159 5.09223C12.8858 5.04071 12.8815 4.9806 12.9073 4.92907L13.7804 3.41772C13.7933 3.39625 13.8148 3.37478 13.8363 3.3619C13.8621 3.34473 13.8922 3.34043 13.9266 3.34043H15.6642C15.7244 3.34043 15.7803 3.37049 15.8061 3.42631L18.6404 8.32103L19.5737 9.93543C19.5866 9.96119 19.5952 9.98696 19.5952 10.0127C19.5952 10.0299 19.5866 10.0557 19.5737 10.0814Z" fill="white"/>
</svg>
