<svg width="21" height="20" viewBox="0 0 21 20" fill="none" xmlns="http://www.w3.org/2000/svg">
<path d="M13.5664 0C16.8348 0 18.469 0.000261635 19.4844 1.01562C20.4997 2.03099 20.5 3.66519 20.5 6.93359V13.0664C20.5 16.3348 20.4997 17.969 19.4844 18.9844C18.469 19.9997 16.8348 20 13.5664 20H7.43359C4.16519 20 2.53099 19.9997 1.51562 18.9844C0.500262 17.969 0.5 16.3348 0.5 13.0664V6.93359C0.5 3.66519 0.500262 2.03099 1.51562 1.01562C2.53099 0.000261635 4.16519 0 7.43359 0H13.5664ZM7.56738 9.5H9.00098C10.1055 9.5 11.001 10.3954 11.001 11.5V12.9326H14.4346V6.2002C14.4346 6.12656 14.3744 6.06641 14.3008 6.06641H7.56738V9.5Z" fill="white"/>
<path d="M7.56836 9.5H10.8684C10.942 9.5 11.0017 9.5597 11.0017 9.63333V12.9333H7.70169C7.62806 12.9333 7.56836 12.8736 7.56836 12.8V9.5Z" fill="#9593FF"/>
<path d="M11 12.9336H14.4333L11.1138 16.2531C11.0718 16.2951 11 16.2654 11 16.206V12.9336Z" fill="#9593FF"/>
<path d="M7.56576 9.49974H4.29336C4.23396 9.49974 4.20423 9.42794 4.24623 9.38594L7.56576 6.06641V9.49974Z" fill="#9593FF"/>
</svg>
