<svg width="116" height="33" viewBox="0 0 116 33" fill="none" xmlns="http://www.w3.org/2000/svg">
<path d="M9.70864 15.1943H4.61328V20.3529H9.70864V15.1943Z" fill="white"/>
<path d="M24.053 15.1943H18.9576V20.3529H24.053V15.1943Z" fill="white"/>
<path d="M38.4035 15.1943H33.3082V20.3529H38.4035V15.1943Z" fill="white"/>
<path d="M51.6315 15.1943H46.5361V20.3529H51.6315V15.1943Z" fill="white"/>
<path d="M62.1715 6.16362C62.1715 5.52036 62.2276 5.34549 62.3461 5.16438C62.5207 4.98951 62.8762 4.87085 63.4001 4.87085C65.452 4.87085 66.269 6.16362 66.269 9.26752C66.269 12.3714 65.5081 13.608 63.4001 13.608C62.3461 13.608 62.1715 13.4331 62.1715 12.3152V6.16362ZM60.8243 12.259C60.8243 13.0209 60.7682 13.3145 60.5874 13.4893C60.4689 13.608 60.1757 13.6642 59.8265 13.6642H59.6519V14.1326H63.107C64.5102 14.1326 65.6266 13.7828 66.4436 12.9585C67.3791 12.0779 67.8468 10.7289 67.8468 9.26752C67.8468 7.91854 67.4352 6.80688 66.7367 5.86385C65.8573 4.8646 64.7472 4.39621 63.107 4.39621H59.6519V4.87709H59.8265C60.1757 4.87709 60.4689 4.9333 60.5874 5.05196C60.762 5.22683 60.8243 5.52036 60.8243 6.28228V12.2652V12.259Z" fill="white"/>
<path d="M70.2542 10.2106C70.2542 8.68671 70.7781 7.74992 71.6013 7.74992C72.4246 7.74992 72.8923 8.68671 72.8923 10.2106H70.2542ZM74.2332 10.7414C74.1771 8.57429 73.1231 7.22532 71.4828 7.22532C69.9611 7.22532 68.8509 8.69295 68.8509 10.7414C68.8509 12.971 69.9611 14.3761 71.6637 14.3761C72.7738 14.3761 73.5347 13.7891 74.1209 12.5026L73.7093 12.2652C73.1854 13.3769 72.6553 13.7891 71.8944 13.7891C70.7219 13.7891 70.2542 12.9085 70.1981 10.7414H74.2394H74.2332Z" fill="white"/>
<path d="M79.8587 14.2575L81.8482 14.1388V13.7266H81.6735C81.0873 13.7266 80.9688 13.4893 80.9688 12.4963V7.33773L78.7423 7.39394V7.86233H78.9793C79.5655 7.86233 79.7402 8.09965 79.7402 9.03644V10.8538C79.7402 11.6719 79.6217 12.2028 79.3285 12.7274C79.0354 13.3145 78.5677 13.608 78.0376 13.608C77.7444 13.608 77.4513 13.4331 77.3328 13.1396C77.2143 12.8461 77.1582 12.5525 77.1582 11.9655V7.33773L74.9941 7.39394V7.86233H75.1687C75.8111 7.86233 75.9296 8.09965 75.9296 9.03644V11.5595C75.9296 12.6712 75.9857 13.1396 76.2788 13.6142C76.5719 14.0826 77.0397 14.3199 77.6821 14.3199C78.6799 14.3199 79.3223 13.7953 79.8462 12.6774V14.2575H79.8587Z" fill="white"/>
<path d="M84.5424 7.92479H86.5319V7.40018H84.5424V4.87709H84.1308C83.9561 6.63826 83.5445 7.22532 82.2598 7.5126V7.92479H83.3138V11.9717C83.3138 13.0272 83.4323 13.4394 83.7254 13.7891C84.0185 14.1388 84.4301 14.3137 85.0164 14.3137C86.1889 14.3137 86.7751 13.5518 86.7751 12.1466V11.8531H86.2512V12.0279C86.2512 13.0834 85.9581 13.6704 85.3719 13.6704C85.0226 13.6704 84.7856 13.4956 84.6671 13.1396C84.611 12.8461 84.5486 12.5525 84.5486 11.9655V7.92479H84.5424Z" fill="white"/>
<path d="M91.5649 7.40018H91.0971C91.0971 7.6375 90.9786 7.74992 90.9225 7.74992C90.8664 7.74992 90.7479 7.69371 90.6855 7.69371C90.2739 7.40018 89.75 7.28152 89.2823 7.28152C88.1098 7.28152 87.3489 8.04345 87.3489 9.0989C87.3489 10.0981 87.8728 10.6852 89.0453 11.0911C89.6689 11.2868 90.0993 11.4617 90.3363 11.6157C90.6855 11.8531 90.9225 12.2028 90.9225 12.6712C90.9225 13.3145 90.4547 13.8453 89.75 13.8453C89.1638 13.8453 88.5775 13.5518 88.2283 13.0272C87.9913 12.7336 87.879 12.3839 87.642 11.6782H87.2304V14.1388H87.642L87.6981 14.0202C87.7543 13.7828 87.8728 13.7266 87.9351 13.7266C87.9975 13.7266 88.0536 13.7266 88.1098 13.7828C88.8145 14.195 89.1638 14.3075 89.75 14.3075C91.041 14.3075 91.9765 13.4269 91.9765 12.1403C91.9765 11.4971 91.6834 10.9662 91.1595 10.5603C90.8664 10.323 90.4548 10.1481 89.5193 9.85457C88.5838 9.56105 88.2906 9.26752 88.2906 8.74292C88.2906 8.15586 88.7584 7.68747 89.4007 7.68747C90.3363 7.68747 90.8664 8.27452 91.0971 9.56105H91.5649V7.39394V7.40018Z" fill="white"/>
<path d="M97.5396 12.2652C97.128 13.3207 96.6041 13.7891 95.8432 13.7891C94.7331 13.7891 94.203 12.8523 94.203 10.7414C94.203 8.74916 94.7892 7.74992 95.8994 7.74992C96.4856 7.74992 96.9534 8.04345 97.1904 8.51184H97.0157C96.6665 8.51184 96.3734 8.80537 96.3734 9.21756C96.3734 9.68595 96.6665 10.0357 97.0781 10.0357C97.602 10.0357 97.9575 9.6235 97.9575 9.0989C97.9575 8.04345 96.9596 7.22532 95.7933 7.22532C94.0346 7.22532 92.806 8.69295 92.806 10.7414C92.806 12.9085 93.9161 14.3761 95.6187 14.3761C96.7288 14.3761 97.4897 13.7891 98.0198 12.4401L97.5521 12.2652H97.5396Z" fill="white"/>
<path d="M103.159 14.1388H105.323V13.7266H105.148C104.506 13.7266 104.387 13.4893 104.387 12.4963V10.1481C104.387 8.85533 104.269 8.38694 103.92 7.91854C103.627 7.50635 103.159 7.27528 102.516 7.27528C101.699 7.27528 101.113 7.68746 100.645 8.62426V4.29004L98.4813 4.4087V4.81464H98.656C99.2983 4.81464 99.4168 5.05196 99.4168 5.98875V12.4963C99.4168 13.4956 99.2983 13.7266 98.656 13.7266H98.419V14.1388H101.637V13.7266H101.4C100.758 13.7266 100.639 13.4893 100.639 12.4963V10.9163C100.639 9.91703 100.758 9.33622 100.988 8.80537C101.282 8.21831 101.749 7.92479 102.217 7.92479C102.51 7.92479 102.803 8.04345 102.922 8.33697C103.096 8.6305 103.159 8.92403 103.159 9.80461V14.1451V14.1388Z" fill="white"/>
<path d="M107.437 10.2106C107.437 8.68671 107.961 7.74992 108.784 7.74992C109.608 7.74992 110.075 8.68671 110.075 10.2106H107.437ZM111.416 10.7414C111.36 8.57429 110.306 7.22532 108.666 7.22532C107.144 7.22532 106.034 8.69295 106.034 10.7414C106.034 12.971 107.144 14.3761 108.847 14.3761C109.957 14.3761 110.718 13.7891 111.304 12.5026L110.892 12.2652C110.362 13.3769 109.838 13.7891 109.077 13.7891C107.905 13.7891 107.437 12.9085 107.381 10.7414H111.422H111.416Z" fill="white"/>
<path d="M63.8741 19.5347H64.0487C65.5143 19.5347 66.1567 20.2967 66.4498 22.4638L66.8614 22.4076L66.8053 19.0663H59.602L59.5458 22.4076L59.9575 22.4638C60.0136 21.6456 60.1321 21.2335 60.3067 20.7651C60.656 20.0031 61.3607 19.5347 62.1777 19.5347H62.527V26.9229C62.527 27.6848 62.4708 27.9783 62.29 28.1532C62.1153 28.2719 61.8222 28.3281 61.5291 28.3281H61.1798V28.7965H65.1588V28.3281H64.8657C64.5165 28.3281 64.2233 28.2719 64.0487 28.1532C63.8741 27.9783 63.8741 27.6848 63.8741 26.9229V19.5347Z" fill="white"/>
<path d="M68.3208 24.8682C68.3208 23.3444 68.8509 22.4076 69.6679 22.4076C70.4849 22.4076 70.9589 23.3444 70.9589 24.8682H68.3208ZM72.2998 25.3928C72.2437 23.2257 71.1897 21.8767 69.6056 21.8767C68.0215 21.8767 66.9113 23.3444 66.9113 25.3928C66.9113 27.6224 68.0215 29.0275 69.7241 29.0275C70.8342 29.0275 71.5951 28.4405 72.2437 27.154L71.7759 26.9166C71.2458 28.0283 70.7781 28.4405 69.9611 28.4405C68.7886 28.4405 68.3208 27.5599 68.3208 25.3928H72.2998Z" fill="white"/>
<path d="M75.2872 18.9477L73.1231 19.0663V19.4785H73.2977C73.8839 19.4785 74.0586 19.7159 74.0586 20.6526V27.1602C74.0586 28.1595 73.8839 28.3905 73.2977 28.3905H73.0607V28.8027H76.2227V28.3905H75.9857C75.3994 28.3905 75.2809 28.1532 75.2809 27.1602V18.9539L75.2872 18.9477Z" fill="white"/>
<path d="M78.3369 24.8682C78.3369 23.3444 78.8608 22.4076 79.684 22.4076C80.5073 22.4076 80.975 23.3444 80.975 24.8682H78.3369ZM82.3159 25.3928C82.2598 23.2257 81.2058 21.8767 79.6217 21.8767C78.0376 21.8767 76.9898 23.3444 76.9898 25.3928C76.9898 27.6224 78.0438 29.0275 79.7402 29.0275C80.8503 29.0275 81.6112 28.4405 82.2598 27.154L81.792 26.9166C81.3243 28.0283 80.7942 28.4405 79.9771 28.4405C78.867 28.4405 78.3369 27.5599 78.3369 25.3928H82.3159Z" fill="white"/>
<path d="M89.8124 28.8027V28.3905H89.6939C89.2261 28.3905 88.9891 28.1532 88.5214 27.4537L86.7626 24.6371L88.3468 23.1695C88.9891 22.6386 89.1638 22.5262 89.5754 22.5262H89.75V22.0578H86.825V22.5262H87.062C87.5298 22.5262 87.7044 22.6449 87.7044 22.876C87.7044 23.0508 87.5298 23.2881 87.2928 23.5192L85.3033 25.2179V18.9414L83.1391 19.0601V19.4723H83.3138C83.9562 19.4723 84.0747 19.7096 84.0747 20.6464V27.154C84.0747 28.1532 83.9562 28.3843 83.3138 28.3843H83.0768V28.7965H86.2949V28.3843H86.0579C85.4155 28.3843 85.297 28.147 85.297 27.154V25.9236L85.8833 25.399L87.9913 28.8027H89.8124Z" fill="white"/>
<path d="M93.2051 22.3514C93.7352 22.3514 94.203 22.6449 94.4337 23.2319C94.6707 23.7565 94.783 24.4623 94.783 25.4615C94.783 27.5162 94.2529 28.5716 93.1989 28.5716C92.1449 28.5716 91.6771 27.5162 91.6771 25.4053C91.6771 24.4685 91.7956 23.7628 92.0264 23.2382C92.2634 22.7073 92.7311 22.3576 93.1989 22.3576L93.2051 22.3514ZM93.2613 21.883C91.4464 21.883 90.2739 23.2881 90.2739 25.4615C90.2739 27.6349 91.4464 29.04 93.1989 29.04C94.9514 29.04 96.1862 27.5724 96.1862 25.4615C96.1862 23.3506 95.0138 21.883 93.2613 21.883Z" fill="white"/>
<path d="M104.918 28.8027H107.026V28.3905H106.851C106.265 28.3905 106.146 28.1532 106.146 27.1602V24.5247C106.146 23.6441 106.028 23.1195 105.735 22.7073C105.441 22.2389 104.918 21.9454 104.269 21.9454C103.452 21.9454 102.866 22.3576 102.454 23.2944C102.105 22.3576 101.575 21.9454 100.758 21.9454C99.9969 21.9454 99.2921 22.4138 99.0614 23.1757V22.0016L97.0095 22.0578V22.5262H97.128C97.7704 22.5262 97.8889 22.7635 97.8889 23.7003V27.1602C97.8889 28.1595 97.7704 28.3905 97.128 28.3905H96.891V28.8027H100.053V28.3905H99.8784C99.236 28.3905 99.1175 28.1532 99.1175 27.1602V25.3428C99.1175 24.2312 99.1736 23.7628 99.4106 23.2881C99.6476 22.8197 99.9969 22.5824 100.408 22.5824C100.758 22.5824 101.051 22.7573 101.169 23.0508C101.344 23.4006 101.406 23.6941 101.406 24.9244V28.7965H103.57V28.3843H103.396C102.753 28.3843 102.635 28.147 102.635 27.154V25.3366C102.635 24.1063 102.691 23.7565 102.928 23.2819C103.165 22.8135 103.57 22.5762 103.982 22.5762C104.275 22.5762 104.568 22.6948 104.687 22.9884C104.861 23.2819 104.924 23.7503 104.924 24.6871V28.7902L104.918 28.8027Z" fill="white"/>
<path d="M44.135 5.63902H44.6651C48.2388 5.63902 49.879 7.63126 50.5775 13.0272L51.6876 12.9085L51.513 4.46491H33.4766L33.3019 12.9085L34.3559 13.0272C34.5306 11.0349 34.7676 9.91703 35.2353 8.80537C36.0523 6.81313 37.8111 5.63902 39.9814 5.63902H40.7423V24.1687C40.7423 26.1048 40.6238 26.748 40.2184 27.1602C39.8692 27.51 39.1083 27.7473 38.285 27.7473H37.4057V28.9214H47.4779V27.7473H46.5985C45.7815 27.7473 45.0206 27.51 44.6651 27.1602C44.2535 26.748 44.135 26.1048 44.135 24.1687V5.63902Z" fill="white"/>
</svg>
