<svg width="84" height="22" viewBox="0 0 84 22" fill="none" xmlns="http://www.w3.org/2000/svg">
<g>
<path d="M68.9781 7.75814H66.4499V6.19166H68.7171V3.74897H66.4499V2.44798H68.9781V0.00531029H63.5013V10.2008H68.9781V7.75814ZM68.9781 19.5573H66.4499V17.9908H68.7171V15.5481H66.4499V14.2472H68.9781V11.8045H63.5013V22H68.9781V19.5573ZM54.7919 5.57566L54.8598 3.69587C54.894 3.99324 54.9168 4.19505 54.9223 4.29063C55.0019 4.93315 55.0644 5.3845 55.1158 5.64999L55.9051 10.2008H58.3541L59.3197 5.65534C59.3825 5.35264 59.439 5.03934 59.4791 4.71543C59.5242 4.39151 59.5642 4.05165 59.5984 3.69587L59.695 5.55441L59.8143 10.2061H62.7971L61.74 0.0106206H58.1779L57.445 3.70118C57.3371 4.21096 57.2574 4.78975 57.195 5.43761C57.1608 5.04998 57.1267 4.69417 57.087 4.35965C57.0474 4.0304 57.0019 3.72242 56.9508 3.44098L56.3369 0.00531029H52.6727L51.3998 10.2008H54.536L54.7919 5.57566ZM36.6907 18.4316L36.668 17.7572C36.7191 17.9006 36.7646 18.0174 36.7986 18.1183C36.8327 18.2192 36.8611 18.2988 36.8725 18.3625L38.327 21.9947H41.5141L39.321 17.7519C40.446 17.2793 41.0085 16.4296 41.0085 15.1977C41.0085 14.0454 40.5881 13.1533 39.7528 12.532C39.094 12.0434 38.0997 11.7992 36.7703 11.7992H33.7534V21.9947H36.685V18.4316H36.6907ZM36.7077 13.9498H36.8157C37.6679 13.9498 38.094 14.3321 38.094 15.0915C38.094 15.4632 37.9804 15.7765 37.7531 16.0154C37.5259 16.2597 37.2418 16.3765 36.9066 16.3765H36.7077V13.9498ZM32.0149 9.02727C32.9125 8.10861 33.3671 6.80232 33.3671 5.1137C33.3671 3.3985 32.833 2.06034 31.7706 1.10451C30.9581 0.371711 29.8275 0.0106206 28.3731 0.0106206H25.8278V10.2061H28.5833C30.1002 10.2008 31.2422 9.80787 32.0149 9.02727ZM28.7708 2.56481H28.8617C29.3162 2.56481 29.6798 2.80377 29.9525 3.27637C30.2196 3.74897 30.3559 4.39151 30.3559 5.20394C30.3559 6.85544 29.8275 7.70503 28.7708 7.75284V2.56481ZM45.9629 6.63241L45.9402 5.95799C45.9912 6.10139 46.0367 6.21818 46.0709 6.31911C46.105 6.41999 46.1333 6.49962 46.1447 6.56335L47.599 10.1955H50.7862L48.5932 5.95269C49.7182 5.48008 50.2807 4.63045 50.2807 3.3985C50.2807 2.2462 49.8603 1.35409 49.025 0.732804C48.3659 0.244268 47.3717 0 46.0422 0H43.0257V10.1955H45.957V6.63241H45.9629ZM45.9798 2.15061H46.0877C46.9399 2.15061 47.3662 2.53295 47.3662 3.2923C47.3662 3.66401 47.2524 3.97732 47.0251 4.21626C46.7978 4.46054 46.514 4.57737 46.1788 4.57737H45.9798V2.15061ZM42.071 22H45.1673L45.3663 20.6831H47.4117L47.6103 22H50.6728L48.3318 11.8045H44.7072L42.071 22ZM46.4854 14.2525L47.0137 18.5112H45.7981L46.4854 14.2525ZM38.2133 10.2008C39.4235 10.2008 40.4064 9.73351 41.162 8.79894C41.9176 7.85903 42.2983 6.63771 42.2983 5.14022C42.2983 3.57374 41.929 2.32585 41.1847 1.39657C40.4405 0.467296 39.4404 0.00531029 38.1792 0.00531029C37.1509 0.00531029 36.2646 0.345161 35.5147 1.03017C34.509 1.95414 34.0034 3.28699 34.0034 5.02873C34.0034 6.85009 34.4863 8.2148 35.4522 9.12285C36.2192 9.83974 37.1395 10.2008 38.2133 10.2008ZM37.3554 3.15955C37.56 2.68694 37.8383 2.44798 38.1906 2.44798C38.8894 2.44798 39.236 3.35071 39.236 5.16147C39.236 5.97925 39.1394 6.61116 38.9406 7.07312C38.753 7.52981 38.4861 7.75814 38.1338 7.75814C37.7929 7.75814 37.5316 7.52451 37.3384 7.06251C37.1452 6.60051 37.0543 5.94739 37.0543 5.10306C37.0543 4.24812 37.1566 3.60029 37.3554 3.15955ZM15.0047 14.7516C15.8342 13.6418 16.425 12.4842 16.7205 11.3106C16.7432 11.2097 16.7716 11.1142 16.7886 11.0133C17.0386 9.89815 17.0045 8.80955 16.6636 7.79531L16.6579 7.7847C16.283 6.56869 15.5274 5.3845 14.3172 4.27998C20.76 7.24307 24.3847 15.4048 15.4251 22H22.3849V0.00531029H0V22H2.88617C7.81765 20.5397 12.6923 17.8369 15.0047 14.7516ZM4.57922 3.86049C5.48826 3.5525 6.44276 3.35071 7.4086 3.24982C8.74942 3.12769 10.1584 3.22858 11.5674 3.57905C11.8004 3.63746 12.0219 3.70118 12.2435 3.77021C13.3343 4.56143 14.1411 5.40575 14.6979 6.2766C10.6357 5.29422 6.7609 6.41469 5.18147 9.06443L1.59648 5.50664C2.46006 4.8057 3.47135 4.24812 4.57922 3.86049ZM61.7062 11.8045H58.1437L57.4109 15.495C57.3029 16.0048 57.2232 16.5836 57.1608 17.2315C57.1267 16.8438 57.0929 16.4881 57.0529 16.1535C57.0132 15.8243 56.9677 15.5163 56.9167 15.2348L56.3032 11.7992H52.6386L51.366 21.9947H54.5019L54.7633 17.3696L54.8316 15.4897C54.8657 15.7871 54.8885 15.9889 54.894 16.0845C54.9737 16.727 55.0361 17.1784 55.0871 17.4439L55.8769 21.9947H58.3254L59.2914 17.4492C59.3539 17.1465 59.4108 16.8332 59.4504 16.5093C59.4959 16.1854 59.5356 15.8455 59.5697 15.4897L59.6663 17.3483L59.7856 22H62.7684L61.7062 11.8045ZM78.6652 0.419505H79.4605V2.44268H79.9833V0.419505H80.7786V0H78.6707V0.419505H78.6652ZM83.8693 0.00531029H83.4717H83.3637L82.6136 1.73642L81.858 0.00531029H81.7501H81.3524H81.2276V2.44268H81.7501V0.870866L82.4715 2.44268H82.7557L83.4772 0.870866V2.44268H84V0.00531029H83.8693ZM69.7227 14.2472H71.4271V22H74.3357V14.2472H76.0518V11.8045H69.7282V14.2472H69.7227ZM76.9778 3.40381C76.9778 2.25151 76.5574 1.3594 75.7221 0.738112C75.063 0.249578 74.0688 0.00531029 72.7393 0.00531029H69.7227V10.2008H72.6541V6.63241L72.6313 5.95799C72.6828 6.10139 72.7279 6.21818 72.7621 6.31911C72.7962 6.41999 72.8245 6.49962 72.8359 6.56335L74.2906 10.1955H77.4778L75.2848 5.95269C76.4153 5.49069 76.9778 4.63575 76.9778 3.40381ZM73.7167 4.21626C73.4894 4.46054 73.2052 4.57737 72.87 4.57737H72.6714V2.14531H72.7793C73.6315 2.14531 74.0574 2.52764 74.0574 3.28699C74.0574 3.66401 73.9439 3.97732 73.7167 4.21626ZM31.8501 12.5054C31.1229 12.0434 30.1343 11.7992 28.8162 11.7992H25.8164V21.9947H28.8162V18.6546H29.1798C30.6627 18.6546 31.7478 18.2563 32.4069 17.4598C32.9012 16.9075 33.1341 16.1429 33.1341 15.1658C33.1398 13.9498 32.708 13.0577 31.8501 12.5054ZM29.8105 16.0579C29.5775 16.2438 29.248 16.3659 28.8219 16.3659V13.9763C29.248 13.9763 29.5491 14.0985 29.7764 14.3427C30.0093 14.5552 30.1059 14.8632 30.1059 15.2295C30.1059 15.596 30.0094 15.8774 29.8105 16.0579Z" fill="white"/>
</g>
<defs>
<clipPath id="clip0_2915_2716">
<rect width="84" height="22" fill="white"/>
</clipPath>
</defs>
</svg>
