<svg width="40" height="40" viewBox="0 0 40 40" fill="none" xmlns="http://www.w3.org/2000/svg">
<g clip-path="url(#clip0_2882_990)">
<path d="M29.3216 36.1633C30.1136 36.1633 30.1772 35.3501 30.1772 34.8268C30.1772 34.2045 29.8732 33.7025 29.3145 33.7025C28.9468 33.7025 28.5225 33.9783 28.5225 34.8693C28.5225 35.3572 28.5579 36.1704 29.3145 36.1633H29.3216Z" fill="white"/>
<path d="M14.6342 34.5086C14.6342 33.9783 14.3302 33.6671 13.8422 33.6671C13.3543 33.6671 13.0785 33.9712 13.0361 34.5086H14.6342Z" fill="white"/>
<path d="M23.12 34.5086C23.12 33.9783 22.8159 33.6671 22.328 33.6671C21.84 33.6671 21.5642 33.9712 21.5218 34.5086H23.12Z" fill="white"/>
<path d="M35.3323 36.3472C35.0353 36.3472 34.8656 36.0997 34.8656 35.831C34.8656 35.3572 35.3252 35.1097 36.294 34.9895V35.93C35.9758 36.2058 35.6576 36.3472 35.3323 36.3472Z" fill="white"/>
<path fill-rule="evenodd" clip-rule="evenodd" d="M30.0004 29.6011H10.3984V39.6001H39.9994V9.99902H30.0004V29.6011ZM32.0795 37.0119H33.1402V33.0519H32.0795V37.0119ZM32.0795 32.4579V31.5033H33.1402V32.4579H32.0795ZM31.1743 33.0378V36.7856C31.1743 37.4503 31.1248 38.5393 29.2367 38.5535C28.4589 38.5535 27.7376 38.2423 27.5962 37.5635L28.6215 37.3938C28.664 37.5918 28.7842 37.7827 29.3711 37.7827C29.9085 37.7827 30.1702 37.521 30.1702 36.8988V36.4391L30.156 36.425C29.9863 36.7149 29.7388 36.9978 29.1307 36.9978C28.2114 36.9978 27.483 36.3613 27.483 35.0178C27.483 33.6742 28.2326 32.9529 29.0741 32.9529C29.8252 32.9529 30.1295 33.2831 30.2101 33.4789L30.2904 33.0307H31.1672L31.1743 33.0378ZM13.8564 37.0826C12.6896 37.0826 11.9966 36.333 11.9966 35.0319C11.9966 33.7308 12.7037 32.96 13.8422 32.96C14.9807 32.96 15.6596 33.6883 15.6596 34.9753C15.6596 35.0116 15.6559 35.0479 15.6522 35.0832C15.6488 35.1167 15.6455 35.1494 15.6455 35.1804H13.0149C13.022 35.93 13.3331 36.3118 13.9483 36.3118C14.3443 36.3118 14.5989 36.1563 14.8464 35.8027L15.6101 36.227C15.2777 36.7856 14.6767 37.0826 13.8564 37.0826ZM22.335 37.0826C21.1682 37.0826 20.4752 36.333 20.4752 35.0319C20.4752 33.7308 21.1824 32.96 22.3209 32.96C23.4594 32.96 24.1382 33.6883 24.1382 34.9753C24.1382 35.0116 24.1345 35.0479 24.1309 35.0832C24.1275 35.1167 24.1241 35.1494 24.1241 35.1804H21.4935C21.5006 35.93 21.8117 36.3118 22.427 36.3118C22.8159 36.3118 23.0775 36.1563 23.325 35.8027L24.0887 36.227C23.7564 36.7856 23.1482 37.0826 22.335 37.0826ZM25.7788 33.0519H24.7959V37.0119H25.8495V34.3743C26.0051 34.0207 26.5001 33.95 26.9527 33.95H27.0022V32.9741H26.8678C26.4294 32.9741 25.9697 33.2711 25.7788 33.5186V33.0519ZM16.3031 33.157L16.296 33.158L16.3031 33.1509V33.157ZM16.3031 37.0048V33.157L17.1587 33.0378L17.2507 33.5045C17.7315 33.1438 18.1275 32.96 18.6084 32.96C19.4216 32.96 19.8459 33.3913 19.8459 34.247V37.0048H18.8064V34.4308C18.8064 33.9429 18.6791 33.7237 18.3043 33.7237C17.9932 33.7237 17.682 33.8651 17.3355 34.1621V37.0048H16.3031ZM35.0212 37.0614C35.4879 37.0614 35.9192 36.9341 36.3223 36.6654L36.3152 36.6725L36.4072 37.019H37.3335V34.148C37.3335 33.4196 36.7607 32.9741 35.7283 32.9741C34.9787 32.9741 34.413 33.2287 34.0453 33.7449L34.7454 34.148C34.9858 33.851 35.3182 33.6954 35.7142 33.6954C36.1102 33.6954 36.3294 33.858 36.3294 34.148V34.3672C34.6605 34.5581 33.8473 35.0248 33.8473 35.9088C33.8473 36.5735 34.2787 37.0614 35.0212 37.0614Z" fill="white"/>
<g opacity="0.9">
<path d="M4.03508 23.7884C3.22186 23.7884 3.07336 24.5167 3.07336 25.0471C3.07336 25.5774 3.22186 26.2987 4.03508 26.2987C4.84829 26.2987 4.98972 25.5704 4.98972 25.0471C4.98972 24.5238 4.84122 23.7884 4.03508 23.7884Z" fill="white"/>
<path d="M10.463 25.8745C10.463 26.1502 10.6398 26.4119 10.9509 26.4119C11.2904 26.4119 11.6227 26.2705 11.948 25.9805V25.0047C10.9368 25.1319 10.463 25.3936 10.463 25.8745Z" fill="white"/>
<path d="M24.719 23.6187C25.2281 23.6187 25.5393 23.9439 25.5393 24.4955H23.8775C23.9199 23.9369 24.2099 23.6187 24.719 23.6187Z" fill="white"/>
<path d="M20.2145 26.2139C21.0348 26.2139 21.1055 25.3724 21.1055 24.8279C21.1055 24.1844 20.7873 23.6611 20.2074 23.6611C19.8185 23.6611 19.3871 23.9439 19.3871 24.8703C19.3871 25.3794 19.4225 26.2139 20.2145 26.2139Z" fill="white"/>
<path fill-rule="evenodd" clip-rule="evenodd" d="M0.400391 0H30.0014V29.6011H0.400391V0ZM26.6071 21.6033H27.0314V21.4194H25.9565V21.6033H26.3808V22.7842H26.6071V21.6033ZM28.58 22.7842H28.8063V21.4194H28.4598L28.0638 22.4519L27.6607 21.4194H27.3142V22.7842H27.5405V21.6457L27.986 22.7842H28.1274L28.5729 21.6457H28.58V22.7842ZM4.03508 27.218C2.96729 27.218 1.99851 26.5392 1.99851 25.0471C1.99851 23.555 2.96022 22.8762 4.03508 22.8762C5.10993 22.8762 6.06458 23.555 6.06458 25.0471C6.06458 26.5392 5.09579 27.218 4.03508 27.218ZM13.8856 23.0954L14.7836 22.9681L14.8826 23.456C15.3847 23.0883 15.7878 22.8903 16.2899 22.8903C17.1384 22.8903 17.5698 23.3358 17.5698 24.2268V27.0907H16.4879V24.4107C16.4879 23.9015 16.3535 23.6752 15.9646 23.6752C15.6393 23.6752 15.3211 23.8237 14.9534 24.1349V27.0837H13.8785V23.0812L13.8856 23.0954ZM11.9763 26.7372C11.5591 27.02 11.1065 27.1473 10.6186 27.1473C9.84779 27.1473 9.39522 26.6382 9.39522 25.9452C9.39522 25.0259 10.2367 24.5379 11.9763 24.347V24.1137C11.9763 23.8167 11.75 23.6399 11.3328 23.6399C10.9156 23.6399 10.5761 23.8025 10.3286 24.1137L9.59322 23.6964C9.97508 23.159 10.562 22.8974 11.3469 22.8974C12.4147 22.8974 13.0229 23.357 13.0229 24.1207V27.1049H12.0682L11.9692 26.7442L11.9763 26.7372ZM22.8026 25.04C22.8026 26.3977 23.5239 27.1756 24.7331 27.1756V27.1685C25.5817 27.1685 26.2111 26.8574 26.5576 26.2775L25.7656 25.8391C25.511 26.2068 25.2423 26.3695 24.8321 26.3695C24.1957 26.3695 23.8704 25.9735 23.8634 25.1956H26.5929C26.5929 25.1602 26.5965 25.1249 26.6 25.0895C26.6035 25.0542 26.6071 25.0188 26.6071 24.9834C26.6071 23.6469 25.8999 22.8903 24.719 22.8903C23.5381 22.8903 22.8026 23.6823 22.8026 25.04ZM7.83243 22.9822H6.80708L6.8 22.9681V27.0766H7.89608V24.3399C8.06579 23.9722 8.582 23.9015 9.04872 23.9015H9.09822V22.8903H8.96386C8.51129 22.8903 8.03043 23.2014 7.83243 23.4631V22.9822ZM22.145 22.9681V26.8645C22.145 27.5575 22.0955 28.6818 20.1367 28.696C19.3306 28.696 18.581 28.3777 18.4325 27.6706L19.5003 27.5009C19.5427 27.706 19.67 27.904 20.2781 27.904C20.8368 27.904 21.1055 27.6352 21.1055 26.9847V26.5109L21.0914 26.4967C20.9216 26.8008 20.66 27.0907 20.0306 27.0907C19.076 27.0907 18.3194 26.426 18.3194 25.0329C18.3194 23.6399 19.0972 22.8832 19.9741 22.8832C20.7616 22.8832 21.0734 23.2287 21.1596 23.4315L21.2469 22.961H22.1591L22.145 22.9681Z" fill="white"/>
</g>
</g>
<defs>
<clipPath id="clip0_2882_990">
<rect width="40" height="40" fill="white"/>
</clipPath>
</defs>
</svg>
