<svg width="90" height="26" viewBox="0 0 90 26" fill="none" xmlns="http://www.w3.org/2000/svg">
<path d="M89.8457 26H0V0H89.8457V26ZM16.4756 4.69434C15.888 5.27712 10.8237 10.2999 10.791 10.3379L10.6182 10.5176C9.75395 11.4568 9.29688 12.6065 9.29688 13.8594C9.29689 14.5725 9.44389 15.2913 9.73828 15.9932C10.6498 18.1775 12.784 19.6601 15.043 19.6826H15.1279V19.7666C15.1279 21.0467 15.8976 21.3732 16.543 21.4238L16.6562 21.4346V4.51465L16.4756 4.69434ZM18.2246 21.4346L18.3379 21.4229C18.9833 21.3723 19.7587 21.0411 19.7588 19.7666V19.6826H19.8438C22.1026 19.6658 24.2368 18.183 25.1484 15.9932C25.4428 15.2856 25.5908 14.5716 25.5908 13.8584C25.5907 12.5221 25.0692 11.3034 24.0898 10.332L18.2246 4.50879V21.4346ZM15.1279 18.166H15.0371C13.1406 18.1434 11.7138 16.7676 11.1533 15.4199C11.0062 15.0661 10.8311 14.5103 10.8311 13.8535C10.8311 12.9214 11.1816 12.1011 11.8779 11.416L15.1279 8.19336V18.166ZM23.0029 11.4053C23.6992 12.0959 24.0507 12.9154 24.0508 13.8418C24.0508 14.4932 23.8747 15.0554 23.7275 15.4092C23.1612 16.7624 21.7402 18.1375 19.8438 18.1543H19.7529V8.18164L23.0029 11.4053ZM33.3369 9.91699C31.5197 9.91699 30.053 11.2194 30.0527 13.0723C30.0527 14.9254 31.5252 16.2285 33.3369 16.2285C35.1486 16.2284 36.6201 15.0039 36.6201 13.0723C36.6199 11.1408 35.1484 9.91709 33.3369 9.91699ZM71.8135 11.7139C71.3605 11.697 70.919 11.7422 70.5 11.9219C69.9226 12.1633 69.6114 12.6346 69.6396 13.2578C69.6623 13.78 69.911 14.1401 70.4092 14.3311C70.6922 14.4377 70.9867 14.471 71.2754 14.5215C71.4452 14.5496 71.621 14.5891 71.7852 14.6396C71.904 14.6733 71.9492 14.7522 71.9492 14.8477C71.949 14.9428 71.887 15.0156 71.7686 15.0381C71.6497 15.0605 71.53 15.083 71.4111 15.083C70.9075 15.0998 70.4265 14.9931 69.9512 14.8359C69.9172 14.8247 69.8883 14.814 69.8486 14.8027C69.8034 15.1844 69.7523 15.5494 69.707 15.9199C69.7351 15.9311 69.7636 15.942 69.7861 15.9531C70.2446 16.1272 70.7261 16.1953 71.2129 16.2178C71.5978 16.2346 71.9719 16.2065 72.3398 16.083C72.94 15.8808 73.3709 15.4256 73.3369 14.7012C73.3086 14.2014 73.0819 13.8472 72.6064 13.6562L72.4609 13.6123C72.0852 13.5041 71.3152 13.3685 71.1514 13.3193C71.0665 13.2969 71.004 13.2357 71.0039 13.1348C71.0039 13.0337 71.0666 12.9714 71.1572 12.9434C71.2533 12.9153 71.3494 12.8872 71.4512 12.876C71.7964 12.8367 72.1417 12.8763 72.4756 12.9492C72.6568 12.9829 72.8384 13.0332 73.0195 13.0781L73.1387 11.9893C73.1387 11.9893 73.1156 11.9778 73.0703 11.9609C72.6683 11.7981 72.2494 11.7251 71.8135 11.7139ZM39.3662 11.7197C38.9531 11.7029 38.5456 11.7306 38.1494 11.8652C37.5324 12.0786 37.085 12.5446 37.1357 13.2744C37.1697 13.791 37.4185 14.1401 37.9053 14.3311C38.1826 14.4377 38.4829 14.471 38.7715 14.5215C38.947 14.5552 39.129 14.595 39.2988 14.6455C39.3891 14.6681 39.4404 14.7407 39.4404 14.8359C39.4404 14.9314 39.389 14.9993 39.2871 15.0273C39.1966 15.0554 39.1059 15.0715 39.0098 15.0771C38.472 15.1108 37.9569 15.0043 37.4531 14.8359C37.4192 14.8247 37.3844 14.8137 37.3447 14.7969C37.2994 15.1786 37.2494 15.5438 37.2041 15.9199C37.2719 15.9424 37.3343 15.9708 37.3965 15.9932C37.9002 16.1615 38.4209 16.2175 38.9473 16.2119C39.2869 16.2119 39.6154 16.1616 39.9268 16.0381C40.6966 15.7293 40.9629 15.0609 40.748 14.3311C40.6405 13.9492 40.3514 13.7297 39.9834 13.623L39.7881 13.5605C39.5853 13.5152 39.3793 13.4855 39.1797 13.4434C39.0042 13.4041 38.8229 13.365 38.6475 13.3145C38.5626 13.292 38.5001 13.2301 38.5 13.1348C38.5 13.0393 38.5625 12.9714 38.6475 12.9434C38.738 12.9097 38.8345 12.8872 38.9307 12.876C39.2476 12.8367 39.5647 12.8762 39.876 12.9268C40.0911 12.9661 40.3064 13.0217 40.5215 13.0723V13.0615C40.5555 12.7246 40.5891 12.3819 40.623 12.0449C40.623 12.0001 40.606 11.9836 40.5664 11.9668C40.1814 11.8096 39.7795 11.7366 39.3662 11.7197ZM59.4199 11.7021C58.1235 11.7022 57.0704 12.6346 57.0703 13.9541C57.0703 15.2737 58.1235 16.2118 59.4199 16.2119C60.7164 16.2119 61.7695 15.3355 61.7695 13.9541C61.7694 12.5728 60.7164 11.7021 59.4199 11.7021ZM50.0391 12.2148C49.9412 12.1283 49.8478 12.042 49.7441 11.9717C49.4441 11.7641 49.0988 11.7022 48.7422 11.7021C47.91 11.7021 47.2924 12.0785 46.9414 12.8252C46.6187 13.5047 46.6132 14.2075 46.8623 14.915C47.0435 15.4147 47.3726 15.7903 47.8594 16.0205C48.2442 16.2001 48.6515 16.2397 49.0703 16.1836C49.3647 16.1443 49.6482 16.0605 49.8916 15.8809C49.9255 15.8528 49.9653 15.8247 50.0049 15.791C50.0218 15.903 50.0329 16.0039 50.0498 16.1104H51.4258V9.77051H50.0391V12.2148ZM44.0547 11.8545C43.33 11.54 42.2988 11.6748 41.71 12.5283C41.2459 13.2021 41.1726 13.9437 41.3877 14.7129C41.6312 15.5942 42.384 16.2393 43.3857 16.2002C43.8387 16.1833 44.2413 16.0376 44.5527 15.6895C44.5547 15.6882 44.5705 15.6781 44.5811 15.6729C44.598 15.8243 44.609 15.9645 44.626 16.1104H46.0078V11.7979H44.626C44.609 11.9439 44.598 12.0845 44.5811 12.2305L44.46 12.1191C44.4196 12.0827 44.3794 12.0475 44.3369 12.0166C44.2466 11.955 44.1562 11.8937 44.0547 11.8545ZM52.5811 16.1162H54.0127V14.499H54.5283L55.6328 16.1279H57.3418C57.3191 16.0942 55.6943 13.8926 55.6943 13.8926C55.6943 13.8926 56.991 11.8316 57.0137 11.7979H55.417L54.5625 13.2578H54.0078V9.77051H52.5811V16.1162ZM73.999 16.1162H75.4258V14.499H75.9404L77.0508 16.1279H78.7607C78.7382 16.0944 77.1319 13.9179 77.1133 13.8926C77.1278 13.8694 78.4071 11.8347 78.4316 11.7979H76.835L75.9805 13.2578H75.4258V9.77051H73.999V16.1162ZM63.3545 16.1221H65.0312L65.6934 13.9541L66.3613 16.1221H68.0371L69.3223 11.7979H67.8613C67.6066 12.7413 67.3573 13.6794 67.1025 14.6172L66.2598 11.877H65.1328L64.2832 14.6338L63.5303 11.7979H62.0693L63.3545 16.1221ZM79.1172 16.1221H80.5439V11.8037H79.1172V16.1221ZM59.4199 12.9717C59.9295 12.9717 60.3428 13.3762 60.3428 13.9658C60.3427 14.5553 59.9294 14.96 59.4199 14.96C58.9105 14.9599 58.4972 14.544 58.4971 13.9658C58.4971 13.3875 58.9104 12.9718 59.4199 12.9717ZM42.916 13.3027C43.1594 12.9996 43.4935 12.9157 43.8613 12.9941C44.2292 13.0783 44.4504 13.3196 44.541 13.6787C44.5636 13.7739 44.5698 13.8696 44.5811 13.9258C44.5697 14.3188 44.4565 14.6228 44.1396 14.8193L44.0439 14.8682C43.5755 15.0865 42.8454 14.9212 42.7178 14.1738C42.6612 13.8594 42.7065 13.5554 42.916 13.3027ZM48.3633 13.2969C48.6011 13.0165 49.0201 12.9044 49.3936 13.0166C49.7443 13.1233 49.9874 13.4376 50.0215 13.8135C50.0215 13.8584 50.0275 13.9094 50.0332 13.96C50.0162 14.3474 49.8744 14.6728 49.4951 14.8525C48.9629 15.094 48.238 14.8191 48.1475 14.0947C48.1135 13.8027 48.1708 13.5327 48.3633 13.2969ZM33.3369 11.3096C34.2993 11.3097 35.0801 12.034 35.0801 13.084C35.0801 14.134 34.2993 14.8583 33.3369 14.8584C32.3744 14.8584 31.5928 14.1228 31.5928 13.084C31.5928 12.0451 32.3744 11.3096 33.3369 11.3096ZM79.8252 9.68652C79.361 9.68652 79.0441 10.0065 79.0439 10.4668C79.0439 10.9273 79.3607 11.2366 79.8193 11.2422L79.9043 11.2441C80.3237 11.2074 80.6172 10.8986 80.6172 10.4668C80.6171 10.0066 80.2891 9.68672 79.8252 9.68652Z" fill="white"/>
</svg>
