<svg width="21" height="20" viewBox="0 0 21 20" fill="none" xmlns="http://www.w3.org/2000/svg">
<g clip-path="url(#clip0_2471_2931)">
<path d="M10.7889 0C5.32412 0 0.868916 4.40341 0.790116 9.84611C0.710116 15.3739 5.19772 19.954 10.7297 19.986C12.4381 19.996 14.0837 19.5783 15.5449 18.7848C15.6873 18.7077 15.7093 18.5118 15.5881 18.4043L14.6525 17.5752C14.4625 17.4066 14.1917 17.359 13.9577 17.4585C12.9377 17.8922 11.8293 18.1137 10.6873 18.0997C6.21732 18.0449 2.60572 14.3283 2.67692 9.86129C2.74732 5.45109 6.35932 1.88472 10.7889 1.88472H18.9021V16.2961L14.2989 12.2089C14.1501 12.0766 13.9217 12.1026 13.8017 12.2613C13.0629 13.239 11.8593 13.847 10.5225 13.7546C8.66812 13.6267 7.16572 12.1349 7.02652 10.2826C6.86052 8.07291 8.61252 6.22217 10.7893 6.22217C12.7577 6.22217 14.3789 7.73634 14.5481 9.66023C14.5633 9.83132 14.6405 9.99121 14.7693 10.1051L15.9681 11.1672C16.1041 11.2875 16.3201 11.214 16.3533 11.0353C16.4397 10.5736 16.4701 10.0919 16.4361 9.59827C16.2429 6.78459 13.9625 4.52133 11.1457 4.34784C7.91652 4.14878 5.21652 6.67346 5.13092 9.83811C5.04732 12.922 7.57572 15.5806 10.6621 15.6486C11.9505 15.6769 13.1449 15.272 14.1101 14.5705L20.1245 19.8985C20.3825 20.1267 20.7893 19.944 20.7893 19.5995V0.379342C20.7889 0.169884 20.6189 0 20.4093 0H10.7889Z" fill="white"/>
</g>
<defs>
<clipPath id="clip0_2471_2931">
<rect width="20" height="20" fill="white" transform="translate(0.789062)"/>
</clipPath>
</defs>
</svg>
