<svg width="19" height="20" viewBox="0 0 19 20" fill="none" xmlns="http://www.w3.org/2000/svg">
<path fill-rule="evenodd" clip-rule="evenodd" d="M18.7025 2.75472L3.26037 14.5029C1.3641 11.0647 0.707278 6.91706 0.658203 4.42943V2.90682C0.658203 2.68535 0.898475 2.55617 1.01864 2.51924C3.56015 1.75334 8.72085 0.199325 9.03137 0.110736C9.34189 0.0221472 9.60431 0 9.69683 0H9.70522C9.79765 0 10.0601 0.0221472 10.3707 0.110736C10.6812 0.199325 15.8419 1.75334 18.3834 2.51924C18.4728 2.54671 18.6286 2.62522 18.7025 2.75472Z" fill="white" fill-opacity="0.7"/>
<path d="M10.3205 0.110957C10.0098 0.0221915 9.74723 0 9.65471 0L9.62695 20H9.68246C9.81562 20 10.0339 19.9261 10.1263 19.8891C16.7837 17.6699 18.6146 8.66389 18.6977 4.43829V2.91263C18.6977 2.69072 18.4574 2.56126 18.3371 2.52428C15.7944 1.75682 10.6312 0.199723 10.3205 0.110957Z" fill="white" fill-opacity="0.36"/>
<path fill-rule="evenodd" clip-rule="evenodd" d="M3.25977 14.5221L18.7019 2.77393C18.7274 2.81861 18.7432 2.86927 18.7432 2.92603V4.44864C18.6601 8.66584 16.8301 17.6539 10.1759 19.8686C10.0836 19.9055 9.86543 19.9794 9.73236 19.9794H9.66846C9.53539 19.9794 9.31724 19.9055 9.22484 19.8686C6.4958 18.9603 4.57817 16.9127 3.25977 14.5221Z" fill="url(#paint0_linear_2471_2946)"/>
<defs>
<linearGradient id="paint0_linear_2471_2946" x1="7.03762" y1="12.4272" x2="15.4149" y2="16.5049" gradientUnits="userSpaceOnUse">
<stop stop-color="#E5E7FE"/>
<stop offset="0.552228" stop-color="white"/>
</linearGradient>
</defs>
</svg>
