<svg width="20" height="20" viewBox="0 0 20 20" fill="none" xmlns="http://www.w3.org/2000/svg">
<path d="M16.6204 3.24649L11.9933 0.640959C10.4794 -0.213653 8.62433 -0.213653 7.11041 0.640959L2.46204 3.24649C0.969452 4.10108 0.03125 5.68525 0.03125 7.37365V12.6055C0.03125 14.3148 0.969452 15.8781 2.46204 16.7327L7.08909 19.359C8.60301 20.2137 10.4581 20.2137 11.972 19.359L16.599 16.7327C18.113 15.8781 19.0299 14.3148 19.0299 12.6055V7.37365C19.0725 5.68525 18.1343 4.10108 16.6204 3.24649ZM9.54119 14.6483C6.91852 14.6483 4.78622 12.5638 4.78622 10C4.78622 7.43615 6.91852 5.35174 9.54119 5.35174C12.1639 5.35174 14.3175 7.43615 14.3175 10C14.3175 12.5638 12.1852 14.6483 9.54119 14.6483Z" fill="white"/>
</svg>
