<svg width="50" height="50" viewBox="0 0 50 50" fill="none" xmlns="http://www.w3.org/2000/svg">
<path d="M38.7754 12.2314C39.1287 12.767 39.3813 13.3752 39.5088 14.0293L39.0195 14.124C39.0746 14.4068 39.1035 14.7 39.1035 15V15.9375H39.6035V17.8125H39.1035V19.6875H39.6035V21.5625H39.1035V23.4375H39.6035V25.3125H39.1035V27.1875H39.6035V29.0625H39.1035V30.9375H39.6035V32.8125H39.1035V34.6875H39.6035V36.5625H39.1035V38.4375H39.6035V40.3125H39.1035V42.1875H39.6035V44.0625H39.1035V45C39.1035 45.3 39.0746 45.5932 39.0195 45.876L39.5088 45.9697C39.3814 46.6239 39.1287 47.2319 38.7754 47.7676L38.3594 47.4932C38.035 47.9849 37.6175 48.4089 37.1328 48.7383L37.4131 49.1514C36.8807 49.5131 36.2749 49.7726 35.623 49.9033L35.5254 49.4141C35.2438 49.4706 34.9522 49.5 34.6533 49.5H33.5928V50H31.4707V49.5H29.3496V50H27.2275V49.5H25.1064V50H22.9844V49.5H20.8633V50H18.7412V49.5H16.6191V50H14.498V49.5H12.376V50H10.2549V49.5H8.13281V50H6.01172V49.5H4.9502C4.65131 49.5 4.35971 49.4706 4.07812 49.4141L3.97949 49.9023C3.32782 49.7714 2.72166 49.5132 2.18945 49.1514L2.47168 48.7383C1.98698 48.4089 1.56948 47.9849 1.24512 47.4932L0.827148 47.7676C0.474059 47.232 0.221031 46.6237 0.09375 45.9697L0.583984 45.876C0.528867 45.5932 0.5 45.3 0.5 45V44.0625H0V42.1875H0.5V40.3125H0V38.4375H0.5V36.5625H0V34.6875H0.5V32.8125H0V30.9375H0.5V29.0625H0V27.1875H0.5V25.3125H0V23.4375H0.5V21.5625H0V19.6875H0.5V17.8125H0V15.9375H0.5V15C0.5 14.7 0.528867 14.4068 0.583984 14.124L0.09375 14.0293C0.221145 13.3754 0.473994 12.7669 0.827148 12.2314L1.24512 12.5068C1.56948 12.0151 1.98698 11.5911 2.47168 11.2617L2.19043 10.8486L2.18945 10.8477C2.7216 10.486 3.32794 10.2276 3.97949 10.0967L4.07812 10.5859C4.35971 10.5294 4.65131 10.5 4.9502 10.5H6.01172V10H8.13281V10.5H10.2549V10H12.376V10.5H14.498V10H16.6191V10.5H18.7412V10H20.8633V10.5H22.9844V10H25.1064V10.5H27.2275V10H29.3496V10.5H31.4707V10H33.5928V10.5H34.6533C34.9522 10.5 35.2438 10.5294 35.5254 10.5859L35.623 10.0957C36.2748 10.2264 36.8808 10.486 37.4131 10.8477V10.8486L37.1328 11.2617C37.6175 11.5911 38.035 12.0151 38.3594 12.5068L38.7754 12.2314Z" stroke="#4C5CE5" stroke-miterlimit="10" stroke-dasharray="2 2"/>
<rect x="10.3965" width="39.604" height="40" rx="5" fill="#16182B" fill-opacity="0.8"/>
<rect x="10.3965" width="39.604" height="40" rx="5" fill="#4C5CE5"/>
<path d="M35.5805 20.46H31.3205V24.78H29.6205V20.46H25.3805V18.92H29.6205V14.58H31.3205V18.92H35.5805V20.46Z" fill="white"/>
</svg>
