<svg width="430" height="468" viewBox="0 0 430 468" fill="none" xmlns="http://www.w3.org/2000/svg">
<g clip-path="url(#clip0_2657_1934)">
<ellipse cx="213" cy="297.5" rx="217" ry="170.5" fill="url(#paint0_radial_2657_1934)" fill-opacity="0.57"/>
<ellipse cx="215" cy="184" rx="215" ry="184" fill="url(#paint1_radial_2657_1934)" fill-opacity="0.48"/>
<g filter="url(#filter0_d_2657_1934)">
<path d="M67.9239 375.313L377.804 374.926C384.932 374.917 391.061 369.892 392.466 362.905L426.003 196.119C427.871 186.829 420.76 178.143 411.282 178.138L100.951 177.982C93.7946 177.978 87.6405 183.031 86.2526 190.05L53.1671 357.38C51.3308 366.667 58.4551 375.325 67.9239 375.313Z" fill="url(#paint2_linear_2657_1934)"/>
</g>
<g filter="url(#filter1_d_2657_1934)">
<path fill-rule="evenodd" clip-rule="evenodd" d="M425.023 195.921C426.767 187.25 420.13 179.143 411.284 179.139L100.953 178.982C94.2735 178.979 88.5297 183.695 87.2343 190.246L54.1488 357.576C52.4349 366.244 59.0842 374.325 67.9218 374.313L377.802 373.926C384.455 373.918 390.175 369.227 391.487 362.706L425.023 195.921ZM411.282 177.138C421.391 177.144 428.977 186.409 426.984 196.318L393.447 363.104C391.949 370.556 385.411 375.917 377.807 375.926L67.9274 376.314C57.8274 376.326 50.2282 367.091 52.1869 357.185L85.2724 189.855C86.7528 182.368 93.3172 176.978 100.951 176.982L411.282 177.138Z" fill="url(#paint3_linear_2657_1934)"/>
</g>
<g opacity="0.5" filter="url(#filter2_i_2657_1934)">
<path d="M307.461 250.87L316.415 207.764C317.374 203.148 321.428 199.834 326.144 199.813L385.209 199.54C391.568 199.511 396.348 205.348 395.064 211.575L386.088 255.113C385.13 259.763 381.032 263.092 376.284 263.079L317.24 262.919C310.905 262.902 306.173 257.071 307.461 250.87Z" fill="#4C5CE5"/>
</g>
<g opacity="0.5" filter="url(#filter3_i_2657_1934)">
<path d="M84.6693 331.612L93.4472 290.398C94.4264 285.8 98.477 282.511 103.179 282.496L162.224 282.301C168.598 282.28 173.374 288.149 172.056 294.384L163.256 336.018C162.277 340.649 158.184 343.953 153.45 343.935L94.4272 343.711C88.0755 343.686 83.3465 337.823 84.6693 331.612Z" fill="#4C5CE5"/>
</g>
<g opacity="0.5" filter="url(#filter4_i_2657_1934)">
<path d="M186.653 331.85L195.51 290.639C196.496 286.049 200.545 282.768 205.242 282.755L265.144 282.585C271.524 282.566 276.298 288.448 274.968 294.686L266.088 336.318C265.102 340.941 261.011 344.237 256.283 344.217L196.404 343.966C190.046 343.94 185.318 338.064 186.653 331.85Z" fill="#4C5CE5"/>
</g>
<g opacity="0.5" filter="url(#filter5_i_2657_1934)">
<path d="M290.487 332.223L299.274 290.06C300.236 285.446 304.29 282.136 309.003 282.115L367.202 281.857C373.563 281.829 378.343 287.67 377.054 293.898L368.244 336.486C367.283 341.133 363.186 344.459 358.439 344.446L300.263 344.279C293.925 344.261 289.194 338.426 290.487 332.223Z" fill="#4C5CE5"/>
</g>
<path fill-rule="evenodd" clip-rule="evenodd" d="M383.188 230.165C381.717 230.108 380.57 228.869 380.627 227.397C380.683 225.926 381.922 224.779 383.394 224.836C384.659 224.884 385.685 225.807 385.911 227L398.232 227L362.109 401.657L361.13 401.454L397.004 228L385.911 228C385.669 229.275 384.525 230.216 383.188 230.165Z" fill="#4C5CE5"/>
<path fill-rule="evenodd" clip-rule="evenodd" d="M173.065 248.626L141.107 402.508L140.128 402.305L172.086 248.423L173.065 248.626Z" fill="#4C5CE5"/>
<path fill-rule="evenodd" clip-rule="evenodd" d="M298.484 335.968C297.478 335.556 296.787 334.547 296.831 333.397C296.888 331.926 298.127 330.779 299.599 330.835C301.07 330.892 302.217 332.131 302.16 333.603C302.105 335.051 300.904 336.184 299.464 336.167L285.985 402.507L285.005 402.307L298.484 335.968Z" fill="#4C5CE5"/>
<path fill-rule="evenodd" clip-rule="evenodd" d="M224.605 335.968C223.599 335.556 222.908 334.547 222.952 333.397C223.009 331.926 224.248 330.779 225.72 330.835C227.191 330.892 228.338 332.131 228.282 333.603C228.226 335.051 227.025 336.184 225.585 336.167L212.107 402.507L211.127 402.307L224.605 335.968Z" fill="#21D99A"/>
<path fill-rule="evenodd" clip-rule="evenodd" d="M94.5009 310.897L80.1958 310.896L64.1258 393.905L65.1076 394.095L81.0208 311.896L94.5006 311.897C94.7271 313.09 95.7524 314.013 97.0178 314.062C98.4894 314.119 99.7285 312.972 99.7853 311.5C99.8421 310.029 98.6951 308.789 97.2234 308.733C95.8872 308.681 94.7427 309.622 94.5009 310.897Z" fill="#4C5CE5"/>
<path d="M16.0461 263.282L325.974 262.893C333.107 262.884 339.239 257.853 340.639 250.86L373.87 84.8998C375.733 75.5926 368.589 66.9038 359.095 66.9317L49.1422 67.8429C42.0213 67.8638 35.9044 72.8893 34.5034 79.8696L1.29834 245.307C-0.568064 254.606 6.55998 263.294 16.0461 263.282Z" fill="white"/>
<g filter="url(#filter6_d_2657_1934)">
<path opacity="0.6" d="M180.483 200.31L350.734 200.671L340.643 251.016C339.24 258.013 333.101 263.045 325.964 263.047L167.965 263.091L180.483 200.31Z" fill="#4C5CE5"/>
<path d="M202.286 92.0188L372.48 91.6996L350.732 200.671L180.458 200.885L202.286 92.0188Z" fill="#4C5CE5"/>
</g>
<path d="M32.246 91.9295L372.793 91.5027L374.19 84.3317C376 75.0459 368.863 66.4117 359.401 66.4395L49.3769 67.3509C42.2443 67.3718 36.1208 72.4135 34.732 79.4083L32.246 91.9295Z" fill="#E5E9FD"/>
<path d="M70.0377 81.986C68.7884 84.576 66.3181 85.7138 64.5202 84.5274C62.7223 83.3411 62.2777 80.2797 63.527 77.6897C64.7763 75.0997 67.2465 73.9619 69.0444 75.1482C70.8423 76.3346 71.287 79.396 70.0377 81.986Z" fill="#FBBF24"/>
<path d="M57.3599 81.986C56.1106 84.576 53.6404 85.7138 51.8425 84.5274C50.0446 83.3411 49.5999 80.2797 50.8492 77.6897C52.0986 75.0997 54.5688 73.9619 56.3667 75.1482C58.1646 76.3346 58.6093 79.396 57.3599 81.986Z" fill="#D61830"/>
<path d="M82.9674 81.986C81.718 84.576 79.2478 85.7138 77.4499 84.5274C75.652 83.3411 75.2073 80.2797 76.4567 77.6897C77.706 75.0997 80.1762 73.9619 81.9741 75.1482C83.772 76.3346 84.2167 79.396 82.9674 81.986Z" fill="#2DD4BF"/>
<path d="M202.704 149.62L208.823 118.16C209.097 116.753 210.329 115.738 211.763 115.738L251.22 115.738C253.123 115.738 254.548 117.488 254.162 119.352L247.62 150.896C247.331 152.289 246.104 153.285 244.681 153.282L205.647 153.198C203.761 153.194 202.344 151.471 202.704 149.62Z" fill="white"/>
<path d="M38.4557 174.461L48.856 117.828C49.1171 116.406 50.3558 115.374 51.8019 115.374L183.2 115.375C185.1 115.375 186.524 117.118 186.144 118.979L174.535 175.859C174.25 177.256 173.021 178.258 171.595 178.255L41.4051 178.007C39.5319 178.004 38.1174 176.303 38.4557 174.461Z" fill="#E5E9FD"/>
<path d="M96.3829 247.87L107.872 192.387C108.16 190.996 109.384 190 110.805 190L167.878 190C169.791 190 171.217 191.765 170.816 193.635L158.873 249.205C158.576 250.587 157.354 251.573 155.941 251.57L99.3204 251.483C97.4192 251.48 95.9975 249.731 96.3829 247.87Z" fill="#E5E9FD"/>
<path d="M22.8712 247.87L34.3602 192.387C34.6482 190.996 35.8725 190 37.2931 190L94.3664 190C96.2788 190 97.7056 191.765 97.3039 193.635L85.3618 249.205C85.0647 250.587 83.8428 251.573 82.4288 251.57L25.8087 251.483C23.9074 251.48 22.4858 249.731 22.8712 247.87Z" fill="#E5E9FD"/>
<path d="M251.194 186.907L257.313 155.447C257.587 154.039 258.819 153.024 260.253 153.024L299.71 153.024C301.613 153.024 303.038 154.775 302.652 156.638L296.111 188.182C295.822 189.575 294.594 190.572 293.171 190.569L254.137 190.484C252.251 190.48 250.834 188.758 251.194 186.907Z" fill="white"/>
<path d="M261.904 136.979L265.183 118.495C265.437 117.065 266.68 116.024 268.133 116.024L307.584 116.024C309.476 116.024 310.898 117.753 310.532 119.609L306.871 138.177C306.594 139.583 305.36 140.595 303.926 140.592L264.856 140.508C262.99 140.504 261.578 138.816 261.904 136.979Z" fill="white"/>
<path d="M195.255 185.883L198.535 167.399C198.789 165.969 200.031 164.928 201.484 164.928L240.936 164.928C242.827 164.928 244.249 166.657 243.884 168.513L240.223 187.081C239.945 188.487 238.711 189.499 237.278 189.496L198.207 189.412C196.342 189.408 194.93 187.72 195.255 185.883Z" fill="white"/>
<path d="M182.683 246.622L187.369 225.21C187.67 223.835 188.887 222.855 190.295 222.855L226.322 222.855C228.259 222.855 229.691 224.665 229.246 226.55L224.165 248.046C223.845 249.4 222.635 250.355 221.243 250.351L185.611 250.268C183.697 250.264 182.274 248.492 182.683 246.622Z" fill="white"/>
<path d="M235.308 246.622L239.994 225.21C240.295 223.835 241.512 222.855 242.92 222.855L278.947 222.855C280.884 222.855 282.316 224.665 281.871 226.55L276.79 248.046C276.47 249.4 275.26 250.355 273.868 250.351L238.236 250.268C236.322 250.264 234.899 248.492 235.308 246.622Z" fill="white"/>
<path d="M287.306 246.622L291.992 225.21C292.293 223.835 293.51 222.855 294.918 222.855L330.945 222.855C332.882 222.855 334.314 224.665 333.869 226.55L328.788 248.046C328.468 249.4 327.258 250.355 325.867 250.351L290.234 250.268C288.32 250.264 286.897 248.492 287.306 246.622Z" fill="white"/>
<path d="M308.993 185.927L322.001 118.542C322.273 117.136 323.501 116.119 324.933 116.115L352.645 116.035C354.543 116.029 355.971 117.766 355.6 119.627L342.132 187.092C341.853 188.492 340.624 189.5 339.195 189.5L311.943 189.5C310.056 189.5 308.635 187.779 308.993 185.927Z" fill="white"/>
<path d="M307.38 101.424L303.42 111.096H302.292L303.588 107.928L300.936 101.424H302.148L304.212 106.752L306.252 101.424H307.38Z" fill="white"/>
<path d="M298.33 102.492C298.522 102.116 298.794 101.824 299.146 101.616C299.506 101.408 299.942 101.304 300.454 101.304V102.432H300.166C298.942 102.432 298.33 103.096 298.33 104.424V108H297.238V101.424H298.33V102.492Z" fill="white"/>
<path d="M288.723 104.688C288.723 104.016 288.859 103.428 289.131 102.924C289.403 102.412 289.775 102.016 290.247 101.736C290.727 101.456 291.259 101.316 291.843 101.316C292.419 101.316 292.919 101.44 293.343 101.688C293.767 101.936 294.083 102.248 294.291 102.624V101.424H295.395V108H294.291V106.776C294.075 107.16 293.751 107.48 293.319 107.736C292.895 107.984 292.399 108.108 291.831 108.108C291.247 108.108 290.719 107.964 290.247 107.676C289.775 107.388 289.403 106.984 289.131 106.464C288.859 105.944 288.723 105.352 288.723 104.688ZM294.291 104.7C294.291 104.204 294.191 103.772 293.991 103.404C293.791 103.036 293.519 102.756 293.175 102.564C292.839 102.364 292.467 102.264 292.059 102.264C291.651 102.264 291.279 102.36 290.943 102.552C290.607 102.744 290.339 103.024 290.139 103.392C289.939 103.76 289.839 104.192 289.839 104.688C289.839 105.192 289.939 105.632 290.139 106.008C290.339 106.376 290.607 106.66 290.943 106.86C291.279 107.052 291.651 107.148 292.059 107.148C292.467 107.148 292.839 107.052 293.175 106.86C293.519 106.66 293.791 106.376 293.991 106.008C294.191 105.632 294.291 105.196 294.291 104.7Z" fill="white"/>
<path d="M285.744 102.492C285.936 102.116 286.208 101.824 286.56 101.616C286.92 101.408 287.356 101.304 287.868 101.304V102.432H287.58C286.356 102.432 285.744 103.096 285.744 104.424V108H284.652V101.424H285.744V102.492Z" fill="white"/>
<path d="M277.635 102.648C277.859 102.256 278.187 101.936 278.619 101.688C279.051 101.44 279.543 101.316 280.095 101.316C280.687 101.316 281.219 101.456 281.691 101.736C282.163 102.016 282.535 102.412 282.807 102.924C283.079 103.428 283.215 104.016 283.215 104.688C283.215 105.352 283.079 105.944 282.807 106.464C282.535 106.984 282.159 107.388 281.679 107.676C281.207 107.964 280.679 108.108 280.095 108.108C279.527 108.108 279.027 107.984 278.595 107.736C278.171 107.488 277.851 107.172 277.635 106.788V108H276.543V99.1201H277.635V102.648ZM282.099 104.688C282.099 104.192 281.999 103.76 281.799 103.392C281.599 103.024 281.327 102.744 280.983 102.552C280.647 102.36 280.275 102.264 279.867 102.264C279.467 102.264 279.095 102.364 278.751 102.564C278.415 102.756 278.143 103.04 277.935 103.416C277.735 103.784 277.635 104.212 277.635 104.7C277.635 105.196 277.735 105.632 277.935 106.008C278.143 106.376 278.415 106.66 278.751 106.86C279.095 107.052 279.467 107.148 279.867 107.148C280.275 107.148 280.647 107.052 280.983 106.86C281.327 106.66 281.599 106.376 281.799 106.008C281.999 105.632 282.099 105.192 282.099 104.688Z" fill="white"/>
<path d="M274.154 100.356C273.946 100.356 273.77 100.284 273.626 100.14C273.482 99.9962 273.41 99.8202 273.41 99.6122C273.41 99.4042 273.482 99.2282 273.626 99.0842C273.77 98.9402 273.946 98.8682 274.154 98.8682C274.354 98.8682 274.522 98.9402 274.658 99.0842C274.802 99.2282 274.874 99.4042 274.874 99.6122C274.874 99.8202 274.802 99.9962 274.658 100.14C274.522 100.284 274.354 100.356 274.154 100.356ZM274.682 101.424V108H273.59V101.424H274.682Z" fill="white"/>
<path d="M269.502 107.112H272.43V108H268.41V99.6363H269.502V107.112Z" fill="white"/>
<path d="M263.35 99.6363V108H262.258V99.6363H263.35Z" fill="white"/>
<path d="M255.229 99.6362V104.928C255.229 105.672 255.409 106.224 255.769 106.584C256.137 106.944 256.645 107.124 257.293 107.124C257.933 107.124 258.433 106.944 258.793 106.584C259.161 106.224 259.345 105.672 259.345 104.928V99.6362H260.437V104.916C260.437 105.612 260.297 106.2 260.017 106.68C259.737 107.152 259.357 107.504 258.877 107.736C258.405 107.968 257.873 108.084 257.281 108.084C256.689 108.084 256.153 107.968 255.673 107.736C255.201 107.504 254.825 107.152 254.545 106.68C254.273 106.2 254.137 105.612 254.137 104.916V99.6362H255.229Z" fill="white"/>
<path d="M282.875 216.108C282.371 216.108 281.92 216.024 281.52 215.856C281.12 215.68 280.804 215.44 280.572 215.136C280.34 214.824 280.211 214.468 280.188 214.068H281.316C281.348 214.396 281.499 214.664 281.771 214.872C282.051 215.08 282.416 215.184 282.864 215.184C283.28 215.184 283.607 215.092 283.847 214.908C284.087 214.724 284.208 214.492 284.208 214.212C284.208 213.924 284.08 213.712 283.824 213.576C283.568 213.432 283.172 213.292 282.636 213.156C282.148 213.028 281.748 212.9 281.436 212.772C281.132 212.636 280.868 212.44 280.644 212.184C280.428 211.92 280.319 211.576 280.319 211.152C280.319 210.816 280.419 210.508 280.619 210.228C280.819 209.948 281.104 209.728 281.472 209.568C281.84 209.4 282.26 209.316 282.732 209.316C283.46 209.316 284.047 209.5 284.495 209.868C284.943 210.236 285.183 210.74 285.215 211.38H284.124C284.1 211.036 283.96 210.76 283.704 210.552C283.456 210.344 283.119 210.24 282.695 210.24C282.303 210.24 281.992 210.324 281.76 210.492C281.528 210.66 281.411 210.88 281.411 211.152C281.411 211.368 281.48 211.548 281.616 211.692C281.76 211.828 281.936 211.94 282.144 212.028C282.36 212.108 282.656 212.2 283.032 212.304C283.504 212.432 283.888 212.56 284.184 212.688C284.48 212.808 284.731 212.992 284.939 213.24C285.155 213.488 285.267 213.812 285.275 214.212C285.275 214.572 285.176 214.896 284.976 215.184C284.776 215.472 284.492 215.7 284.124 215.868C283.764 216.028 283.347 216.108 282.875 216.108Z" fill="white"/>
<path d="M277.899 216L274.455 212.184V216H273.363V207.636H274.455V211.512L277.911 207.636H279.291L275.499 211.824L279.327 216H277.899Z" fill="white"/>
<path d="M267.483 207.636C268.395 207.636 269.183 207.808 269.847 208.152C270.519 208.488 271.031 208.972 271.383 209.604C271.743 210.236 271.923 210.98 271.923 211.836C271.923 212.692 271.743 213.436 271.383 214.068C271.031 214.692 270.519 215.172 269.847 215.508C269.183 215.836 268.395 216 267.483 216H264.879V207.636H267.483ZM267.483 215.1C268.563 215.1 269.387 214.816 269.955 214.248C270.523 213.672 270.807 212.868 270.807 211.836C270.807 210.796 270.519 209.984 269.943 209.4C269.375 208.816 268.555 208.524 267.483 208.524H265.971V215.1H267.483Z" fill="white"/>
<path d="M260.488 216.084C259.936 216.084 259.44 215.988 259 215.796C258.568 215.596 258.228 215.324 257.98 214.98C257.732 214.628 257.604 214.224 257.596 213.768H258.76C258.8 214.16 258.96 214.492 259.24 214.764C259.528 215.028 259.944 215.16 260.488 215.16C261.008 215.16 261.416 215.032 261.712 214.776C262.016 214.512 262.168 214.176 262.168 213.768C262.168 213.448 262.08 213.188 261.904 212.988C261.728 212.788 261.508 212.636 261.244 212.532C260.98 212.428 260.624 212.316 260.176 212.196C259.624 212.052 259.18 211.908 258.844 211.764C258.516 211.62 258.232 211.396 257.992 211.092C257.76 210.78 257.644 210.364 257.644 209.844C257.644 209.388 257.76 208.984 257.992 208.632C258.224 208.28 258.548 208.008 258.964 207.816C259.388 207.624 259.872 207.528 260.416 207.528C261.2 207.528 261.84 207.724 262.336 208.116C262.84 208.508 263.124 209.028 263.188 209.676H261.988C261.948 209.356 261.78 209.076 261.484 208.836C261.188 208.588 260.796 208.464 260.308 208.464C259.852 208.464 259.48 208.584 259.192 208.824C258.904 209.056 258.76 209.384 258.76 209.808C258.76 210.112 258.844 210.36 259.012 210.552C259.188 210.744 259.4 210.892 259.648 210.996C259.904 211.092 260.26 211.204 260.716 211.332C261.268 211.484 261.712 211.636 262.048 211.788C262.384 211.932 262.672 212.16 262.912 212.472C263.152 212.776 263.272 213.192 263.272 213.72C263.272 214.128 263.164 214.512 262.948 214.872C262.732 215.232 262.412 215.524 261.988 215.748C261.564 215.972 261.064 216.084 260.488 216.084Z" fill="white"/>
<path d="M252.776 207.636V216H251.684V207.636H252.776Z" fill="white"/>
<path d="M250.326 210.084C250.326 210.78 250.086 211.36 249.606 211.824C249.134 212.28 248.41 212.508 247.434 212.508H245.826V216H244.734V207.636H247.434C248.378 207.636 249.094 207.864 249.582 208.32C250.078 208.776 250.326 209.364 250.326 210.084ZM247.434 211.608C248.042 211.608 248.49 211.476 248.778 211.212C249.066 210.948 249.21 210.572 249.21 210.084C249.21 209.052 248.618 208.536 247.434 208.536H245.826V211.608H247.434Z" fill="white"/>
<path d="M241.593 214.141H237.945L237.273 216.001H236.121L239.145 207.685H240.405L243.417 216.001H242.265L241.593 214.141ZM241.281 213.253L239.769 209.029L238.257 213.253H241.281Z" fill="white"/>
<path fill-rule="evenodd" clip-rule="evenodd" d="M392.285 189C392.285 190.473 391.091 191.667 389.618 191.667C388.145 191.667 386.951 190.473 386.951 189C386.951 187.698 387.884 186.614 389.118 186.38L389.118 33.0001L390.118 33.0001L390.118 186.38C391.352 186.614 392.285 187.698 392.285 189Z" fill="url(#paint4_linear_2657_1934)"/>
<path d="M425.193 26.2324C425.977 26.2324 426.601 26.4884 427.065 27.0004C427.537 27.5044 427.773 28.2004 427.773 29.0884V33.0004H425.733V29.3644C425.733 28.9164 425.617 28.5684 425.385 28.3204C425.153 28.0724 424.841 27.9484 424.449 27.9484C424.057 27.9484 423.745 28.0724 423.513 28.3204C423.281 28.5684 423.165 28.9164 423.165 29.3644V33.0004H421.113V26.3044H423.165V27.1924C423.373 26.8964 423.653 26.6644 424.005 26.4964C424.357 26.3204 424.753 26.2324 425.193 26.2324Z" fill="white"/>
<path d="M416.522 33.096C415.866 33.096 415.274 32.956 414.746 32.676C414.226 32.396 413.814 31.996 413.51 31.476C413.214 30.956 413.066 30.348 413.066 29.652C413.066 28.964 413.218 28.36 413.522 27.84C413.826 27.312 414.242 26.908 414.77 26.628C415.298 26.348 415.89 26.208 416.546 26.208C417.202 26.208 417.794 26.348 418.322 26.628C418.85 26.908 419.266 27.312 419.57 27.84C419.874 28.36 420.026 28.964 420.026 29.652C420.026 30.34 419.87 30.948 419.558 31.476C419.254 31.996 418.834 32.396 418.298 32.676C417.77 32.956 417.178 33.096 416.522 33.096ZM416.522 31.32C416.914 31.32 417.246 31.176 417.518 30.888C417.798 30.6 417.938 30.188 417.938 29.652C417.938 29.116 417.802 28.704 417.53 28.416C417.266 28.128 416.938 27.984 416.546 27.984C416.146 27.984 415.814 28.128 415.55 28.416C415.286 28.696 415.154 29.108 415.154 29.652C415.154 30.188 415.282 30.6 415.538 30.888C415.802 31.176 416.13 31.32 416.522 31.32Z" fill="white"/>
<path d="M410.966 25.6082C410.606 25.6082 410.31 25.5042 410.078 25.2962C409.854 25.0802 409.742 24.8162 409.742 24.5042C409.742 24.1842 409.854 23.9202 410.078 23.7122C410.31 23.4962 410.606 23.3882 410.966 23.3882C411.318 23.3882 411.606 23.4962 411.83 23.7122C412.062 23.9202 412.178 24.1842 412.178 24.5042C412.178 24.8162 412.062 25.0802 411.83 25.2962C411.606 25.5042 411.318 25.6082 410.966 25.6082ZM411.986 26.3042V33.0002H409.934V26.3042H411.986Z" fill="white"/>
<path d="M408.79 31.2604V33.0004H407.746C407.002 33.0004 406.422 32.8204 406.006 32.4604C405.59 32.0924 405.382 31.4964 405.382 30.6724V28.0084H404.566V26.3044H405.382V24.6724H407.434V26.3044H408.778V28.0084H407.434V30.6964C407.434 30.8964 407.482 31.0404 407.578 31.1284C407.674 31.2164 407.834 31.2604 408.058 31.2604H408.79Z" fill="white"/>
<path d="M396.508 29.64C396.508 28.952 396.636 28.348 396.892 27.828C397.156 27.308 397.512 26.908 397.96 26.628C398.408 26.348 398.908 26.208 399.46 26.208C399.932 26.208 400.344 26.304 400.696 26.496C401.056 26.688 401.332 26.94 401.524 27.252V26.304H403.576V33H401.524V32.052C401.324 32.364 401.044 32.616 400.684 32.808C400.332 33 399.92 33.096 399.448 33.096C398.904 33.096 398.408 32.956 397.96 32.676C397.512 32.388 397.156 31.984 396.892 31.464C396.636 30.936 396.508 30.328 396.508 29.64ZM401.524 29.652C401.524 29.14 401.38 28.736 401.092 28.44C400.812 28.144 400.468 27.996 400.06 27.996C399.652 27.996 399.304 28.144 399.016 28.44C398.736 28.728 398.596 29.128 398.596 29.64C398.596 30.152 398.736 30.56 399.016 30.864C399.304 31.16 399.652 31.308 400.06 31.308C400.468 31.308 400.812 31.16 401.092 30.864C401.38 30.568 401.524 30.164 401.524 29.652Z" fill="white"/>
<path d="M392.882 31.3082H395.786V33.0002H390.59V31.3682L393.374 27.9962H390.614V26.3042H395.726V27.9362L392.882 31.3082Z" fill="white"/>
<path d="M388.454 25.6082C388.094 25.6082 387.798 25.5042 387.566 25.2962C387.342 25.0802 387.23 24.8162 387.23 24.5042C387.23 24.1842 387.342 23.9202 387.566 23.7122C387.798 23.4962 388.094 23.3882 388.454 23.3882C388.806 23.3882 389.094 23.4962 389.318 23.7122C389.55 23.9202 389.666 24.1842 389.666 24.5042C389.666 24.8162 389.55 25.0802 389.318 25.2962C389.094 25.5042 388.806 25.6082 388.454 25.6082ZM389.474 26.3042V33.0002H387.422V26.3042H389.474Z" fill="white"/>
<path d="M383.416 26.2324C384.2 26.2324 384.824 26.4884 385.288 27.0004C385.76 27.5044 385.996 28.2004 385.996 29.0884V33.0004H383.956V29.3644C383.956 28.9164 383.84 28.5684 383.608 28.3204C383.376 28.0724 383.064 27.9484 382.672 27.9484C382.28 27.9484 381.968 28.0724 381.736 28.3204C381.504 28.5684 381.388 28.9164 381.388 29.3644V33.0004H379.336V26.3044H381.388V27.1924C381.596 26.8964 381.876 26.6644 382.228 26.4964C382.58 26.3204 382.976 26.2324 383.416 26.2324Z" fill="white"/>
<path d="M374.745 33.096C374.089 33.096 373.497 32.956 372.969 32.676C372.449 32.396 372.037 31.996 371.733 31.476C371.437 30.956 371.289 30.348 371.289 29.652C371.289 28.964 371.441 28.36 371.745 27.84C372.049 27.312 372.465 26.908 372.993 26.628C373.521 26.348 374.113 26.208 374.769 26.208C375.425 26.208 376.017 26.348 376.545 26.628C377.073 26.908 377.489 27.312 377.793 27.84C378.097 28.36 378.249 28.964 378.249 29.652C378.249 30.34 378.093 30.948 377.781 31.476C377.477 31.996 377.057 32.396 376.521 32.676C375.993 32.956 375.401 33.096 374.745 33.096ZM374.745 31.32C375.137 31.32 375.469 31.176 375.741 30.888C376.021 30.6 376.161 30.188 376.161 29.652C376.161 29.116 376.025 28.704 375.753 28.416C375.489 28.128 375.161 27.984 374.769 27.984C374.369 27.984 374.037 28.128 373.773 28.416C373.509 28.696 373.377 29.108 373.377 29.652C373.377 30.188 373.505 30.6 373.761 30.888C374.025 31.176 374.353 31.32 374.745 31.32Z" fill="white"/>
<path d="M367.536 26.2324C368.368 26.2324 369.028 26.4844 369.516 26.9884C370.012 27.4924 370.26 28.1924 370.26 29.0884V33.0004H368.22V29.3644C368.22 28.9324 368.104 28.6004 367.872 28.3684C367.648 28.1284 367.336 28.0084 366.936 28.0084C366.536 28.0084 366.22 28.1284 365.988 28.3684C365.764 28.6004 365.652 28.9324 365.652 29.3644V33.0004H363.612V29.3644C363.612 28.9324 363.496 28.6004 363.264 28.3684C363.04 28.1284 362.728 28.0084 362.328 28.0084C361.928 28.0084 361.612 28.1284 361.38 28.3684C361.156 28.6004 361.044 28.9324 361.044 29.3644V33.0004H358.992V26.3044H361.044V27.1444C361.252 26.8644 361.524 26.6444 361.86 26.4844C362.196 26.3164 362.576 26.2324 363 26.2324C363.504 26.2324 363.952 26.3404 364.344 26.5564C364.744 26.7724 365.056 27.0804 365.28 27.4804C365.512 27.1124 365.828 26.8124 366.228 26.5804C366.628 26.3484 367.064 26.2324 367.536 26.2324Z" fill="white"/>
<path d="M355.911 27.4204C356.151 27.0524 356.451 26.7644 356.811 26.5564C357.171 26.3404 357.571 26.2324 358.011 26.2324V28.4044H357.447C356.935 28.4044 356.551 28.5164 356.295 28.7404C356.039 28.9564 355.911 29.3404 355.911 29.8924V33.0004H353.859V26.3044H355.911V27.4204Z" fill="white"/>
<path d="M345.309 29.64C345.309 28.952 345.437 28.348 345.693 27.828C345.957 27.308 346.313 26.908 346.761 26.628C347.209 26.348 347.709 26.208 348.261 26.208C348.733 26.208 349.145 26.304 349.497 26.496C349.857 26.688 350.133 26.94 350.325 27.252V26.304H352.377V33H350.325V32.052C350.125 32.364 349.845 32.616 349.485 32.808C349.133 33 348.721 33.096 348.249 33.096C347.705 33.096 347.209 32.956 346.761 32.676C346.313 32.388 345.957 31.984 345.693 31.464C345.437 30.936 345.309 30.328 345.309 29.64ZM350.325 29.652C350.325 29.14 350.181 28.736 349.893 28.44C349.613 28.144 349.269 27.996 348.861 27.996C348.453 27.996 348.105 28.144 347.817 28.44C347.537 28.728 347.397 29.128 347.397 29.64C347.397 30.152 347.537 30.56 347.817 30.864C348.105 31.16 348.453 31.308 348.861 31.308C349.269 31.308 349.613 31.16 349.893 30.864C350.181 30.568 350.325 30.164 350.325 29.652Z" fill="white"/>
<path d="M344.234 24.5762V33.0002H342.182V29.5322H338.99V33.0002H336.938V24.5762H338.99V27.8762H342.182V24.5762H344.234Z" fill="white"/>
<path d="M332.907 24.5762V33.0002H330.855V24.5762H332.907Z" fill="white"/>
<path d="M329.787 27.2882C329.787 27.7762 329.675 28.2242 329.451 28.6322C329.227 29.0322 328.883 29.3562 328.419 29.6042C327.955 29.8522 327.379 29.9762 326.691 29.9762H325.419V33.0002H323.367V24.5762H326.691C327.363 24.5762 327.931 24.6922 328.395 24.9242C328.859 25.1562 329.207 25.4762 329.439 25.8842C329.671 26.2922 329.787 26.7602 329.787 27.2882ZM326.535 28.3442C326.927 28.3442 327.219 28.2522 327.411 28.0682C327.603 27.8842 327.699 27.6242 327.699 27.2882C327.699 26.9522 327.603 26.6922 327.411 26.5082C327.219 26.3242 326.927 26.2322 326.535 26.2322H325.419V28.3442H326.535Z" fill="white"/>
<path d="M319.765 31.5122H316.621L316.117 33.0002H313.969L317.017 24.5762H319.393L322.441 33.0002H320.269L319.765 31.5122ZM319.237 29.9282L318.193 26.8442L317.161 29.9282H319.237Z" fill="white"/>
<path d="M204.87 3.25212C205.07 2.94012 205.346 2.68812 205.698 2.49611C206.05 2.30411 206.462 2.20811 206.934 2.20811C207.486 2.20811 207.986 2.34812 208.434 2.62812C208.882 2.90812 209.234 3.30812 209.49 3.82812C209.754 4.34812 209.886 4.95212 209.886 5.64012C209.886 6.32812 209.754 6.93612 209.49 7.46412C209.234 7.98412 208.882 8.38812 208.434 8.67612C207.986 8.95612 207.486 9.09612 206.934 9.09612C206.47 9.09612 206.058 9.00012 205.698 8.80812C205.346 8.61611 205.07 8.36812 204.87 8.06412V12.1921H202.818V2.30412H204.87V3.25212ZM207.798 5.64012C207.798 5.12812 207.654 4.72812 207.366 4.44011C207.086 4.14411 206.738 3.99611 206.322 3.99611C205.914 3.99611 205.566 4.14411 205.278 4.44011C204.998 4.73611 204.858 5.14011 204.858 5.65211C204.858 6.16411 204.998 6.56812 205.278 6.86412C205.566 7.16012 205.914 7.30812 206.322 7.30812C206.73 7.30812 207.078 7.16012 207.366 6.86412C207.654 6.56012 207.798 6.15212 207.798 5.64012Z" fill="white"/>
<path d="M196.726 3.25212C196.926 2.94012 197.202 2.68812 197.554 2.49611C197.906 2.30411 198.318 2.20811 198.79 2.20811C199.342 2.20811 199.842 2.34812 200.29 2.62812C200.738 2.90812 201.09 3.30812 201.346 3.82812C201.61 4.34812 201.742 4.95212 201.742 5.64012C201.742 6.32812 201.61 6.93612 201.346 7.46412C201.09 7.98412 200.738 8.38812 200.29 8.67612C199.842 8.95612 199.342 9.09612 198.79 9.09612C198.326 9.09612 197.914 9.00012 197.554 8.80812C197.202 8.61611 196.926 8.36812 196.726 8.06412V12.1921H194.674V2.30412H196.726V3.25212ZM199.654 5.64012C199.654 5.12812 199.51 4.72812 199.222 4.44011C198.942 4.14411 198.594 3.99611 198.178 3.99611C197.77 3.99611 197.422 4.14411 197.134 4.44011C196.854 4.73611 196.714 5.14011 196.714 5.65211C196.714 6.16411 196.854 6.56812 197.134 6.86412C197.422 7.16012 197.77 7.30812 198.178 7.30812C198.586 7.30812 198.934 7.16012 199.222 6.86412C199.51 6.56012 199.654 6.15212 199.654 5.64012Z" fill="white"/>
<path d="M191.069 7.51217H187.925L187.421 9.00017H185.273L188.321 0.576172H190.697L193.745 9.00017H191.573L191.069 7.51217ZM190.541 5.92817L189.497 2.84417L188.465 5.92817H190.541Z" fill="white"/>
<path d="M174.73 5.64012C174.73 4.95212 174.858 4.34812 175.114 3.82812C175.378 3.30812 175.734 2.90812 176.182 2.62812C176.63 2.34812 177.13 2.20812 177.682 2.20812C178.122 2.20812 178.522 2.30012 178.882 2.48412C179.25 2.66812 179.538 2.91612 179.746 3.22812V0.120117H181.798V9.00012H179.746V8.04012C179.554 8.36012 179.278 8.61612 178.918 8.80812C178.566 9.00012 178.154 9.09612 177.682 9.09612C177.13 9.09612 176.63 8.95612 176.182 8.67612C175.734 8.38812 175.378 7.98412 175.114 7.46412C174.858 6.93612 174.73 6.32812 174.73 5.64012ZM179.746 5.65212C179.746 5.14012 179.602 4.73612 179.314 4.44012C179.034 4.14412 178.69 3.99612 178.282 3.99612C177.874 3.99612 177.526 4.14412 177.238 4.44012C176.958 4.72812 176.818 5.12812 176.818 5.64012C176.818 6.15212 176.958 6.56012 177.238 6.86412C177.526 7.16012 177.874 7.30812 178.282 7.30812C178.69 7.30812 179.034 7.16012 179.314 6.86412C179.602 6.56812 179.746 6.16412 179.746 5.65212Z" fill="white"/>
<path d="M171.133 2.23212C171.917 2.23212 172.541 2.48812 173.005 3.00012C173.477 3.50412 173.713 4.20012 173.713 5.08812V9.00012H171.673V5.36412C171.673 4.91612 171.557 4.56812 171.325 4.32012C171.093 4.07212 170.781 3.94812 170.389 3.94812C169.997 3.94812 169.685 4.07212 169.453 4.32012C169.221 4.56812 169.105 4.91612 169.105 5.36412V9.00012H167.053V2.30412H169.105V3.19212C169.313 2.89612 169.593 2.66412 169.945 2.49612C170.297 2.32012 170.693 2.23212 171.133 2.23212Z" fill="white"/>
<path d="M165.97 5.54412C165.97 5.73612 165.958 5.93612 165.934 6.14412H161.29C161.322 6.56012 161.454 6.88012 161.686 7.10412C161.926 7.32012 162.218 7.42811 162.562 7.42811C163.074 7.42811 163.43 7.21212 163.63 6.78012H165.814C165.702 7.22012 165.498 7.61612 165.202 7.96812C164.914 8.32012 164.55 8.59611 164.11 8.79611C163.67 8.99611 163.178 9.09612 162.634 9.09612C161.978 9.09612 161.394 8.95612 160.882 8.67612C160.37 8.39612 159.97 7.99612 159.682 7.47612C159.394 6.95612 159.25 6.34811 159.25 5.65211C159.25 4.95611 159.39 4.34812 159.67 3.82812C159.958 3.30812 160.358 2.90812 160.87 2.62812C161.382 2.34812 161.97 2.20811 162.634 2.20811C163.282 2.20811 163.858 2.34412 164.362 2.61612C164.866 2.88812 165.258 3.27612 165.538 3.78012C165.826 4.28412 165.97 4.87212 165.97 5.54412ZM163.87 5.00412C163.87 4.65212 163.75 4.37212 163.51 4.16411C163.27 3.95612 162.97 3.85211 162.61 3.85211C162.266 3.85211 161.974 3.95211 161.734 4.15211C161.502 4.35211 161.358 4.63612 161.302 5.00412H163.87Z" fill="white"/>
<path d="M158.515 7.26012V9.00012H157.471C156.727 9.00012 156.147 8.82012 155.731 8.46012C155.315 8.09212 155.107 7.49612 155.107 6.67212V4.00812H154.291V2.30412H155.107V0.672119H157.159V2.30412H158.503V4.00812H157.159V6.69612C157.159 6.89612 157.207 7.04012 157.303 7.12812C157.399 7.21612 157.559 7.26012 157.783 7.26012H158.515Z" fill="white"/>
<path d="M150.777 2.23212C151.561 2.23212 152.185 2.48812 152.649 3.00012C153.121 3.50412 153.357 4.20012 153.357 5.08812V9.00012H151.317V5.36412C151.317 4.91612 151.201 4.56812 150.969 4.32012C150.737 4.07212 150.425 3.94812 150.033 3.94812C149.641 3.94812 149.329 4.07212 149.097 4.32012C148.865 4.56812 148.749 4.91612 148.749 5.36412V9.00012H146.697V2.30412H148.749V3.19212C148.957 2.89612 149.237 2.66412 149.589 2.49612C149.941 2.32012 150.337 2.23212 150.777 2.23212Z" fill="white"/>
<path d="M142.104 9.09612C141.448 9.09612 140.856 8.95612 140.328 8.67612C139.808 8.39612 139.396 7.99612 139.092 7.47612C138.796 6.95612 138.648 6.34811 138.648 5.65211C138.648 4.96411 138.8 4.36012 139.104 3.84012C139.408 3.31212 139.824 2.90812 140.352 2.62812C140.88 2.34812 141.472 2.20811 142.128 2.20811C142.784 2.20811 143.376 2.34812 143.904 2.62812C144.432 2.90812 144.848 3.31212 145.152 3.84012C145.456 4.36012 145.608 4.96411 145.608 5.65211C145.608 6.34011 145.452 6.94812 145.14 7.47612C144.836 7.99612 144.416 8.39612 143.88 8.67612C143.352 8.95612 142.76 9.09612 142.104 9.09612ZM142.104 7.32012C142.496 7.32012 142.828 7.17612 143.1 6.88811C143.38 6.60011 143.52 6.18811 143.52 5.65211C143.52 5.11611 143.384 4.70411 143.112 4.41611C142.848 4.12811 142.52 3.98412 142.128 3.98412C141.728 3.98412 141.396 4.12811 141.132 4.41611C140.868 4.69612 140.736 5.10811 140.736 5.65211C140.736 6.18811 140.864 6.60011 141.12 6.88811C141.384 7.17612 141.712 7.32012 142.104 7.32012Z" fill="white"/>
<path d="M135.976 3.42012C136.216 3.05212 136.516 2.76412 136.876 2.55612C137.236 2.34012 137.636 2.23212 138.076 2.23212V4.40412H137.512C137 4.40412 136.616 4.51612 136.36 4.74012C136.104 4.95612 135.976 5.34012 135.976 5.89212V9.00012H133.924V2.30412H135.976V3.42012Z" fill="white"/>
<path d="M132.845 0.576118V2.22012H129.413V3.99612H131.981V5.59212H129.413V9.00012H127.361V0.576118H132.845Z" fill="white"/>
<path fill-rule="evenodd" clip-rule="evenodd" d="M169.285 79.0001C169.285 80.4729 168.091 81.6668 166.618 81.6668C165.145 81.6668 163.951 80.4729 163.951 79.0001C163.951 77.6983 164.884 76.6143 166.118 76.3802L166.118 7.00011L167.118 7.00011L167.118 76.3802C168.352 76.6143 169.285 77.6983 169.285 79.0001Z" fill="url(#paint5_linear_2657_1934)"/>
<g filter="url(#filter7_d_2657_1934)">
<path d="M36.1368 427.938L42.0135 399.883C42.9798 395.27 47.0362 391.957 51.7494 391.933L92.1759 391.724C98.5383 391.692 103.313 397.53 102.018 403.76L96.1242 432.109C95.1581 436.756 91.0586 440.084 86.3123 440.074L45.9032 439.988C39.5643 439.975 34.8373 434.142 36.1368 427.938Z" fill="#4C5CE5"/>
</g>
<path d="M82.5895 411.696V420H81.4975V413.808L78.7375 420H77.9695L75.1975 413.796V420H74.1055V411.696H75.2815L78.3535 418.56L81.4255 411.696H82.5895Z" fill="white"/>
<path d="M71.2087 420L69.2167 416.58H67.8967V420H66.8047V411.636H69.5047C70.1367 411.636 70.6687 411.744 71.1007 411.96C71.5407 412.176 71.8687 412.468 72.0847 412.836C72.3007 413.204 72.4087 413.624 72.4087 414.096C72.4087 414.672 72.2407 415.18 71.9047 415.62C71.5767 416.06 71.0807 416.352 70.4167 416.496L72.5167 420H71.2087ZM67.8967 415.704H69.5047C70.0967 415.704 70.5407 415.56 70.8367 415.272C71.1327 414.976 71.2807 414.584 71.2807 414.096C71.2807 413.6 71.1327 413.216 70.8367 412.944C70.5487 412.672 70.1047 412.536 69.5047 412.536H67.8967V415.704Z" fill="white"/>
<path d="M57.127 415.812C57.127 414.996 57.311 414.264 57.679 413.616C58.047 412.96 58.547 412.448 59.179 412.08C59.819 411.712 60.527 411.528 61.303 411.528C62.215 411.528 63.011 411.748 63.691 412.188C64.371 412.628 64.867 413.252 65.179 414.06H63.871C63.639 413.556 63.303 413.168 62.863 412.896C62.431 412.624 61.911 412.488 61.303 412.488C60.719 412.488 60.195 412.624 59.731 412.896C59.267 413.168 58.903 413.556 58.639 414.06C58.375 414.556 58.243 415.14 58.243 415.812C58.243 416.476 58.375 417.06 58.639 417.564C58.903 418.06 59.267 418.444 59.731 418.716C60.195 418.988 60.719 419.124 61.303 419.124C61.911 419.124 62.431 418.992 62.863 418.728C63.303 418.456 63.639 418.068 63.871 417.564H65.179C64.867 418.364 64.371 418.984 63.691 419.424C63.011 419.856 62.215 420.072 61.303 420.072C60.527 420.072 59.819 419.892 59.179 419.532C58.547 419.164 58.047 418.656 57.679 418.008C57.311 417.36 57.127 416.628 57.127 415.812Z" fill="white"/>
<g filter="url(#filter8_d_2657_1934)">
<path d="M106.171 427.921L112.117 399.87C113.092 395.265 117.147 391.965 121.854 391.943L163.153 391.756C169.523 391.727 174.296 397.581 172.984 403.814L167.021 432.163C166.045 436.801 161.948 440.116 157.209 440.104L115.927 439.995C109.58 439.978 104.855 434.13 106.171 427.921Z" fill="#4C5CE5"/>
</g>
<path d="M157.537 413.626C158.033 413.626 158.481 413.734 158.881 413.95C159.281 414.158 159.593 414.474 159.817 414.898C160.049 415.322 160.165 415.838 160.165 416.446V420.322H159.085V416.602C159.085 415.946 158.921 415.446 158.593 415.102C158.265 414.75 157.817 414.574 157.249 414.574C156.673 414.574 156.213 414.754 155.869 415.114C155.533 415.474 155.365 415.998 155.365 416.686V420.322H154.273V411.442H155.365V414.682C155.581 414.346 155.877 414.086 156.253 413.902C156.637 413.718 157.065 413.626 157.537 413.626Z" fill="white"/>
<path d="M146.576 417.022C146.576 416.342 146.712 415.75 146.984 415.246C147.256 414.734 147.632 414.338 148.112 414.058C148.6 413.778 149.156 413.638 149.78 413.638C150.588 413.638 151.252 413.834 151.772 414.226C152.3 414.618 152.648 415.162 152.816 415.858H151.64C151.528 415.458 151.308 415.142 150.98 414.91C150.66 414.678 150.26 414.562 149.78 414.562C149.156 414.562 148.652 414.778 148.268 415.21C147.884 415.634 147.692 416.238 147.692 417.022C147.692 417.814 147.884 418.426 148.268 418.858C148.652 419.29 149.156 419.506 149.78 419.506C150.26 419.506 150.66 419.394 150.98 419.17C151.3 418.946 151.52 418.626 151.64 418.21H152.816C152.64 418.882 152.288 419.422 151.76 419.83C151.232 420.23 150.572 420.43 149.78 420.43C149.156 420.43 148.6 420.29 148.112 420.01C147.632 419.73 147.256 419.334 146.984 418.822C146.712 418.31 146.576 417.71 146.576 417.022Z" fill="white"/>
<path d="M143.6 414.814C143.792 414.438 144.064 414.146 144.416 413.938C144.776 413.73 145.212 413.626 145.724 413.626V414.754H145.436C144.212 414.754 143.6 415.418 143.6 416.746V420.322H142.508V413.746H143.6V414.814Z" fill="white"/>
<path d="M133.99 417.01C133.99 416.338 134.126 415.75 134.398 415.246C134.67 414.734 135.042 414.338 135.514 414.058C135.994 413.778 136.526 413.638 137.11 413.638C137.686 413.638 138.186 413.762 138.61 414.01C139.034 414.258 139.35 414.57 139.558 414.946V413.746H140.662V420.322H139.558V419.098C139.342 419.482 139.018 419.802 138.586 420.058C138.162 420.306 137.666 420.43 137.098 420.43C136.514 420.43 135.986 420.286 135.514 419.998C135.042 419.71 134.67 419.306 134.398 418.786C134.126 418.266 133.99 417.674 133.99 417.01ZM139.558 417.022C139.558 416.526 139.458 416.094 139.258 415.726C139.058 415.358 138.786 415.078 138.442 414.886C138.106 414.686 137.734 414.586 137.326 414.586C136.918 414.586 136.546 414.682 136.21 414.874C135.874 415.066 135.606 415.346 135.406 415.714C135.206 416.082 135.106 416.514 135.106 417.01C135.106 417.514 135.206 417.954 135.406 418.33C135.606 418.698 135.874 418.982 136.21 419.182C136.546 419.374 136.918 419.47 137.326 419.47C137.734 419.47 138.106 419.374 138.442 419.182C138.786 418.982 139.058 418.698 139.258 418.33C139.458 417.954 139.558 417.518 139.558 417.022Z" fill="white"/>
<path d="M132.957 416.782C132.957 416.99 132.945 417.21 132.921 417.442H127.665C127.705 418.09 127.925 418.598 128.325 418.966C128.733 419.326 129.225 419.506 129.801 419.506C130.273 419.506 130.665 419.398 130.977 419.182C131.297 418.958 131.521 418.662 131.649 418.294H132.825C132.649 418.926 132.297 419.442 131.769 419.842C131.241 420.234 130.585 420.43 129.801 420.43C129.177 420.43 128.617 420.29 128.121 420.01C127.633 419.73 127.249 419.334 126.969 418.822C126.689 418.302 126.549 417.702 126.549 417.022C126.549 416.342 126.685 415.746 126.957 415.234C127.229 414.722 127.609 414.33 128.097 414.058C128.593 413.778 129.161 413.638 129.801 413.638C130.425 413.638 130.977 413.774 131.457 414.046C131.937 414.318 132.305 414.694 132.561 415.174C132.825 415.646 132.957 416.182 132.957 416.782ZM131.829 416.554C131.829 416.138 131.737 415.782 131.553 415.486C131.369 415.182 131.117 414.954 130.797 414.802C130.485 414.642 130.137 414.562 129.753 414.562C129.201 414.562 128.729 414.738 128.337 415.09C127.953 415.442 127.733 415.93 127.677 416.554H131.829Z" fill="white"/>
<path d="M122.566 420.406C122.014 420.406 121.518 420.31 121.078 420.118C120.646 419.918 120.306 419.646 120.058 419.302C119.81 418.95 119.682 418.546 119.674 418.09H120.838C120.878 418.482 121.038 418.814 121.318 419.086C121.606 419.35 122.022 419.482 122.566 419.482C123.086 419.482 123.494 419.354 123.79 419.098C124.094 418.834 124.246 418.498 124.246 418.09C124.246 417.77 124.158 417.51 123.982 417.31C123.806 417.11 123.586 416.958 123.322 416.854C123.058 416.75 122.702 416.638 122.254 416.518C121.702 416.374 121.258 416.23 120.922 416.086C120.594 415.942 120.31 415.718 120.07 415.414C119.838 415.102 119.722 414.686 119.722 414.166C119.722 413.71 119.838 413.306 120.07 412.954C120.302 412.602 120.626 412.33 121.042 412.138C121.466 411.946 121.95 411.85 122.494 411.85C123.278 411.85 123.918 412.046 124.414 412.438C124.918 412.83 125.202 413.35 125.266 413.998H124.066C124.026 413.678 123.858 413.398 123.562 413.158C123.266 412.91 122.874 412.786 122.386 412.786C121.93 412.786 121.558 412.906 121.27 413.146C120.982 413.378 120.838 413.706 120.838 414.13C120.838 414.434 120.922 414.682 121.09 414.874C121.266 415.066 121.478 415.214 121.726 415.318C121.982 415.414 122.338 415.526 122.794 415.654C123.346 415.806 123.79 415.958 124.126 416.11C124.462 416.254 124.75 416.482 124.99 416.794C125.23 417.098 125.35 417.514 125.35 418.042C125.35 418.45 125.242 418.834 125.026 419.194C124.81 419.554 124.49 419.846 124.066 420.07C123.642 420.294 123.142 420.406 122.566 420.406Z" fill="white"/>
<g filter="url(#filter9_d_2657_1934)">
<path d="M177.184 427.916L182.956 400.806C183.935 396.205 187.989 392.909 192.693 392.888L233.107 392.714C239.48 392.687 244.252 398.547 242.934 404.782L237.145 432.18C236.165 436.815 232.069 440.126 227.332 440.113L186.936 439.998C180.587 439.98 175.861 434.126 177.184 427.916Z" fill="#21D99A"/>
</g>
<path d="M219.81 420.18C219.258 420.18 218.762 420.084 218.322 419.892C217.89 419.692 217.55 419.42 217.302 419.076C217.054 418.724 216.926 418.32 216.918 417.864H218.082C218.122 418.256 218.282 418.588 218.562 418.86C218.85 419.124 219.266 419.256 219.81 419.256C220.33 419.256 220.738 419.128 221.034 418.872C221.338 418.608 221.49 418.272 221.49 417.864C221.49 417.544 221.402 417.284 221.226 417.084C221.05 416.884 220.83 416.732 220.566 416.628C220.302 416.524 219.946 416.412 219.498 416.292C218.946 416.148 218.502 416.004 218.166 415.86C217.838 415.716 217.554 415.492 217.314 415.188C217.082 414.876 216.966 414.46 216.966 413.94C216.966 413.484 217.082 413.08 217.314 412.728C217.546 412.376 217.87 412.104 218.286 411.912C218.71 411.72 219.194 411.624 219.738 411.624C220.522 411.624 221.162 411.82 221.658 412.212C222.162 412.604 222.446 413.124 222.51 413.772H221.31C221.27 413.452 221.102 413.172 220.806 412.932C220.51 412.684 220.118 412.56 219.63 412.56C219.174 412.56 218.802 412.68 218.514 412.92C218.226 413.152 218.082 413.48 218.082 413.904C218.082 414.208 218.166 414.456 218.334 414.648C218.51 414.84 218.722 414.988 218.97 415.092C219.226 415.188 219.582 415.3 220.038 415.428C220.59 415.58 221.034 415.732 221.37 415.884C221.706 416.028 221.994 416.256 222.234 416.568C222.474 416.872 222.594 417.288 222.594 417.816C222.594 418.224 222.486 418.608 222.27 418.968C222.054 419.328 221.734 419.62 221.31 419.844C220.886 420.068 220.386 420.18 219.81 420.18Z" fill="#001360"/>
<path d="M215.306 411.792V420.096H214.214V413.904L211.454 420.096H210.686L207.914 413.892V420.096H206.822V411.792H207.998L211.07 418.656L214.142 411.792H215.306Z" fill="#001360"/>
<path d="M197.145 415.908C197.145 415.092 197.329 414.36 197.697 413.712C198.065 413.056 198.565 412.544 199.197 412.176C199.837 411.808 200.545 411.624 201.321 411.624C202.233 411.624 203.029 411.844 203.709 412.284C204.389 412.724 204.885 413.348 205.197 414.156H203.889C203.657 413.652 203.321 413.264 202.881 412.992C202.449 412.72 201.929 412.584 201.321 412.584C200.737 412.584 200.213 412.72 199.749 412.992C199.285 413.264 198.921 413.652 198.657 414.156C198.393 414.652 198.261 415.236 198.261 415.908C198.261 416.572 198.393 417.156 198.657 417.66C198.921 418.156 199.285 418.54 199.749 418.812C200.213 419.084 200.737 419.22 201.321 419.22C201.929 419.22 202.449 419.088 202.881 418.824C203.321 418.552 203.657 418.164 203.889 417.66H205.197C204.885 418.46 204.389 419.08 203.709 419.52C203.029 419.952 202.233 420.168 201.321 420.168C200.545 420.168 199.837 419.988 199.197 419.628C198.565 419.26 198.065 418.752 197.697 418.104C197.329 417.456 197.145 416.724 197.145 415.908Z" fill="#001360"/>
<g filter="url(#filter10_d_2657_1934)">
<path d="M247.218 427.898L253.058 400.792C254.047 396.2 258.099 392.915 262.797 392.898L304.083 392.745C310.463 392.722 315.233 398.598 313.899 404.836L308.041 432.233C307.052 436.858 302.958 440.158 298.228 440.142L256.96 440.004C250.603 439.983 245.879 434.113 247.218 427.898Z" fill="#4C5CE5"/>
</g>
<path d="M290.815 413.252C291.311 413.252 291.759 413.36 292.159 413.576C292.559 413.784 292.871 414.1 293.095 414.524C293.327 414.948 293.443 415.464 293.443 416.072V419.948H292.363V416.228C292.363 415.572 292.199 415.072 291.871 414.728C291.543 414.376 291.095 414.2 290.527 414.2C289.951 414.2 289.491 414.38 289.147 414.74C288.811 415.1 288.643 415.624 288.643 416.312V419.948H287.551V411.068H288.643V414.308C288.859 413.972 289.155 413.712 289.531 413.528C289.915 413.344 290.343 413.252 290.815 413.252Z" fill="white"/>
<path d="M284.51 414.272V418.148C284.51 418.468 284.578 418.696 284.714 418.832C284.85 418.96 285.086 419.024 285.422 419.024H286.226V419.948H285.242C284.634 419.948 284.178 419.808 283.874 419.528C283.57 419.248 283.418 418.788 283.418 418.148V414.272H282.566V413.372H283.418V411.716H284.51V413.372H286.226V414.272H284.51Z" fill="white"/>
<path d="M281.335 413.373V419.949H280.243V418.977C280.035 419.313 279.743 419.577 279.367 419.769C278.999 419.953 278.591 420.045 278.143 420.045C277.631 420.045 277.171 419.941 276.763 419.733C276.355 419.517 276.031 419.197 275.791 418.773C275.559 418.349 275.443 417.833 275.443 417.225V413.373H276.523V417.081C276.523 417.729 276.687 418.229 277.015 418.581C277.343 418.925 277.791 419.097 278.359 419.097C278.943 419.097 279.403 418.917 279.739 418.557C280.075 418.197 280.243 417.673 280.243 416.985V413.373H281.335Z" fill="white"/>
<path d="M272.361 418.088H268.713L268.041 419.948H266.889L269.913 411.632H271.173L274.185 419.948H273.033L272.361 418.088ZM272.049 417.2L270.537 412.976L269.025 417.2H272.049Z" fill="white"/>
<g filter="url(#filter11_d_2657_1934)">
<path d="M318.15 427.933L323.853 400.819C324.823 396.209 328.879 392.901 333.59 392.878L373.131 392.683C379.496 392.652 384.27 398.496 382.969 404.727L377.248 432.126C376.279 436.77 372.18 440.093 367.436 440.082L327.912 439.991C321.571 439.976 316.844 434.138 318.15 427.933Z" fill="#4C5CE5"/>
</g>
<path d="M362.263 412.026C363.063 412.026 363.711 412.27 364.207 412.758C364.703 413.238 364.951 413.934 364.951 414.846V418.722H363.871V415.002C363.871 414.346 363.707 413.846 363.379 413.502C363.051 413.15 362.603 412.974 362.035 412.974C361.459 412.974 360.999 413.154 360.655 413.514C360.319 413.874 360.151 414.398 360.151 415.086V418.722H359.059V412.146H360.151V413.082C360.367 412.746 360.659 412.486 361.027 412.302C361.403 412.118 361.815 412.026 362.263 412.026Z" fill="white"/>
<path d="M353.998 410.359V418.723H352.906V410.359H353.998Z" fill="white"/>
<path d="M351.549 412.807C351.549 413.503 351.309 414.083 350.829 414.547C350.357 415.003 349.633 415.231 348.657 415.231H347.049V418.723H345.957V410.359H348.657C349.601 410.359 350.317 410.587 350.805 411.043C351.301 411.499 351.549 412.087 351.549 412.807ZM348.657 414.331C349.265 414.331 349.713 414.199 350.001 413.935C350.289 413.671 350.433 413.295 350.433 412.807C350.433 411.775 349.841 411.259 348.657 411.259H347.049V414.331H348.657Z" fill="white"/>
<path d="M342.816 416.862H339.168L338.496 418.722H337.344L340.368 410.406H341.628L344.64 418.722H343.488L342.816 416.862ZM342.504 415.974L340.992 411.75L339.48 415.974H342.504Z" fill="white"/>
<path fill-rule="evenodd" clip-rule="evenodd" d="M140.631 459.492H143.617V460.492H140.631V459.492ZM128.687 459.492H134.659V460.492H128.687V459.492ZM116.742 459.492H122.714V460.492H116.742V459.492ZM104.798 459.492H110.77V460.492H104.798V459.492ZM92.8533 459.492H98.8255V460.492H92.8533V459.492ZM80.9089 459.492H86.8811V460.492H80.9089V459.492ZM68.9644 459.492H74.9366V460.492H68.9644V459.492ZM57.02 459.492H62.9922V460.492H57.02V459.492ZM45.0755 459.492H51.0478V460.492H45.0755V459.492ZM36.1172 459.492H39.1033V460.492H36.1172V459.492Z" fill="#2563EB"/>
<path fill-rule="evenodd" clip-rule="evenodd" d="M368.555 459.5H371.617V460.5H368.555V459.5ZM356.305 459.5H362.43V460.5H356.305V459.5ZM344.055 459.5H350.18V460.5H344.055V459.5ZM331.805 459.5H337.93V460.5H331.805V459.5ZM319.555 459.5H325.68V460.5H319.555V459.5ZM307.305 459.5H313.43V460.5H307.305V459.5ZM295.055 459.5H301.18V460.5H295.055V459.5ZM282.805 459.5H288.93V460.5H282.805V459.5ZM273.617 459.5H276.68V460.5H273.617V459.5Z" fill="#2563EB"/>
<path d="M245.338 464.144C244.754 464.144 244.234 464.044 243.778 463.843C243.322 463.643 242.962 463.371 242.698 463.027C242.434 462.675 242.286 462.282 242.254 461.85L244.282 461.852C244.306 462.084 244.414 462.272 244.606 462.416C244.798 462.56 245.034 462.632 245.314 462.632C245.57 462.633 245.766 462.585 245.902 462.489C246.046 462.385 246.118 462.253 246.118 462.093C246.118 461.901 246.018 461.761 245.818 461.673C245.619 461.577 245.295 461.472 244.847 461.36C244.367 461.248 243.967 461.132 243.647 461.011C243.327 460.883 243.051 460.687 242.819 460.423C242.587 460.151 242.471 459.787 242.471 459.331C242.471 458.947 242.575 458.599 242.784 458.287C243 457.967 243.312 457.715 243.72 457.531C244.136 457.348 244.628 457.256 245.196 457.256C246.036 457.257 246.696 457.465 247.176 457.882C247.664 458.298 247.943 458.85 248.015 459.538L246.119 459.537C246.087 459.305 245.983 459.121 245.807 458.985C245.639 458.849 245.415 458.78 245.135 458.78C244.895 458.78 244.711 458.828 244.583 458.924C244.455 459.012 244.391 459.136 244.391 459.296C244.391 459.488 244.491 459.632 244.691 459.728C244.899 459.824 245.219 459.92 245.651 460.017C246.147 460.145 246.551 460.273 246.863 460.401C247.175 460.522 247.447 460.722 247.679 461.002C247.919 461.274 248.042 461.642 248.05 462.106C248.05 462.498 247.938 462.85 247.714 463.162C247.498 463.466 247.182 463.706 246.766 463.881C246.358 464.057 245.882 464.145 245.338 464.144Z" fill="white"/>
<path d="M238.609 457.276C239.393 457.277 240.017 457.533 240.481 458.045C240.953 458.55 241.189 459.246 241.188 460.134L241.187 464.046L239.147 464.044L239.148 460.408C239.148 459.96 239.033 459.612 238.801 459.364C238.569 459.116 238.257 458.992 237.865 458.992C237.473 458.991 237.161 459.115 236.929 459.363C236.697 459.611 236.58 459.959 236.58 460.407L236.579 464.043L234.527 464.041L234.529 457.345L236.581 457.347L236.581 458.235C236.789 457.939 237.069 457.707 237.421 457.539C237.773 457.364 238.169 457.276 238.609 457.276Z" fill="white"/>
<path d="M229.934 464.134C229.278 464.134 228.686 463.994 228.158 463.713C227.639 463.433 227.227 463.033 226.923 462.512C226.627 461.992 226.479 461.384 226.479 460.688C226.48 460 226.632 459.396 226.936 458.876C227.24 458.349 227.656 457.945 228.184 457.665C228.712 457.386 229.304 457.246 229.96 457.246C230.616 457.247 231.208 457.387 231.736 457.668C232.264 457.948 232.68 458.352 232.984 458.88C233.288 459.401 233.44 460.005 233.439 460.693C233.439 461.381 233.283 461.989 232.971 462.516C232.667 463.036 232.247 463.436 231.71 463.716C231.182 463.995 230.59 464.135 229.934 464.134ZM229.935 462.358C230.327 462.359 230.659 462.215 230.931 461.927C231.211 461.639 231.351 461.227 231.351 460.691C231.352 460.155 231.216 459.743 230.944 459.455C230.68 459.167 230.352 459.023 229.96 459.022C229.56 459.022 229.228 459.166 228.964 459.454C228.7 459.734 228.568 460.146 228.567 460.69C228.567 461.226 228.695 461.638 228.951 461.926C229.215 462.214 229.543 462.358 229.935 462.358Z" fill="white"/>
<path d="M224.382 456.643C224.022 456.642 223.726 456.538 223.494 456.33C223.27 456.114 223.158 455.85 223.158 455.538C223.158 455.218 223.27 454.954 223.494 454.746C223.726 454.53 224.022 454.422 224.382 454.423C224.734 454.423 225.022 454.531 225.246 454.747C225.478 454.955 225.594 455.219 225.594 455.539C225.594 455.851 225.478 456.115 225.246 456.331C225.022 456.539 224.734 456.643 224.382 456.643ZM225.401 457.339L225.399 464.035L223.347 464.034L223.349 457.338L225.401 457.339Z" fill="white"/>
<path d="M222.206 462.293L222.206 464.033L221.162 464.033C220.418 464.032 219.838 463.852 219.422 463.492C219.006 463.123 218.798 462.527 218.799 461.703L218.799 459.039L217.983 459.039L217.984 457.335L218.8 457.335L218.8 455.703L220.852 455.705L220.852 457.337L222.196 457.337L222.195 459.041L220.851 459.041L220.851 461.729C220.85 461.929 220.898 462.073 220.994 462.161C221.09 462.249 221.25 462.293 221.474 462.293L222.206 462.293Z" fill="white"/>
<path d="M209.921 460.665C209.921 459.977 210.049 459.373 210.305 458.854C210.57 458.334 210.926 457.934 211.374 457.654C211.822 457.375 212.322 457.235 212.874 457.235C213.346 457.236 213.758 457.332 214.11 457.524C214.47 457.716 214.746 457.969 214.938 458.281L214.938 457.333L216.99 457.334L216.988 464.03L214.936 464.029L214.936 463.081C214.736 463.393 214.456 463.644 214.096 463.836C213.744 464.028 213.332 464.124 212.86 464.123C212.316 464.123 211.82 463.983 211.372 463.702C210.924 463.414 210.568 463.01 210.304 462.49C210.048 461.961 209.921 461.353 209.921 460.665ZM214.937 460.681C214.937 460.169 214.793 459.765 214.505 459.468C214.225 459.172 213.881 459.024 213.473 459.024C213.065 459.023 212.717 459.171 212.429 459.467C212.149 459.755 212.009 460.155 212.009 460.667C212.009 461.179 212.149 461.587 212.428 461.891C212.716 462.187 213.064 462.335 213.472 462.336C213.88 462.336 214.224 462.188 214.504 461.892C214.793 461.597 214.937 461.193 214.937 460.681Z" fill="white"/>
<path d="M207.249 458.443C207.489 458.075 207.789 457.788 208.149 457.58C208.509 457.364 208.909 457.256 209.349 457.257L209.349 459.429L208.785 459.428C208.273 459.428 207.889 459.54 207.632 459.764C207.376 459.979 207.248 460.363 207.248 460.915L207.247 464.023L205.195 464.022L205.197 457.326L207.249 457.327L207.249 458.443Z" fill="white"/>
<path d="M199.597 457.227C200.069 457.227 200.481 457.323 200.832 457.515C201.192 457.708 201.468 457.96 201.66 458.272L201.66 457.324L203.713 457.325L203.71 464.009C203.71 464.625 203.586 465.181 203.338 465.677C203.098 466.181 202.726 466.581 202.222 466.876C201.725 467.172 201.105 467.32 200.361 467.319C199.369 467.318 198.565 467.082 197.95 466.609C197.334 466.145 196.982 465.513 196.894 464.713L198.922 464.714C198.986 464.97 199.138 465.17 199.378 465.314C199.618 465.467 199.914 465.543 200.266 465.543C200.69 465.543 201.026 465.419 201.274 465.172C201.53 464.932 201.658 464.544 201.658 464.008L201.659 463.06C201.459 463.372 201.183 463.628 200.83 463.827C200.478 464.019 200.066 464.115 199.594 464.115C199.042 464.114 198.542 463.974 198.095 463.694C197.647 463.405 197.291 463.001 197.027 462.481C196.771 461.953 196.643 461.345 196.643 460.657C196.644 459.969 196.772 459.365 197.028 458.845C197.292 458.325 197.648 457.925 198.096 457.646C198.544 457.366 199.045 457.226 199.597 457.227ZM201.659 460.672C201.66 460.16 201.516 459.756 201.228 459.46C200.948 459.163 200.604 459.015 200.196 459.015C199.788 459.015 199.44 459.162 199.152 459.458C198.872 459.746 198.732 460.146 198.731 460.658C198.731 461.17 198.871 461.578 199.151 461.882C199.439 462.178 199.787 462.327 200.195 462.327C200.603 462.327 200.947 462.179 201.227 461.884C201.515 461.588 201.659 461.184 201.659 460.672Z" fill="white"/>
<path d="M195.969 460.56C195.969 460.752 195.957 460.952 195.933 461.16L191.289 461.157C191.321 461.573 191.453 461.893 191.684 462.117C191.924 462.333 192.216 462.442 192.56 462.442C193.072 462.442 193.428 462.226 193.629 461.795L195.813 461.796C195.7 462.236 195.496 462.632 195.2 462.984C194.912 463.335 194.548 463.611 194.108 463.811C193.668 464.011 193.176 464.11 192.632 464.11C191.976 464.11 191.392 463.969 190.88 463.689C190.368 463.408 189.968 463.008 189.68 462.488C189.393 461.968 189.249 461.36 189.249 460.664C189.249 459.968 189.389 459.36 189.669 458.84C189.958 458.32 190.358 457.92 190.87 457.641C191.382 457.361 191.97 457.222 192.634 457.222C193.282 457.222 193.858 457.359 194.362 457.631C194.866 457.903 195.258 458.292 195.538 458.796C195.825 459.3 195.969 459.888 195.969 460.56ZM193.869 460.019C193.869 459.667 193.749 459.387 193.509 459.179C193.269 458.97 192.969 458.866 192.609 458.866C192.265 458.866 191.973 458.966 191.733 459.165C191.501 459.365 191.357 459.649 191.301 460.017L193.869 460.019Z" fill="white"/>
<path d="M188.515 462.271L188.514 464.011L187.47 464.011C186.726 464.01 186.146 463.83 185.731 463.47C185.315 463.101 185.107 462.505 185.107 461.681L185.108 459.017L184.292 459.017L184.292 457.313L185.108 457.313L185.109 455.681L187.161 455.683L187.16 457.315L188.504 457.315L188.504 459.019L187.16 459.019L187.159 461.707C187.159 461.907 187.207 462.051 187.303 462.139C187.399 462.227 187.559 462.271 187.783 462.271L188.515 462.271Z" fill="white"/>
<path d="M180.777 457.238C181.561 457.239 182.185 457.495 182.649 458.007C183.121 458.512 183.357 459.208 183.356 460.096L183.355 464.008L181.315 464.006L181.316 460.37C181.316 459.922 181.201 459.574 180.969 459.326C180.737 459.078 180.425 458.954 180.033 458.954C179.641 458.953 179.329 459.077 179.097 459.325C178.865 459.573 178.748 459.921 178.748 460.369L178.747 464.005L176.695 464.003L176.697 457.307L178.749 457.309L178.749 458.197C178.957 457.901 179.237 457.669 179.589 457.501C179.941 457.325 180.337 457.238 180.777 457.238Z" fill="white"/>
<path d="M175.212 455.578L175.21 464.002L173.158 464.001L173.16 455.577L175.212 455.578Z" fill="white"/>
</g>
<defs>
<filter id="filter0_d_2657_1934" x="44.2774" y="171.382" width="390.625" height="214.532" filterUnits="userSpaceOnUse" color-interpolation-filters="sRGB">
<feFlood flood-opacity="0" result="BackgroundImageFix"/>
<feColorMatrix in="SourceAlpha" type="matrix" values="0 0 0 0 0 0 0 0 0 0 0 0 0 0 0 0 0 0 127 0" result="hardAlpha"/>
<feOffset dy="2"/>
<feGaussianBlur stdDeviation="4.3"/>
<feComposite in2="hardAlpha" operator="out"/>
<feColorMatrix type="matrix" values="0 0 0 0 0 0 0 0 0 0 0 0 0 0 0 0 0 0 0.15 0"/>
<feBlend mode="normal" in2="BackgroundImageFix" result="effect1_dropShadow_2657_1934"/>
<feBlend mode="normal" in="SourceGraphic" in2="effect1_dropShadow_2657_1934" result="shape"/>
</filter>
<filter id="filter1_d_2657_1934" x="43.2779" y="170.382" width="392.625" height="216.532" filterUnits="userSpaceOnUse" color-interpolation-filters="sRGB">
<feFlood flood-opacity="0" result="BackgroundImageFix"/>
<feColorMatrix in="SourceAlpha" type="matrix" values="0 0 0 0 0 0 0 0 0 0 0 0 0 0 0 0 0 0 127 0" result="hardAlpha"/>
<feOffset dy="2"/>
<feGaussianBlur stdDeviation="4.3"/>
<feComposite in2="hardAlpha" operator="out"/>
<feColorMatrix type="matrix" values="0 0 0 0 0 0 0 0 0 0 0 0 0 0 0 0 0 0 0.15 0"/>
<feBlend mode="normal" in2="BackgroundImageFix" result="effect1_dropShadow_2657_1934"/>
<feBlend mode="normal" in="SourceGraphic" in2="effect1_dropShadow_2657_1934" result="shape"/>
</filter>
<filter id="filter2_i_2657_1934" x="307.249" y="199.54" width="89.0254" height="65.5391" filterUnits="userSpaceOnUse" color-interpolation-filters="sRGB">
<feFlood flood-opacity="0" result="BackgroundImageFix"/>
<feBlend mode="normal" in="SourceGraphic" in2="BackgroundImageFix" result="shape"/>
<feColorMatrix in="SourceAlpha" type="matrix" values="0 0 0 0 0 0 0 0 0 0 0 0 0 0 0 0 0 0 127 0" result="hardAlpha"/>
<feOffset dx="1" dy="2"/>
<feGaussianBlur stdDeviation="2.75"/>
<feComposite in2="hardAlpha" operator="arithmetic" k2="-1" k3="1"/>
<feColorMatrix type="matrix" values="0 0 0 0 0.000115271 0 0 0 0 0.0234534 0 0 0 0 0.226632 0 0 0 0.58 0"/>
<feBlend mode="normal" in2="shape" result="effect1_innerShadow_2657_1934"/>
</filter>
<filter id="filter3_i_2657_1934" x="84.4463" y="282.301" width="88.8296" height="63.6347" filterUnits="userSpaceOnUse" color-interpolation-filters="sRGB">
<feFlood flood-opacity="0" result="BackgroundImageFix"/>
<feBlend mode="normal" in="SourceGraphic" in2="BackgroundImageFix" result="shape"/>
<feColorMatrix in="SourceAlpha" type="matrix" values="0 0 0 0 0 0 0 0 0 0 0 0 0 0 0 0 0 0 127 0" result="hardAlpha"/>
<feOffset dx="1" dy="2"/>
<feGaussianBlur stdDeviation="2.75"/>
<feComposite in2="hardAlpha" operator="arithmetic" k2="-1" k3="1"/>
<feColorMatrix type="matrix" values="0 0 0 0 0.000115271 0 0 0 0 0.0234534 0 0 0 0 0.226632 0 0 0 0.58 0"/>
<feBlend mode="normal" in2="shape" result="effect1_innerShadow_2657_1934"/>
</filter>
<filter id="filter4_i_2657_1934" x="186.426" y="282.585" width="89.7651" height="63.6327" filterUnits="userSpaceOnUse" color-interpolation-filters="sRGB">
<feFlood flood-opacity="0" result="BackgroundImageFix"/>
<feBlend mode="normal" in="SourceGraphic" in2="BackgroundImageFix" result="shape"/>
<feColorMatrix in="SourceAlpha" type="matrix" values="0 0 0 0 0 0 0 0 0 0 0 0 0 0 0 0 0 0 127 0" result="hardAlpha"/>
<feOffset dx="1" dy="2"/>
<feGaussianBlur stdDeviation="2.75"/>
<feComposite in2="hardAlpha" operator="arithmetic" k2="-1" k3="1"/>
<feColorMatrix type="matrix" values="0 0 0 0 0.000115271 0 0 0 0 0.0234534 0 0 0 0 0.226632 0 0 0 0.58 0"/>
<feBlend mode="normal" in2="shape" result="effect1_innerShadow_2657_1934"/>
</filter>
<filter id="filter5_i_2657_1934" x="290.272" y="281.857" width="87.9927" height="64.5888" filterUnits="userSpaceOnUse" color-interpolation-filters="sRGB">
<feFlood flood-opacity="0" result="BackgroundImageFix"/>
<feBlend mode="normal" in="SourceGraphic" in2="BackgroundImageFix" result="shape"/>
<feColorMatrix in="SourceAlpha" type="matrix" values="0 0 0 0 0 0 0 0 0 0 0 0 0 0 0 0 0 0 127 0" result="hardAlpha"/>
<feOffset dx="1" dy="2"/>
<feGaussianBlur stdDeviation="2.75"/>
<feComposite in2="hardAlpha" operator="arithmetic" k2="-1" k3="1"/>
<feColorMatrix type="matrix" values="0 0 0 0 0.000115271 0 0 0 0 0.0234534 0 0 0 0 0.226632 0 0 0 0.58 0"/>
<feBlend mode="normal" in2="shape" result="effect1_innerShadow_2657_1934"/>
</filter>
<filter id="filter6_d_2657_1934" x="159.365" y="84.0996" width="221.716" height="188.592" filterUnits="userSpaceOnUse" color-interpolation-filters="sRGB">
<feFlood flood-opacity="0" result="BackgroundImageFix"/>
<feColorMatrix in="SourceAlpha" type="matrix" values="0 0 0 0 0 0 0 0 0 0 0 0 0 0 0 0 0 0 127 0" result="hardAlpha"/>
<feOffset dy="1"/>
<feGaussianBlur stdDeviation="4.3"/>
<feComposite in2="hardAlpha" operator="out"/>
<feColorMatrix type="matrix" values="0 0 0 0 0.011609 0 0 0 0 0.0979129 0 0 0 0 0.287225 0 0 0 0.37 0"/>
<feBlend mode="normal" in2="BackgroundImageFix" result="effect1_dropShadow_2657_1934"/>
<feBlend mode="normal" in="SourceGraphic" in2="effect1_dropShadow_2657_1934" result="shape"/>
</filter>
<filter id="filter7_d_2657_1934" x="29.7209" y="385.524" width="86.7101" height="68.7494" filterUnits="userSpaceOnUse" color-interpolation-filters="sRGB">
<feFlood flood-opacity="0" result="BackgroundImageFix"/>
<feColorMatrix in="SourceAlpha" type="matrix" values="0 0 0 0 0 0 0 0 0 0 0 0 0 0 0 0 0 0 127 0" result="hardAlpha"/>
<feOffset dx="4" dy="4"/>
<feGaussianBlur stdDeviation="5.1"/>
<feComposite in2="hardAlpha" operator="out"/>
<feColorMatrix type="matrix" values="0 0 0 0 0 0 0 0 0 0 0 0 0 0 0 0 0 0 0.12 0"/>
<feBlend mode="normal" in2="BackgroundImageFix" result="effect1_dropShadow_2657_1934"/>
<feBlend mode="normal" in="SourceGraphic" in2="effect1_dropShadow_2657_1934" result="shape"/>
</filter>
<filter id="filter8_d_2657_1934" x="99.7497" y="385.556" width="87.6529" height="68.7483" filterUnits="userSpaceOnUse" color-interpolation-filters="sRGB">
<feFlood flood-opacity="0" result="BackgroundImageFix"/>
<feColorMatrix in="SourceAlpha" type="matrix" values="0 0 0 0 0 0 0 0 0 0 0 0 0 0 0 0 0 0 127 0" result="hardAlpha"/>
<feOffset dx="4" dy="4"/>
<feGaussianBlur stdDeviation="5.1"/>
<feComposite in2="hardAlpha" operator="out"/>
<feColorMatrix type="matrix" values="0 0 0 0 0 0 0 0 0 0 0 0 0 0 0 0 0 0 0.12 0"/>
<feBlend mode="normal" in2="BackgroundImageFix" result="effect1_dropShadow_2657_1934"/>
<feBlend mode="normal" in="SourceGraphic" in2="effect1_dropShadow_2657_1934" result="shape"/>
</filter>
<filter id="filter9_d_2657_1934" x="170.76" y="386.514" width="86.5934" height="67.7983" filterUnits="userSpaceOnUse" color-interpolation-filters="sRGB">
<feFlood flood-opacity="0" result="BackgroundImageFix"/>
<feColorMatrix in="SourceAlpha" type="matrix" values="0 0 0 0 0 0 0 0 0 0 0 0 0 0 0 0 0 0 127 0" result="hardAlpha"/>
<feOffset dx="4" dy="4"/>
<feGaussianBlur stdDeviation="5.1"/>
<feComposite in2="hardAlpha" operator="out"/>
<feColorMatrix type="matrix" values="0 0 0 0 0 0 0 0 0 0 0 0 0 0 0 0 0 0 0.12 0"/>
<feBlend mode="normal" in2="BackgroundImageFix" result="effect1_dropShadow_2657_1934"/>
<feBlend mode="normal" in="SourceGraphic" in2="effect1_dropShadow_2657_1934" result="shape"/>
</filter>
<filter id="filter10_d_2657_1934" x="240.79" y="386.545" width="87.5343" height="67.7972" filterUnits="userSpaceOnUse" color-interpolation-filters="sRGB">
<feFlood flood-opacity="0" result="BackgroundImageFix"/>
<feColorMatrix in="SourceAlpha" type="matrix" values="0 0 0 0 0 0 0 0 0 0 0 0 0 0 0 0 0 0 127 0" result="hardAlpha"/>
<feOffset dx="4" dy="4"/>
<feGaussianBlur stdDeviation="5.1"/>
<feComposite in2="hardAlpha" operator="out"/>
<feColorMatrix type="matrix" values="0 0 0 0 0 0 0 0 0 0 0 0 0 0 0 0 0 0 0.12 0"/>
<feBlend mode="normal" in2="BackgroundImageFix" result="effect1_dropShadow_2657_1934"/>
<feBlend mode="normal" in="SourceGraphic" in2="effect1_dropShadow_2657_1934" result="shape"/>
</filter>
<filter id="filter11_d_2657_1934" x="311.732" y="386.483" width="85.6524" height="67.7994" filterUnits="userSpaceOnUse" color-interpolation-filters="sRGB">
<feFlood flood-opacity="0" result="BackgroundImageFix"/>
<feColorMatrix in="SourceAlpha" type="matrix" values="0 0 0 0 0 0 0 0 0 0 0 0 0 0 0 0 0 0 127 0" result="hardAlpha"/>
<feOffset dx="4" dy="4"/>
<feGaussianBlur stdDeviation="5.1"/>
<feComposite in2="hardAlpha" operator="out"/>
<feColorMatrix type="matrix" values="0 0 0 0 0 0 0 0 0 0 0 0 0 0 0 0 0 0 0.12 0"/>
<feBlend mode="normal" in2="BackgroundImageFix" result="effect1_dropShadow_2657_1934"/>
<feBlend mode="normal" in="SourceGraphic" in2="effect1_dropShadow_2657_1934" result="shape"/>
</filter>
<radialGradient id="paint0_radial_2657_1934" cx="0" cy="0" r="1" gradientUnits="userSpaceOnUse" gradientTransform="translate(213 297.5) rotate(90) scale(170.5 217)">
<stop offset="0.38" stop-color="#4C5CE5"/>
<stop offset="1" stop-color="#1A3888" stop-opacity="0"/>
</radialGradient>
<radialGradient id="paint1_radial_2657_1934" cx="0" cy="0" r="1" gradientUnits="userSpaceOnUse" gradientTransform="translate(215 184) rotate(90) scale(184 215)">
<stop offset="0.21" stop-color="#4C5CE5"/>
<stop offset="0.61" stop-color="#4355D3" stop-opacity="0.810127"/>
<stop offset="0.825" stop-color="#354BBA" stop-opacity="0.540084"/>
<stop offset="1" stop-color="#1A3888" stop-opacity="0"/>
</radialGradient>
<linearGradient id="paint2_linear_2657_1934" x1="383.778" y1="361.98" x2="352.356" y2="184.393" gradientUnits="userSpaceOnUse">
<stop stop-color="#001A85"/>
<stop offset="0.964334" stop-color="#16182B"/>
</linearGradient>
<linearGradient id="paint3_linear_2657_1934" x1="81.8959" y1="150.001" x2="454.843" y2="232.976" gradientUnits="userSpaceOnUse">
<stop stop-color="#4C5CE5"/>
<stop offset="0.346406" stop-color="#2563EB"/>
<stop offset="1" stop-color="#34D399"/>
</linearGradient>
<linearGradient id="paint4_linear_2657_1934" x1="389.618" y1="189" x2="389.618" y2="33.0001" gradientUnits="userSpaceOnUse">
<stop offset="0.32" stop-color="#2DD4BF"/>
<stop offset="1" stop-color="#001A85" stop-opacity="0"/>
</linearGradient>
<linearGradient id="paint5_linear_2657_1934" x1="166.618" y1="79.0001" x2="166.618" y2="7.00012" gradientUnits="userSpaceOnUse">
<stop offset="0.32" stop-color="#2DD4BF"/>
<stop offset="1" stop-color="#001A85" stop-opacity="0"/>
</linearGradient>
<clipPath id="clip0_2657_1934">
<rect width="430" height="468" fill="white"/>
</clipPath>
</defs>
</svg>
